<?xml version="1.0" encoding="utf-8"?>
<!-- Generator: Adobe Illustrator 25.3.1, SVG Export Plug-In . SVG Version: 6.00 Build 0)  -->
<svg version="1.1" id="Layer_2" xmlns="http://www.w3.org/2000/svg" xmlns:xlink="http://www.w3.org/1999/xlink" x="0px" y="0px"
	 viewBox="0 0 200 100" style="enable-background:new 0 0 200 100;" xml:space="preserve">
<style type="text/css">
	.st0{fill:#DADADA;}
</style>
<g>
	<path class="st0" d="M165.5,31.9h-1.2l-8.7,17l-8.8-17h-1.3L143,50.5c-0.3,1.9-0.6,2.7-1,3.5h2.4c-0.2-0.7-0.1-2,0.1-3.6l1.5-11.4
		l7.8,15.1h0.9l7.8-15.1l1.5,11.2c0.2,1.3,0.2,2.8,0,3.9h4.9c-0.5-1.1-0.7-1.6-1-3.5L165.5,31.9z"/>
	<path class="st0" d="M54.3,31.6c-7.1,0-12.7,5-12.7,11.5c0,6.5,5.6,11.5,12.7,11.5c7.1,0,12.7-5,12.7-11.5
		C67,36.6,61.5,31.6,54.3,31.6z M54.7,52.8c-4.9,0-8.8-4.2-9-9.8c-0.2-5.6,3-9.8,8.3-9.8c4.9,0,8.8,4.2,9.1,9.8
		C63.2,48.6,59.6,52.8,54.7,52.8z"/>
	<path class="st0" d="M187.5,54h5c-0.9-0.8-1.8-2.1-2.4-3.6l-7.9-18.5h-1l-8,19c-0.6,1.4-1.2,2.3-1.9,3.1h2.3l3.1-7.4h7.7L187.5,54z
		 M177.3,45.1l3.3-7.8l3.2,7.8H177.3z"/>
	<path class="st0" d="M20,41.1c1.6-0.8,3.1-2.1,3.1-4c0-2.2-1-3.6-3-4.4c-1.2-0.5-3.2-0.7-5.2-0.7c-3.7,0-6.6,0-6.6,0
		c0.4,0.6,0.6,1.6,0.6,2.9c0,2.5,0,13.8,0,16.2c0,1.6-0.2,2.4-0.6,3c0,0,1.2,0,7.1,0c2.2,0,4.8-0.4,6-1c2-1,3.3-2.8,3.3-5.5
		C24.7,43.7,21.9,42,20,41.1z M12.7,33.4c0.3,0,0.9,0,1.6,0c0.6,0,1.6,0.1,2.1,0.2c1.7,0.4,2.9,1.6,2.9,3.5c0,1.8-1.2,2.9-2.7,3.1
		c-0.4,0.1-1.4,0.1-1.7,0.1c-0.8,0-1.6,0-2.2,0V33.4z M17.1,52.4c-0.4,0.1-1.5,0.2-1.9,0.2c-0.3,0-2.2,0-2.6,0V41.9c0.3,0,1.6,0,2,0
		c0.4,0,1.5,0.1,2.1,0.2c2.6,0.6,4.1,2.3,4.1,5.5C20.8,50,19.6,51.9,17.1,52.4z"/>
	<path class="st0" d="M104.4,52.5l0-10.6h7.9l0.5-1.5h-8.4l0-6.9c0,0,5.6,0,6.1,0c1.3,0,2.5,0.1,3.8,0.9l-1.1-2.4h-13.2
		c0.4,0.6,0.6,1.6,0.6,2.9c0,2.5,0,13.8,0,16.2c0,1.6-0.2,2.4-0.6,3h14.4l1.1-2.4c-1.4,0.7-2.7,0.9-4.2,0.9
		C110.8,52.5,104.4,52.5,104.4,52.5z"/>
	<path class="st0" d="M85.7,32.4c-1.2-0.3-3.3-0.4-4-0.4c-0.5,0-8.9,0-8.9,0c0.4,0.6,0.6,1.6,0.6,2.9c0,2.5,0,13.8,0,16.2
		c0,1.6-0.2,2.4-0.6,3c0,0,7.5,0,8.4,0c0.9,0,2.7-0.1,3.8-0.3c6.3-0.9,9.9-5,9.9-10.6C94.8,37.7,91,33.7,85.7,32.4z M83.4,52.4
		c-0.6,0.1-2,0.1-2.7,0.1c-1.8,0-3,0-3.7-0.1V33.6c0.7,0,2.2-0.1,3.1-0.1c1.1,0,3.3,0.2,4.5,0.6c3.6,1.3,6.1,4.5,6.1,9
		C90.6,48.1,88.4,51.7,83.4,52.4z"/>
	<path class="st0" d="M36,32h-4.9c0.4,0.6,0.6,1.6,0.6,2.9c0,2.5,0,13.8,0,16.2c0,1.6-0.2,2.4-0.6,3H36c-0.4-0.6-0.6-1.6-0.6-2.9
		c0-2.5,0-13.8,0-16.2C35.4,33.3,35.6,32.6,36,32z"/>
	<path class="st0" d="M129.5,43.7c2.9-0.3,6.5-1.9,6.5-5.6c0-3.6-2.4-5.1-5-5.7c-2-0.5-4.4-0.4-5.9-0.4c-0.4,0-4.6,0-4.6,0
		c0.4,0.6,0.6,1.6,0.6,2.9c0,2.5,0,13.8,0,16.2c0,1.6-0.2,2.4-0.6,3h5c-0.5-0.9-0.6-1.9-0.6-3V33.4c0.6,0,2.3-0.1,3.6,0.2
		c2.9,0.6,3.7,2.5,3.7,4.5c0,2.5-1.6,5.4-6.1,4.4l-0.5,0.3c3.8,5.8,7.1,9.3,9.5,11.2h5.6C136.8,51.4,132.6,47.7,129.5,43.7z"/>
	<path class="st0" d="M9.5,66.3l2.5,0V67l-3.6,0l0-6h1.1L9.5,66.3z"/>
	<path class="st0" d="M14.7,67h-1l2.7-6H17l2.4,6h-1.2l-0.6-1.5h-2.4L14.7,67z M16.5,62.7l-0.9,2.1h1.8L16.5,62.7z"/>
	<path class="st0" d="M21.9,61.1h1.9c1.3,0,2.2,0.6,2.2,1.4c0,0.7-0.6,1.2-1.1,1.3c0.9,0.1,1.6,0.7,1.6,1.5c0,1-1.2,1.8-2.4,1.8
		l-2.3,0L21.9,61.1z M25.3,65.3c0-0.6-0.5-1-1.4-1H23v2h0.9C24.8,66.4,25.3,65.9,25.3,65.3z M23.5,63.7c0.7,0,1.2-0.4,1.2-1
		c0-0.5-0.4-0.9-1.2-0.9H23l0,1.9H23.5z"/>
	<path class="st0" d="M35.5,64.1c0,1.9-1.5,3.1-3.4,3.1c-1.9,0-3.4-1.2-3.4-3.1c0-1.8,1.4-3.1,3.4-3.1C34.3,61,35.5,62.3,35.5,64.1z
		 M30.1,64.1c0,1.3,0.8,2.3,2.1,2.3c1.3,0,2.1-1,2.1-2.3c0-1.3-0.8-2.3-2.1-2.3C30.9,61.7,30.1,62.7,30.1,64.1z"/>
	<path class="st0" d="M42,67.2l-1.9-2.8h-0.7v2.7h-1.1l0-6h1.8c1.6,0,2.4,0.8,2.4,1.5c0,0.8-0.8,1.4-1.3,1.5l2,2.9L42,67.2z
		 M40,63.7c0.9,0,1.3-0.5,1.3-1c0-0.5-0.4-0.9-1.3-0.9h-0.6v1.9H40z"/>
	<path class="st0" d="M45.8,67.1h-1l2.7-6h0.7l2.4,6l-1.2,0l-0.6-1.5l-2.4,0L45.8,67.1z M47.7,62.7l-0.9,2.1h1.8L47.7,62.7z"/>
	<path class="st0" d="M51.5,61.1l5.4,0v0.8h-2.1l0,5.2l-1.1,0l0-5.2l-2.1,0V61.1z"/>
	<path class="st0" d="M65.1,64.1c0,1.9-1.5,3.1-3.4,3.1c-1.9,0-3.3-1.2-3.3-3.1c0-1.8,1.4-3.1,3.4-3.1C63.8,61,65.1,62.3,65.1,64.1z
		 M59.6,64.1c0,1.3,0.8,2.3,2.1,2.3c1.3,0,2.1-1,2.1-2.3c0-1.3-0.8-2.3-2.1-2.3C60.4,61.8,59.6,62.7,59.6,64.1z"/>
	<path class="st0" d="M67.8,67.1l0-6h1.1l0,6H67.8z"/>
	<path class="st0" d="M75.6,67.2l-1.9-2.8h-0.7l0,2.7h-1.1l0-6h1.8c1.6,0,2.4,0.8,2.4,1.5c0,0.8-0.8,1.4-1.3,1.5l2,2.9L75.6,67.2z
		 M73.7,63.7c0.9,0,1.3-0.5,1.3-1c0-0.5-0.4-0.9-1.3-0.9h-0.6l0,1.9H73.7z"/>
	<path class="st0" d="M83.3,67.1h-4l0-6h3.9v0.8l-2.7,0l0,1.8h2v0.8l-2,0v1.9l2.9,0V67.1z"/>
	<path class="st0" d="M89.9,61.1l2.1,0c2.1,0,3.6,1.1,3.6,3c0,1.7-1.7,3-3.6,3h-2.1L89.9,61.1z M92,66.3c1.1,0,2.3-0.9,2.3-2.2
		c0-1.5-1.2-2.2-2.4-2.2l-0.9,0l0,4.4L92,66.3z"/>
	<path class="st0" d="M102.3,67.1h-4l0-6h3.9l0,0.8h-2.7l0,1.8h2l0,0.8h-2v1.9l2.9,0V67.1z"/>
	<path class="st0" d="M108.5,67.2l-1.9-2.8H106v2.7h-1.1l0-6h1.8c1.6,0,2.4,0.8,2.4,1.5c0,0.8-0.8,1.4-1.3,1.5l2,2.9L108.5,67.2z
		 M106.6,63.7c0.9,0,1.3-0.5,1.3-1c0-0.5-0.4-0.9-1.3-0.9H106l0,1.9L106.6,63.7z"/>
	<path class="st0" d="M118.8,67.1h-1.1l-0.1-4l-1.9,4.1H115l-1.8-4l-0.2,3.9H112l0.3-6h1.1l2.1,4.6l2.1-4.6l1,0L118.8,67.1z"/>
	<path class="st0" d="M122.1,67.1h-1l2.7-6h0.7l2.4,6h-1.2l-0.6-1.5l-2.4,0L122.1,67.1z M123.9,62.8L123,65h1.8L123.9,62.8z"/>
	<path class="st0" d="M127.8,61.2l5.4,0V62l-2.1,0l0,5.2h-1.1l0-5.2l-2.1,0V61.2z"/>
	<path class="st0" d="M141.3,64.2c0,1.9-1.5,3.1-3.4,3.1c-1.9,0-3.3-1.2-3.3-3.1c0-1.8,1.4-3.1,3.4-3.1
		C140,61.1,141.3,62.4,141.3,64.2z M135.8,64.2c0,1.3,0.8,2.3,2.1,2.3c1.3,0,2.1-1,2.1-2.3c0-1.3-0.8-2.3-2.1-2.3
		C136.7,61.8,135.8,62.8,135.8,64.2z"/>
	<path class="st0" d="M145.2,66.4h2.5v0.8l-3.6,0l0-6h1.1L145.2,66.4z"/>
	<path class="st0" d="M156.1,64.2c0,1.9-1.5,3.1-3.4,3.1c-1.9,0-3.3-1.2-3.3-3.1c0-1.8,1.4-3.1,3.3-3.1
		C154.8,61.1,156.1,62.4,156.1,64.2z M150.6,64.2c0,1.3,0.8,2.3,2.1,2.3c1.3,0,2.1-1,2.1-2.3c0-1.3-0.8-2.3-2.1-2.3
		C151.4,61.8,150.6,62.8,150.6,64.2z"/>
	<path class="st0" d="M162,67.3c-2.1,0-3.5-1.4-3.5-3.1c0-1.7,1.5-3.1,3.5-3.1c1.3,0,1.9,0.3,2.2,0.4l-0.3,0.7
		c-0.2-0.1-0.8-0.3-1.8-0.3c-1.3,0-2.3,1-2.3,2.3c0,1.4,1.1,2.3,2.4,2.3c0.7,0,0.9-0.1,1.2-0.2v-1.7l1.1,0l0,2.2
		C164.1,67,163.4,67.3,162,67.3z"/>
	<path class="st0" d="M167.1,67.2l0-6l1.1,0l0,6H167.1z"/>
	<path class="st0" d="M177.6,67.6l-0.4,0.8l-3.9-1.2c-1.5-0.5-2.4-1.4-2.4-3c0-1.8,1.4-3.1,3.4-3.1c2.1,0,3.3,1.3,3.3,3.1
		c0,1.4-1,2.6-2.2,2.8L177.6,67.6z M172.2,64.2c0,1.3,0.8,2.3,2.1,2.3c1.3,0,2.1-1,2.1-2.3c0-1.3-0.8-2.3-2.1-2.3
		C173,61.8,172.2,62.9,172.2,64.2z"/>
	<path class="st0" d="M185.6,65.2c0,1-0.8,2.1-2.7,2.1c-1.7,0-2.7-0.8-2.7-2.1v-4l1.1,0l0,3.9c0,0.9,0.5,1.4,1.6,1.4
		c1.1,0,1.6-0.7,1.6-1.4l0-3.9h1L185.6,65.2z"/>
	<path class="st0" d="M192.5,67.2h-4l0-6h3.9V62l-2.7,0l0,1.8l2,0v0.8l-2,0v1.9l2.9,0V67.2z"/>
</g>
</svg>
