<?xml version="1.0" encoding="utf-8"?>
<!-- Generator: Adobe Illustrator 25.3.1, SVG Export Plug-In . SVG Version: 6.00 Build 0)  -->
<svg version="1.1" id="Layer_2" xmlns="http://www.w3.org/2000/svg" xmlns:xlink="http://www.w3.org/1999/xlink" x="0px" y="0px"
	 viewBox="0 0 200 100" style="enable-background:new 0 0 200 100;" xml:space="preserve">
<style type="text/css">
	.st0{fill:#DADADA;}
</style>
<g>
	<path class="st0" d="M77.4,30.4c-0.8,4.8-1.6,9.6-2.4,14.4c2.3,0,4.7,0,7,0c-0.2,1.1-0.4,2.3-0.6,3.4c-3.7,0-7.4,0-11.1,0
		c1-5.9,2-11.9,3-17.8C74.7,30.3,76,30.4,77.4,30.4L77.4,30.4z"/>
	<path class="st0" d="M108,30.4c0.5,3.6,1.1,7.3,1.5,10.9c1.8-3.6,3.5-7.3,5.3-10.9c2.2,0,4.3,0,6.5,0c-1,5.9-2,11.9-3,17.8
		c-1.4,0-2.8,0-4.2,0c0.9-5,1.6-10,2.6-14.9c-2.5,4.9-4.8,10-7.3,15c-0.8,0-1.6,0-2.4,0c-0.8-5-1.4-10.1-2.5-15
		c-0.7,5-1.6,10-2.4,15c-1.1,0-2.3,0-3.4,0c1.1-5.9,2-11.9,3-17.8C103.8,30.3,105.9,30.4,108,30.4L108,30.4z"/>
	<path class="st0" d="M162.7,30.4c1.5-0.1,3,0,4.5-0.1c1.5,3.6,2.8,7.2,4.3,10.8c0.4-3.6,1.1-7.2,1.7-10.8c1.1,0,2.2,0,3.4,0
		c-1,5.9-2,11.9-3,17.8c-1.1,0-2.2,0-3.4,0c-1.7-4.3-3.3-8.6-5.2-12.8c-0.3,4.3-1.3,8.6-1.9,12.8c-1.1,0-2.3,0-3.4,0
		C160.7,42.3,161.6,36.3,162.7,30.4L162.7,30.4z"/>
	<path class="st0" d="M183.3,30.4c-0.5,2.8-0.9,5.6-1.5,8.4c2.4-2.8,4.8-5.7,7.3-8.4c1.4,0,2.8,0,4.2,0c-1.9,2.2-3.8,4.3-5.7,6.5
		c1.2,3.8,2.3,7.6,3.5,11.4c-1.4,0-2.8,0-4.2,0c-0.8-2.8-1.5-5.5-2.3-8.3c-0.9,1.1-1.8,2.1-2.7,3.1c-1.3,1.2-1.2,3.5-1.5,5.2
		c-1.3,0-2.6,0-4,0c1-5.9,2-11.9,3-17.8C180.7,30.3,182,30.4,183.3,30.4L183.3,30.4z"/>
	<path class="st0" d="M97.5,34c-1.4-3.3-4.9-4.6-8.3-3.7c-1.7,0.4-3,1.5-4.1,2.9c-2,2.8-2.8,6.5-2.1,9.8c0.5,2.4,2.2,4.5,4.6,5.2
		c2.7,0.7,5.6,0.1,7.5-2C98.1,43.3,99.1,37.8,97.5,34z M94,39.5c-0.3,1.6-0.7,3.4-1.8,4.7c-1.2,1.4-3.7,1.4-4.7-0.2
		c-0.9-1.7-0.6-4.1-0.2-5.9c0.4-1.6,1-3.5,2.4-4.4c1.2-0.7,3-0.5,3.8,0.8C94.3,35.9,94.2,38,94,39.5z"/>
	<path class="st0" d="M155.7,30.4c-1.6,0-3.3,0-4.9,0c-2.9,5.9-5.6,11.9-8.5,17.8c1.3,0,2.6,0,3.9,0c0.6-1.3,1.2-2.6,1.8-3.9
		c2,0,4,0,6,0c0.2,1.3,0.4,2.6,0.6,3.9c1.4,0,2.8,0,4.2,0C157.7,42.3,156.7,36.3,155.7,30.4z M149.2,41.2c0.9-1.9,1.7-3.8,2.6-5.8
		c0.2-0.5,0.4-1,0.7-1.4c0.2,2.4,0.6,4.8,1,7.2C152,41.2,150.6,41.2,149.2,41.2z"/>
	<path class="st0" d="M47.1,36.1c0.1,11.6,0.1,23.2,0.1,34.8c-13,0-25.9,0.1-38.9,0.1c3.8-7.5,8.9-14.3,15-20
		C30.2,44.4,38.4,39.5,47.1,36.1L47.1,36.1z"/>
	<path class="st0" d="M69.2,37.2c1.2-1.8,0.8-4.7-1-5.9c-1.2-0.9-2.8-0.9-4.2-0.9c-2.5,0-5,0-7.5,0c-1,5.9-2,11.9-3,17.8
		c2.7,0,5.3,0,8,0c1.6,0,3.5,0,4.9-0.7c2.2-1.1,3.3-4,2.4-6.3C68.2,40,67.1,39.6,66,39C67.2,38.6,68.4,38.3,69.2,37.2z M62.9,44.9
		c-1.6,0.2-3.2,0.1-4.7,0.1c0.2-1.5,0.5-3,0.8-4.5c1.3,0,2.7,0,4.1,0.1c0.8,0.1,1.6,0.6,1.8,1.5C65,43.4,64.2,44.7,62.9,44.9z
		 M64.3,37.3c-1.6,0.3-3.3,0.1-4.9,0.2c0.2-1.4,0.5-2.7,0.7-4.1c1.5,0.1,3.3-0.2,4.6,0.4C66.2,34.6,65.8,36.8,64.3,37.3z"/>
	<path class="st0" d="M139.6,39c1.2-0.5,2.3-0.7,3.1-1.7c1.4-1.8,0.9-4.8-1-6c-1.4-1-3.6-0.9-5.3-0.9c-2.1,0.1-4.2-0.1-6.3,0.1
		c-1.1,5.9-2,11.9-3,17.8c2.6,0,5.2,0,7.9,0c1.6,0,3.5,0,5-0.7c2.3-1,3.5-4.1,2.4-6.4C141.8,39.9,140.7,39.6,139.6,39z M137.1,44.7
		c-1.7,0.5-3.7,0.2-5.4,0.3c0.3-1.5,0.5-3,0.8-4.5c1.5,0,3.2-0.2,4.7,0.2C138.9,41.5,138.7,44,137.1,44.7z M137.9,37.3
		c-1.6,0.2-3.2,0.1-4.8,0.2c0.2-1.4,0.4-2.8,0.7-4.1c1.4,0.1,3.1-0.2,4.5,0.3C139.7,34.5,139.5,36.8,137.9,37.3z"/>
	<path class="st0" d="M47.1,30.2c-13.5,0.1-27,0.1-40.4,0.1C6.8,43.9,6.8,57.5,6.8,71c8.2-16.8,22.8-30,40.3-36.4
		C47.1,33.1,47.1,31.7,47.1,30.2z M27.6,34.6c-0.3,0.4-0.7,0.6-1.3,0.4C26.1,34.1,27.5,33.5,27.6,34.6z M26.3,35.1
		c1,0.2,1.9,0.5,2.9,0.7c-1.1,0.1-2.3,0.2-3.4,0.4c1.6,0.3,3.2,0.6,4.7,1.2c-2.3-0.1-4.4-0.2-6.5,0.8C24.7,37.1,25.5,36.1,26.3,35.1
		z M24.4,38.4c2.6-1,5.3-0.2,7.7,0.7c-3.3-0.2-6.4-0.3-9.5,1.1C23.1,39.6,23.6,38.7,24.4,38.4z M25.8,45.8c0.2-1.2,0.3-2.5,0.6-3.7
		c0.5,0,1,0,1.5,0.1c0.3,0.4,0.6,0.9,0.9,1.3C27.7,44.3,26.8,45,25.8,45.8z M21,43.1c0.7-1.2,1.5-2.2,2.8-2.7
		c2.9-1.2,6.5-0.7,9.5,0.1C29,40.9,25,41.2,21,43.1z"/>
	<path class="st0" d="M56.5,52.7c4.2,0,8.4,0,12.6,0c-0.2,1.1-0.4,2.3-0.6,3.4c-2.8,0-5.6,0-8.4,0c-0.2,1.2-0.5,2.4-0.7,3.7
		c2.3,0,4.7,0,7,0c-0.2,1.1-0.4,2.1-0.5,3.2c-2.3,0-4.7,0-7,0c-0.2,1.4-0.5,2.8-0.7,4.2c2.8,0,5.7,0,8.6,0c-0.2,1.1-0.4,2.3-0.6,3.4
		c-4.2,0-8.5,0-12.7,0C54.5,64.6,55.5,58.7,56.5,52.7L56.5,52.7z"/>
	<path class="st0" d="M82.3,53.6c1.6,1.2,2.1,2.8,2.7,4.6c-1.3,0.2-2.5,0.5-3.8,0.7c-0.4-1-0.7-2.3-1.7-2.9
		c-1.1-0.6-2.7-0.4-3.6,0.5c-1.4,1.2-1.9,3.3-2.2,5.1c-0.2,1.6-0.4,3.3,0.5,4.7c0.8,1.2,2.6,1.4,3.8,0.9c1.3-0.6,1.7-1.8,2.3-3
		c-1.3,0-2.5,0-3.8,0c0.2-1.1,0.4-2.2,0.6-3.3c2.5,0,5,0,7.5,0c-0.5,3.2-1.1,6.5-1.6,9.7c-0.6,0-1.1,0-1.7,0
		c-0.1-0.8-0.2-1.5-0.4-2.3c-1.3,1.2-2.5,2.3-4.5,2.4c-3.1,0.3-6-1.8-6.8-4.8c-0.9-3.7,0-8.2,2.6-11C74.8,52.1,79.3,51.5,82.3,53.6
		L82.3,53.6z"/>
	<path class="st0" d="M85.7,52.7c1.5,0,3,0,4.4,0c1,2.4,1.9,4.7,2.8,7.1c1.5-2.4,3.1-4.7,4.6-7.1c1.3,0,2.6,0,3.9,0
		c-2,2.9-4,5.8-6.1,8.7c-0.6,0.8-1.1,1.6-1.3,2.6c-0.4,2.2-0.7,4.4-1.1,6.5c-1.4,0-2.7,0-4.1,0c0.4-2.5,0.8-5,1.2-7.5
		C88.6,59.6,87.2,56.2,85.7,52.7L85.7,52.7z"/>
	<path class="st0" d="M129.9,52.7c-0.2,1.1-0.4,2.3-0.6,3.4c-1.5,0-3,0-4.4,0c-0.8,4.8-1.6,9.7-2.5,14.5c-1.4,0-2.7,0-4.1,0
		c0.8-4.8,1.6-9.7,2.4-14.5c-1.5,0-3,0.1-4.5,0.1c0.2-1.1,0.4-2.3,0.6-3.4C121.2,52.7,125.6,52.8,129.9,52.7L129.9,52.7z"/>
	<path class="st0" d="M113.9,54.1c-1.3-1.3-3.2-1.3-4.9-1.4c-2.1,0-4.3-0.1-6.4,0c-1.1,5.9-2,11.9-3,17.8c1.4,0,2.7,0,4.1,0
		c0.4-2.2,0.8-4.5,1.1-6.7c2.2,0,4.5,0.2,6.7-0.3C115.4,62.5,116.7,56.9,113.9,54.1z M109.9,60.5c-1.5,0.4-3.1,0.2-4.6,0.2
		c0.3-1.6,0.6-3.3,0.9-4.9c1.3,0,2.9-0.1,4.1,0.3C112,57.2,111.6,59.8,109.9,60.5z"/>
</g>
</svg>
