<?xml version="1.0" encoding="utf-8"?>
<!-- Generator: Adobe Illustrator 25.3.1, SVG Export Plug-In . SVG Version: 6.00 Build 0)  -->
<svg version="1.1" id="Layer_3" xmlns="http://www.w3.org/2000/svg" xmlns:xlink="http://www.w3.org/1999/xlink" x="0px" y="0px"
	 viewBox="0 0 200 100" style="enable-background:new 0 0 200 100;" xml:space="preserve">
<style type="text/css">
	.st0{fill-rule:evenodd;clip-rule:evenodd;fill:#DADADA;}
</style>
<g>
	<path class="st0" d="M78.5,72.6c-6.9-4.4-16.3-5.2-31.4-1c-16.1,3.8-21.5,6.2-28.6,1.3c-2.7-2.4-3.7-6.3-3-11.8
		c1.7-9.1,6.2-17.8,14.3-27.4c4.5-5,8.7-9.3,14.2-11.1c4.2-1.1,3.8,2.2,3.3,2.7c-0.5,0-1.4,0.1-2.2,0.5c-0.6,0.4-2.1,1.9-2.2,3.8
		c-0.1,2.9,2.9,2.3,4.2,0.7c1.4-1.8,3.5-5.3,1.9-8.5c-0.7-1.2-1.9-2-3.4-2.2c-5.1-0.3-9.8,2.1-14.1,4.8C22.1,31,14.5,40.2,10.2,50.2
		c-2.5,6-4.7,14.7-1.4,21.8c2.6,4.9,8,7.5,14.5,7c4.5-0.5,10-1.9,13.7-2.8c3.7-0.9,22.5-7.4,28.7,3.9c0,0,2.1-4,7.2-4.1
		c4.2-0.4,10.3,1.2,14.8,4.5C86.1,78.2,82,74.9,78.5,72.6L78.5,72.6z"/>
	<path class="st0" d="M49,34.8c-3.5-2.3-10.6,2.1-16.3,9.7c-5.2,6.8-7.4,14.7-5,18.4c3.6,4.3,10.4-2,13.2-5.3l0.4-0.4
		c1.9-2.1,3.5-4.6,4.9-7c0,0,1.3-2.2,1.4-2.3c0.8-0.2,1.8-0.4,2.9-0.7c0,0-4.3,7.2-3.9,10.8c0.1,1.1,0,5.1,3.9,6.3
		c5.2,0.9,9.3-3.1,12.9-6.7c0,0,0.6-0.6,1-0.9c-0.1,0.4-0.2,0.8-0.2,0.8c-1.5,5.3,0.5,6.4,1.8,6.8c3.9,1.1,8.5-4.5,8.5-4.5
		c-0.1,1.8-0.5,3.2,1.4,4.4c1.8,0.6,3.5-0.3,4.9-1.2c4.9-3.4,8.8-8.8,12-13.4h-2c0,0-5,7.2-8.2,8.7c0,0-0.6,0.3-0.9,0.1
		c-0.4-0.4-0.3-1.2,0-1.7c0,0,12.5-21.6,12.5-21.6h-5.9c0,0-0.6,1.1-0.7,1.2c0,0-0.1-0.2-0.2-0.3c-3.6-5-11.9,2.7-18.1,11.7
		c-2.4,3.4-5.4,7.3-8.6,10.1c0,0-4.7,4.3-6.7,1.2c-0.7-1.3-0.5-3.2-0.1-4.4c2.3-6.6,6.3-12.6,10.9-16.2c1.3-1,2.7-1.3,3.4-0.9
		c0.7,0.4,0.8,1.4,0.3,2c-1.1,0-1.9,0.3-2.6,1c-1.4,1.4-1.8,2.8-1.4,4.1c2.1,3,6.3-2.9,6.1-6.5c-0.1-1.3-0.8-2.5-1.8-3.1
		c-1.5-0.9-3.9-0.7-5.4,0.1c-2,0.8-5.2,3.4-7.1,5.5C54,43,50,45.9,48.7,45.5C49.1,44.4,52.5,37.5,49,34.8L49,34.8z M77.2,45.2
		c1.1-1.6,4.5-5.8,5.3-6.5c2.7-2.4,3.8-1.3,3.9-0.6c-2.5,4.6-5.5,9.8-8.4,14.5c0,0-0.9,1.3-0.9,1.3c-1.2,1.9-2.5,3.5-4.5,4.7
		c-0.3,0.1-0.8,0.1-1.1-0.1c-0.4-0.3-0.5-0.7-0.5-1.1C71.2,55.8,72.7,51.4,77.2,45.2L77.2,45.2z M45.3,47.9c0,0-0.1,0.2-0.1,0.2
		c0,0-2.6,4.2-2.6,4.2c-1.5,2.1-3.5,4.6-5.9,5.9c-0.7,0.2-1.7,0.4-2.2-0.2c-1.1-1.3-0.5-3-0.1-4.5l0.2-0.5c1.3-3.5,3.3-6.5,5.3-9.4
		c0,0,0.1,0,0.1,0c0,0,0,0,0,0.1c1.2,2.4,3.6,3.5,5.3,4c0,0,0,0,0,0.1C45.4,47.7,45.4,47.8,45.3,47.9L45.3,47.9z M47.7,43
		c0,0-1.1,2.6-1.1,2.6c-0.2,0.1-0.4,0.1-0.7,0l-0.5-0.1c-1.6-0.5-2.8-1.5-3.2-2.8c-0.5-2.4,1.6-4.4,2.5-5.1c0.9-0.6,2.3-0.9,3.1-0.3
		c0.5,0.6,0.7,1.3,0.7,2.1C48.5,40.6,48.1,41.8,47.7,43L47.7,43z"/>
	<path class="st0" d="M121.9,50.9c-0.6-1.2-1.9-2-3.3-1.9c-4.7,0.4-9.2,4.2-11.6,9.7c-1.3,2.8-1.9,5.1-2.4,8.9
		c1.4-1.7,4.4-4.4,7.7-5.9c0,0,0.5-3.5,2.8-6.7c0.9-1.3,2.6-3.4,4.6-2.9c1.7,0.6,1.1,5.4-1.2,10c-1.7,3.4-4.3,6.8-6.9,9.1
		c-2.3,2-5.8,4.3-8.8,2.5c-1.9-1.1-2.9-3.5-2.7-6.5c0.9-8.6,4.8-15.9,10.4-24.2c5.8-7.7,12.1-15.7,20.7-19.9
		c1.7-0.9,3.4-1.1,4.8-0.5c0,0-8,4.4-11.9,12.6c-1,2.1-2.3,4.9-1,7.4c0.7,1.3,2,1.4,3,1.3c4.7-1.1,7.7-5.5,10.2-9.5
		c1.4-3,2.7-6.1,2.7-9.4c0-0.4,0-1-0.1-1.4c2.2-1.2,6.8,0.9,6.8,0.9c3.6,1.2,11.2,7.1,13.8,8.2c1.3-1.5,3.3-3.7,4.5-4.8l-1.7-1
		c-2.7-1.6-5.6-3.2-8.4-4.8c-6.4-3.5-11.6-2.3-14.2-1.3c-1,0.4-2,0.7-2,0.7c-2-2.1-5.2-1.9-7.5-1.4c-8.5,2.4-16.4,8.4-24.9,18.8
		C99.3,47,95.4,54,93.4,60.9c-1.6,4.7-2.1,11.5,1.8,15.6c3.3,3.4,7.7,2.7,10.8,1.5c6.7-3.3,12.7-10.4,15.7-18.6
		C122.4,56.9,123.2,53.5,121.9,50.9L121.9,50.9z M137.3,25.3c-0.9,10.2-8.8,16.1-10.7,16.6c-1.2,0.2-3.2-0.3-1.4-4.6
		c2.7-5.7,7.2-10.6,12.1-13.1C137.4,24.6,137.4,24.9,137.3,25.3L137.3,25.3z"/>
	<path class="st0" d="M184.2,26.6c-4.3,2.4-8.7,4-14,3.4c-1.5,1.7-2.9,3.4-4.2,5.1c7.5,1.9,15.4-2.3,19.8-6.4
		c4.7-4.1,7.1-9.2,7.1-9.2S189.4,23.6,184.2,26.6L184.2,26.6z"/>
	<polygon class="st0" points="103.9,34.9 98.3,34.9 95.2,40.2 100.7,40.2 103.9,34.9 	"/>
	<path class="st0" d="M170.2,73.2c-0.6,0.4-1.4,0.1-1.1-0.9c0.8-2.4,3.9-7.3,3.9-7.3l8.7-15.4h-6c-0.3,0.5-0.9,1.6-0.9,1.6
		c-0.3-0.5-1.1-1.5-1.4-1.7c-1.5-0.9-3.6-0.5-5.1,0.4c-6.4,3.7-11.1,11.1-14.7,16.9c0,0-3.9,6.4-6,6.9c-1.7,0.1-1.5-2.1-1.4-2.6
		c0.6-3.8,2.2-7.4,3.7-10.7c3.1-2.1,6.6-4.9,9.8-8c7-6.6,12.8-14.2,13.7-15.9c0,0-0.9,0.2-2,0.2c-5.3,7.5-16.3,18.3-19.6,19.9
		c1.5-3.5,11-20.4,19-28.5l1.3-1.2c2-1.9,4-3.9,5.6-4.2c0.2,0,0.4,0,0.6,0.4c0.1,1.5-0.5,2.6-1.1,3.9l-0.9,1.8c0,0,1.3-0.2,2.1-0.5
		c1-1.8,2-3.9,1.6-6.3c-0.1-0.8-0.7-1.4-1.4-1.5c-2.4-0.5-5,1.3-7.2,2.8l-0.1,0.1c-10.9,8.5-20,20.8-28.1,37.5
		c-0.6,0.4-2.8,1-3.2,0.7c0.8-1.6,1.8-3.8,2.3-6.2c0.1-0.7,0.2-1.4,0.2-2.1c0-1.5-0.4-2.8-1.7-3.8c-1.5-0.8-3.4-0.4-4.7,0.2
		c-5.7,2.4-10,8.3-13.1,13.1c-1.7,3.1-3.3,6.4-3.8,10.1c-0.3,3,0.3,4.9,2,5.8c1.7,0.9,3.9,0,4.8-0.5c5.8-3.1,9.9-9.2,13.1-14.8
		c0.1,0,1.9-0.1,3.2-0.4c0,0,0,0,0.1,0c-0.1,0.3-0.8,2.3-0.8,2.3c-2,5.9-3,10-1,12.4c2.7,3.4,7.3-0.1,11-4.7c-0.8,5.5,2.1,6.4,4.3,6
		c2.5-0.7,5.3-3.4,6.6-4.7c-0.4,1.6-0.3,4.5,2,4.8c1.6,0.3,2.7-0.5,4.1-1.2c4.9-2.6,10.7-11.5,12.2-14h-2
		C176.4,66.9,173.6,71.2,170.2,73.2L170.2,73.2z M126.5,72.5c-0.3-0.5-0.4-1-0.4-1.5c-0.1-3.3,3.5-9.3,6.1-12.6c0,0,0,0,0,0
		c1.1,2.5,3.5,3.8,4.9,4.5C135.2,66.9,129,75.5,126.5,72.5L126.5,72.5z M138,61.1c-0.2,0.1-3.2-0.9-3.8-3.7
		c-0.5-2.4,1.2-4.3,2.8-5.3c0.7-0.5,1.7-0.7,2.5-0.5c0.7,0.5,0.9,1.3,0.9,2.2c0,0.6-0.1,1.1-0.1,1.7c0,0,0,0.1,0,0.1
		C139.8,57.6,139,59.5,138,61.1L138,61.1z M162.3,71.5l-0.6,0.5c-0.8,0.7-1.7,1.5-2.7,1.1c-0.3-0.1-0.5-0.5-0.5-0.8
		c0-2.1,0.9-4,1.8-5.9l0.2-0.5c2.6-4.4,5.7-9.5,10.2-13.1c0.8-0.5,1.6-1,2.4-0.6c0.2,0.2,0.4,0.5,0.4,0.8c0,0.1-0.1,0.4-0.1,0.5
		c-1.3,2-2.4,4.1-3.6,6.2C167.6,63.6,165.3,67.8,162.3,71.5L162.3,71.5z"/>
</g>
</svg>
