<?xml version="1.0" encoding="utf-8"?>
<!-- Generator: Adobe Illustrator 25.3.1, SVG Export Plug-In . SVG Version: 6.00 Build 0)  -->
<svg version="1.1" id="Layer_2" xmlns="http://www.w3.org/2000/svg" xmlns:xlink="http://www.w3.org/1999/xlink" x="0px" y="0px"
	 viewBox="0 0 200 100" style="enable-background:new 0 0 200 100;" xml:space="preserve">
<style type="text/css">
	.st0{fill:#DADADA;}
</style>
<path class="st0" d="M72.5,5.8c0.8,0,1.7,0.1,2.6,0.5c-0.4-1.6-3.8-1-3.8-1S71.7,5.8,72.5,5.8z M76.8,4.9c0.4,0.1,0.9,0.3,1.4,0.6
	c0.4,0.2,0.7,0.5,1,0.8c0-0.1,0-0.1,0-0.2c-0.4-1.9-3.4-2.2-3.4-2.2S76,4.7,76.8,4.9z M82.5,7.3c0.1,0.2,0.3,0.5,0.4,0.6
	c0.2,0.3,0.3,0.6,0.2,1c0,0,0.7-1.3,0.1-2C82.5,6.4,82.2,6,82.2,6S82,6.2,82.2,6.6C82.2,6.9,82.4,7.1,82.5,7.3z M86.3,11.2
	c0.6,0.5,1.1,0.4,1.1,0.4c-0.9-0.7-0.6-1.9-0.9-2.5c-0.3-0.6-0.7-0.6-0.7-0.6s-0.2,0.5-0.2,1.3C85.7,10.2,85.9,10.8,86.3,11.2z
	 M69.4,7.2c0.3,0,0.5-0.1,0.5-0.1s0,0,0,0l0,0c-0.3-0.2-0.5-0.4-0.7-0.5c-0.2-0.1-0.5,0-0.9,0.1C68.1,7.3,68.9,7.3,69.4,7.2z
	 M62.9,39.9c-0.9,0.4-1.3,1.8-1.3,1.8c0.3,0,0.5-0.1,0.7-0.1c0.3-0.1,0.3-0.4,0.6-0.7c0.2-0.4,0-0.1,0.9-1l0,0l0,0
	C63.4,39.7,63.1,39.8,62.9,39.9z M88.3,9.7L88.3,9.7c0.1,0.2,0.2,0.4,0.3,0.5c0.1,0.1,0.1,0.2,0.2,0.3c0.1,0.1,0.1,0.1,0.2,0.2
	c0.2,0.2,0.3,0.3,0.5,0.4l0.1,0c0.5,0.3,0.9,0.3,1.5,0.2c-0.2-0.1-0.6-0.4-0.9-0.8l0,0c-0.9-1.5-1.8-1.3-2.1-1.2
	c0,0.1,0.1,0.1,0.1,0.2C88.3,9.6,88.3,9.7,88.3,9.7z M66.3,29.2c-0.5-0.6-1.4-1-2.1-1.3c-0.1-0.1-0.3-0.1-0.5-0.1
	c-0.4,0-0.7,0.1-1,0.4c-0.2,0.3-0.6,0.5-0.6,0.5s0.4,0.2,0.8,0.1c0.1,0,0.5-0.1,0.8-0.1c0.1,0,0.2,0,0.4-0.1
	c0.6-0.1,1.2,0.1,1.6,0.2C66,29,66.3,29.2,66.3,29.2z M63,33.3c-0.1,0.1-0.3,0.1-0.4,0.2c-0.3,0.2-0.5,0.5-0.5,0.8
	c0,0.3-0.2,0.6-0.2,0.6s0.2-0.1,0.6-0.4c0.1-0.1,0.5-0.4,1.2-0.9c0.7-0.5,1.5-0.8,1.5-0.8C64.6,32.8,63.7,33,63,33.3z M65.4,17.9
	c-0.1,0.9-0.8,1.3-1.5,1.4c-0.1,0.9,1.1,0.6,1.7,0.9c-0.7,0.6-1.1,0.9-1.7,0.7c1.1,1.1,1.6,0.4,2.1,1.3c-0.5,0.4-1.5,0.1-1.5,0.1
	s-0.2,0.4,1.2,1c1.4,0.6,1.2,2.1,2.7,2.6c1,0.3,1.5,0.1,1.5,0.1S69.8,27,68.5,27s-1.7-0.4-2.5-0.4c1.4,1.7,1,2.6,3,2.8
	c-1,1.1-2.5,0.3-2.5,0.3s-0.4,0.5,0,1s0.5,0.9,0.5,0.9s-1,0.3-1.6,0.1c0.6,0.8,1.5,0.8,1.5,0.8s-0.6,0.3-1.6,1.3
	c-1,1-1.1,1.5-1.1,2.1c1.1-0.9,2.1-1.5,2.1-1.5s-1.8,2-1.5,4.2c3.1-5.9,5.9-4.3,6.3-6.8c-1.6,0.6-2.5,0.1-2.9-0.5
	c3.4-0.3,3.6-3.8,5.4-4.5c-2.2,0.5-2.5-0.2-2.5-0.2c0-0.2,2.1-2.1,4.1-2.2c-2.1-1-2.5-0.8-2.5-0.8c1.9-2,6.3-2.4,6.3-2.4
	s-2.2-1.2-3.9-1.1c1.6-1.6,4-1.6,5.6-1.6c1.6,0,2.3-0.6,2.3-0.6s-1.8-0.5-1.8-2c3,1.6,4.7,0.9,7.3-0.4c2.1-1,3.1-1.3,3.5-1.3
	c-0.4,0-1.3,0.1-1.7-0.4c-0.7-0.7-0.9-0.8-0.9-0.8s0.3,0.7,0.1,1c-0.2,0.3-0.2,0.5-0.2,0.5s-0.8-0.6-0.9-1.1
	c-0.1-0.5-0.1-0.5-0.1-0.5s-0.6-0.2-0.6,0.6s-0.1,1.1-0.5,1.3c0,0-0.2-0.9-0.9-1c-0.7-0.1-0.7-1.1-0.7-1.1s-0.8,0.4-0.9,1.5
	c-0.7-2.8-1.8-3.3-2.4-4.2c-0.5,0.3,0.4,1.1-0.2,1.4c-2.4-2.7-2.4-4.2-2.4-4.2s-0.6,0.3-0.6,1.5s-0.3,1.4-0.3,1.4s-0.2-1.3-1.5-2.2
	s-2.2-1.1-2.2-1.1s0,0.7,0.3,1c0.4,0.4,0.1,0.9,0.1,0.9s-0.9-0.9-3.2-0.8c-2.3,0.1-3.8,1.4-4.1,1.7c0.4,0.7,2.5,0.1,2.2,1.4
	c0,0-1.2-0.6-2.7,0.4c-1.6,1-2,1.1-2.7,1.2c0,0,0.1,0.6,0.8,0.9c0.6,0.2,0.7,0.2,0.9,0.6c-1.1,0.4-3.5,1.3-3.3,4
	C64.6,18.5,64.8,17.8,65.4,17.9z M92,14.2c0.1,0,0.1,0,0.1,0S92.1,14.2,92,14.2z M116.3,10.9c0.6-1,0.5-2.3,0.5-2.3
	s-0.1,0.4-0.4,0.6c-0.1,0.1-0.6,0.3-0.8,0.4c-0.7,0.6-0.3,2.4-0.3,2.4S115.6,12,116.3,10.9z M113.2,11.4c0.5-0.7,0.6-1.6,0.6-1.6
	s-0.1,0.2-0.4,0.4c-0.1,0.1-0.6,0.5-0.8,0.6c-1,1-0.6,1.7-0.6,1.7S112.5,12.4,113.2,11.4z M63.9,30.3c-0.2,0-0.4,0.1-0.4,0.2
	l-0.1,0.3l0.3,0.1c0,0,0.1,0,0.2,0c0.3,0,0.6-0.1,0.8-0.4c0.3-0.3,0.5-0.2,0.5-0.2C65.1,30.2,64.4,30.2,63.9,30.3z M126.1,5.7
	c0.8-0.1,1.1-0.7,1.1-0.7s-2.6-0.2-3.5,1.2c-0.1,0.1-0.2,0.3-0.2,0.5c0.3-0.3,0.7-0.5,1.1-0.6C125.1,5.9,125.7,5.8,126.1,5.7z
	 M134.6,8.9c-0.1-0.1-0.6-0.8-1.3-0.6c-0.1,0-0.3,0.1-0.5,0.2c0,0-0.1,0-0.1,0c0,0,0.1,0.1,0.2,0.1C133.4,8.8,134.6,9.5,134.6,8.9z
	 M138.4,13.6c-0.1-0.7-0.8-2.3-1.4-2.2c-0.2,0-0.5,0.2-0.5,0.2s0.2,0.1,0.4,0.3C137.3,12.4,137.6,12.5,138.4,13.6z M139.2,18.6
	c0.2-0.5,0.5-1.6,0.2-1.8c-0.2-0.1-0.6,0.1-0.6,0.1s0.1,0.1,0.1,0.3C139.1,17.7,139.1,18.1,139.2,18.6z M130.7,6.9
	c0.8,0,1.3-0.5,1.3-0.5s-3.4-0.7-3.8,0.9c0,0,0,0,0,0l0,0C129.1,6.9,129.9,6.9,130.7,6.9z M98.7,35.7c0,0.7-1.4,0.5-1.4,0.5
	s0.2,0,0.7,1c0.4,1,0.3,2.7,0.3,2.7S99.2,37.6,98.7,35.7z M97.5,9.1c0.1,0.1,0.3,0.1,0.5,0.2c0.9,0.4,1.9,0.7,2.4,1.2
	c0.3,0.2,0.4,0.4,0.5,0.6c0.1-0.3,0.2-1,0-1.5c-0.2-0.4-0.4-0.6-0.9-0.8c-0.1,0-0.1-0.1-0.2-0.1c-0.4-0.1-0.7-0.2-1-0.3
	c-0.9-0.3-1.3-0.4-2-1.1l0,0c-0.1,0.1-0.1,0.4-0.2,0.6c0,0.1,0,0.2,0,0.3C96.6,8.5,96.9,8.8,97.5,9.1z M93.6,10.1
	c1.3,0.3,2.9,1.3,2.9,1.3c-0.4-1.1-2.9-2.3-3.2-2.8C93.2,8.7,92.1,9.8,93.6,10.1z M106.3,11.6c0,0,0.1-0.8,1.1-1.5
	c1.5-1,2.4-0.4,2.4-0.4s-0.2,0.1-0.6,0.4c-0.1,0.1-0.3,0.3-0.4,0.5c-0.1,0.3-0.2,0.5-0.1,0.6c0.1,0.1,0.2,0.2,0.4,0.2
	c0.5,0,1.2-0.4,1.9-1.1l0,0c0,0,0-0.1,0.1-0.1l0,0c0.2-0.2,0.4-0.5,0.6-0.8c-0.2,0.1-0.6,0.2-1.1,0.2c-0.3,0-0.6-0.1-0.9-0.3
	c-0.4-0.2-0.7-0.3-1-0.3c-0.6,0-1.4,0.2-1.7,0.4c-0.9,0.6-1,1.4-0.9,1.8C106.1,11.3,106.2,11.5,106.3,11.6z M98.4,47.7
	c-0.3,0-0.5-0.4-0.9-0.3l-0.1,0.4l-0.1,0.5l-0.1,0.2c0,0,0.6,1.1,2,1.1c0.8-0.4,1.3-0.9,1.6-1.3c0.1-0.1,0.2-0.3,0.3-0.4
	c0.4-0.6,0.4-0.9,0.4-0.9S101.3,48,98.4,47.7z M102.7,10.9c0,0,1.1-0.5,1.1-1.2c0-0.3-0.2-0.7-0.3-1c-0.2-0.4-0.4-0.7-0.4-0.8
	c-0.1,0.1-0.5,0.2-0.7,0.5c-0.2,0.6,0.2,1.2,0.3,1.6C102.8,10.4,102.7,10.9,102.7,10.9z M118.7,9c0.3-0.4,1-1.1,1.5-1.8
	c0.2-0.3,0.1-0.6,0.1-0.6s-0.4,0.2-1.1,0.7c-0.4,0.2-0.6,0.8-0.6,1.2C118.5,9,118.7,9,118.7,9z M136,47.6c-1-0.8-2-1.2-2-1.2
	s0.7,0.3,1.1,1.1c0.8,1.6,2.2,1.9,2.2,1.9S137.2,48.5,136,47.6z M135,52.1c0.1-1-0.5-2.4-0.5-2.4c0,2.6-0.4,3.7-0.4,3.7
	s-0.3-0.9-0.8-1.9c-0.9-1.6-2.2-2.9-2.2-2.9s0.5,0.9,0.8,1.8c0.4,1.4,0.9,3.2,1.6,3.8c0.8,0.7,1.6,0.9,1.6,0.9S134.7,54.7,135,52.1z
	 M131.7,55.8c-0.2,1.7-0.8,2.8-0.8,2.8s0-1.4-0.6-3.6l0,0c0,0,0,0,0-0.1c-0.1-0.3-0.2-0.7-0.3-1.1c0,0,0,0,0,0c0,0,0.1,1.4,0,2.3
	c-0.2,1-0.2,2.4,0.3,3.2c0.5,0.7,1.4,0.4,1.4,0.4s-0.4-0.5-0.2-1c0.2-0.4,0.5-1.1,0.5-1.9c0.1-1.9-0.2-3.2-0.2-3.2
	S131.8,54.7,131.7,55.8z M62.5,20.5c0.3,0.1,0.4-0.1,0.4-0.1s-0.5-0.7-0.6-2.1C62.1,19.1,62.3,20.4,62.5,20.5z M62.6,15.4
	c0,0,0.3-0.7,0.4-1c0.2-0.5,0.5-0.9,0.5-0.9s-0.1-0.1-0.4,0c-0.3,0.1-0.4,0.2-0.5,0.5C62.6,14.3,62.6,15,62.6,15.4z M137.9,43.6
	c-0.1-0.3-0.2-0.5-0.4-0.6c0.3,1.1,0.1,1.6,0.1,1.6l-0.4-0.5c-0.4-0.5-3.3-2.7-3.3-2.7s1.9,1.7,2.6,3c0.5,1,1.1,1.5,1.6,1.5
	c0,0,0-1.6-0.1-2.1C137.9,43.7,137.9,43.7,137.9,43.6z M137.6,31.2c-0.4,0.4-0.9,0.5-0.9,0.5s0.3,0.2,0.6,0.4
	c0.2,0.2,0.6-0.2,0.8-0.6c0.3-0.4,0.2-1.1,0.2-1.1S138.2,30.8,137.6,31.2z M131.8,32.6c0,0,0.3,0.7-1.8,0.7c0.3,0.8,1.1,0.7,2.8,2.7
	c2.2,2.7,1.6,2.8,2.7,3.4c0-1.5-0.7-3.6-0.7-3.6l1-0.2c0,0-0.1-0.1-0.6-0.6c-0.5-0.5-1.6-1.4-1.6-1.9c0-0.5,2.6-1.6,2.6-1.6
	c-2.1,0.3-4-0.7-4-0.7s-0.2-0.5,0.9-1c1.1-0.5,1.8-1.3,1.8-1.3c-1.1-0.1-0.5-0.5-2.3-1c-1.8-0.5-1.7-1.4-1.7-1.4
	c1.3,0,3.5-1.6,4.8-3.3c0,0-0.9,0.6-1.1,0.3c-0.1-0.2,0-0.4,0.1-0.6c0.2-0.3,0.7-0.5,0.8-0.7c0.6-1.3,0.2-3.2,0.2-3.2
	s0.2,0.3,0.8,0.6c0.5-1.7-0.2-2.9-0.2-2.9s0.3-0.3,1.2-0.1c-0.4-1.4-1-2.3-3.3-3.1c0.1-0.5,1.2-0.3,1.2-0.3
	c-1.3-2.1-2.6-2.7-5.1-2.3c0.6-1.1,1.9-1.4,1.9-1.4s-0.8-0.7-2.2-0.8c-3.3-0.2-3.1,1.6-4.2,1.3c0-0.9,1.1-1.9,1.1-1.9
	s-1.3-0.3-2.8,0.3c-3.1,1.4-2.9,2.5-3.6,3.7c-0.8-1.1-0.6-2.6-0.6-2.6s-1,0.4-1.6,1.9c-0.6,1.5-0.7,1.7-0.7,1.7
	c-0.7-0.6-0.2-1.3-0.7-1.5c-0.8,1.2-0.3,1.8-0.7,3.6c-0.2-1-0.9-1.4-0.9-1.4s0.1,0.5-0.4,1.3c-0.4-0.6-0.4-1.3-0.4-1.6
	c0,0.2-0.2,0.7-1.3,1.2c-1.4,0.7-3.6,0.6-3.6,0.6l3,1.1c0,0-0.3,0.7,0.2,1.1c0.5,0.4,1.4,0.1,3.2,0.4s2,1.8,2,1.8s1.4-1.4,3.7-1.5
	c-1.9,0.9-1.6,2.3-1.7,2.5c0.3-0.2,2.6-2.1,5.8-2.2c-2.4,1.3-3.4,3.5-3.4,3.5s3.3,0.1,5.4,1.4c-1.6-0.7-4.2,0.1-4.2,0.1
	s2.8,0.2,5.9,2.9c-0.9-0.7-3.2-0.3-3.2-0.3s0.7,0.6,2.8,1.8c2.1,1.2,2.3,2.7,2.3,2.7s-0.2-0.5-0.9-0.8c-0.4-0.2-3.5-0.5-3.5-0.5
	s1.7,1,2.7,2.3C130.8,32.6,131.8,32.6,131.8,32.6z M128.4,43.6c-0.4,0.8,0.1,4,0.1,4s-0.1-0.5-0.5-1.1c-0.1-0.1-0.2-0.2-0.3-0.4
	c-0.1-0.1-0.3-0.3-0.5-0.4c-0.4,0.9,0.3,1.1,0.6,3.7c-1-1.4-2.6-1.6-2.6-1.6s0.6,1,0.5,4.2c-0.3-1.1-1.7-1.4-1.7-1.4
	s-0.2,0.4,0.8,3.1c-3.5-1.9-6-1.9-6.2-1.8c0.1-0.1,0.2-0.2,0.6-0.5c0.4-0.3,1.1-0.6,2.1-0.8c-0.1-0.2-0.1-0.3-0.2-0.5
	c-0.3-0.7-0.8-1.2-1.3-1.6c-1-0.7-2.1-0.7-2.1-0.7s2.6-1.2,6.6,1.9c-0.1-0.2-0.1-0.4-0.2-0.7c-0.2-0.6-0.6-1.1-0.9-1.6
	c-1.3-1.7-3.1-2.3-3.1-2.3s1.2-0.6,3.6,1.1c-0.2-1.7-0.6-2.7-0.6-2.7s0.9-0.1,3.1,1.5c-0.4-2.1-1-3.2-1.9-3.8
	c1.6-0.4,2.7,0.7,2.7,0.7s-0.1-1.2-1.6-3.2c-1.5-1.9-1.4-2.5-1.4-2.5s-0.1-0.2,0.8-0.1c0.8,0.1,1.3,0.8,1.3,0.8s0-0.5-1.3-2.8
	c-2.1-3.5-3-2.8-4.7-4.4c0,1.7,0.5,1.1,0.7,3.3c0.1,2.2-0.4,2.7-0.4,2.7s-0.2-1.7-1.4-1.8c0,0.7,0.2,6-3.6,6.7
	c0.3-2-0.4-3.6-0.4-3.6s1,0.1,2.7-1.8c-0.8-3.3-4.1-4-4.1-4s0.1-0.7,1.7-1c-2.8-2.4-5.6-0.6-5.6-0.6s-0.2-0.3,0.6-1.4
	c-2.5,0.6-3.4,2.5-3.4,2.5s-0.6-0.4-0.8-1.2c-0.5,0.1-1.4,2.1-1.7,3.7c-0.4,1.7,0.6,2,0.2,2.1c-0.4,0.1-0.4-0.5-0.9-0.8
	c-0.6-0.2-1.1,0.2-1.4,1.8c-0.3,1.6,0.4,2.2,0.7,2.3c0.3,0.1,0.5-0.4,0.9-0.5c0.4-0.1,0.4,0.1,0.4,0.4s1.4,0.9,1.4,0.9
	s-0.4,1.1-0.6,2c-0.2,0.9,0,1.6,0.6,1c0.6-0.6,0.9-0.2,0.9-0.2s-0.3,0.3-0.1,0.6c0.2,0.3,0.6,0.7,0.7,2.1c0.1,1.4,0.5,1.8,1.6,3
	c0.1,0.1,0.1,0.1,0.1,0.1c0.8,0.8,1.4,1.5,1.9,2.1c0.2,0.2,0.4,0.4,0.5,0.6c0,0,0.1,0.1,0.1,0.1c0,0.1,0.1,0.1,0.1,0.2
	c0.1,0.1,0.1,0.2,0.2,0.3c0.3,0.6,0.5,1.1,0.5,1.1s-0.1-0.3-0.9-0.8s-1-0.3-1-0.3s-0.1,0.1,0.1,0.7c0,0.1,0.1,0.3,0.1,0.5
	c0.1,0.3,0.2,0.5,0.3,0.8c0.2,0.4,0.5,0.9,0.6,1.8c0,0.1,0,0.2,0,0.3c0.1,0.3,0.1,0.6,0.1,1c-0.2-0.6-1.1-0.9-1.9-1.1
	c-0.1,0.1-0.1,0.2-0.1,0.3c0,0.2,0,0.4,0.1,0.6c0,0.1,0.1,0.3,0.2,0.5c0.2,0.6,0.2,1.5,0.2,1.5s-0.1-0.4-1.3-1
	c-0.1,0.2-0.1,0.4-0.1,0.5c0,0.1,0,0.1,0,0.2c0,0.2,0,0.5,0,0.9c0,0.9-0.4,1.5-0.4,1.5s-0.3-0.9-0.9-0.8c-0.3,0.1-0.6,0.2-0.5,0.5
	c0,0.4-0.4,0.9-0.4,0.9s0-0.3-0.7-0.3c-0.8,0.1-0.7,0.8-1.2,1c-0.6,0.2-0.8-0.2-1.1-0.3c-0.4-0.1-0.8,0.2-0.8,0.2s-0.1-0.3-0.5-1
	c-0.4-0.6-0.9-0.5-1.3-0.4c0-0.3,0.2-0.3,0.6-0.6c0.2-0.1,0.4-0.3,0.6-0.7c0.3-0.6,0.5-1.5,0.5-1.5s1.1,0.2,1.8,0.1
	c0.7-0.2,1-0.4,1.2-0.9c0.2-0.5,0.5-1.1,1.1-2.2s0.9-2.1,0.9-2.8c-0.1-0.8,0.1-0.8,0.1-1.6c0-0.2,0-0.3-0.1-0.5
	c-0.1-0.3-0.6-0.4-1.6-1.2c-0.3-0.2-0.6-0.4-0.8-0.5c-0.6-0.3-0.7-0.1-0.7,0v0c0,0,0.1,0.1,0.2,0.3c0.4,0.5,1,1.3,1.1,1.9
	c0,0.1,0.1,0.2,0.1,0.2c0.1,0.7-0.3,0.8-0.3,0.8s-0.3-0.8-2.1-0.8s-2,0.9-3.5,0.8c-1.4-0.1-0.8-0.7-2.4-1c-0.6-0.1-2.4,0.3-2.8,0.5
	s-0.6,0.4-0.6-0.1c0-0.2,0-0.3,0-0.5c0.1-0.2,0.2-0.4,0.4-0.7c0.4-0.6,0.5-0.8,0.9-1c0.3-0.1,0.4-0.2,0.6-0.3
	c0.2-0.1,0.3-0.2,0.3-0.2s-0.4-0.1-0.9-0.1s-0.7,0.1-1.3,0c-0.6-0.1-1,0.7-1.6,1.9c-0.3,0.7-0.6,0.9-0.8,1.2c-0.1,0.2-0.1,0.4,0,0.9
	c0.3,0.9,0.5,3.2,1.3,3.8c0.8,0.7,0.6,0.8,1.1,1.3c0.4,0.4,0.8-0.2,1.2,0c0.7,0.3,0.3,0.9,0.8,1.4c0.4,0.4,1,0.6,1.2,1.4
	C97,60,97,60.2,97,60.4c-0.5,0-0.8-0.6-1.3-0.6c-0.5,0-0.3,0.6-1.1,1.1c-0.7,0.5-1,0.2-1.1-0.2c-0.1-0.5-1.5-0.8-2.8-0.1
	c-0.8-2.2-1.3-2.1-1.3-2.1s-0.4-0.3-0.9,1.9c-0.2-0.4-0.2-1.1-0.1-2.5c-0.4,0-0.6,0-1.3,1.4c0-0.6,0-1.1,0-1.6c0.1-1,0.2-2,0.7-3
	c0,0,0-0.1-0.1-0.2c-0.1-0.2-0.3-0.5-0.6-0.6c-0.4-0.1-0.4,0.5-1.2,0.6c0.1-0.2,0.1-0.3,0.2-0.5c1.3-3.8,1.7-3.7,2.7-5.2
	c0.1-0.2,0.2-0.4,0.3-0.5c0.2-0.3,0.3-0.6,0.4-0.8c0.2-0.6,0.3-1.2,0.9-2.7c-0.7-0.2-1.8-1.6-1.8-1.6s0.5,0.3,1.1,0.1
	s0.7-0.6,0.7-0.6s0.2-0.2,2-0.7c0.3,0.2,0,0.7,0.6,1.5c1.3-1.5,1-2.4,1.8-4.2c0.6,0.1,1.4,0.6,1.4,0.6s0.4,0.1,0.4-3
	c0-4.8-1.3-6-1.4-6s0.1,0.6-0.4,0.6c-0.5,0-0.4-0.2-1.1-1.2c-0.8-1-1.3-1.1-2.1-1.5C91,28.2,91,28.1,91,28.1s-0.2,0.5,0.2,1
	c0.4,0.5,0.1,0.7,0.1,0.7s-0.9-0.7-3.1-0.6c-2.2,0.1-1.6,0.4-2.2,0.5c0.2,0.4,1.6,0.6,1.5,0.9c-0.1,0.3-0.5-0.1-2.4,0.9
	c-1.8,1-2.7,3.1-2.4,3.3c0.3,0.2,0.6,0.4,0.8,0.7c0.2,0.3,0.9-0.7,0.9-0.7s-0.6,1-0.3,1.5c0.3,0.6,1,0.4,1.7,0.5
	c-0.8,0.9-0.1,3-0.1,3s-0.9-0.9-1.1-2.5c-0.5,0.7-1.1,0.7-1.1,0.7s-0.2-0.3,0-0.7c0.3-0.4,0-1-0.1-1.1c-0.2-0.2-0.6-0.3-2.5-0.1
	c-0.6,1.1-0.4,2.8-0.4,2.8s-1.2-0.4-1.7-2.4c-0.7-3.2,1.1-5,1.1-5s-0.3-0.5-1-0.5c-1.3,0.1-2,1.9-3.7,2.4c-1.6,0.6-2.4,0-2.4,0
	s-0.4,0.2,0.1,1.1c0.8,1.4,2.2,1.3,2.2,1.3c-0.1,0-0.5,0.1-1.9,1.6c-1.5,1.6-0.8,3.1-0.8,3.1s0.4-0.2,0.6-0.5
	c0.4-0.6,1.2-0.4,1.2-0.4s-0.2,0.4-0.8,1.6c-0.6,1.2-1.3,2.1-1.3,2.3c0,0.2,0.2,0.4,1.5-0.3c-0.6,1.2-0.6,1.7-0.1,2.4
	c0.6-0.9,1.7-2,3.4-2.3c-1.3,0.9-1.7,1.9-1.7,2.9c0,0,0.4-0.4,2.2-0.9c2.1-0.6,2.8,0.3,2.8,0.3s-0.8,0.2-2,0.9
	c-0.4,0.2-0.8,0.5-1.1,0.7c-0.9,0.6-1.3,1.3-1.5,1.6c-0.1,0.3-0.2,0.4-0.2,0.4s0.4-0.2,1.5-0.2c2.3-0.1,3.3,0.5,3.8,1
	c0.3,0.3,0.4,0.5,0.4,0.5s-3.8-0.9-6.8,4.2c-0.1-0.7-0.3-1.5,0.1-2.5c0.2-0.5,0.5-1.1,1-1.7c-0.1,0-0.1-0.1-0.2-0.1
	c-1-0.3-2,0.2-3.7,1.8c-0.1-0.5-0.1-0.9-0.1-1.4v0c0,0,0-0.1,0-0.1c0.2-1.5,1.1-2.7,1.6-3.2c0.1-0.1,0.2-0.2,0.2-0.2
	s-1.3-0.3-3.2,1.1c-0.1-1,0-1.4,0.5-2.2c0.1-0.3,0.3-0.6,0.6-1c0,0-0.1,0-0.1,0c-0.8,0.1-1.6,0.9-2.1,1.6c-0.1,0.1-0.1,0.2-0.2,0.3
	c-0.2,0.4-0.4,0.6-0.4,0.6s-0.3-1.1,0.1-2.9c0.1-0.4,0.2-0.9,0.4-1.4c0-0.1,0.1-0.3,0.1-0.4c-0.9,0.9-1.4,1.7-1.7,2.6
	c0,0,0,0.1,0,0.1l0,0c-0.4,1.3-0.3,2.6-0.3,4c0.1-0.1,0.2-0.3,0.2-0.4c0.1-0.2,0.3-0.3,0.5-0.4c0.4-0.3,0.8-0.3,0.8-0.3
	s-0.5,2-0.3,3.8c0.1-0.2,0.2-0.3,0.4-0.4c0,0,0.1-0.1,0.1-0.1c0.6-0.4,1.2-0.5,1.2-0.5S69,53.8,70.2,57c0-0.1,0.1-0.3,0.1-0.5
	c0.3-0.7,0.9-1.4,1.7-1.4c0.3,0,0.7,0.1,1,0.4c-0.1,3.1,0.6,4.8,1,5.6c0.1,0.2,0.2,0.4,0.3,0.5c-0.2,0.6-0.2,1.4-0.3,2
	c0,0.8,0,1.2,0,1.3c-0.4-0.4-0.9-1.4-1-1.9c-0.4-1.3-0.1-2.2-0.1-2.2s-0.5,0.1-0.9,1.2c-0.2,0.6,0,1.6,0.4,2.6
	c0.3,0.6,0.9,0.7,0.9,1.5c0,0,0.6-0.2,0.8-0.5c0.4,0.2,1.1,0.7,1.8,1.4l0,0c0.6,0.6,1.1,1,1.3,1c0.2-0.7,1-0.1,0.9-0.9
	c0.1,0.9,0.6,1.3,1.2,1.6c0,0,0.3-0.4,0.1-1.3l0,0c0.3,1.1,0.9,0.9,1.6,1.6c0,0,0.1-0.8,0.2-1.1l0,0c0.1,1.2,0.8,1,1.3,1.6
	c0-0.4-0.1-0.7,0-1c0.8,1.1,2.1,1.5,3.5,2.4c-0.2-0.9,0.6-0.9,0.4-1.2c1.6,1.9,2.2,2.2,3.8,2.4c-0.1-0.2-0.2-1-0.3-1.4
	c0.2,0.7,1,1.1,1,0.9c0-0.6,0.5-0.8,0.9-0.8c0.1,0.7,0.4,1.4,0.9,1.9c0,0,0.5-1.8,1.9-1.6c0,0.6,0,1.5,0,1.5
	c1.1,0.4,1.4-1.2,2.1-1.1c-0.1,0.9,0.5,2.1,1.1,2.1c0.1-0.9,0.4-1.4,1.1-2.1c0.7,0.3,0.9,1,1.1,1.4c0.8-0.2,1.4-1,1.2-1.6
	c0.8,0.2,1.1,1.7,1,2.1c0,0,1.2-0.7,1-1.7c0.5,0.3,0.6,1,0.6,1c0.9-0.7,0.6-1,0.7-1.7c0.5,0.2,1.1,1.2,1.3,1.7
	c0.3-0.6,1.1-2.2,1.8-2.3c0.9,0.4,0.3,1.6,0.3,1.6s1.2,0,2.1-1.1c0.1-0.2,0.3-0.4,0.3-0.7c0.5,0.6,1.4,1.1,1.4,1.1s0.6-0.7,1.3-1.1
	c0.8-0.4,1.8-0.4,1.6,0.2c1.2-0.2,1.6-0.8,1.7-1.2c0.1,0.2,0.3,0.5,0.7,0.7c0.6,0.3,1.3,0.2,1.3,0.2s-0.9-1.3,0.3-2.8l0,0
	c0.3,0.4,0.7,1.1,0.7,1.4c0,0,1.5-1.1,1.1-2.5c0.3-0.1,0.9,0.6,1,1.6c0.9-0.5,2-1.5,2.2-2.1c0.5,0.9,1.9,0.2,1.9,0.2
	s-0.4-0.3-0.3-0.7c0,0,2.4-1.8,1.5-4.2c-0.1-0.1-0.1-0.3-0.2-0.4c0-0.1,0-0.1-0.1-0.1c-0.1-0.1-0.1-0.2-0.2-0.4
	c0,0.2-0.1,0.5-0.1,0.7c-0.2,0.8-0.5,1.6-0.8,2.3c-0.1,0.3-0.3,0.6-0.4,0.9c-0.2,0.4-0.4,0.7-0.5,0.9c-0.1,0.1-0.1,0.2-0.1,0.2
	s0-0.1,0-0.3c0-0.2,0-0.5,0-0.9c0-0.6-0.2-1.2-0.6-1.8c-0.2-0.3-0.4-0.5-0.7-0.8c0-0.2,0-0.4,0-0.6c0-1.1,0.1-1.4,0.1-1.4
	s0.4,0.1,1,0.9c0.1,0.2,0.3,0.4,0.4,0.7c0.1-0.4,0.3-0.7,0.3-1.1c0.1-0.7,0.1-1.6,0-3.7c0.2,0.1,0.5,0.2,0.7,0.5
	c0.3,0.3,0.6,0.7,0.8,1c0.2,0.3,0.3,0.5,0.3,0.5c0.3-0.9,0.8-2.7,0.6-5.3c-0.2-1.7-0.7-2.6-0.7-2.6c1,0,1.7,1.3,1.7,1.3
	S130.4,47.2,128.4,43.6C128.4,43.5,128.4,43.6,128.4,43.6z M89.2,35.5c0.2-0.1,0.4-0.2,0.6-0.3c0.1,0.6,0.2,0.6,0.2,1.1
	c-0.3,0.1-0.5,0.3-0.8,0.4C89.5,36.2,88.9,35.9,89.2,35.5z M88.4,35.3c-0.5,0.6-0.9,3,1.4,3.4c2.6,0.4,2.9-2.2,2.9-2.2
	s0.8,0.5,1.1,1.6c0,0-1.9,1.9-4.4,1.6s-2.8-2.9-2.8-2.9S87.4,35.2,88.4,35.3z M82.1,57.6c-0.1,0.6-1.5,1.1-1.9,0.6
	C80,56.9,81.3,57.8,82.1,57.6z M78,53.1c0.7-0.8,2-1.5,2.4-1.6c0.7-0.1,0.8,0.1,0.8,0.1c-0.2,0.1-0.3,0.3-0.4,0.5
	c-0.5,1.1-3.2,2.6-3.7,2.6C77.3,54.1,77.6,53.6,78,53.1z M78.2,66.6c-0.1-0.2-0.2-0.5-0.2-0.8c-0.1,0.3-0.3,0.5-0.5,0.6
	c-0.2,0.1-0.3,0.1-0.4,0.1c-0.1,0-1.3-0.3-1.9-1.6c-0.1-0.2-0.2-0.4-0.2-0.6c-0.1-0.4-0.1-0.8,0-1.1c0.1-0.4,0.2-0.6,0.2-0.6
	c0,0.1,0,0.2,0,0.3c0,0.2,0.4,0.2,0.5,0.9c0.6-1.9,1.4-1.5,1.7-1.3c0.1,0,0.1,0.1,0.1,0.1s-0.1,0.2-0.2,0.6
	c-0.1,0.6-0.2,1.4,0.2,2.6c0.4-0.6,0.4-0.7,0.4-1c0-0.1,0.1-0.3,0.2-0.6c0,0,0-0.1,0.1-0.1c0.4-0.7,0.8-0.9,0.8-0.9
	s-0.1,0.5-0.2,1.8c-0.1,0.5,0,0.9,0,1.2c0.1,0.5,0.3,0.9,0.3,0.9S78.4,67.1,78.2,66.6z M78.1,56.7c-0.2-0.4,0.1-0.9,0.4-1.3
	c0.3-0.3,2-1.7,3-2c-0.6,0.9-0.9,0.5-1.4,1.9C79.6,56.7,78.1,56.7,78.1,56.7z M82.2,67.5c0,0.1,0,0.1,0,0.2c0,0.1,0,0.3,0,0.4
	c0,0.1,0,0.1,0,0.2c-0.1-0.1-0.2-0.2-0.3-0.2c-0.8-0.8-0.5-1.1-0.9-1.6c0,0.7-0.4,0.5-0.4,1.3c0,0.1,0,0.1,0,0.2
	c-0.1-0.1-0.2-0.2-0.2-0.3c-0.3-0.4-0.3-0.8-0.2-1.3c0.1-0.3,0.1-0.6,0.3-1.1c0.1-0.2,0.1-0.4,0.1-0.6c0-0.3,0-0.5,0-0.6
	c0-0.2-0.1-0.4-0.1-0.4c0,0,0,0,0,0s0,0,0,0c0.1,0.1,0.9,0.5,0.9,1.4c0,1,0.5,1.1,0.5,1.1s0.1-0.4,0.4-0.7c0.3-0.4,0.5-0.4,0.7-0.3
	c0.1,0.1,0.2,0.3,0.2,0.3S82.4,66,82.2,67.5z M85.5,69.1c-0.3-0.2-0.6-0.3-1-0.3c-0.8-0.1-1.1-0.6-1.3-1c-0.1-0.3-0.1-0.6-0.1-0.6
	s0.1,0.2,0.6,0.2c0.1,0,0.1,0,0.1,0c0.2,0,0.3,0.1,0.4,0.2c0.3,0.2,0.4,0.6,0.4,0.6s0-0.4,0.1-1c0-0.1,0.1-0.2,0.1-0.3
	c0.2-0.3,0.7-0.2,0.7-0.2s-0.5,1.1-0.1,1.7c0.2,0.4,0.3,0.6,0.4,0.8c0,0.1,0,0.2,0,0.2C85.8,69.3,85.7,69.2,85.5,69.1z M89.4,69.7
	c-0.1,0.1-0.2,0.2-0.2,0.4c-0.1,0.2,0,0.4,0,0.4s-0.9-0.1-1.5-0.6c-0.1-0.1-0.1-0.2-0.2-0.3c-0.5-0.8-0.3-1.3-0.1-1.6
	c0.2-0.2,0.4-0.4,0.4-0.4c0.1,0.1,0.2,0.1,0.2,0.2c0.2,0.2,0.2,0.4,0.2,0.6c0,0.3,0.1,0.7,0.4,1.2c0,0,0,0.1,0.1,0.1c0,0,0,0,0-0.1
	c0.1-0.5,0.5-0.8,0.8-0.9c0.1,0,0.2-0.1,0.2-0.1S89.8,69.2,89.4,69.7z M105.6,64C105.5,64,105.5,64,105.6,64c0,0,0,0.4,0.1,0.8
	c0.1,0.2,0.2,0.5,0.4,0.6c-1.4-0.5-1.1-0.6-1.7-0.5c-0.2,0.2-0.3,0.4-0.3,0.6c0,0.1,0,0.3,0,0.4c0,0.2,0.1,0.4,0.2,0.6
	c-0.8-0.4-1.1-0.8-1.1-0.8s0.3,0.8,0,1.5c-0.5-1-1.1-0.7-1.1-0.7s0.3,1-0.2,1.4c-0.1-0.7-0.4-0.6-0.4-0.6l-0.3,0.3
	c0,0-0.1-0.5-0.6-0.8c-0.8,0.6-0.4,1-1.1,1c-0.5-1.4-0.7-1.2-0.7-1.2s-0.5,0.2-0.7,1.7c-0.8-1-0.5-1.6-0.5-1.7v0c0,0,0,0,0,0
	c-0.1,0-0.5,0.1-0.6,0.9c-0.3-0.7,0-0.9-0.3-1.1c-0.2-0.2-1,0.3-1,1.1c-0.8-0.5-0.7-1.1-0.6-1.2c0,0,0-0.1,0-0.1s0,0-0.1,0
	c-0.1-0.1-0.6-0.2-1.2,0c-0.8,0.3-1.2,0.6-1.2,0.6s0-0.3,0.1-0.6c0.1-0.3,0.2-0.7,0.4-1c0.4-0.4,0.4-0.5,0.1-0.6c-0.1,0-0.3,0-0.5,0
	c-0.8,0-1.3,0-1.3,0s0.3-0.1,0.4-0.5c0,0,0,0,0,0c0-0.2,0-0.3-0.1-0.3c-0.1-0.1-0.3-0.3-0.3-0.6c0,0,0.2,0.1,0.4,0.3
	c0.1,0.1,0.2,0.1,0.3,0.2c0.3,0.3,0.6,0.6,1.5,0.4c1-0.2,1.5-0.1,1.5,0.3c0,0.4,0.4,0.4,1,0.4c0.4,0,1.1,0.1,1.4,0.1
	c0.8-0.1,1.5-0.4,1.9-0.3c0.7,0.1,0.7,0.9,1.4,0.4c1-0.8,1.9-0.8,2.8-0.6c0.9,0.1,0.9,0,0.9,0s-0.3-0.6,0.6-0.6c0.2,0,0.3,0,0.5-0.1
	c0.1,0,0.2-0.1,0.3-0.1c0.2-0.1,0.2-0.2,0.2-0.2s0.1,0.1,0.2,0.1c0.1,0.1,0.3,0.3,0.3,0.5C106,63.9,105.6,64,105.6,64z M109.9,70
	C109.9,70,109.8,70,109.9,70c-0.6,1-1.2,0.7-1.3,0.8l0,0c0-0.1,0.1-0.3,0.3-0.7c0-0.1,0.1-0.2,0.1-0.4c0.2-0.7,0-1.5,0-1.5
	c0.3,0,0.5,0.3,0.5,0.6c0,0.1,0,0.2,0,0.2c0,0.3,0,0.6,0,0.6s0.2-0.4,0.6-0.7c0.2-0.2,0.4-0.4,0.7-0.4C110.5,68.6,110.5,69,109.9,70
	z M115.5,52.7c1.3,0.1,0.7-0.8,3.8,1c0.9,0.5,1.5,1.1,1.9,1.7c1.2,1.6,1.1,3.2,1.1,3.2s-0.1-0.3-0.3-0.7c-0.2-0.4-0.5-0.9-1-1.4
	c-0.6-0.6-1.4-1.1-2.5-1.4C115.5,54.1,115.4,52.7,115.5,52.7C115.5,52.7,115.5,52.7,115.5,52.7z M110,35.6c0,0.2,0.1,0.8,0.1,1.3
	c-0.2,0.1-0.5,0.1-0.7,0.2c-0.2-0.3-0.2-0.6-0.3-0.9C109.5,36,109.7,35.6,110,35.6z M110.4,40c-2.2,0-3.2-1.4-3.4-2.1
	c0.3-1.1,1.2-1.4,1.2-1.4s-0.2,0.8,0.5,1.9c0.6,1.1,2.7,1.2,3.5,0c0.8-1.2,0.7-2.2,0.2-2.7c1.1,0.4,1.6,1.3,1.8,1.9
	C113.7,38.3,112.6,40,110.4,40z M115.9,69c-0.2,0.2-0.3-0.1-0.3-0.7c-0.5,0.3-0.4,0.8-0.7,1.1c-0.2,0.2-1-0.9-1-0.9s0,0-0.4,0.8
	c-0.4,0.8-1.3,0.6-1.3,0.6c0.1-0.4-0.5-0.6-0.2-0.8c-0.6,0.4-0.6,0.9-0.6,0.9s-0.2-0.2-0.1-0.7c0-0.2,0-0.4,0.1-0.6
	c0.2-0.8,0.7-1.4,1-1.6c0.1-0.1,0.1-0.1,0.2-0.1c0.1-0.1,0.2-0.1,0.2-0.1c-0.2,0.3-0.3,0.6-0.3,0.8c0,0.3,0.1,0.6,0.2,0.8
	c0.1,0.3,0.3,0.4,0.3,0.4s0-0.3,0.1-0.6c0-0.1,0.1-0.2,0.1-0.3c0.2-0.4,0.4-0.9,0.9-1.2c0.1-0.1,0.2-0.1,0.3-0.2
	c0,0,0.1-0.1,0.1-0.1c-0.2,0.2-0.3,0.6-0.2,1.1v0c0.1,0.3,0.2,0.5,0.3,0.8c0.1-0.1,0.1-0.4,0.2-1.1c0,0,0,0,0,0h0
	c0-0.2,0.1-0.4,0.1-0.6c0.2-0.7,0.7-1.1,1-1.4c0.2-0.1,0.3-0.2,0.3-0.2s0,0.3-0.1,0.9c0,0.1,0,0.1-0.1,0.2c-0.1,0.1-0.1,0.2-0.1,0.4
	c0,0.2,0,0.4,0,0.6c0.1,0.3,0.2,0.6,0.3,0.8C116.4,68.5,116.2,68.8,115.9,69z M118.3,66.6c-0.1,1.1-0.6,0.7-0.7,2.1
	c-0.3-0.1-0.4-0.2-0.5-0.4c-0.1-0.1-0.1-0.2-0.1-0.3c0-0.2,0.1-0.6,0.3-1c0-0.1,0-0.1,0.1-0.2c0.1-0.4,0.2-0.7,0.1-0.9
	c0-0.2-0.1-0.3-0.1-0.4c0,0,0,0,0,0c0-0.1-0.1-0.1-0.1-0.1s0,0,0.1,0c0.1,0,0.2,0,0.3,0.1c0.1,0,0.2,0.1,0.3,0.2c0,0,0.1,0,0.1,0.1
	c0,0,0,0,0.1,0.1c0.1,0.2,0.3,0.4,0.3,0.7C118.3,66.5,118.3,66.6,118.3,66.6z M118,64.4c0,0.5,0,1.1,0,1.1c0,0-1-1.1-0.9-1.8
	c0,0,0,0,0,0c0.1-0.5,0.5-0.5,0.7-0.2c0.1,0.1,0.1,0.2,0.1,0.4c0,0,0,0,0,0.1C118,63.9,118,64.2,118,64.4z M115.3,56.6l0-0.4
	l-0.1-1.3c0,0,2.5-0.2,3.4,4c0.1,0.3,0.1,0.5,0.1,0.8C117.3,56.8,115.3,56.6,115.3,56.6z M119.8,67.8c0,0,0.1-0.4-0.2-1.2
	c0-0.1-0.1-0.3-0.1-0.4c0-0.1-0.1-0.3-0.2-0.4c0-0.1-0.1-0.2-0.1-0.3c0,0,0-0.1,0-0.1c-0.1-0.1-0.1-0.3-0.1-0.4
	c-0.2-0.5-0.2-0.8-0.2-1.1c0-0.2,0.1-0.4,0.1-0.4c0,0,0.1,0,0.1,0c0,0,0,0.1,0,0.1c0.1,0.6,0.6,0.8,0.8,1c0.3,0.4,0.4,0.5,0.4,1
	C120.5,67.2,119.8,67.8,119.8,67.8z M123.1,65.9c-0.1,0-0.1,0-0.1,0s-0.3-1.6-0.5-2.6c0,0,0,0-0.1,0.1c-0.6,0.6,0.1,1.3-1,2.4
	c0.1-0.6-0.1-1.3-0.4-1.9c-0.3-0.9-0.8-1.6-0.8-1.6c0,0,0-0.1,0.1-0.1c0.1-0.1,0.3-0.2,0.6-0.1l0,0c0.1,0,0.1,0,0.2,0.1
	c0.4,0.2,0.6,0.9,0.6,0.9s0.1-0.1,0.1-0.2c0-0.1,0.1-0.4,0.1-0.8c0-0.9,0.3-1,0.3-1s0.6,0.2,1,1.2c0.1,0.1,0.1,0.3,0.1,0.5
	c0,0.2,0.1,0.4,0.1,0.6C123.6,65.3,123.3,65.8,123.1,65.9z M114.6,13C114.6,13,114.6,13,114.6,13C114.6,13,114.6,13,114.6,13z
	 M138.4,23.1c0,0-0.4,0.5-1.2,1c-1.1,0.7-2.4,0.9-2.4,0.9s1.2,0.6,2.7-0.1c-1.1,2.1-3.6,1.9-3.9,1.9c-0.1,0,1.6,0.4,3.2-0.3
	c0.5-0.2,1.2-0.9,1.2-0.9l-0.7,0C138.7,24.8,138.4,23.1,138.4,23.1z M133.9,30.1c0,0,1.3,0.8,2.7,0c1.8-1,2.1-2,2.1-2
	s-0.9,0.7-2.2,1.2C135.4,29.7,134.2,30.1,133.9,30.1z M137,33.6c-0.9-0.4-1.6-0.2-1.6-0.2s0.8,0.2,1.4,0.8c0.6,0.6,0.9,1.2,0.9,1.2
	S138.1,34,137,33.6z M136.2,36.7c0,0,0.4,0.7,0.7,1.6c0.2,0.9,0.4,1.5,0.4,1.5c0,0.2,0.9-0.4,0.3-1.5
	C137.2,37.5,136.2,36.7,136.2,36.7z M63.4,37.6c-0.6-0.1-1.3,0-1.9,0.2c-0.1,0-0.2,0.1-0.3,0.2c-0.2,0.2-0.4,0.4-0.4,0.7
	c0,0.3-0.1,0.6-0.1,0.6s0.6-0.1,0.8-0.4C62.5,37.9,63.4,37.6,63.4,37.6z M62.3,45.2c0.1-0.3,0.1-0.6,0.2-0.8
	c0.1-0.3,0.1-0.4,0.1-0.4c0.1-0.2,0.1-0.3,0.1-0.3s-1.5,0.4-1.7,2.6C61.5,46.3,61.9,46.1,62.3,45.2z M63.4,25.6
	c0.3,0.1,0.8,0.1,1.4,0.1c0.2,0,0.4,0,0.6-0.1c0.5-0.1,0.9-0.1,0.9-0.1s0,0-0.1-0.1c-0.2-0.1-0.6-0.4-1.5-0.7
	c-0.4-0.2-0.9-0.2-1.4-0.3c-0.6,0-1-0.1-1.5,0.6l-0.2,0.5C61.5,25.6,62.3,25,63.4,25.6z M139.2,20.1c-0.3,1.2-1.2,1.9-1.2,1.9
	s0.4,0.4,1.4-0.6C139.3,21.2,139.2,20.1,139.2,20.1z M63.2,47.8L63.2,47.8c0-0.5,0.1-0.8,0.1-0.8s-0.3,0.1-0.8,1
	c-0.5,0.8-0.2,1.6-0.8,2.2c0,0,0.3,0,0.7-0.1c0,0,0.1,0,0.1,0c0.1,0,0.2-0.1,0.3-0.1c0.4-0.3,0.5-1.2,0.6-1.9
	C63.2,48,63.2,47.9,63.2,47.8z M63.2,23.1c0.4-0.2,0.6-0.1,0.6-0.1s-1.5-0.6-1.9-1.6C61.8,22,62.8,23.3,63.2,23.1z M71.3,60.4
	c0.1-1.5,0.4-2.9,0.7-3.5c0,0-0.9,0.5-1.5,2.8c-0.8,3.3,0.4,4,1,4.2c0.2,0.1,0.2,0,0.1-0.1C71.3,62.8,71.3,60.7,71.3,60.4z
	 M128.6,56.6c-0.1,2.3-1.1,4.9-0.6,6.7c0.5-1.6,1.1-1.5,1.4-2.8c0.2-0.6,0.2-1.4-0.1-2.3C129.1,57.5,128.7,56.8,128.6,56.6z
	 M68.6,59.6c-1-1.5-0.3-3.9-0.3-3.9s-0.4,0.1-0.8,0.6c-0.4,0.4-1.1,1.3-1.4,2.1c-0.4,0.9-0.1,1.5-0.1,1.5s0.9-1.8,1.7-1.5
	c0,0.6-0.1,1.4,0.4,2c0.4,0.6,1.2,0.6,1.2,0.7c-0.1-1.4,0.4-3,0.4-3S69.2,58,68.6,59.6z M65.4,50.7c0,0-0.9,0.5-1.3,2.2
	c-0.2-0.4-0.4-0.9-0.5-1.4c-0.3,0.3-0.4,0.8-0.3,1.2c0.1,0.5,0.2,1,0.4,1.3l0.2,0.4c0,0,0.1,0.1,0.4,0.8l0,0c0,0,0.7-1.7,0.9-2.9
	C65.2,51.4,65.4,50.7,65.4,50.7z M65.2,55.4c-0.1-0.1-0.1-0.3-0.1-0.4l0,0c-0.5,0.4-0.5,1.4-0.4,2.4l0,0c0.1,0.6,0.5,1.3,0.5,1.3
	s0.5-3.4,1.4-5.3C66.5,53.3,65.7,53.6,65.2,55.4z M64.4,10c0.1,0.2,0.4-0.1,0.7-0.3c0.5-0.4,1-0.9,1.7-1.3
	C64.6,9.2,64.4,9.7,64.4,10z"/>
<path class="st0" d="M82.2,94.9l1,0.9c0,0,0,0.1-0.1,0.1c0,0-0.1,0.1-0.2,0.2c-0.1,0.1-0.3,0.2-0.4,0.3c-0.1,0.1-0.4,0.2-0.6,0.2
	c-0.2,0.1-0.5,0.1-0.8,0.1c-0.8,0-1.4-0.2-1.9-0.7c-0.5-0.5-0.8-1.1-0.8-1.9s0.3-1.4,0.8-1.9s1.2-0.8,1.9-0.8c0.3,0,0.5,0,0.7,0.1
	c0.2,0.1,0.4,0.1,0.6,0.2s0.3,0.2,0.4,0.3c0.1,0.1,0.2,0.1,0.2,0.2l0.1,0.1l-1,0.9c0,0,0,0,0-0.1c0,0-0.1-0.1-0.1-0.1
	c-0.1-0.1-0.1-0.1-0.2-0.1c-0.1,0-0.2-0.1-0.3-0.1c-0.1,0-0.2-0.1-0.4-0.1c-0.4,0-0.7,0.1-0.9,0.4c-0.2,0.3-0.4,0.6-0.4,1
	s0.1,0.7,0.4,1c0.2,0.3,0.6,0.4,0.9,0.4c0.1,0,0.3,0,0.4-0.1c0.1,0,0.2-0.1,0.3-0.1c0.1-0.1,0.1-0.1,0.2-0.2
	C82.1,95,82.2,95,82.2,94.9L82.2,94.9z M87.5,91.5l2,5.1H88l-0.3-0.9h-1.8l-0.3,0.9h-1.5l2-5.1H87.5z M87.3,94.7l-0.5-1.5l-0.5,1.5
	H87.3z M94.2,94.9h-2v1.8h-1.4v-5.1h3.8v1.2h-2.4v0.9h2V94.9z M99.9,96.7h-3.9v-5.1h3.9v1.2h-2.5v0.7h2.1v1.1h-2.1v0.8h2.6
	C99.9,95.5,99.9,96.7,99.9,96.7z M97.4,91.2l0.4-1.2h1.4l-0.8,1.2H97.4z M102.7,95.2c0-0.3,0.1-0.6,0.2-0.8c0.1-0.2,0.4-0.5,0.8-0.7
	c-0.3-0.4-0.4-0.7-0.4-1c0-0.4,0.1-0.6,0.4-0.9c0.3-0.2,0.7-0.4,1.1-0.4c0.5,0,0.9,0.1,1.1,0.4c0.3,0.2,0.4,0.5,0.4,0.9
	c0,0.5-0.3,0.9-0.9,1.3l0.5,0.5l0.7-0.8h1.3l-1.3,1.5l1.3,1.4h-1.5l-0.6-0.6c-0.2,0.2-0.5,0.4-0.7,0.5c-0.2,0.1-0.5,0.1-0.8,0.1
	c-0.4,0-0.8-0.1-1.2-0.4C102.9,96,102.7,95.7,102.7,95.2z M104.6,95.6c0.2,0,0.4-0.1,0.7-0.3l-0.8-0.9c-0.3,0.2-0.4,0.4-0.4,0.6
	c0,0.1,0.1,0.3,0.2,0.4C104.3,95.6,104.4,95.6,104.6,95.6z M104.5,92.8c0,0.1,0.1,0.3,0.3,0.6c0.3-0.1,0.4-0.3,0.4-0.5
	c0-0.1,0-0.2-0.1-0.3c-0.1-0.1-0.2-0.1-0.3-0.1c-0.1,0-0.2,0-0.3,0.1C104.5,92.6,104.5,92.7,104.5,92.8z M114.4,94.9l1,0.9
	c0,0,0,0.1-0.1,0.1c0,0-0.1,0.1-0.2,0.2c-0.1,0.1-0.3,0.2-0.4,0.3c-0.1,0.1-0.4,0.2-0.6,0.2c-0.2,0.1-0.5,0.1-0.8,0.1
	c-0.8,0-1.4-0.2-1.9-0.7c-0.5-0.5-0.8-1.1-0.8-1.9s0.3-1.4,0.8-1.9s1.2-0.8,1.9-0.8c0.3,0,0.5,0,0.7,0.1c0.2,0.1,0.4,0.1,0.6,0.2
	s0.3,0.2,0.4,0.3c0.1,0.1,0.2,0.1,0.2,0.2l0.1,0.1l-1,0.9c0,0,0,0,0-0.1c0,0-0.1-0.1-0.1-0.1s-0.1-0.1-0.2-0.1
	c-0.1,0-0.2-0.1-0.3-0.1c-0.1,0-0.2-0.1-0.4-0.1c-0.4,0-0.7,0.1-0.9,0.4c-0.2,0.3-0.4,0.6-0.4,1s0.1,0.7,0.4,1
	c0.2,0.3,0.6,0.4,0.9,0.4c0.1,0,0.3,0,0.4-0.1c0.1,0,0.2-0.1,0.3-0.1c0.1-0.1,0.1-0.1,0.2-0.2C114.3,95,114.4,95,114.4,94.9
	L114.4,94.9z M117.1,96c-0.5-0.5-0.8-1.1-0.8-1.9c0-0.7,0.3-1.4,0.8-1.9c0.5-0.5,1.2-0.8,1.9-0.8c0.8,0,1.4,0.2,1.9,0.7
	s0.8,1.1,0.8,1.9c0,0.7-0.3,1.4-0.8,1.9c-0.5,0.5-1.2,0.8-1.9,0.8C118.3,96.7,117.6,96.5,117.1,96z M118.1,93.1
	c-0.2,0.3-0.4,0.6-0.4,1s0.1,0.7,0.4,1c0.2,0.3,0.6,0.4,0.9,0.4s0.7-0.1,0.9-0.4c0.2-0.3,0.4-0.6,0.4-1s-0.1-0.7-0.4-1
	c-0.2-0.3-0.6-0.4-0.9-0.4C118.7,92.8,118.4,92.9,118.1,93.1z"/>
<path class="st0" d="M64.7,79.6c2.3,0,3.6,1.3,3.6,2.4c0,0.9-0.6,1.5-1.5,1.5c-1.7,0-0.9-1.9-2.1-1.9c-0.7,0-1.1,0.7-1.1,1.3
	c0,1.1,0.9,2.3,2.1,2.3c1,0,1.3-0.4,1.6-0.4c0.4,0,0.7,0.5,0.7,0.8c0,0.9-1.4,2.1-3.6,2.1c-2.4,0-4.3-1.7-4.3-4.1
	C60.2,81.4,62.1,79.6,64.7,79.6z M68.9,83.9c0-2.8,2.4-4.4,5-4.4c2.7,0,4.3,2.1,4.3,4.1c0,2.6-2.7,4.1-5,4.1S68.9,86.4,68.9,83.9z
	 M73.3,81.4c-0.5,0-0.8,0.5-0.8,0.9c0.1,1,0.4,3.4,1.4,3.4c0.6,0,0.7-0.5,0.7-1C74.7,84.1,74.4,81.4,73.3,81.4z M83.1,84.7
	c0,0.3,0,0.8,0.1,1c0.2,0.6,0.9,0.3,0.9,0.9c0,1-1.9,1-2.6,1c-0.7,0-2.9,0.1-2.9-1c0-0.5,0.7-0.4,0.9-0.9c0.2-0.6,0.2-2.6,0.2-3.4
	c0-0.6,0-1.8-0.1-2.5c-0.2-1.1-1.1-0.7-1.1-1.6c0-1.4,4.1-1.7,4.3-1.7c0.5,0,0.6,0.4,0.6,0.8c0,0.4-0.2,2.1-0.2,4.3L83.1,84.7
	L83.1,84.7z M88.5,84.2c0,0.6,0.1,1.6,0.9,1.6c1.1,0,1-1.5,1-2.2c0-0.5,0-1.2-0.1-1.7c-0.1-0.8-0.9-0.5-0.9-1.2
	c0-0.9,3.1-1.1,3.7-1.1c0.6,0,0.8,0.3,0.8,0.9c0,0.5,0,1,0,1.5v3.1c0,0.9,0.9,0.5,0.9,1.2c0,1.1-2.8,1.4-3.6,1.4
	c-1.2,0-0.4-0.9-1-0.9c-0.2,0-0.4,0.2-0.8,0.5c-0.4,0.2-0.9,0.5-1.6,0.5c-3,0-2.7-2.3-2.7-4.7c0-2.4-1.1-1.3-1.1-2.4
	c0-1,3.9-1,4.1-1c0.4,0,0.5,0.2,0.5,0.6V84.2L88.5,84.2z M96.3,83.2c0-2-0.8-1.2-0.8-2c0-1.1,3.9-1.6,3.9-1.6c0.4,0,0.4,0.4,0.4,0.7
	c0,0.2-0.1,0.7,0.3,0.7c0.1,0,0.4-0.4,0.8-0.7c0.4-0.4,1.1-0.7,2-0.7c1.9,0,1.9,1.4,2.2,1.4c0.1,0,0.4-0.4,0.9-0.7
	c0.5-0.4,1.1-0.7,1.9-0.7c1.5,0,2.4,0.8,2.4,2.3v3.3c0,0.9,0.6,1,0.6,1.4c0,1-1.8,1-2.4,1c-0.5,0-2.3-0.1-2.3-0.9
	c0-0.6,0.5-0.6,0.5-1.5v-1.4c0-0.6,0.1-2-0.8-2c-0.9,0-0.8,1.1-0.8,1.6v1c0,1.9,0.6,1.6,0.6,2.2c0,1-1.9,1-2.4,1
	c-2.4,0-2.5-0.4-2.5-0.9c0-0.8,0.8-0.2,0.7-2v-0.9c0-0.6,0.1-2-0.8-2c-0.9,0-0.8,1.1-0.8,1.6v1.3c0,1.4,0.4,1.3,0.4,1.9
	c0,0.4-0.4,0.9-2.5,0.9c-0.6,0-2.4,0-2.4-0.8c0-0.7,0.9-0.3,0.9-2.3L96.3,83.2L96.3,83.2z M115.7,80.3c0,0.1,0,0.2,0.1,0.2
	c0.1,0,0.3-0.2,0.7-0.5c0.4-0.2,0.9-0.5,1.6-0.5c1.6,0,3.1,1.4,3.1,3.4c0,2.7-2,4.7-4.7,4.7c-2,0-2.9-1-3.1-1c-0.2,0-0.5,0.2-1,0.2
	c-0.2,0-0.5-0.1-0.5-0.3s0.3-0.7,0.3-2.8v-4.2c0-0.9-1.2-0.5-1.2-1.4c0-1,3-1.7,4.3-1.7c0.4,0,0.4,0.3,0.4,0.7L115.7,80.3z
	 M116.4,82c-0.7,0-0.8,0.6-0.8,1.1c0,3,0.2,3.3,0.8,3.3c1,0,1.2-1.2,1.2-2C117.7,83.6,117.5,82,116.4,82z M126.1,84.2
	c0,0.6,0.1,1.6,0.9,1.6c1.1,0,1-1.5,1-2.2c0-0.5,0-1.2-0.1-1.7c-0.1-0.8-0.9-0.5-0.9-1.2c0-0.9,3.1-1.1,3.7-1.1
	c0.6,0,0.8,0.3,0.8,0.9c0,0.5,0,1,0,1.5v3.1c0,0.9,0.9,0.5,0.9,1.2c0,1.1-2.8,1.4-3.6,1.4c-1.2,0-0.4-0.9-1-0.9
	c-0.2,0-0.4,0.2-0.8,0.5c-0.4,0.2-0.9,0.5-1.6,0.5c-3,0-2.7-2.3-2.7-4.7c0-2.4-1.1-1.3-1.1-2.4c0-1,3.9-1,4.1-1
	c0.4,0,0.5,0.2,0.5,0.6L126.1,84.2L126.1,84.2z M137.1,79.6c0.3,0.1,0.5,0.1,0.6,0.1c0.1,0,0.3-0.1,0.4-0.1c0.1-0.1,0.3-0.1,0.4-0.1
	c0.7,0,1.4,1.4,1.4,2.1c0,0.4-0.4,0.7-0.8,0.7c-0.9,0-1.4-1.2-2.1-1.2c-0.3,0-0.6,0.2-0.6,0.5c0,1,3.4,1.2,3.4,3.6
	c0,1.5-1.4,2.5-3,2.5c-0.3,0-0.8-0.1-1.1-0.1c-0.4-0.1-0.7-0.1-0.8-0.1c-0.1,0-0.2,0-0.3,0c-0.1,0-0.2,0-0.3,0
	c-0.3,0-0.5-0.1-0.7-0.3c-0.4-0.4-0.8-1.3-0.8-1.9c0-0.4,0.1-0.7,0.6-0.7c0.7,0,1.3,1.5,2.2,1.5c0.3,0,0.6-0.1,0.6-0.5
	c0-0.9-3.1-1-3.1-3.6c0-1.6,1.3-2.5,2.9-2.5C136.5,79.6,136.8,79.6,137.1,79.6z"/>
</svg>
