<?xml version="1.0" encoding="utf-8"?>
<!-- Generator: Adobe Illustrator 25.3.1, SVG Export Plug-In . SVG Version: 6.00 Build 0)  -->
<svg version="1.1" id="Layer_1" xmlns="http://www.w3.org/2000/svg" xmlns:xlink="http://www.w3.org/1999/xlink" x="0px" y="0px"
	 viewBox="0 0 200 100" style="enable-background:new 0 0 200 100;" xml:space="preserve">
<style type="text/css">
	.st0{fill:#DADADA;}
	.st1{fill-rule:evenodd;clip-rule:evenodd;fill:#DADADA;}
</style>
<g id="Layer_2_1_">
	<g>
		<path class="st0" d="M51.9,50c0,26.5,21.6,48.1,48.1,48.1s48.1-21.6,48.1-48.1S126.5,1.9,100,1.9C73.5,1.9,51.9,23.5,51.9,50
			L51.9,50z M53.1,50c0-25.9,21-46.9,46.9-46.9s46.9,21,46.9,46.9s-21,46.9-46.9,46.9S53.1,75.9,53.1,50L53.1,50z"/>
		<path class="st1" d="M68.6,77.4l0.5-4.2l0,0c-0.9-0.1-1.6-0.6-2.2-1.2c-0.5-0.7-0.8-1.6-0.7-2.4c0.1-0.9,0.5-1.7,1.2-2.2
			s1.5-0.8,2.4-0.7c0.9,0.1,1.6,0.5,2.2,1.2c0.5,0.7,0.8,1.6,0.7,2.5l0,0l4.1,0.5l0,0c0.2-2-0.3-4-1.5-5.6s-3-2.6-4.9-2.8
			c-2-0.2-3.9,0.3-5.4,1.6c-1.5,1.2-2.5,3-2.8,5c-0.2,2,0.3,3.9,1.5,5.5C64.8,76.2,66.6,77.2,68.6,77.4L68.6,77.4L68.6,77.4z"/>
		<path class="st0" d="M73.5,50c0,14.6,11.9,26.5,26.5,26.5s26.5-11.9,26.5-26.5S114.6,23.5,100,23.5S73.5,35.4,73.5,50L73.5,50z
			 M74.2,50c0-14.2,11.6-25.8,25.8-25.8s25.8,11.6,25.8,25.8S114.2,75.8,100,75.8S74.2,64.2,74.2,50L74.2,50z"/>
		<polygon class="st0" points="62,42.6 62.8,42.6 64,46.8 64,46.8 64,42.6 64.8,42.6 64.8,49.1 63.9,49.1 62.8,44.8 62.8,44.8 
			62.8,49.1 62,49.1 		"/>
		<path class="st0" d="M56.4,47.5h0.8v0.3c0,0.4,0.1,0.7,0.5,0.7s0.6-0.3,0.6-0.7c0-0.6,0-0.7-0.9-1.7c-0.5-0.6-1-1.1-1-2
			c0-1.1,0.5-1.5,1.4-1.5c0.5,0,0.8,0.2,1,0.4c0.1,0.1,0.2,0.4,0.2,0.8V44h-0.8v-0.2c0-0.4-0.1-0.6-0.5-0.6c-0.3,0-0.5,0.2-0.5,0.7
			c0,0.4,0.1,0.7,0.9,1.6c0.8,0.9,1,1.2,1,2c0,1-0.4,1.6-1.4,1.6c-0.8,0-1.3-0.4-1.3-1.2V47.5L56.4,47.5z"/>
		<polygon class="st0" points="60.1,42.6 60.9,42.6 60.9,49.1 60.1,49.1 		"/>
		<path class="st0" d="M65.8,44.3c0-0.9,0.3-1.7,1.4-1.7c0.8,0,1.2,0.5,1.2,1.2V44h-0.8v-0.1c0-0.4-0.1-0.7-0.5-0.7
			s-0.5,0.3-0.5,1.1v3.2c0,0.8,0.2,0.9,0.5,0.9s0.5-0.2,0.5-0.8v-0.2h0.8v0.4c0,0.7-0.3,1.2-1.2,1.2c-1.1,0-1.4-0.6-1.4-1.6V44.3
			L65.8,44.3z"/>
		<polygon class="st0" points="69.4,42.6 71.6,42.6 71.6,43.4 70.3,43.4 70.3,45.4 71.2,45.4 71.2,46.1 70.3,46.1 70.3,48.3 
			71.6,48.3 71.6,49.1 69.4,49.1 		"/>
		<path class="st0" d="M134,44c0-0.5,0-0.8,0.5-0.8s0.5,0.4,0.5,0.8v0.9c0,0.6-0.1,0.8-0.5,0.8S134,45.4,134,45V44L134,44z
			 M133.2,48c0,0.7,0.4,1.1,1.2,1.1c0.9,0,1.3-0.4,1.3-1.6V44c0-1.1-0.3-1.5-1.2-1.5c-1.1,0-1.3,0.4-1.3,1.6v0.6
			c0,0.9,0.2,1.6,1,1.6c0.4,0,0.6,0,0.8-0.3l0,0v1.6c0,0.5-0.1,0.8-0.5,0.8c-0.3,0-0.5-0.2-0.5-0.7v-0.3h-0.8V48L133.2,48z"/>
		<polygon class="st0" points="138.4,43.4 136.8,43.4 136.8,42.6 139.1,42.6 139.1,43.4 138,49.1 137.2,49.1 		"/>
		<path class="st0" d="M130.2,44v-0.6c0.3-0.1,0.6-0.4,0.9-0.8h0.6v6.5h-0.8V44H130.2L130.2,44z"/>
		<path class="st0" d="M140.5,44v-0.6c0.3-0.1,0.6-0.4,0.9-0.8h0.6v6.5h-0.8V44H140.5L140.5,44z"/>
		<polygon class="st0" points="134.5,26.6 133.9,26.6 133.6,27.6 133.2,26.6 132.7,26.6 132.7,28.3 133,28.3 133,26.9 133.5,28.3 
			133.7,28.3 134.1,26.9 134.1,28.3 134.5,28.3 		"/>
		<polygon class="st0" points="132.5,26.6 131.3,26.6 131.3,26.9 131.7,26.9 131.7,28.3 132.1,28.3 132.1,26.9 132.5,26.9 		"/>
		<path class="st1" d="M111.5,56.4c-1.1-4.1-5.4-5-5.4-5s-1.4-4.1-4.6-4.9c-6.2-1.6-11.2,5.8-11.2,5.8s-3.5,3.8-3.5,11.9
			c0,3.3,0.6,5.5,1.7,6.5s7,2.9,13.5-0.1C108.4,67.5,112.5,60.5,111.5,56.4L111.5,56.4z M103.2,55.1c-0.5,0.5-0.9,1.1-1.3,1.7
			c-1.1,1.5-2.3,3.2-3.6,5.2c-1.8,2.8-3.7,5-5.5,6.3s-3.1,1.9-3.3,1.7c-0.2-0.2,0.7-1.1,2.2-2.7s3.2-3.9,5-6.7
			c1.3-2.1,2.7-3.8,4-5.2c0.4-0.5,0.9-0.9,1.4-1.3c1.8-1.4,3-2,3.3-1.9C105.5,52.5,104.7,53.4,103.2,55.1L103.2,55.1z"/>
		<path class="st1" d="M122.6,44.9c-1-7.1-6.5-13.2-10.7-13.4c-4.2-0.2-6.4,4.1-6.4,4.1s-3.9,0.1-5.5,3c-1.9,3.3-0.7,6.1-0.4,6.6
			c0.7,0,1.4,0.1,2.1,0.2c3,0.7,4.6,3.8,5.1,5c1.3,0.4,4.7,1.9,5.7,5.7c0.1,0.6,0.2,1.1,0.2,1.8l0,0c3,0.6,5.2,0.4,6.3-0.3
			C120.3,56.8,123.6,52,122.6,44.9L122.6,44.9z M118.5,56.5c-0.2,0.1-0.8-1-1.9-2.8c-1-1.9-2.7-4.1-4.9-6.6
			c-2.1-2.5-3.7-4.9-4.6-6.9c-0.8-2-1-3.4-0.8-3.6c0.3-0.1,0.9,1,2,2.8s2.9,4.1,5.1,6.6c2.1,2.5,3.6,4.9,4.3,7
			C118.6,55,118.8,56.3,118.5,56.5L118.5,56.5z"/>
		<path class="st1" d="M80.9,26l-4.1-0.7l0,0c-0.1,0.8-0.6,1.6-1.3,2.1c-1.5,1-3.5,0.7-4.5-0.8s-0.7-3.5,0.8-4.5
			c0.7-0.5,1.6-0.7,2.4-0.6l0,0l0.7-4.1l0,0c-1.9-0.3-3.8,0.1-5.5,1.3c-3.3,2.4-4.2,7-1.9,10.4c2.4,3.5,7,4,10.4,1.6
			C79.5,29.6,80.6,27.9,80.9,26L80.9,26L80.9,26z M83.1,17.4c-0.7-1.6,0-3.6,1.6-4.3s3.5,0,4.3,1.6c0.7,1.6,0,3.6-1.6,4.3
			C85.8,19.8,83.8,19.1,83.1,17.4L83.1,17.4L83.1,17.4z M79.3,19.2c1.7,3.7,6.1,5.4,9.8,3.6c3.8-1.7,5.4-6.1,3.8-9.9
			c-1.7-3.7-6.1-5.4-9.8-3.6C79.3,11.1,77.6,15.5,79.3,19.2L79.3,19.2L79.3,19.2z M104.5,18c0.1-1.1-0.1-2.3-1.1-3.8
			c-0.9-1.5-1.2-2.2-1.3-2.9c-0.1-1.8,0.6-3.2,3-4.7l-5.6-0.3c-1.9,1.2-2.7,3.3-2.7,4.6c-0.1,1.3,0.3,2.2,1.1,3.5
			c0.6,1,1.3,2,1.2,3.1c-0.1,1.5-1.2,2.7-2.7,3.6l0,0l4.7,1.4l0,0C103.1,21.4,104.4,19.5,104.5,18L104.5,18L104.5,18z M108.2,21.5
			l4.3,1.6l0,0c0,0,3.3-9,3.5-9.8c1.3,0.5,2.7,1.2,2.7,1.2s0.9-2.3,1.3-3.4c-1.4-0.6-3.1-1.3-5-2c-1.8-0.7-3.6-1.3-5.1-1.7
			c-0.4,1.1-1.1,3.5-1.1,3.5s1.5,0.4,2.8,0.9C111.5,12.5,108.2,21.5,108.2,21.5L108.2,21.5L108.2,21.5z M114.4,23.9
			c1.3,0.9,3.1,2.3,3.8,2.9c0.4-0.3,1.6-1,2-1.3c0.5,0.4,2.2,2,2.7,2.5c-0.2,0.4-0.9,1.5-1.1,2.1c1,1.1,2.6,2.9,3.3,3.8
			c0.3-0.6,6.6-14.1,6.6-14.1l0,0l-3.9-3.6l0,0C127.8,16.3,115.2,23.5,114.4,23.9L114.4,23.9L114.4,23.9z M124.6,25.1
			c-0.3-0.4-1.2-1.2-1.6-1.5c0.3-0.2,3.8-2.6,3.8-2.6l0,0l0,0l0,0C126.9,21,124.8,24.8,124.6,25.1L124.6,25.1L124.6,25.1z"/>
		<path class="st0" d="M97.9,42.3c0-1.2,0.3-2.7,1.2-4.3c0.6-1,1.4-1.7,2.2-2.3c-0.7-1.5-1.6-2.7-2.7-3.3c-3.6-2.2-7.4,0.2-7.4,0.2
			s-3.9-1.9-6.6-0.2c-5.5,3.3-4,12.1-4,12.1s0.1,5.1,5.7,10.9c0.2,0.2,0.4,0.4,0.6,0.6c0.9-2.6,2.1-4.1,2.4-4.4
			c0.2-0.2,0.8-1.2,1.9-2.3c-0.1-1.2-0.4-2.5-0.6-4c-0.6-3.2-0.8-6.1-0.5-8.3s0.8-3.5,1.1-3.5c0.3,0,0.3,1.3,0.4,3.5s0.5,5,1.1,8.3
			c0.2,0.8,0.3,1.6,0.4,2.4c1.5-1.1,3.3-2.2,5.4-2.5C98.2,44.6,97.9,43.6,97.9,42.3L97.9,42.3z"/>
		<polygon class="st0" points="135.7,75.4 140.4,67.3 137.3,64.9 134.3,70.1 132.9,69.3 135.4,65 132.4,63.8 130.2,67.7 128.8,66.9 
			131.6,62.2 128,60.7 123.6,68.3 		"/>
		<polygon class="st0" points="123,87.3 130.4,81.5 128.4,78.2 123.7,81.8 122.8,80.6 126.7,77.5 124.4,75.2 120.8,78 119.9,76.8 
			124.2,73.4 121.4,70.7 114.5,76.1 		"/>
		<polygon class="st0" points="106.5,93.3 110.2,92.3 108.9,87 113.7,85.8 112.6,82.7 108.1,83.9 107.7,82.4 112.9,81.1 111.5,77.4 
			103,79.6 		"/>
		<polygon class="st0" points="88.9,92.4 92.7,93 93.5,87.6 98.4,88.3 98.6,85.1 94,84.4 94.2,82.9 99.5,83.7 99.6,79.7 91,78.4 		
			"/>
		<path class="st1" d="M87,78.9c-0.4-1.9-1.6-3.6-3.2-4.7c-1.7-1.1-3.7-1.4-5.6-1s-3.6,1.6-4.6,3.3c-1.1,1.7-1.4,3.7-1,5.6
			s1.6,3.6,3.2,4.7c1.7,1.1,3.7,1.4,5.6,1s3.6-1.6,4.7-3.3C87.1,82.8,87.4,80.8,87,78.9L87,78.9z M82.5,82.2
			c-0.5,0.7-1.2,1.3-2.1,1.4c-0.8,0.2-1.7,0-2.5-0.5c-0.7-0.5-1.2-1.2-1.4-2.1c-0.2-0.9,0-1.7,0.5-2.5c0.5-0.7,1.2-1.2,2-1.4
			c0.8-0.2,1.7,0,2.5,0.4c0.7,0.5,1.2,1.2,1.4,2.1C83.1,80.6,83,81.5,82.5,82.2L82.5,82.2z"/>
	</g>
</g>
</svg>
