<?xml version="1.0" encoding="UTF-8"?>
<svg xmlns="http://www.w3.org/2000/svg" version="1.1" viewBox="0 0 200 100">
  <defs>
    <style>
      .cls-1 {
        fill: none;
      }

      .cls-2 {
        fill: #dadada;
      }
    </style>
  </defs>
  <!-- Generator: Adobe Illustrator 28.6.0, SVG Export Plug-In . SVG Version: 1.2.0 Build 709)  -->
  <g>
    <g id="Layer_2">
      <g>
        <path class="cls-2" d="M60.4,46.5h-10.2c-.3,0-.6.3-.6.6v22.9c0,.3.3.6.6.6h10.2c8,0,13.2-4.7,13.2-12.1s-5.2-12.1-13.2-12.1M60.4,64.3h-3.5v-11.4h3.5c3.6,0,5.8,2.1,5.8,5.7s-2,5.7-5.8,5.7"/>
        <path class="cls-2" d="M118.8,52.7c-2.8,0-5.1,1.5-6.1,3.1-.7-2-2.4-3.1-5-3.1s-5,1.4-5.8,2.4v-1.4c0-.3-.3-.6-.6-.6h-5.3c-.3,0-.6.3-.6.6v16.3c0,.3.3.6.6.6h5.3c.3,0,.6-.3.6-.6v-10.2h0c.4-.4,1.2-1.4,2.6-1.4s2,.7,2,2v9.6c0,.3.3.6.6.6h5.3c.3,0,.6-.3.6-.6v-10.2c.4-.4,1.2-1.4,2.7-1.4s2,.7,2,2v9.6c0,.3.3.6.6.6h5.3c.3,0,.6-.3.6-.6v-12.1c0-3.4-1.9-5.2-5.4-5.2"/>
        <path class="cls-2" d="M132.7,53.2h-5.3c-.3,0-.6.3-.6.6v16.3c0,.3.3.6.6.6h5.3c.3,0,.6-.3.6-.6v-16.3c0-.3-.3-.6-.6-.6"/>
        <path class="cls-2" d="M130.3,44.6c-2,0-3.7,1.6-3.7,3.7s1.6,3.7,3.7,3.7,3.7-1.6,3.7-3.7-1.6-3.7-3.7-3.7"/>
        <path class="cls-2" d="M148.6,52.7c-3.4,0-5.2,1.5-6,2.4v-1.4c0-.3-.3-.6-.6-.6h-5.3c-.3,0-.6.3-.6.6v16.3c0,.3.3.6.6.6h5.3c.3,0,.6-.3.6-.6v-10.2c.4-.5,1.2-1.4,2.8-1.4s2.5.8,2.5,2.5v9.1c0,.3.3.6.6.6h5.3c.3,0,.6-.3.6-.6v-11.8c0-3.4-2.2-5.5-5.8-5.5"/>
        <path class="cls-2" d="M84.2,52.6c-5.1,0-9.2,4.1-9.2,9.2s4.1,9.2,9.2,9.2,9.2-4.1,9.2-9.2-4.1-9.2-9.2-9.2M84.2,64.9c-1.7,0-3.1-1.4-3.1-3.2s1.4-3.1,3.1-3.1,3.1,1.4,3.1,3.1-1.4,3.2-3.1,3.2"/>
        <path class="cls-2" d="M165.6,52.7c-5.1,0-9.2,4.1-9.2,9.2s4.1,9.2,9.2,9.2,9.2-4.1,9.2-9.2-4.1-9.2-9.2-9.2M165.6,64.9c-1.7,0-3.1-1.4-3.1-3.2s1.4-3.1,3.1-3.1,3.1,1.4,3.1,3.1-1.4,3.2-3.1,3.2"/>
        <path class="cls-2" d="M179.9,47.5s0,0,0,0c0,0,0,0,0,0,0,0,0,0,0,0h0c-.4-1.8-2.4-3.1-4.3-2.7-2,.4-3.3,2.2-2.9,4.1.3,1.5,1.7,2.6,3.2,2.7-.1.6-.7,1.2-1.1,1.4-.3.2-.1.5-.1.5l.4.6c.1.2.3.3.5.2,4-1.7,4.7-5.1,4.3-6.7Z"/>
        <path class="cls-2" d="M184.6,58.4c0-.7.8-.9,1.9-.9,2.1,0,3.3.6,4.7,1.5.1,0,.3.1.5,0,.2,0,.3-.1.4-.3l1.8-3.1c.2-.3,0-.7-.2-.8-1.5-.9-3.6-2-7.4-2-5.4,0-8.3,2.5-7.8,6.2.8,6.4,10.8,4.2,10.7,6.4,0,.5-.9.9-2.4.9s-4.2-1-5.6-1.9c-.1,0-.3-.1-.5,0-.2,0-.3.1-.4.3l-2.1,3.4c-.2.3,0,.6.2.8,2,1.3,5.2,2.2,8,2.2,5.4,0,8.5-2.3,8.5-6.1,0-7-10.1-4.8-10.2-6.6"/>
        <path class="cls-1" d="M10.6,53.8c-.9,0-1.8.3-2.4,1-.7.7-1,1.6-1,2.4s.3,1.8,1,2.4c.7.7,1.6,1,2.4,1,.9,0,1.8-.3,2.4-1,.7-.7,1-1.6,1-2.4,0-.9-.3-1.8-1-2.4-.7-.7-1.6-1-2.4-1Z"/>
        <path class="cls-1" d="M20.7,60.9c.9,0,1.8-.3,2.4-1,.7-.7,1-1.6,1-2.4s-.3-1.8-1-2.4c-.7-.7-1.6-1-2.4-1s-1.8.3-2.4,1c-.7.7-1,1.6-1,2.4s.3,1.8,1,2.4c.7.7,1.6,1,2.4,1Z"/>
        <path class="cls-1" d="M31.3,29.7c-.3-.3-.7-.4-1-.4s-.8.1-1,.4l-10,10-2.9,2.9,14,14,1.2-1.2,11.7-11.7c.6-.6.6-1.5,0-2.1l-11.9-11.9Z"/>
        <g>
          <path class="cls-2" d="M10.6,53.8c-.9,0-1.8.3-2.4,1-.7.7-1,1.6-1,2.4s.3,1.8,1,2.4c.7.7,1.6,1,2.4,1,.9,0,1.8-.3,2.4-1,.7-.7,1-1.6,1-2.4,0-.9-.3-1.8-1-2.4-.7-.7-1.6-1-2.4-1Z"/>
          <path class="cls-2" d="M44.1,40.8l-11.9-11.9c-.5-.5-1.2-.8-1.9-.8s-1.4.3-1.9.8l-10,10L1.9,55.5c-1,1-1,2.7,0,3.8l11.9,11.9c.5.5,1.2.8,1.9.8s1.4-.3,1.9-.8l14.9-14.9,11.7-11.7c1-1,1-2.7,0-3.8ZM16.7,70.3c-.3.3-.7.4-1,.4s-.8-.1-1-.4l-11.9-11.9c-.6-.6-.6-1.5,0-2.1l12.8-12.8,14,14-12.8,12.8ZM43.2,43.7l-12.9,12.9-14-14,12.9-12.9c.6-.6,1.5-.6,2.1,0l11.9,11.9c.6.6.6,1.5,0,2.1Z"/>
          <path class="cls-2" d="M20.7,60.9c.9,0,1.8-.3,2.4-1,.7-.7,1-1.6,1-2.4s-.3-1.8-1-2.4c-.7-.7-1.6-1-2.4-1s-1.8.3-2.4,1c-.7.7-1,1.6-1,2.4s.3,1.8,1,2.4c.7.7,1.6,1,2.4,1Z"/>
          <path class="cls-2" d="M30.3,39.2c-.9,0-1.8.3-2.4,1-.7.7-1,1.6-1,2.4,0,.9.3,1.8,1,2.4.7.7,1.6,1,2.4,1,.9,0,1.8-.3,2.4-1,.7-.7,1-1.6,1-2.4,0-.9-.3-1.8-1-2.4-.7-.7-1.6-1-2.4-1Z"/>
        </g>
        <path class="cls-2" d="M198.9,53.7c0,.3,0,.7-.3.9-.2.3-.4.5-.7.7-.3.2-.6.3-.9.3s-.6,0-.9-.3c-.3-.2-.5-.4-.7-.7-.2-.3-.3-.6-.3-.9s0-.7.3-.9c.2-.3.4-.5.7-.7.3-.2.6-.3.9-.3s.6,0,.9.3c.3.2.5.4.7.7.2.3.3.6.3.9ZM198.6,53.7c0-.4-.1-.8-.4-1.1s-.7-.4-1.1-.4-.8.1-1.1.4-.4.7-.4,1.1.1.8.4,1.1.7.4,1.1.4.8-.1,1.1-.4.4-.7.4-1.1ZM196.2,52.7h.9c.3,0,.4,0,.6.2.1.1.2.2.2.4s0,.3-.1.4c0,0-.2.2-.4.2,0,0,.1,0,.2,0,0,0,.1.1.2.2,0,0,.1.2.3.6h-.6c-.2-.4-.3-.6-.4-.7,0,0-.1-.1-.2-.1s0,0,0,0v.8h-.5v-2ZM196.7,53.6h.2c.1,0,.2,0,.3,0,0,0,0-.1,0-.2s0-.1,0-.2c0,0-.2,0-.3,0h-.2v.5Z"/>
      </g>
    </g>
  </g>
</svg>