<?xml version="1.0" encoding="utf-8"?>
<!-- Generator: Adobe Illustrator 25.3.1, SVG Export Plug-In . SVG Version: 6.00 Build 0)  -->
<svg version="1.1" id="Layer_1" xmlns="http://www.w3.org/2000/svg" xmlns:xlink="http://www.w3.org/1999/xlink" x="0px" y="0px"
	 viewBox="0 0 200 100" style="enable-background:new 0 0 200 100;" xml:space="preserve">
<style type="text/css">
	.st0{fill-rule:evenodd;clip-rule:evenodd;fill:#DADADA;}
</style>
<g id="Layer_4">
	<path class="st0" d="M15.3,45h4.8c0.4-5.5-3.7-6.2-7.2-6.2c-5-0.1-9.1,3.6-10.3,10.1C1.4,56,2.4,60.8,9.4,61.1
		c3.3-0.1,5.4-0.7,8-2.2l2-10.8h-8l-0.2,2.4H15L13.4,58c-1,0.5-2,1-3,1c-2.6-0.2-3.7-1.5-3.8-4.6C6.6,50,7,46,9.2,42.7
		c0.7-1,1.9-1.6,3.5-1.8C14.3,41,15.7,42,15.3,45L15.3,45z M20.3,60.6l4.1-21.4h4.2l-4.2,21.4H20.3L20.3,60.6z M113.6,60.6l4.6-21.4
		h4l-4.4,21.4H113.6z M120.7,60.7l4.6-21.4h4l-4.4,21.4L120.7,60.7z M27.8,57.7c-0.1-3.8,3.6-5.2,9.6-5.3l0.7-3.2
		c0.2-1.3-0.4-1.9-1.6-1.9c-1.9,0-2.2,1-2.7,2.9h-4c0.9-3.6,3.5-4.5,6.9-4.5c2.6,0.1,5.7,0.4,5.1,4.2l-2.1,10.8h-3.9l0.3-2
		c-1.5,1.5-3.1,2.3-5,2.3C28.9,61,27.9,59.5,27.8,57.7L27.8,57.7z M37.2,53.7C34.3,54,32,55.1,31.8,57c0,1.1,0.1,1.9,1.5,1.8
		C35.4,58.6,36.9,56.5,37.2,53.7z M45.2,46.2h4.6l2,3.9l3.7-3.9h4.1L53,52.8l4,7.9h-4.5L50,55.6l-4.6,5.1h-4l7.2-7.6L45.2,46.2
		L45.2,46.2z M67.4,45.8c-4.7-0.1-7.8,2.2-8.6,7.7c-0.4,3.7,0.1,7.2,5.7,7.4c5.3,0.1,7.7-2.6,8.8-7.4C74.6,46.7,70.9,45.9,67.4,45.8
		L67.4,45.8z M67.3,47.4c-1.9-0.1-3.3,1.1-4.1,5.9c-0.4,2.8-0.9,6.3,1.8,6.2c2.6-0.1,3.3-1.2,4.1-6C70,48.5,69.2,47.4,67.3,47.4z
		 M152.3,46.2c-4.7-0.1-7.8,2.1-8.6,7.6c-0.4,3.7,0.1,7.2,5.7,7.4c5.3,0.1,7.7-2.6,8.8-7.4C159.4,46.9,155.7,46.2,152.3,46.2z
		 M152.2,47.6c-1.9-0.1-3.3,1.1-4.1,5.9c-0.4,2.8-0.9,6.3,1.8,6.2c2.6-0.1,3.3-1.2,4.1-6C154.9,48.7,154,47.6,152.2,47.6L152.2,47.6
		z M76.2,60.6l0.1-21.4h3.9l-0.1,15.9l7.7-15.9h2.3l2.1,16.1l5.4-16.1h3.3l-7.4,21.4h-3.7l-2.4-14.5L80,60.5L76.2,60.6z M99.1,54.4
		c0.1,4,1.9,6.7,6.2,6.6c1.4,0,3.2-0.3,5.2-1l0.5-1.6c-1.5,0.5-2.9,0.7-4.6,0.5c-3.3-0.9-3.4-4.1-3.1-7h9.3c1-4.6-2.2-5.9-5-5.8
		C101.8,46.2,99.3,49.3,99.1,54.4L99.1,54.4z M104,50.3h5.2c0.2-2-0.7-2.5-2-2.7C105.5,47.6,104,48.9,104,50.3z M185,54.6
		c0.1,4,1.9,6.7,6.2,6.6c1.4,0,3.2-0.3,5.2-1l0.5-1.6c-1.5,0.5-2.9,0.7-4.6,0.5c-3.3-0.9-3.4-4.1-3.1-7h9.3c1-4.6-2.1-6-5-6
		C187.8,46.3,185.3,49.5,185,54.6L185,54.6z M189.9,50.5h5.2c0.2-2-0.7-2.5-2-2.7C191.4,47.8,190,49.1,189.9,50.5L189.9,50.5z
		 M128.9,54.5c0.1,5.3,3.4,8.4,11.5,5.6l0.5-1.6c-1.5,0.5-2.6,0.7-4.2,0.5c-3.1-0.6-3.4-4.1-3.1-7c0.3-2.7,1.8-4.2,3.5-4.2
		c1.5,0.1,1.7,0.3,1.3,3.4h4.1c1-4.6-2.5-5.1-5-5.1C131.9,46.2,129.2,49.4,128.9,54.5L128.9,54.5z M174.5,51.5
		c0.8-1.5,2.1-2.5,3.2-2.6c1.2,0.1,1.4,1,1.1,2.7l-2,9h4.1l2.4-11c0.2-2-1.3-3.5-3-3.5c-2.5,0-4,1.5-5.4,3.5c0.2-2-1.3-3.4-3-3.5
		c-2.5,0-4,1.5-5.5,3.4l0.6-3.3h-3.8L160,60.7h4.1l1.6-7.5c0.5-2.4,2.2-4.2,3.8-4.3c1.2,0.1,1.4,1,1.1,2.7l-2,9h4.1L174.5,51.5
		L174.5,51.5z"/>
</g>
</svg>
