<?xml version="1.0" encoding="utf-8"?>
<!-- Generator: Adobe Illustrator 25.3.1, SVG Export Plug-In . SVG Version: 6.00 Build 0)  -->
<svg version="1.1" id="Layer_3" xmlns="http://www.w3.org/2000/svg" xmlns:xlink="http://www.w3.org/1999/xlink" x="0px" y="0px"
	 viewBox="0 0 200 100" style="enable-background:new 0 0 200 100;" xml:space="preserve">
<style type="text/css">
	.st0{fill:#DADADA;}
</style>
<g>
	<polygon class="st0" points="56.2,68.1 56.2,63.2 54.5,63.2 54.5,62.9 59.3,62.9 59.3,63.2 57.6,63.2 57.6,74.9 59.3,74.9 
		59.3,75.3 54.5,75.3 54.5,74.9 56.2,74.9 56.2,68.5 51.5,68.5 51.5,74.9 53.2,74.9 53.2,75.3 48.3,75.3 48.3,74.9 50,74.9 50,63.2 
		48.3,63.2 48.3,62.9 53.2,62.9 53.2,63.2 51.5,63.2 51.5,68.1 	"/>
	<polygon class="st0" points="63.5,74.9 65.2,74.9 65.2,75.3 60.3,75.3 60.3,74.9 62,74.9 62,63.2 60.3,63.2 60.3,62.9 65.2,62.9 
		65.2,63.2 63.5,63.2 	"/>
	<path class="st0" d="M71.1,62.9v0.3h-1.7v11.7h1.5c1.2,0,2-0.4,2.7-1.3c0.6-0.8,1.1-2.2,1.3-4h0.2v5.6h-8.9v-0.3h1.7V63.2h-1.7
		v-0.3H71.1z"/>
	<polygon class="st0" points="79.5,74.9 81.2,74.9 81.2,75.3 76.3,75.3 76.3,74.9 78,74.9 78,63.2 76.3,63.2 76.3,62.9 81.2,62.9 
		81.2,63.2 79.5,63.2 	"/>
	<path class="st0" d="M85.3,68.9H87c1.1,0,1.8-0.2,2.1-0.5c0.3-0.4,0.5-1.2,0.5-2.4c0-1.1-0.2-1.9-0.5-2.2c-0.3-0.3-0.9-0.5-1.8-0.5
		h-1.9V68.9z M85.3,74.9H87v0.3h-4.8v-0.3h1.7V63.2h-1.7v-0.3h5.1c1.1,0,2,0.3,2.7,0.9c0.7,0.6,1.1,1.4,1.1,2.4c0,1-0.3,1.7-1,2.2
		c-0.7,0.5-1.6,0.8-2.9,0.8h-1.9V74.9z"/>
	<path class="st0" d="M101.7,75.3l-3.2-12.2v10c0,0.7,0.1,1.1,0.3,1.4c0.2,0.3,0.5,0.4,1,0.4h0.6v0.3h-4v-0.3h0.3
		c0.5,0,0.9-0.1,1.1-0.4c0.2-0.3,0.4-0.7,0.4-1.3v-8.9c0-0.4-0.1-0.7-0.3-0.9c-0.2-0.2-0.6-0.3-1.1-0.3h-0.4v-0.3h3.5l2.5,9.7
		l2.6-9.7h3.3v0.3h-1.7v11.7h1.7v0.3h-4.8v-0.3h1.7l0.1-11.8l-3.3,12.2H101.7z"/>
	<path class="st0" d="M114,75.1c0.4,0,0.9-0.1,1.2-0.4c0.4-0.3,0.7-0.6,1-1.2c0.2-0.3,0.3-0.8,0.4-1.4c0.1-0.6,0.1-1.6,0.1-3.1
		c0-1.7-0.1-2.9-0.2-3.5c-0.1-0.6-0.3-1.1-0.6-1.5c-0.2-0.3-0.5-0.6-0.9-0.8c-0.3-0.2-0.7-0.3-1-0.3c-0.4,0-0.7,0.1-1.1,0.3
		c-0.3,0.2-0.6,0.5-0.9,0.8c-0.3,0.4-0.5,0.9-0.6,1.5c-0.1,0.3-0.1,0.7-0.1,1.3c0,0.6,0,1.3,0,2.2v0.4c0,1.4,0,2.3,0.1,2.8
		c0.1,0.5,0.2,1,0.4,1.3c0.3,0.5,0.6,0.9,1,1.2C113.1,75,113.5,75.1,114,75.1 M114,62.7c0.5,0,1,0.1,1.4,0.3c0.4,0.2,0.9,0.6,1.2,1
		c0.6,0.7,1,1.4,1.3,2.3c0.3,0.9,0.4,1.9,0.4,2.9c0,0.9-0.1,1.8-0.3,2.5c-0.2,0.7-0.6,1.4-1,2.1c-0.4,0.5-0.8,0.9-1.4,1.2
		c-0.5,0.3-1.1,0.4-1.6,0.4c-0.5,0-1.1-0.1-1.6-0.4c-0.5-0.3-1-0.7-1.4-1.2c-0.5-0.6-0.8-1.3-1-2c-0.1-0.4-0.2-0.8-0.3-1.2
		c-0.1-0.4-0.1-0.8-0.1-1.3c0-0.7,0.1-1.4,0.2-2c0.1-0.7,0.3-1.3,0.6-1.8c0.4-0.9,0.9-1.6,1.5-2C112.6,62.9,113.3,62.7,114,62.7"/>
	<path class="st0" d="M124.5,63.2h-1.8v5.6h1.6c1,0,1.6-0.2,2-0.6c0.3-0.4,0.5-1.2,0.5-2.4c0-1-0.2-1.7-0.5-2.1
		C126,63.4,125.4,63.2,124.5,63.2 M119.5,75.3v-0.3h1.7V63.2h-1.7v-0.3h5.6c1,0,1.8,0.3,2.4,0.8c0.6,0.5,0.9,1.2,0.9,2.2
		c0,0.9-0.3,1.6-0.9,2.2c-0.6,0.5-1.4,0.9-2.4,1c0.4,0,0.7,0,1,0.1c0.3,0.1,0.6,0.2,0.8,0.4c0.4,0.3,0.7,0.8,0.9,1.4
		c0,0.1,0,0.2,0.1,0.3c0,0.1,0,0.2,0.1,0.4c0,0.3,0,0.5,0,0.9v0.5v0.4c0,0.1,0,0.2,0,0.3c0,0.1,0,0.2,0,0.2c0,0,0,0.1,0,0.2
		c0.1,0.4,0.2,0.7,0.4,0.9c0.2,0.2,0.4,0.3,0.8,0.3h0.2c0.1,0,0.1,0,0.2,0c0,0,0.1,0,0.1,0c0.1,0,0.1,0,0.2-0.1v0.3
		c-0.1,0.1-0.3,0.1-0.5,0.2c-0.1,0-0.2,0-0.3,0c-0.1,0-0.2,0-0.3,0c-0.9,0-1.6-0.3-2-0.8c-0.4-0.5-0.6-1.5-0.6-2.9
		c0-1.1-0.1-1.8-0.4-2.1c-0.3-0.3-0.8-0.5-1.5-0.5h-1.8v5.8h1.7v0.3H119.5z"/>
	<path class="st0" d="M135.4,63.2h-1.8v5.6h1.6c1,0,1.6-0.2,2-0.6c0.3-0.4,0.5-1.2,0.5-2.4c0-1-0.2-1.7-0.5-2.1
		C136.8,63.4,136.2,63.2,135.4,63.2 M130.4,75.3v-0.3h1.7V63.2h-1.7v-0.3h5.6c1,0,1.8,0.3,2.4,0.8c0.6,0.5,0.9,1.2,0.9,2.2
		c0,0.9-0.3,1.6-0.9,2.2c-0.6,0.5-1.4,0.9-2.4,1c0.4,0,0.7,0,1,0.1c0.3,0.1,0.6,0.2,0.8,0.4c0.4,0.3,0.7,0.8,0.9,1.4
		c0,0.1,0,0.2,0.1,0.3c0,0.1,0,0.2,0.1,0.4c0,0.3,0,0.5,0,0.9v0.5v0.4c0,0.1,0,0.2,0,0.3c0,0.1,0,0.2,0,0.2c0,0,0,0.1,0,0.2
		c0.1,0.4,0.2,0.7,0.4,0.9c0.2,0.2,0.4,0.3,0.8,0.3h0.2c0.1,0,0.1,0,0.2,0c0,0,0.1,0,0.1,0c0.1,0,0.1,0,0.2-0.1v0.3
		c-0.1,0.1-0.3,0.1-0.5,0.2c-0.1,0-0.2,0-0.3,0c-0.1,0-0.2,0-0.3,0c-0.9,0-1.6-0.3-2-0.8c-0.4-0.5-0.6-1.5-0.6-2.9
		c0-1.1-0.1-1.8-0.4-2.1c-0.3-0.3-0.8-0.5-1.5-0.5h-1.8v5.8h1.7v0.3H130.4z"/>
	<polygon class="st0" points="144.4,74.9 146.1,74.9 146.1,75.3 141.2,75.3 141.2,74.9 142.9,74.9 142.9,63.2 141.2,63.2 
		141.2,62.9 146.1,62.9 146.1,63.2 144.4,63.2 	"/>
	<path class="st0" d="M147.4,75.4v-5.3h0.3c0.2,1.6,0.7,2.9,1.4,3.7c0.7,0.9,1.5,1.3,2.6,1.3c0.7,0,1.2-0.2,1.7-0.7
		c0.5-0.5,0.7-1,0.7-1.7c0-0.6-0.2-1.1-0.5-1.5c-0.3-0.4-0.9-0.9-1.8-1.5c-0.3-0.2-0.7-0.4-1.2-0.7c-0.9-0.5-1.6-0.9-1.9-1.2
		c-0.2-0.2-0.4-0.5-0.6-0.9c-0.1-0.4-0.2-0.7-0.2-1.1c0-0.9,0.3-1.7,0.8-2.3c0.5-0.6,1.2-0.9,2.1-0.9c0.6,0,1.1,0.1,1.5,0.4
		c0.4,0.3,0.9,0.7,1.3,1.3l1-1.6h0.1v4.8h-0.3c-0.3-1.4-0.7-2.5-1.3-3.3c-0.6-0.8-1.4-1.1-2.2-1.1c-0.7,0-1.2,0.2-1.7,0.6
		c-0.4,0.4-0.7,0.9-0.7,1.4c0,0.7,0.9,1.6,2.7,2.5l0.8,0.4c1.1,0.6,1.9,1.2,2.4,1.8c0.5,0.6,0.7,1.3,0.7,2c0,1-0.3,1.9-0.9,2.6
		c-0.6,0.7-1.4,1-2.4,1c-0.6,0-1.1-0.2-1.6-0.5c-0.5-0.3-1-0.8-1.4-1.4l-0.9,1.7H147.4z"/>
</g>
<g>
	<polygon class="st0" points="46.7,92.3 48.4,92.3 48.4,92.7 43.5,92.7 43.5,92.3 45.2,92.3 45.2,80.6 43.5,80.6 43.5,80.3 
		48.4,80.3 48.4,80.6 46.7,80.6 	"/>
	<path class="st0" d="M51,81.7V90c0,0.8,0.1,1.4,0.4,1.8c0.3,0.4,0.6,0.6,1.2,0.6h0.3v0.3h-4v-0.3h0.3c0.5,0,0.9-0.2,1.1-0.6
		c0.2-0.4,0.4-1,0.4-1.7v-8.7c-0.1-0.3-0.3-0.5-0.5-0.6c-0.2-0.1-0.5-0.2-0.9-0.2h-0.4v-0.3h3l4.9,9.4V83c0-0.8-0.1-1.4-0.4-1.8
		c-0.3-0.4-0.7-0.6-1.2-0.6h-0.3v-0.3h4v0.3h-0.3c-0.5,0-0.9,0.2-1.1,0.6c-0.3,0.4-0.4,1-0.4,1.7v9.9h-0.2L51,81.7z"/>
	<path class="st0" d="M61.2,92.7v-0.3h1.7V80.6l-0.1,0h-0.1c-1,0-1.7,0.4-2.2,1.2c-0.3,0.4-0.5,0.9-0.6,1.5
		c-0.2,0.7-0.3,1.4-0.3,2.2h-0.2v-5.1h8.7v5.1h-0.2c-0.2-1.8-0.5-3.1-1-3.8c-0.5-0.7-1.3-1-2.5-1h0v11.7h1.7v0.3H61.2z"/>
	<path class="st0" d="M68.6,92.7v-0.3h1.7V80.6h-1.7v-0.3h8.6v4.2h-0.2c-0.2-1.4-0.5-2.4-1-3c-0.5-0.6-1.2-0.9-2.1-0.9h-2.2v5.2h0.7
		c0.6,0,1.1-0.2,1.5-0.7c0.2-0.2,0.3-0.5,0.4-0.9c0.1-0.3,0.2-0.7,0.2-1.2h0.2v5.6h-0.2c0-0.4,0-0.8-0.1-1.2
		c-0.1-0.3-0.2-0.6-0.4-0.8c-0.3-0.4-0.8-0.6-1.4-0.6h-0.8v6.2h2.1c1,0,1.7-0.4,2.2-1.1c0.5-0.7,0.9-1.9,1.1-3.4h0.2v4.9H68.6z"/>
	<path class="st0" d="M83.9,80.6h-1.8v5.6h1.6c1,0,1.6-0.2,2-0.6c0.3-0.4,0.5-1.2,0.5-2.4c0-1-0.2-1.7-0.5-2.1
		C85.3,80.8,84.8,80.6,83.9,80.6 M78.9,92.7v-0.3h1.7V80.6h-1.7v-0.3h5.6c1,0,1.8,0.3,2.4,0.8c0.6,0.5,0.9,1.2,0.9,2.2
		c0,0.9-0.3,1.6-0.9,2.2c-0.6,0.5-1.4,0.9-2.4,1c0.4,0,0.7,0,1,0.1c0.3,0.1,0.6,0.2,0.8,0.4c0.4,0.3,0.7,0.8,0.9,1.4
		c0,0.1,0,0.2,0.1,0.3c0,0.1,0,0.2,0.1,0.4c0,0.3,0,0.5,0,0.9v0.5v0.4c0,0.1,0,0.2,0,0.3c0,0.1,0,0.2,0,0.2c0,0,0,0.1,0,0.2
		c0.1,0.4,0.2,0.7,0.4,0.9c0.2,0.2,0.4,0.3,0.8,0.3h0.2c0.1,0,0.1,0,0.2,0c0,0,0.1,0,0.1,0c0.1,0,0.1,0,0.2-0.1v0.3
		c-0.1,0.1-0.3,0.1-0.5,0.2c-0.1,0-0.2,0-0.3,0c-0.1,0-0.2,0-0.3,0c-0.9,0-1.6-0.3-2-0.8c-0.4-0.5-0.6-1.5-0.6-2.9
		c0-1.1-0.1-1.8-0.4-2.1c-0.3-0.3-0.8-0.5-1.5-0.5h-1.8v5.8h1.7v0.3H78.9z"/>
	<path class="st0" d="M91.4,81.7V90c0,0.8,0.1,1.4,0.4,1.8c0.3,0.4,0.6,0.6,1.2,0.6h0.3v0.3h-4v-0.3h0.3c0.5,0,0.9-0.2,1.1-0.6
		c0.2-0.4,0.4-1,0.4-1.7v-8.7c-0.1-0.3-0.3-0.5-0.5-0.6c-0.2-0.1-0.5-0.2-0.9-0.2h-0.4v-0.3h3l4.9,9.4V83c0-0.8-0.1-1.4-0.4-1.8
		c-0.3-0.4-0.7-0.6-1.2-0.6h-0.3v-0.3h4v0.3H99c-0.5,0-0.9,0.2-1.1,0.6c-0.3,0.4-0.4,1-0.4,1.7v9.9h-0.2L91.4,81.7z"/>
	<path class="st0" d="M101.3,88.4h3.6l-1.8-6L101.3,88.4z M100.7,90.1c0,0.1-0.1,0.2-0.1,0.2c0,0,0,0.1,0,0.2l0,0.4
		c0,0.4,0.1,0.7,0.3,1c0.2,0.2,0.5,0.3,0.9,0.3h0.3v0.3h-3.8v-0.3c0.5-0.1,0.9-0.3,1.2-0.6c0.3-0.3,0.6-1,0.9-1.9l2.9-9.8h0.4
		l3.7,12.2h1.1v0.3h-4.1v-0.3l1.5,0l-1.1-3.6h-3.8L100.7,90.1z"/>
	<path class="st0" d="M109.4,92.7v-0.3h1.7V80.6l-0.1,0h-0.1c-1,0-1.7,0.4-2.2,1.2c-0.3,0.4-0.5,0.9-0.6,1.5
		c-0.2,0.7-0.3,1.4-0.3,2.2h-0.2v-5.1h8.7v5.1H116c-0.2-1.8-0.5-3.1-1-3.8c-0.5-0.7-1.3-1-2.5-1h0v11.7h1.7v0.3H109.4z"/>
	<polygon class="st0" points="120,92.3 121.7,92.3 121.7,92.7 116.8,92.7 116.8,92.3 118.5,92.3 118.5,80.6 116.8,80.6 116.8,80.3 
		121.7,80.3 121.7,80.6 120,80.6 	"/>
	<path class="st0" d="M126.9,92.6c0.4,0,0.9-0.1,1.2-0.4c0.4-0.3,0.7-0.7,1-1.2c0.2-0.3,0.3-0.8,0.4-1.4c0.1-0.6,0.1-1.6,0.1-3.1
		c0-1.7-0.1-2.9-0.2-3.5c-0.1-0.6-0.3-1.1-0.6-1.5c-0.2-0.3-0.5-0.6-0.9-0.8c-0.3-0.2-0.7-0.3-1-0.3c-0.4,0-0.7,0.1-1.1,0.3
		c-0.3,0.2-0.6,0.5-0.9,0.8c-0.3,0.4-0.5,0.9-0.6,1.5c-0.1,0.3-0.1,0.8-0.1,1.3c0,0.6,0,1.3,0,2.2v0.4c0,1.4,0,2.3,0.1,2.8
		c0.1,0.5,0.2,1,0.4,1.3c0.3,0.5,0.6,0.9,1,1.2C126,92.4,126.4,92.6,126.9,92.6 M126.9,80.1c0.5,0,1,0.1,1.4,0.3
		c0.4,0.2,0.9,0.6,1.2,1c0.5,0.7,1,1.4,1.3,2.3c0.3,0.9,0.4,1.9,0.4,2.9c0,0.9-0.1,1.8-0.3,2.5c-0.2,0.7-0.6,1.4-1,2.1
		c-0.4,0.5-0.8,0.9-1.4,1.2c-0.5,0.3-1.1,0.4-1.6,0.4c-0.5,0-1.1-0.1-1.6-0.4c-0.5-0.3-1-0.7-1.4-1.2c-0.5-0.6-0.8-1.3-1-2
		c-0.1-0.4-0.2-0.8-0.3-1.2c-0.1-0.4-0.1-0.8-0.1-1.3c0-0.7,0.1-1.4,0.2-2c0.1-0.7,0.3-1.3,0.6-1.8c0.4-0.9,0.9-1.6,1.5-2
		C125.5,80.3,126.2,80.1,126.9,80.1"/>
	<path class="st0" d="M134.1,81.7V90c0,0.8,0.1,1.4,0.4,1.8c0.3,0.4,0.6,0.6,1.2,0.6h0.3v0.3h-4v-0.3h0.3c0.5,0,0.9-0.2,1.1-0.6
		c0.2-0.4,0.4-1,0.4-1.7v-8.7c-0.1-0.3-0.3-0.5-0.5-0.6c-0.2-0.1-0.5-0.2-0.9-0.2h-0.4v-0.3h3l4.9,9.4V83c0-0.8-0.1-1.4-0.4-1.8
		c-0.3-0.4-0.7-0.6-1.2-0.6H138v-0.3h4v0.3h-0.3c-0.5,0-0.9,0.2-1.1,0.6c-0.2,0.4-0.4,1-0.4,1.7v9.9h-0.2L134.1,81.7z"/>
	<path class="st0" d="M144,88.4h3.6l-1.8-6L144,88.4z M143.4,90.1c0,0.1-0.1,0.2-0.1,0.2c0,0,0,0.1,0,0.2l0,0.4c0,0.4,0.1,0.7,0.3,1
		c0.2,0.2,0.5,0.3,0.9,0.3h0.3v0.3h-3.8v-0.3c0.5-0.1,0.9-0.3,1.2-0.6c0.3-0.3,0.6-1,0.9-1.9l2.9-9.8h0.4l3.7,12.2h1.1v0.3h-4.1
		v-0.3l1.5,0l-1.1-3.6h-3.8L143.4,90.1z"/>
	<path class="st0" d="M155.7,80.3v0.3H154v11.7h1.5c1.1,0,2-0.4,2.7-1.2c0.6-0.8,1.1-2.2,1.3-4h0.2v5.6h-8.9v-0.3h1.7V80.6h-1.7
		v-0.3H155.7z"/>
</g>
<g>
	<path class="st0" d="M97.7,34.1c0.2,0.1,0.4,0,0.7-0.1c0.5-0.3,0.6-0.8,0.8-3.6c0.1-2.3-0.4-3.2-0.7-3.4c-0.1-0.2-0.3-0.2-0.5-0.2
		l0,0c-0.4,0-0.4,0.5-0.4,0.9c0,0.5,0,4.7-0.1,5.7C97.5,33.7,97.6,34,97.7,34.1"/>
	<polygon class="st0" points="87.1,56.4 86.7,56.6 86,54.4 86.5,54.2 	"/>
	<polygon class="st0" points="87.4,53.9 87.9,53.8 89.2,55.1 88.8,53.6 89.2,53.5 89.8,55.7 89.3,55.8 88,54.5 88.4,56 88,56.2 	"/>
	<polygon class="st0" points="91.9,52.9 91.9,53.3 91.3,53.5 91.6,55.3 91.2,55.4 90.8,53.6 90.1,53.7 90.1,53.3 	"/>
	<polygon class="st0" points="94.4,52.9 93.3,53.1 93.3,53.6 94.4,53.4 94.5,53.8 93.4,54 93.5,54.6 94.7,54.4 94.8,54.8 93.1,55 
		92.7,52.8 94.4,52.5 	"/>
	<path class="st0" d="M96.8,52.3c0.1,0,0.2,0.1,0.2,0.1c0.1,0.1,0.1,0.1,0.1,0.2c0,0.1,0.1,0.1,0.1,0.2c0,0.1,0,0.2-0.1,0.3
		c0,0.1-0.1,0.2-0.2,0.2c0.1,0,0.2,0.1,0.2,0.2c0.1,0.1,0.1,0.2,0.1,0.4l0,0.2c0,0.1,0,0.2,0,0.2c0,0.1,0.1,0.1,0.1,0.1l0,0.1
		l-0.5,0.1c0,0,0-0.1,0-0.1c0-0.1,0-0.1,0-0.2l0-0.2c0-0.1-0.1-0.2-0.1-0.3c-0.1,0-0.1-0.1-0.3,0l-0.5,0l0.1,0.9l-0.5,0l-0.2-2.3
		l1.1-0.1C96.6,52.3,96.8,52.3,96.8,52.3 M95.9,52.8l0.1,0.6l0.5,0c0.1,0,0.2,0,0.2-0.1c0.1-0.1,0.1-0.1,0.1-0.3
		c0-0.1-0.1-0.2-0.2-0.3c0,0-0.1,0-0.2,0L95.9,52.8z"/>
	<polygon class="st0" points="98.2,52.2 98.7,52.1 99.7,53.7 99.6,52.1 100.1,52.1 100.2,54.4 99.7,54.4 98.7,52.8 98.8,54.4 
		98.3,54.4 	"/>
	<path class="st0" d="M101.7,52.1l0.5,0l0.8,2.3l-0.5,0l-0.1-0.5l-0.8,0l-0.2,0.5l-0.5,0L101.7,52.1z M101.7,53.5l0.6,0l-0.3-0.9
		L101.7,53.5z"/>
	<polygon class="st0" points="105.4,52.2 105.3,52.6 104.7,52.5 104.6,54.4 104.1,54.4 104.2,52.5 103.5,52.5 103.5,52.1 	"/>
	<polygon class="st0" points="106.4,54.6 105.9,54.5 106.1,52.2 106.6,52.3 	"/>
	<path class="st0" d="M109.1,54.7c-0.2,0.2-0.5,0.2-0.8,0.2c-0.3,0-0.6-0.2-0.7-0.4c-0.2-0.2-0.3-0.6-0.2-1c0.1-0.4,0.2-0.7,0.5-0.9
		c0.2-0.2,0.5-0.2,0.8-0.2c0.3,0,0.6,0.2,0.7,0.4c0.2,0.2,0.3,0.6,0.2,1C109.5,54.2,109.3,54.5,109.1,54.7 M108.8,54.3
		c0.1-0.1,0.2-0.3,0.2-0.6c0-0.3,0-0.5-0.1-0.6c-0.1-0.2-0.2-0.2-0.4-0.3c-0.2,0-0.3,0-0.5,0.1c-0.1,0.1-0.2,0.3-0.2,0.6
		c0,0.3,0,0.5,0.1,0.6c0.1,0.2,0.2,0.2,0.4,0.3C108.6,54.5,108.7,54.4,108.8,54.3"/>
	<polygon class="st0" points="110.6,52.8 111.1,52.9 111.7,54.6 112,53.1 112.4,53.1 112,55.4 111.6,55.3 111,53.5 110.7,55.1 
		110.2,55 	"/>
	<path class="st0" d="M114.1,53.5l0.5,0.1l0.3,2.4l-0.5-0.1l0-0.5l-0.8-0.2l-0.3,0.4l-0.5-0.1L114.1,53.5z M113.7,54.9l0.6,0.1
		l-0.1-0.9L113.7,54.9z"/>
	<polygon class="st0" points="116.2,54.1 116.7,54.2 116.2,56 117.3,56.3 117.1,56.7 115.6,56.2 	"/>
	<path class="st0" d="M87,52.3c-0.1,0.1-0.3,0.3-0.5,0.3l-0.5,0.1l0.2,0.8l-0.5,0.1l-0.6-2.2l0.9-0.3c0.2-0.1,0.4-0.1,0.6,0
		c0.2,0.1,0.3,0.2,0.3,0.5C87.1,52,87.1,52.2,87,52.3 M86.5,51.6c-0.1,0-0.2,0-0.3,0l-0.4,0.1l0.2,0.6l0.4-0.1
		c0.1,0,0.2-0.1,0.2-0.2c0-0.1,0-0.2,0-0.3C86.6,51.7,86.5,51.7,86.5,51.6"/>
	<polygon class="st0" points="88.6,52.9 88.1,50.7 88.6,50.6 88.8,51.4 89.6,51.2 89.4,50.4 89.9,50.3 90.4,52.5 89.9,52.6 
		89.7,51.6 88.8,51.8 89.1,52.8 	"/>
	<rect x="91.4" y="49.9" transform="matrix(0.9841 -0.1776 0.1776 0.9841 -7.6159 17.0787)" class="st0" width="0.5" height="2.3"/>
	<polygon class="st0" points="93,49.7 93.4,49.6 93.7,51.5 94.8,51.3 94.9,51.7 93.3,52 	"/>
	<polygon class="st0" points="96.4,51.6 96,51.6 95.7,49.3 96.2,49.3 	"/>
	<path class="st0" d="M99.1,50.4c-0.1,0.1-0.3,0.2-0.6,0.2l-0.5,0l0,0.8l-0.5,0l-0.1-2.3l1-0.1c0.2,0,0.4,0,0.5,0.1
		c0.1,0.1,0.2,0.3,0.2,0.5C99.3,50.1,99.3,50.3,99.1,50.4 M98.7,49.6c-0.1,0-0.1-0.1-0.3-0.1l-0.4,0l0,0.7l0.4,0
		c0.1,0,0.2,0,0.2-0.1c0.1-0.1,0.1-0.1,0.1-0.3C98.8,49.7,98.8,49.6,98.7,49.6"/>
	<path class="st0" d="M103.8,49.1l0.7,0l-0.1,2.3l-0.4,0l0-1.5c0,0,0-0.1,0-0.2c0-0.1,0-0.1,0-0.2l-0.5,1.9l-0.5,0l-0.4-1.9
		c0,0,0,0.1,0,0.2c0,0.1,0,0.1,0,0.2l0,1.5l-0.4,0l0.1-2.3l0.7,0l0.4,1.8L103.8,49.1z"/>
	<path class="st0" d="M107.4,51.4c-0.2,0.2-0.4,0.2-0.8,0.2c-0.3,0-0.6-0.1-0.7-0.3c-0.2-0.2-0.3-0.6-0.3-1c0-0.4,0.2-0.7,0.4-0.9
		c0.2-0.2,0.4-0.2,0.8-0.2c0.3,0,0.6,0.1,0.7,0.3c0.2,0.2,0.3,0.6,0.3,1C107.8,50.9,107.6,51.2,107.4,51.4 M107.1,51
		c0.1-0.1,0.2-0.3,0.2-0.6c0-0.3,0-0.5-0.1-0.6c-0.1-0.1-0.2-0.2-0.4-0.2c-0.2,0-0.3,0-0.5,0.2c-0.1,0.1-0.2,0.3-0.2,0.6
		c0,0.3,0,0.5,0.1,0.6c0.1,0.1,0.2,0.2,0.4,0.2C106.8,51.2,107,51.1,107.1,51"/>
	<path class="st0" d="M110.6,49.8c0.1,0,0.1,0.1,0.2,0.2c0,0.1,0.1,0.1,0.1,0.2c0,0.1,0,0.2,0,0.2c0,0.1-0.1,0.2-0.1,0.3
		c-0.1,0.1-0.2,0.2-0.3,0.2c0.1,0.1,0.2,0.1,0.2,0.2c0,0.1,0,0.2,0,0.4l0,0.2c0,0.1,0,0.2,0,0.2c0,0.1,0,0.1,0.1,0.1l0,0.1l-0.5-0.1
		c0-0.1,0-0.1,0-0.1c0-0.1,0-0.1,0-0.2l0-0.2c0-0.1,0-0.2,0-0.3c0-0.1-0.1-0.1-0.3-0.1l-0.5-0.1l-0.1,0.9l-0.5-0.1l0.3-2.3l1.1,0.2
		C110.4,49.7,110.5,49.8,110.6,49.8 M109.6,50l-0.1,0.6l0.5,0.1c0.1,0,0.2,0,0.2,0c0.1,0,0.2-0.1,0.2-0.2c0-0.1,0-0.2-0.1-0.3
		c0,0-0.1-0.1-0.2-0.1L109.6,50z"/>
	<path class="st0" d="M113.7,50.4c0.1,0.1,0.1,0.1,0.2,0.2c0,0.1,0.1,0.1,0.1,0.2c0,0.1,0,0.2,0,0.2c0,0.1-0.1,0.2-0.1,0.3
		c-0.1,0.1-0.2,0.1-0.3,0.2c0.1,0.1,0.2,0.1,0.2,0.2c0,0.1,0,0.2,0,0.4l0,0.1c0,0.1,0,0.2,0,0.2c0,0.1,0,0.1,0.1,0.1l0,0.1l-0.5-0.1
		c0-0.1,0-0.1,0-0.1c0-0.1,0-0.1,0-0.2l0-0.2c0-0.1,0-0.2,0-0.3c0-0.1-0.1-0.1-0.3-0.1l-0.5-0.1l-0.2,0.9l-0.5-0.1l0.5-2.2l1.1,0.2
		C113.5,50.3,113.7,50.3,113.7,50.4 M112.7,50.5l-0.1,0.6l0.5,0.1c0.1,0,0.2,0,0.2,0c0.1,0,0.2-0.1,0.2-0.2c0-0.1,0-0.2-0.1-0.3
		c0,0-0.1-0.1-0.2-0.1L112.7,50.5z"/>
	<polygon class="st0" points="115.3,53.1 114.8,52.9 115.4,50.7 115.8,50.9 	"/>
	<path class="st0" d="M117,52.8c0,0.1,0,0.2,0,0.2c0,0.1,0.2,0.2,0.3,0.3c0.1,0,0.2,0,0.3,0c0.1,0,0.2-0.1,0.3-0.2
		c0-0.1,0-0.1,0-0.2c-0.1-0.1-0.1-0.1-0.3-0.2l-0.2-0.1c-0.2-0.1-0.4-0.2-0.4-0.3c-0.1-0.1-0.1-0.3-0.1-0.5c0.1-0.2,0.2-0.3,0.4-0.4
		c0.2-0.1,0.4-0.1,0.7,0c0.2,0.1,0.4,0.2,0.5,0.4c0.1,0.2,0.2,0.4,0.1,0.6l-0.4-0.1c0-0.1,0-0.2-0.1-0.3c-0.1-0.1-0.1-0.1-0.3-0.1
		c-0.1,0-0.2,0-0.3,0c-0.1,0-0.1,0.1-0.2,0.2c0,0.1,0,0.1,0,0.2c0,0,0.1,0.1,0.3,0.2l0.4,0.2c0.2,0.1,0.3,0.2,0.3,0.3
		c0.1,0.1,0.1,0.3,0.1,0.5c-0.1,0.2-0.2,0.3-0.4,0.4c-0.2,0.1-0.4,0.1-0.7,0c-0.3-0.1-0.5-0.2-0.6-0.4c-0.1-0.2-0.1-0.4-0.1-0.6
		L117,52.8z"/>
	<path class="st0" d="M101.7,44.8L101.7,44.8L101.7,44.8L101.7,44.8c5.1,0,9.2-5,9.2-11.1c0-6.1-4.1-11.1-9.2-11.1h0h0
		c-5.1,0-9.2,5-9.2,11.1C92.5,39.8,96.6,44.8,101.7,44.8 M101.7,23.2c4.8,0,8.7,4.7,8.7,10.5c0,5.8-3.9,10.5-8.7,10.5
		c-4.8,0-8.7-4.7-8.7-10.5C93,27.9,96.9,23.2,101.7,23.2"/>
	<path class="st0" d="M95.7,39.7c-0.1,0.1-0.2,0.1-0.2,0c0,0,0-0.1,0-0.1c0-0.1,0-0.1,0-0.2c0.5-1.3,0.6-5.4,0.6-8.3
		c0-1.3,0-2.3-0.1-2.8c0-0.1,0-0.2,0-0.3c0-0.4,0.1-0.5,0.4-0.6l0,0c0.2-0.1,0.5-0.2,0.6-0.4c0.2-0.7,0.9-0.9,1.2-0.9
		c0.5,0,2.5,0.7,2.5,4.1c0,2.2-0.9,3.7-2.7,4.3l-0.1,0c-0.2,0.1-0.3,0.3-0.3,0.5l0,0.1C97.3,38.4,96.1,39.4,95.7,39.7 M101.8,27.2
		c0-0.1,0-0.2,0-0.2c0,0,0.1,0,0.2,0.2l0,0.1c0.8,1.2,2,5.1,2,5.2c0,0.1,0,0.1,0,0.1c0,0,0-0.1,0-0.1c0.4-1.5,1.7-4.7,2.1-5.4
		c0.2-0.2,0.2-0.3,0.3-0.2c0.1,0,0,0.1,0,0.2l0,0.1c-0.2,1.4-0.4,7.6,1.2,12.4c0.1,0.2,0.1,0.2,0,0.3c0,0-0.1,0-0.2-0.1c0,0,0,0,0,0
		c-1.7-1.1-2.6-4.7-2.6-5c0-0.1,0-0.2,0-0.2c0,0,0,0,0,0c-0.1,0.5-0.5,2.3-0.8,3.5c-0.1,0.6-0.2,1-0.2,1l0,0.1c0,0.1,0,0.1-0.1,0.1
		c0,0-0.1,0-0.1-0.2c-0.1-0.2-0.4-1.5-0.7-2.6c-0.2-0.7-0.4-1.4-0.4-1.5c0-0.1,0-0.1-0.1-0.1c0,0,0,0,0,0l-0.2,0.7
		c-0.4,1.3-0.9,2.9-2.1,3.8c-0.3,0.2-0.4,0.2-0.4,0.2c0,0,0-0.1,0.1-0.3C101.5,35.8,102.3,29.8,101.8,27.2 M101.7,44.3
		c4.8,0,8.7-4.7,8.7-10.5c0-5.8-3.9-10.5-8.7-10.5c-4.8,0-8.7,4.7-8.7,10.5C93,39.6,96.9,44.3,101.7,44.3"/>
	<path class="st0" d="M101.2,11.3c0-0.2,0.2-0.4,0.4-0.4c0.2,0,0.4,0.2,0.4,0.4c0,0.2-0.2,0.4-0.4,0.4
		C101.4,11.7,101.2,11.5,101.2,11.3 M102.6,11.3c0-0.5-0.4-1-1-1c-0.5,0-1,0.4-1,1c0,0.5,0.4,1,1,1
		C102.1,12.2,102.6,11.8,102.6,11.3"/>
	<path class="st0" d="M135.7,26.5c0,0,0.1,0.1,0.1,0.2c0,0,0,0,0,0c0,0.1-0.1,0.2-0.3,0.2c-0.3,0.1-0.6,0-0.8-0.1l0,0c0,0,0,0-0.1,0
		c-1-0.4-0.6-0.3-0.8,0.6c0,0.1,0,0.3-0.1,0.4c-0.1,0.6-0.3,1.7-0.5,2l-0.1,0.3c0,0,0,0,0,0.1c-0.1-0.1-0.2-0.2-0.4-0.4l-0.2-0.2
		c-0.9-0.9-1.7-1.8-1.7-2.7c0-0.3,0.1-0.7,0.4-1c0.2-0.2,0.3-0.3,0.3-0.5c0,0,0,0,0,0c0-0.3-0.3-0.5-0.6-0.6l-0.1-0.1
		c-0.2-0.1-1.5-0.6-2.6,0c-0.8,0.4-1.3,1.1-1.5,2.3l0,0c-0.1,0.8-0.3,2.4,1.5,4c-0.1,0.2-0.2,0.4-0.2,0.6c0,0.1-0.1,0.3-0.1,0.4
		c-0.1,0.2-0.1,0.4-0.2,0.6c-0.5-0.8-1.3-2.1-1.5-2.5c-0.6-1.2-0.9-3.2-0.2-4.6c0.4-0.7,0.9-1.2,1.7-1.6c0.4-0.2,1.2-0.5,2.3-0.1
		c0.4,0.2,0.8,0.3,1.2,0.4c0.4,0.1,0.9-0.1,1.3-0.2c0.3-0.1,0.5-0.1,0.7-0.1c0.2,0,0.6,0.2,1,0.3c0.3,0.1,0.5,0.2,0.6,0.2
		c0.1,0,0.2,0,0.3,0c0.1,0,0.4,0,0.4,0v0c0,0,0,0.1-0.2,0.4l0,0l0,0c-0.1,0.3-0.2,0.6-0.2,0.8C135.4,26.1,135.5,26.3,135.7,26.5
		 M134.9,29.1c-0.4,0.9-0.6,1.7-0.6,2.3c0,0.3,0.3,0.7,0.5,0.8c0,0,0,0.1,0,0.1c0,0-0.2,0.1-0.2,0.1c-0.2,0.1-0.5,0.2-0.8,0.2
		c-0.2,0-0.4,0-0.5-0.2c-0.4-0.4-0.7-1.3-0.7-2.1c0.4,0.4,0.6,0.5,0.8,0.4c0.3-0.1,0.3-0.3,0.3-0.5l0-0.2c0.2-0.4,0.4-1.5,0.5-2.1
		c0-0.2,0.1-0.5,0.1-0.6c0,0,0,0,0,0l0,0c0.1,0,0.1,0,0.2,0.1c0.1,0.2,0.3,0.8,0.3,1.2C135,28.9,135,29,134.9,29.1 M128.6,32.2
		c0.1-0.2,0.1-0.3,0.1-0.5c0.1-0.3,0.3-0.7,0.7-1.2c0,0,0,0,0,0c0,0,0,0.1,0,0.1l0.1,0.2c0.1,0.3,0.2,0.7,0.3,0.9
		c0.3,0.7,0.2,0.8,1,0.5l0.2-0.1c0,0,0,0,0.1,0c0,0.1,0,0.1,0,0.2l0,0c0,0.2,0.3,1.4,0.4,1.7c0.3,1,0,0.9,0.8,0.6
		c0.6-0.2,0.9-0.2,1-0.1c0.2,0.3-0.8,2-1.3,2.4c-0.2,0.2-0.6,0.9-0.8,1.2l0,0.1c-0.2,0.4-0.4,1-0.8,1.4c-1.5,1.9-3.3,1.1-4.1,0.8
		l-0.1,0c0.1-0.4,0.2-0.7,0.3-1.1c0.4,0.3,0.9,0.6,1.6,0.6c1.4,0,2.4-1.4,2.4-2.6c0-1.3-1-1.9-2-2c-0.5,0-1,0.1-1.2,0.2
		c0,0,0-0.1,0-0.3c0-0.4,0.1-1.1,0.5-1.2c0.1,0,0.2-0.1,0.3-0.1c0.8-0.2,0.8-0.2,0.2-0.6c0,0-0.1,0-0.1-0.1c0,0,0,0,0,0
		c0,0,0-0.1,0-0.1C128.4,32.8,128.6,32.4,128.6,32.2 M127.4,42.5l0.1,0.1c0.3,0.2,0.9,0.7,0.9,1.1c0,0.3,0,1.8,0,1.8
		c0,0.2,0.1,0.5,0.2,1c0.1,0.3,0.1,0.7,0.2,0.9c0,0.4-0.1,1.7-0.3,2c-0.1,0.2-0.3,0.2-0.4,0.2c-0.2,0-0.3,0-0.4-0.1l-0.1-0.1
		c-0.3-0.8-0.4-0.4-0.7,0.1l-0.1,0.1c-0.3,0.2-0.6-0.1-0.7-0.2c-0.1-0.1-0.1-0.2-0.1-0.2c0,0,0,0,0-0.1h0c0.1-0.8,0.1-0.7-0.5-0.4
		c0,0-0.1,0-0.1,0.1l0,0c-0.1,0-0.3,0.1-0.4,0.1c-0.1-0.1-0.2-0.2-0.2-0.5c0-0.3,0.6-1.1,1.3-1.5c0.4-0.2,0.8-0.7,0.8-1.6
		c0-0.1,0-0.2,0-0.3c0-0.6-0.5-1.2-0.8-1.3c-0.3-0.1-1-0.2-1.5-0.3c-0.2,0-1.2-0.1-2.5-1.2c-1.1-0.9-1.8-2.6-1.9-3.1
		c0-0.1,0-0.2,0-0.3c0-0.7,0.3-1.9,0.5-2.3c0.2-0.3,0.3-0.8,0.3-1.2c0,0,0-0.1,0-0.1c0.3,0.2,0.7,0.5,0.9,0.8c1,0.9,0.8,0.5,0.3-0.2
		c-0.2-0.3-0.6-0.8-1-1.1c-0.4-0.3-1.2-0.7-2-0.8c-0.8-0.2-1.4-0.4-1.7-0.7c0.1,0,0.1-0.1,0.2-0.1c0,0,0.5-0.3,0.9-0.6
		c0.1,0.2,0.4,0.4,0.6,0.4c0.3,0.1,1,0,1.2-0.4c0.1-0.2,0.2-0.4,0.3-0.6c0,0,0.1-0.3,0.1-0.3c0.1-0.1,0.9-0.7,1.1-0.8
		c0.2-0.1,0.2-0.2-0.1-0.1c-0.3,0-1.3,0.3-1.5,0.6l-0.2,0.3c-0.1,0.2-0.2,0.4-0.3,0.5c-0.1,0.2-0.5,0.3-0.7,0.2
		c-0.1,0-0.2-0.2-0.3-0.3c0.1-0.1,0.1-0.1,0.2-0.2c0.1-0.1,0-0.3-0.1-0.4c-0.1-0.1-0.3,0-0.4,0.1l0,0c-0.1,0.1-0.7,0.6-1.3,0.9
		c-0.4,0.3-0.5,0.3-1.1,0.6l-0.3,0.1l-0.1,0.1c-0.3,0.1-0.6,0.2-0.7,0.9c-0.1,0.6-0.3,1-0.4,1c-0.2,0-0.4-0.1-0.5-0.3
		c0,0-0.1-0.1-0.1-0.2c-0.2-0.5-0.2-0.5-0.5-0.1c-0.1,0.1-0.4,0-0.5,0c-0.1,0-0.3-0.1-0.2-0.3c0.2-0.9,0.2-1-0.5-0.8
		c-0.1,0-0.2,0-0.2-0.2c-0.1-0.1,0-0.4,0.2-0.8l0,0c0.1-0.3,0.4-0.6,0.7-0.9c0.1-0.1,0.3-0.3,0.5-0.5c0.3-0.3,0.7-0.4,1.3-0.6
		c0.5-0.2,1.2-0.5,1.5-0.8c0.2-0.2,1.1-0.9,1.7-1.2c0.3-0.1,0.3-0.2-0.2-0.1c-0.6,0.2-1.6,0.6-1.9,0.9c0,0-0.1,0.1-0.1,0.1
		c-0.5-1.8-0.1-2.5,0.2-3l0,0c0,0,0,0,0.1,0l0.1,0c0,0,0.3,0,0.5,0c0,0.2,0.1,0.4,0.2,0.4c0.3,0.3,0.9,0.2,1.1,0.1
		c0,0,1.5-0.6,1.8-0.8c0.1-0.1,0.2-0.1,0.3-0.2c0,0.3,0.1,0.9,0.2,1.3c0.1,0.5,0.3,0.7,0.5,0.7c0.2,0.1,0.4,0.1,0.6,0l0.1,0
		c0.2-0.1,0.6-0.3,1.1-1.2c0-0.1,0.1-0.2,0.1-0.2c0,0,0,0,0,0.1c0,0,0.1,0.2,0.1,0.2l0.1,0.2c0.6,1.2,1.7,3.5,1.9,5.9l0.1,1
		c0.2,1.3,0.6,1.7,0.9,2c0.1,0.1,0.1,0.1,0.2,0.2c0.1,0.2,0.3,0.8,0.5,1.5c0,0,0,0,0,0c0,0.1,0,0.2,0,0.4c0,0.5,0,1.1-0.2,1.6
		c-0.1-0.2-0.2-0.3-0.3-0.5c-0.6-0.9-1.9-1.8-0.4,0.3C125.6,40.5,126.5,41.8,127.4,42.5 M129,49.2h0.3h6c-0.3,0.6-1.7,2.9-1.7,2.9
		s1.3,2.4,1.6,3h-15.5l1.3-4.3l-0.2-0.1c-0.7-0.3-1.4-0.5-2.2-0.7c0.5-0.4,1-0.8,1-0.8h4.9c0.1,0.1,0.1,0.2,0.2,0.2
		c0.2,0.2,0.5,0.1,0.8,0c0,0.1,0.1,0.3,0.2,0.4c0.3,0.3,0.8,0.6,1.3,0.3c0,0,0.1-0.1,0.2-0.2l0,0c0.2,0.2,0.5,0.3,0.8,0.2
		c0.3,0,0.6-0.2,0.7-0.5C128.9,49.6,129,49.5,129,49.2 M118.3,58.2c-5.1-1.8-11.1-2.8-16.6-2.8h0c-5.5,0-11.5,1-16.6,2.8l-2.1-7
		c5.7-2.1,12.5-3.3,18.7-3.3h0c6.2,0,13,1.2,18.7,3.3L118.3,58.2z M67.9,55.2c0.3-0.6,1.6-3,1.6-3s-1.3-2.3-1.7-2.9h5.2
		c0,0,0,0,0,0.1c0,0.1,0,0.2,0.1,0.3c0.1,0.2,0.3,0.3,0.6,0.3c0.3,0.1,0.7,0.1,0.9,0.1l0.1,0c0.6,0,1.3,0,1.6-0.8h0.4h7.2
		c0,0,0.5,0.4,1.1,0.8c-0.8,0.2-1.5,0.5-2.2,0.8l-0.2,0.1l1.3,4.3H67.9z M72.8,48l-0.5,0c-0.1,0-0.1,0-0.1,0c0-0.1,0-0.4,0.1-0.6
		c0-0.2,0.1-0.4,0.1-0.5c0-0.1,0-0.3,0.1-0.5c0.1-0.4,0.2-1,0.2-1.8c0-0.2,0-0.5,0-0.7c0-0.2,0-0.4,0-0.6c0-0.5,0.1-0.6,0.1-0.7
		c0,0,0.1,0,0.2,0l0.2,0l0.2,0c0.5-0.1,1.8-0.2,2.5-1.3c0.5-0.8,0.7-1.7,0.8-3.7c0.1-1.9,1.6-3.5,2.2-3.9l0.4-0.2
		c0.5-0.3,1.1-0.6,1.5-0.9c0.1-0.1,0.4-0.2,0.6-0.6c0.1-0.3,0.2-0.6,0.4-0.9c0.2-0.4,0.4-0.9,0.6-1.6c0.3-1.2,0.1-2.5-0.2-3.4
		c0.1,0,0.1,0,0.2,0c0.3,0,0.6-0.1,0.7-0.3c0.1,0.1,0.3,0.2,0.6,0.3c0.6,0.2,1.4,0.4,1.8,0.1c0,0,0,0,0.1,0.1
		c0.2,0.3,1.2,0.9,2.7,1.9c1,0.7,2.1,1.4,2.6,1.8c0.3,0.2,0.4,0.3,0.4,0.6c0,0.1,0,0.2,0,0.3c0,0.2-0.1,0.5-0.2,0.9
		c-0.1,0.5-0.2,1.2-0.2,1.7c0,0.8,0.1,1.5,0.1,1.8l0,0.3c0,0.1,0,0.2,0,0.3c0,0.2,0,0.3-0.2,0.4c-0.3,0.2-1,0.4-1.5,0.6
		c-0.4,0.1-0.6,0.2-0.7,0.2c-0.1,0-0.3,0.1-0.4,0c-0.1-0.1-0.1-0.3-0.1-0.4l0-0.4c0-0.5,0-0.6,0.4-0.7c0.1,0,0.2,0,0.3,0
		c0.1,0,0.3,0.1,0.6,0c0.5-0.2,0.6-0.4,0.9-0.8c0.2-0.4,0.1-0.8,0.1-1.6l0-0.5c0-0.4,0.3-1-0.8-1.3c-1.8-0.6-2.8-0.9-3.2-0.9
		c-0.5-0.1-1-0.3-1.1-0.4c-0.1-0.1-0.3-0.1-0.4,0c-0.1,0.1-0.1,0.3,0,0.4c0.2,0.2,1,0.5,1.4,0.6c0.2,0,0.9,0.2,3.1,0.9
		c0,0,0.1,0,0.1,0.1c-0.1,0.2-0.2,0.4-0.3,0.5c-0.4,0.7-1.3,1.9-1.7,2.2c-0.7,0.6-1.6,1.1-2.5,1.2c-1.8,0.1-3.1,1.1-4,2.7
		c-0.3,0.6-0.6,1.3-0.8,1.8c-0.2,0.5-0.4,1-0.6,1.2c-0.3,0.4-1.3,0.9-1.7,0.7c-0.6-0.3-1-0.3-1.3-0.1c-0.2,0.1-0.1,0.3-0.6,0.3
		c-0.1,0-0.7,0-0.7,0.1c0,0.1,0.4,0.3,0.5,0.3c0.8,0.1,0.7,0,1-0.2c0.1-0.1,0.3-0.2,0.7,0c-0.1,0.4-0.4,0.6-0.7,0.7
		c-0.4,0.2-1,0.1-1.4,0c-0.5-0.1-1.3,0.1-1.3,0.5l0,0.2c-0.1,0.2-0.1,0.5-0.2,0.8c-0.1,0.5,0.1,1.3,0.3,1.6c0.1,0.1,0.4,0.4,0.7,0.6
		l0.5,0.4l0.1,0.1c0.2,0.2,0.5,0.4,0.4,1.2c0,0.7-0.3,0.7-1.1,0.8l-0.1,0c-0.5,0-0.9-0.1-0.9-0.2c-0.2-0.1,0.1-0.4,0.1-0.6
		c0-0.1,0-0.1,0-0.2h0c0.1-0.6,0.6-0.6-0.6-0.6l0,0C73,48,72.9,48,72.8,48 M72.4,37.6c-0.5-1.1-0.1-2.8,1.3-4.5l0.4-0.5l0.2-0.2
		c0.3-0.3,0.7-1.1,0.7-1.7c0-0.1,0-0.2,0-0.3c-0.1-0.3-0.3-0.5-0.6-0.6c-0.2-0.1-0.2-0.1-0.3-0.1c0.1-0.1,0.2-0.2,0.3-0.2l0.1-0.1
		c0.2-0.2,0.6-0.2,0.8-0.2l0.1,0c0.2,0,0.4,0.1,0.6,0c0.2-0.1,0.4-0.4,0.5-1c0.2-0.7,0-1.8-0.6-2.7c-0.4-0.7-1.5-1.5-2.5-1.4
		c-0.4,0.1-0.8,0.3-1,1c-0.1,0.2-0.1,0.4-0.1,0.6c0,0.7,0.4,1.4,0.7,1.7c0,0,0,0,0,0c0,0-0.1,0-0.1,0c0,0-0.1,0-0.1,0
		c-0.3,0-1.4-0.3-1.5,0.5V28c0,0.2,0,0.4-0.5,1.2c-0.2,0.4-0.4,0.5-0.4,0.6c0-0.1-0.1-0.2-0.1-0.3l0-0.1c-0.1-0.2-0.1-0.6-0.1-0.9
		v-0.1c0-0.1,0-0.2,0-0.3c0-0.1,0.1-0.2,0.1-0.3c0-0.1,0-0.2-0.1-0.2c-0.2-0.2-0.4,0-0.9,0.4c-0.4,0.3-0.6,0.3-0.8,0.2
		c-0.2,0-0.4-0.1-0.5-0.2c-0.1,0-0.2,0-0.2-0.1c0.4-0.3,1.2-1.3,1.3-1.6c0-0.1,0-0.2,0-0.3c-0.1-0.2-0.4-0.5-1-0.8
		c0.4-0.1,1.1-0.4,1.4-0.4c0.9-0.1,1.5-0.5,2.2-0.9c0.6-0.3,1.2-0.7,2-0.9c1.1-0.2,2,0.3,3.2,2c0.5,0.6,0.6,1.5,0.6,2.2
		c0,1-0.3,2-0.4,2.3l-0.1,0.1c-0.1,0.2-0.2,0.5-0.2,0.7c0,0.2,0.1,0.5,0.4,0.7c0.2,0.2,0.4,0.3,0.4,0.4c0,0.1-0.1,0.3-0.2,0.4
		l-0.4,0.6c-0.3,0.4-0.5,0.8-0.6,1c0,0.1-0.2,0.3-0.2,0.3c0-0.1-0.1-0.2-0.1-0.2l-0.1-0.4c-0.1-0.8-0.3-1-0.5-1
		c-0.1,0-0.3,0-0.4,0.2l-0.2,0.4l-0.2,0.4l-0.2,0.3L74.1,34c-0.7,0.9-1.8,2.4-0.7,3.7c0.7,0.8,1.8,0.6,2.4,0.4c0,0.4-0.1,0.7-0.1,1
		C74.1,39.1,72.8,38.6,72.4,37.6 M71.2,30.4l-0.3,0.4c-0.4,0.7-0.7,1.3-1,1.8l-0.1,0.2c-0.2,0.4-0.2,0.4-0.3,0.4
		c0-0.1,0-0.2,0.1-0.3c0-0.1,0.1-0.3,0.1-0.5c0,0,0,0,0-0.1c0-0.4-0.5-1.2-1-2l-0.1-0.1c-0.1-0.2-0.2-0.6-0.2-0.9c0-0.3,0-0.5,0-0.7
		v0c0.3,0,0.6,0.1,1.2-0.3v0.1c0,0.4,0.1,0.8,0.2,1.1l0,0.1c0.1,0.3,0.2,0.7,0.6,0.7c0.3,0,0.6-0.2,1-0.9c0.5-0.8,0.5-1.2,0.5-1.5v0
		l0,0c0,0,0,0,0.1,0C72.2,28.7,71.6,29.8,71.2,30.4 M81.6,25.2c-0.2-0.4-0.4-0.7-0.6-1l0,0l0,0c0,0-0.1-0.1-0.1-0.1
		c-1-1.3-0.8-0.8-0.9,0.2c0,0.1,0,0.2,0,0.2c0,0.1,0,0.2,0,0.3c0,0.1-0.1,0.2-0.1,0.2c0,0-0.1,0-0.3,0c-1-0.3-1.3-1-1.4-1.4l0,0
		c0-0.1-0.1-0.2-0.1-0.3c-0.5-1.3-0.4-0.8-0.8-0.3l0,0c0,0-0.1,0.1-0.1,0.1l0,0C77,23.3,77,23.3,77,23.3c0,0,0,0,0,0
		c-0.2-0.2-0.5-0.7-0.7-1.1c0-0.1,0-0.2,0-0.3c0-0.3,0.1-0.6,0.1-0.9l0-0.1l0-0.1c0.1-0.4,0.2-0.7,0-0.8c-0.2-0.2-0.4-0.1-0.8,0
		l-0.1,0c-0.1,0-0.2,0-0.2,0.1c0.1-0.4,0.1-0.8,0.1-1.1c0-0.7-0.2-1.3-0.8-1.5c-0.1,0-0.2-0.1-0.2-0.1c1.1-0.2,2.3-0.8,3.2-1.6
		l0.2-0.2c0.3-0.3,0.6-0.7,0.9-0.7c0.2,0,0.4,0,0.7,0.2c0.1,0,0.2,0.2,0.3,0.3c0.2,0.1,0.3,0.3,0.5,0.1c0,0,0.2-0.2,0-0.4
		c-0.3-0.4-0.5-0.9-0.5-1c0,0,0.1-0.1,0.7,0l0,0c0.5,0.1,1.8,0.7,1.1,0.1c0.2,0,0.3-0.1,0.5-0.1l0.2,0c0.1,0,0.2,0,0.4,0
		c0.3,0.1,0.6,0.1,0.7,0.1l0,0c0,0,0.2,0,0.2,0c0,0,0,0.1,0,0.1c0,0,0,0.1,0,0.1c0,0.3,0.7,0.9,0.7,1c0.1,0.1,0.7,0.6,1.2,1.2
		c0.8,0.8,1.7,1.7,2.1,2c0.5,0.4,0.4,0.8,0.3,0.9c-0.1,0.1-0.3,0.3-0.4,0.2l-0.2-0.1c-0.2-0.1-0.5-0.2-0.7,0
		c-0.1,0.1-0.1,0.2-0.1,0.3c0,0.2,0,0.3,0.1,0.5c0,0.1,0,0.2,0.1,0.2c-0.1,0.2-0.4,0.2-0.6,0c-0.1-0.1-0.4-0.3-0.7-0.6l-0.5-0.4
		c-0.5-0.4-1.2-0.6-1.6-0.6c-0.1,0-0.2-0.1-0.3-0.1c-0.1,0-0.2-0.1-0.2-0.1c-0.5-0.3-0.6-1-0.7-1.1c0-0.2-0.1-0.2-0.1,0
		c0,0.2-0.1,0.8,0.4,1.6c0.1,0.2,0.2,0.4,0.5,0.6l0.2,0.3c0.4,0.5,1,1.3,2.2,2l0.7,0.4c1.4,0.7,3.4,1.5,4.2,3.7
		c0.3,0.8,0.3,1.8,0.1,3c-0.5-0.4-1.3-0.9-2-1.3c-0.4-0.3-0.9-0.6-1.3-0.8l0.3-0.1c0.5-0.3,0.7-0.6,0.8-0.9c0.1-0.5-0.3-0.9-0.6-1.4
		c-0.8-1.2-2.6-1.5-3.8-1.7l-0.8-0.1c-1.2-0.2-2.7-0.8-3.6-1.6c-1.3-1.1-1.1-3.3-1-3.9c0-0.1,0-0.5-0.1-0.1
		c-0.2,0.7-0.8,3.1,0.7,4.4c1,0.9,2.6,1.5,3.9,1.8l0.8,0.1c1.1,0.1,2.8,0.4,3.4,1.5c0.3,0.4,0.5,0.7,0.5,1c0,0.2-0.2,0.4-0.5,0.5
		l-0.5,0.2c-0.4-0.3-0.7-0.5-0.8-0.6c-0.1-0.1-0.2-0.2-0.3-0.3c-0.9-0.7-0.5-0.3-0.5,0.1c-0.1,0.1-0.5,0.1-1.2-0.2
		c-0.4-0.2-0.5-0.2-0.6-0.4c-0.5-0.7-0.4-0.4-0.6,0.2c0,0.2-0.1,0.3-0.3,0.2C81.9,25.5,81.7,25.4,81.6,25.2 M79.9,13.4L79.9,13.4
		L79.9,13.4c-0.3,0-0.4,0.1-0.5,0.2c0,0,0,0,0,0.1c-0.2-0.1-0.5-0.4-1-0.8c-0.2-0.1-0.2-0.2-0.3-0.3c0.2,0,0.6,0,1.3,0.2l0,0l0,0
		c0.2,0,0.3,0.1,0.4,0.1L79.9,13.4z M81.9,13.1L81.9,13.1L81.9,13.1c-0.1,0.1-0.1,0.2-0.3,0.3l-0.3-1c0.1-0.1,0.2-0.2,0.3-0.3l0,0
		l0,0c0.4-0.6,0.7-0.8,0.9-0.9c0,0,0,0,0,0.1c0,0.1,0,0.2,0,0.4C82.2,12.7,81.9,13.1,81.9,13.1 M77.8,13.6c-0.5-0.4-0.7-0.8-0.7-1.2
		c0-0.2,0.2-0.4,0.4-0.5c0.5-0.2,1.1-0.2,2,0.1c0.1,0,0.2,0,0.4,0.1l0.1,0c0,0-0.2-0.7-0.3-0.8c0.1,0,0.5-0.2,0.6-0.2
		c0,0.1,0.3,0.8,0.3,0.8l0.1-0.1c0.1-0.1,0.2-0.2,0.3-0.3c0.5-0.7,1-1.1,1.5-1.2c0.3,0,0.5,0,0.6,0.2c0.2,0.2,0.3,0.5,0.3,0.8
		c0,0.2,0,0.4-0.1,0.6c-0.2,0.8-0.4,1.3-0.5,1.6c0,0-0.1,0-0.1,0c-0.1,0-0.2,0-0.3,0c0,0-0.1,0-0.1,0c0.1-0.1,0.3-0.6,0.6-1.6
		c0-0.2,0.1-0.3,0.1-0.5c0-0.2,0-0.4-0.1-0.5c0,0-0.1-0.1-0.2-0.1c-0.4,0.1-0.8,0.4-1.3,1.2c-0.2,0.2-0.3,0.3-0.4,0.4
		c0.1,0.2,0.3,1,0.3,1s0.1,0.2,0.1,0.3h0c-0.3-0.1-0.5-0.1-0.8-0.1c0-0.1,0-0.1,0-0.1l-0.3-0.9l-0.1,0c-0.2,0-0.4,0-0.6-0.1
		c0,0,0,0,0,0C78.6,12,78,12,77.7,12.1c-0.1,0.1-0.2,0.1-0.2,0.2l0,0.1c0,0.2,0.2,0.6,0.5,0.8c0.5,0.4,0.9,0.7,1.1,0.8
		c0,0,0,0-0.1,0c-0.1,0-0.3,0-0.4,0c0,0-0.1,0-0.1,0C78.3,14,78,13.8,77.8,13.6 M94,46.7c-0.2,0-0.5,0.1-0.7,0.1
		c-0.6,0.1-1.3,0.2-1.6,0c0,0-0.1-0.1-0.1-0.2c-0.1-1.5,0.8-2.7,1.4-3.2c1.5,2,3.6,3.5,5.8,4.1l0.2,0c-1,0.1-2,0.1-3.1,0.2
		c-0.1-0.1-0.1-0.1-0.1-0.1l0,0C95.6,47.3,94.9,46.7,94,46.7 M89.8,47.8c0.1,0,0.3,0,0.4-0.1c0.2-0.1,0.3-0.3,0.3-0.5
		c0.1-0.7-0.5-2-0.9-2.3c0.4-1.7,1.4-2.7,2.1-3.3l0,0c0.3,0.5,0.6,1,0.9,1.4c-0.6,0.6-1.7,1.9-1.6,3.7c0,0.3,0.1,0.5,0.3,0.6
		c0.4,0.4,1.3,0.2,2,0.1c0.2,0,0.5-0.1,0.7-0.1c0.4,0,0.9,0.3,1.2,0.6c-1.6,0.2-3.1,0.4-4.6,0.7c-0.2-0.1-0.4-0.3-0.6-0.4
		C90,48,89.9,47.9,89.8,47.8 M85.7,37.5c0.3-0.1,0.8-0.1,1,0.4l0.3,0.4c0.2,0.4,0.5,0.8,0.5,1c0.1,0.4-1,1.6-1.7,1.9
		c-0.2,0.1-1.2,0.7-1.3,0.8c-0.1,0.1-0.2,0.3-0.2,0.6c0,0.1,0,0.1,0,0.2c0.1,0.3,0.3,0.5,0.6,0.6c0.9,0.4,1.6,0.6,2.1,0.7
		c0.5,0.1,1,0.3,1.4,0.7c0.3,0.3,0.6,0.4,0.8,0.4l0.3,0.1c0.2,0.2,0.6,1,0.6,1.6c0,0,0,0.1,0,0.1c0,0.1,0,0.1-0.1,0.2
		c-0.1,0.1-0.3,0-0.5,0l-0.2,0l-0.2,0l-0.2,0C88.4,47,88,46.9,88,46.7c0-0.1,0-0.3-0.1-0.4c-0.2-0.9-0.2-0.5-0.6-0.4
		c0,0-0.1,0-0.1,0c-0.2,0.1-0.4,0-1-0.3c-0.3-0.2-0.5-0.3-0.7-0.5c-0.2-0.2-0.5-0.4-0.8-0.5L84,44.3c-0.4-0.2-0.8-0.3-1.2-0.5
		l-0.1,0c-0.3-0.2-0.8-0.4-0.8-0.7c0-0.2,0-0.4,0.2-0.6c0.6-0.8,0.7-0.8,0.8-0.9c0.1,0,0.5-0.3,0.4-0.6c-0.1-0.2-0.3-0.4-1-0.3
		c-0.8,0.1-1.3-0.1-1.8-0.3l-0.1,0c0.2-0.5,0.4-1,0.7-1.5c0.2-0.3,0.4-0.6,0.6-0.9l0.2-0.2C82.9,37.9,84.9,37.7,85.7,37.5
		 M89.3,34.3c-0.2,0.4-0.3,0.5-0.6,0.6c-0.1,0-0.2,0-0.3,0c-0.1,0-0.3-0.1-0.6,0c-0.8,0.3-0.7,0.7-0.7,1.2l0,0.4
		c0,0.3,0.1,0.4,0.1,0.6c0,0.1,0.1,0.2,0.3,0.3c0.3,0.2,0.6,0.1,0.8,0c0.1,0,0.3-0.1,0.6-0.2c0.4-0.1,0.8-0.3,1.1-0.4
		c0.3,1.5,0.8,2.9,1.4,4.2l-0.1,0.1c-0.7,0.7-1.8,1.7-2.3,3.6c-0.1-0.1-0.3-0.1-0.4-0.3c-0.5-0.4-1.1-0.7-1.7-0.8
		c-0.6-0.1-1.3-0.4-1.9-0.7c-0.2-0.1-0.3-0.2-0.4-0.3c0-0.1,0-0.2,0.1-0.4c0.1-0.1,0.5-0.4,1.1-0.6c0.5-0.3,2.1-1.6,2-2.5
		c0-0.3-0.2-0.6-0.6-1.2l-0.3-0.4c-0.3-0.6-0.9-0.8-1.6-0.6c-0.7,0.1-2.3,0.3-3.2,0.2c0.7-0.5,1.4-0.9,2.4-0.9
		c1.1-0.1,2-0.7,2.8-1.3c0.5-0.4,1.4-1.6,1.8-2.4c0,0,0-0.1,0.1-0.1c0,0.1,0,0.1,0,0.2l0,0.2C89.4,33.2,89.5,34,89.3,34.3
		 M75.6,47.2L75.6,47.2L75,46.7c-0.3-0.2-0.6-0.5-0.7-0.6c-0.1-0.1-0.2-0.6-0.2-1c0-0.1,0-0.1,0-0.2c0-0.3,0.1-0.6,0.1-0.8
		c0,0,0-0.1,0-0.2c0.1-0.1,0.4-0.2,0.8-0.1c0.6,0.1,1.2,0.1,1.7-0.1c0.5-0.2,0.9-0.6,1-1.1c0.7,0.1,1.6-0.5,2-0.9
		c0.2-0.2,0.3-0.6,0.5-1l0.1,0c0.6,0.3,1.2,0.5,2.1,0.4c0.1,0,0.1,0,0.2,0c-0.2,0.1-0.4,0.3-0.9,1c-0.2,0.3-0.3,0.6-0.3,0.8
		c0,0.1,0,0.1,0,0.2c0.1,0.6,0.7,0.9,1.1,1.1l0.1,0c0.4,0.2,0.8,0.4,1.3,0.5l0.7,0.3c0.2,0.1,0.4,0.3,0.6,0.4
		c0.2,0.2,0.5,0.4,0.8,0.6c0.6,0.3,1,0.5,1.4,0.4c0,0,0,0,0.1,0c0,0.1,0,0.2,0,0.3c0.1,0.7,0.8,0.8,1.3,0.8l0.2,0l0.2,0.1
		c0.1,0.3,0.2,0.6,0.4,0.8c0,0,0.2,0.1,0.3,0.2c-1.5,0.3-3.1,0.7-4.5,1.2l-1.5-1.1h-7.7v0C76.2,47.7,75.9,47.4,75.6,47.2
		 M119.6,39.5c0,0,0,0.1,0,0.1c-0.1,0.1-0.2,0.2-0.3,0.2c-0.4,0.2-1.1-0.3-1.4-0.5l0,0c-0.7-0.5-1.3-0.6-0.3,0.3l0,0
		c0.3,0.2,0.8,0.6,1.3,0.7c-0.4,0.8,0,1.4,0.2,1.7l0.1,0.1c0.1,0.1,0.2,0.2,0.2,0.3c0.2,0.2,0.3,0.3,0.2,0.6
		c-0.2,0.4-1.2,0.4-1.6,0.4l-0.1,0c-0.5,0-1.7,0.4-2.2,0.6c-0.5,0.2-0.9,0.8-1.3,1.4c-0.1,0.1-0.4,0.6-0.5,0.6c0,0-0.1,0-0.2,0
		c-0.1,0-0.2-0.1-0.2-0.2l-0.1-0.4c-0.1-0.4,0-0.7-0.5-0.3c-0.1,0.1-0.2,0-0.3,0c-0.1-0.1-0.3-0.2-0.2-0.3c0,0,0.1-0.2,0.1-0.2
		c0.3-0.6,0.1-0.6-0.4-0.5l0,0c-0.1,0-0.1,0-0.1,0c-0.1,0-0.3-0.1-0.4-0.4c-0.1-0.3,0-0.5,0.4-0.7c0.2-0.1,0.5-0.2,0.7-0.3
		c0.2-0.1,0.4-0.1,0.6-0.1c0.6-0.1,1.1,0,1.6,0l0.4,0c0.4,0,1.1-0.1,1.4-0.5c0.1-0.1,0.2-0.4,0.1-0.7c-0.1-0.4-0.4-0.8-0.8-1.1
		c-0.2-0.2-0.5-0.5-0.7-0.8c-0.5-0.7-0.5-1.8-0.1-2.8c0.1-0.3,0.3-0.5,0.5-0.6c0.1-0.1,0.3,0,0.5,0.1l0.1,0.1
		c1.3,0.5,3.1,0.1,3.9-0.1c0,0.1-0.1,0.2-0.1,0.3C119.8,37,119.4,38.8,119.6,39.5 M109.3,47.2c0.2,0,0.4,0,0.7,0.1
		c0.7,0.1,1.5,0.2,2-0.1c0.2-0.2,0.3-0.4,0.3-0.6c0-0.4,0-0.7-0.1-1c0.2,0.2,0.5,0.2,0.7,0.2c0,0.1,0.1,0.2,0.1,0.3l0,0.1
		c0.1,0.3,0.3,0.5,0.6,0.6c0.1,0,0.2,0,0.2,0c-0.1,0.5-0.2,1.1-0.5,1.5c-0.1,0.1-0.4,0.3-0.6,0.4c-1.5-0.3-3.1-0.5-4.6-0.7
		C108.4,47.6,108.9,47.2,109.3,47.2 M110.6,42.9c0.3-0.4,0.6-0.9,0.9-1.4l0,0c0.2,0.2,0.5,0.5,0.8,0.8c-0.2,0.1-0.4,0.1-0.6,0.2
		c-0.4,0.2-0.6,0.5-0.7,0.8C110.9,43.2,110.7,43,110.6,42.9 M111.7,46.6c0,0.2-0.1,0.2-0.1,0.2c-0.3,0.2-1,0.1-1.6,0
		c-0.3,0-0.5-0.1-0.7-0.1c-0.9,0-1.6,0.6-1.8,0.8c-0.1,0.1-0.1,0.1-0.2,0.2c-1-0.1-2-0.2-3-0.2h0.2c2.3-0.7,4.3-2.1,5.8-4.2
		C110.8,43.9,111.8,45,111.7,46.6 M124.3,48.7h-4.9l-1.4,1.1c-1.5-0.4-3-0.8-4.6-1.2c0.1-0.1,0.2-0.2,0.3-0.2
		c0.5-0.6,0.6-1.5,0.7-2.1c0,0,0,0,0,0l0.3-0.5c0.3-0.5,0.7-1.1,1.1-1.3c0.6-0.3,1.6-0.6,2-0.6l0.1,0c0.6,0,1.8,0,2.1-0.7
		c0.2-0.6-0.1-0.9-0.3-1.1c-0.1-0.1-0.1-0.1-0.1-0.2l-0.1-0.1c-0.2-0.3-0.5-0.9,0.1-1.5c0,0,0,0,0,0c0,0,0.1-0.1,0.1-0.1
		c0.3,0.8,1,2,1.9,2.7c1.4,1.1,2.5,1.3,2.8,1.3c0.5,0,1.2,0.2,1.4,0.2c0.1,0,0.4,0.4,0.5,0.8c0.1,0.7-0.1,1.1-0.6,1.4
		c-0.7,0.4-1.5,1.4-1.5,2C124.3,48.6,124.3,48.7,124.3,48.7 M116.8,33.6C116.8,33.6,116.8,33.6,116.8,33.6c0.5,0.5,1.5,0.8,2.1,0.9
		c0.5,0.1,1,0.3,1.4,0.5c0.1,0.2,0.1,0.4,0.1,0.6c-0.5,0.1-2.4,0.6-3.8,0.1l-0.1,0c-0.2-0.1-0.5-0.2-0.9-0.1
		c-0.3,0.1-0.5,0.4-0.8,0.9c-0.5,1.2-0.5,2.5,0.1,3.3c0.2,0.3,0.5,0.6,0.7,0.8c0.3,0.3,0.6,0.6,0.7,0.9c0,0.1,0,0.2,0,0.2
		c-0.1,0.2-0.5,0.3-1,0.3l-0.4,0c-0.5,0-1.3,0-2,0.1c-0.3-0.4-0.7-0.8-1-1l-0.1-0.1c0.8-1.6,1.4-3.5,1.6-5.4c0.1,0,0.2,0,0.2-0.1
		c0,0,0.1,0.1,0.1,0.1c0.2,0.2,0.6,0.5,1,0.4c0.5-0.1,0.8-0.8,0.9-1.5c0-0.3,0.1-0.4,0.4-0.5L116,34l0.3-0.1
		C116.7,33.7,116.3,33.9,116.8,33.6 M91,33.4c0-0.5,0.1-1.1,0.2-1.6c0.1-0.3,0.1-0.7,0.2-0.9c0.1-0.6,0-0.9-0.4-1.2
		c0.5-1.9,1.4-3.7,2.5-5.3c2.1-2.8,5-4.3,8.1-4.3c3.1,0,6,1.5,8.1,4.3c1.5,2,2.5,4.4,2.9,7l-0.3,0.3c-0.3,0.3-0.7,0.7-0.9,1.1l0,0
		c-0.1,0.4-0.2,0.6-0.2,0.8c0,0.1,0,0.2,0.1,0.3c0.2,0.3,0.4,0.4,0.6,0.4c0,0,0.1,0.1,0.1,0.3c0,0,0,0,0,0c0,0,0,0.1,0,0.1
		c0,0.2,0.1,0.5,0.6,0.7c0,0,0.1,0,0.1,0c-0.7,6.7-5.4,11.8-11.1,11.8c-5.4,0-9.9-4.6-11-10.8c0.5-0.3,0.4-0.9,0.4-1.2l0-0.2
		C91,34.8,90.9,34.2,91,33.4 M96,17.7c-0.1-0.1-0.1-0.2-0.2-0.2c0-0.1,0-0.1,0-0.2c0-0.5-0.4-1-1-1c-0.1,0-0.1,0-0.2,0
		c0.1-0.2,0.1-0.3,0.1-0.5c0-0.6-0.5-1.1-1.1-1.1c0,0-0.1,0-0.1,0c0.2-0.2,0.2-0.5,0.2-0.8c0-0.6-0.4-1.1-1-1.3
		c0.4-0.2,0.7-0.7,0.7-1.2c0-0.1,0-0.3-0.1-0.4c0.2,0.1,0.4,0.2,0.7,0.2c0.7,0,1.3-0.5,1.4-1.2c0.2,0.3,0.5,0.5,0.9,0.5
		c0.4,0,0.7-0.2,0.9-0.5c0.1,0.5,0.5,0.8,1,0.8c0.4,0,0.8-0.3,0.9-0.6l0,0l0.4,2c-0.8-0.5-2.2-1.2-3.5-1c-0.8,0.1-1.3,0.5-1.6,1
		c-0.4,0.8-0.2,1.7,0.5,2.7c0.9,1.3,1.6,2,2.1,2.3l0,0C96.8,17.3,96.4,17.5,96,17.7 M94.9,17.7c-0.2,0-0.4-0.2-0.4-0.4
		c0-0.2,0.2-0.4,0.4-0.4c0.2,0,0.4,0.2,0.4,0.4C95.4,17.5,95.2,17.7,94.9,17.7 M93.7,16.4c-0.3,0-0.6-0.3-0.6-0.6
		c0-0.3,0.3-0.6,0.6-0.6c0.3,0,0.6,0.3,0.6,0.6C94.3,16.1,94,16.4,93.7,16.4 M92.5,14.7c-0.5,0-0.8-0.4-0.8-0.8
		c0-0.5,0.4-0.8,0.8-0.8c0.5,0,0.8,0.4,0.8,0.8C93.3,14.3,92.9,14.7,92.5,14.7 M91.4,11.4c0-0.5,0.4-0.8,0.8-0.8
		c0.5,0,0.8,0.4,0.8,0.8c0,0.5-0.4,0.8-0.8,0.8C91.8,12.2,91.4,11.8,91.4,11.4 M94.3,8.7c0.5,0,0.9,0.4,0.9,0.9
		c0,0.5-0.4,0.9-0.9,0.9c-0.5,0-0.9-0.4-0.9-0.9C93.3,9.1,93.7,8.7,94.3,8.7 M96.6,8.6c0.3,0,0.6,0.3,0.6,0.6c0,0.3-0.3,0.6-0.6,0.6
		c-0.3,0-0.6-0.3-0.6-0.6C96,8.9,96.3,8.6,96.6,8.6 M98.5,9.3c0.2,0,0.4,0.2,0.4,0.4c0,0.2-0.2,0.4-0.4,0.4c-0.2,0-0.4-0.2-0.4-0.4
		C98.1,9.5,98.3,9.3,98.5,9.3 M100.8,8.8c0-0.1,0.2-0.2,0.3-0.2h1.2c0.1,0,0.3,0,0.3,0.2c0,0.4,0.3,0.9,0.9,1l-1.2,6.7l0,0
		c-0.2,0-0.4,0-0.5,0c-0.2,0-0.4,0-0.5,0v0l-1.2-6.7C100.5,9.7,100.8,9.2,100.8,8.8 M102.7,16.5L102.7,16.5l0.7-3.8
		c0.6-0.4,2.1-1.4,3.6-1.2c0.6,0.1,1,0.3,1.2,0.7c0.3,0.6,0.2,1.4-0.5,2.3c-1.1,1.5-2,2.2-2.3,2.4l0,0
		C104.6,16.8,103.7,16.6,102.7,16.5 M97.8,17c-0.3-0.2-1.1-0.8-2.3-2.4c-0.6-0.8-0.8-1.7-0.5-2.3c0.2-0.4,0.6-0.7,1.2-0.7
		c1.5-0.2,3,0.8,3.6,1.2l0.7,3.7l0,0C99.7,16.6,98.7,16.8,97.8,17L97.8,17z M106.9,21c-1.6-1-3.4-1.5-5.2-1.5
		c-1.8,0-3.6,0.5-5.2,1.4c0.1-0.4,0.2-0.8,0.2-1.2c1.6-0.8,3.3-1.1,5-1.1c1.8,0,3.5,0.4,5.1,1.2C106.7,20.2,106.8,20.6,106.9,21
		 M106.8,19.2c-1.6-0.7-3.3-1.1-5.1-1.1c-1.8,0-3.5,0.4-5.1,1.1c-0.1-0.4-0.2-0.7-0.3-1c1.7-0.7,3.5-1.1,5.4-1.1
		c1.9,0,3.7,0.4,5.5,1.1C107,18.5,106.8,18.8,106.8,19.2 M103.9,10.1L103.9,10.1c0.1,0.4,0.5,0.6,0.9,0.6c0.5,0,0.9-0.4,1-0.8
		c0.2,0.3,0.5,0.5,0.9,0.5c0.4,0,0.7-0.2,0.9-0.5c0.1,0.7,0.7,1.2,1.4,1.2c0.3,0,0.5-0.1,0.7-0.2c0,0.1-0.1,0.3-0.1,0.4
		c0,0.5,0.3,1,0.7,1.2c-0.6,0.2-1,0.7-1,1.3c0,0.3,0.1,0.5,0.2,0.8c0,0-0.1,0-0.1,0c-0.6,0-1.1,0.5-1.1,1.1c0,0.2,0,0.4,0.1,0.5
		c-0.1,0-0.1,0-0.2,0c-0.5,0-1,0.4-1,1c0,0.1,0,0.2,0,0.3c-0.1,0-0.1,0.1-0.2,0.2c-0.4-0.2-0.8-0.3-1.2-0.5l0,0
		c0.5-0.3,1.2-1.1,2.1-2.3c0.7-1,0.9-2,0.5-2.7c-0.3-0.5-0.9-0.9-1.6-1c-1.4-0.2-2.7,0.5-3.5,1L103.9,10.1z M104.9,9.3
		c0.2,0,0.4,0.2,0.4,0.4c0,0.2-0.2,0.4-0.4,0.4c-0.2,0-0.4-0.2-0.4-0.4C104.4,9.5,104.6,9.3,104.9,9.3 M106.7,8.6
		c0.3,0,0.6,0.3,0.6,0.6c0,0.3-0.3,0.6-0.6,0.6c-0.3,0-0.6-0.3-0.6-0.6C106.1,8.9,106.4,8.6,106.7,8.6 M109.1,8.7
		c0.5,0,0.9,0.4,0.9,0.9c0,0.5-0.4,0.9-0.9,0.9c-0.5,0-0.9-0.4-0.9-0.9C108.2,9.1,108.6,8.7,109.1,8.7 M111.1,10.5
		c0.5,0,0.8,0.4,0.8,0.8c0,0.5-0.4,0.8-0.8,0.8c-0.5,0-0.8-0.4-0.8-0.8C110.3,10.9,110.6,10.5,111.1,10.5 M111.7,13.9
		c0,0.5-0.4,0.8-0.8,0.8c-0.5,0-0.8-0.4-0.8-0.8c0-0.5,0.4-0.8,0.8-0.8C111.3,13,111.7,13.4,111.7,13.9 M109.6,16.4
		c-0.3,0-0.6-0.3-0.6-0.6c0-0.3,0.3-0.6,0.6-0.6c0.3,0,0.6,0.3,0.6,0.6C110.2,16.1,110,16.4,109.6,16.4 M108.4,17.7
		c-0.2,0-0.4-0.2-0.4-0.4c0-0.2,0.2-0.4,0.4-0.4c0.2,0,0.4,0.2,0.4,0.4C108.9,17.5,108.7,17.7,108.4,17.7 M115.1,30.2
		c-0.2,0.1-0.5,0.2-0.7,0.3c-0.3,0.1-0.8,0.2-1.2,0.5c-0.2-0.9-0.4-1.8-0.7-2.6l2.3,0.1C114.8,28.9,114.9,29.5,115.1,30.2 M111.5,25
		c0.2,0.8,0.8,1.5,1.6,1.6c0.5,0,0.9-0.3,1.2-0.6c0,0.3,0.1,0.5,0.3,0.7c0.2,0.1,0.4,0.2,0.6,0.2c-0.1,0.3-0.3,0.6-0.4,1l-2.6-0.2
		c-0.4-1-0.8-1.9-1.4-2.8C111.1,25,111.3,25,111.5,25 M115.2,22.5l1.1-0.1c1.4-0.1,3.2-0.7,3.9-2.8l0-0.1c0.1-0.4,0.1-1.1,0.1-1.2
		l0-0.3l-0.3,0.1c-0.3,0.1-1.4,0.4-1.8,0.4c-0.3,0-1.1,0.1-1.8,0.6l0,0l0,0c0,0-0.1,0.1-0.1,0.1c0,0-0.1,0-0.2-0.2
		c-0.2-0.3-0.5-0.6-0.6-0.7c0,0,0,0,0-0.1c0-0.1,0.1-0.2,0.4-0.3l0.4-0.1c0.4-0.1,0.9-0.2,0.9-0.9v0c0-0.2-0.1-0.4-0.3-0.6
		c-0.5-0.4-1.4-0.4-1.8-0.3l0,0l0,0c0,0-0.1,0-0.1,0c0,0,0,0-0.1-0.2c0-0.1,0-0.2,0-0.3c0-0.1,0-0.1,0.1-0.2
		c0.2-0.1,0.2-0.3,0.2-0.5c0-0.2-0.1-0.5-0.2-0.6l-0.1-0.1c0-0.1-0.1-0.2-0.1-0.3c0,0,0-0.1,0-0.1c0-0.1,0.1-0.1,0.2-0.1
		c0.3-0.1,0.7-0.1,1,0c0.2,0,0.5,0,0.7,0c0.2,0,0.5-0.2,0.7-0.3c0.2-0.1,0.5-0.2,0.6-0.2c0.3,0,0.9,0,1.3,0l0.7,0c0.5,0,2-0.5,2.5-1
		c0.1-0.1,0.1-0.1,0.2-0.1c0,0,0,0,0,0c0.1,0.1,0.1,0.4,0.2,0.7c0.1,0.4,0.2,0.8,0.3,1.1c0.2,0.3,0.5,0.6,0.8,0.9
		c0.2,0.2,0.3,0.3,0.5,0.5c0.1,0.2,0.3,0.5,0.4,0.9c0.2,0.5,0.5,1.1,0.8,1.4c0.3,0.3,1.2,1.1,2.1,1c0,0,0,0,0,0l-0.3,0.2
		c-0.3,0.3-0.7,0.6-0.7,0.9v0c0,0.4,0.1,0.6,0.2,0.7l0,0c0,0,0.1,0.1,0.1,0.2c0,0.1,0,0.2-0.2,0.4c-0.3,0.4-0.5,0.6-0.5,0.8
		c0,0.1,0,0.2,0.1,0.4l0,0c0,0.1,0.1,0.2,0.1,0.3c0,0,0,0,0,0c0,0,0,0,0,0l-0.1,0c-0.2,0.1-0.2,0.1-0.3,0.2l0,0
		c-0.6,0.1-0.9,0.5-0.9,1c0,0,0,0.1,0,0.1l0,0.2c0,0.1,0,0.2,0,0.3c0,0,0,0,0,0.1c0,0,0,0-0.1,0l-0.1,0c-0.4,0.1-0.9,0.2-0.9,1.2
		l0,0.4c0,0.8-0.1,1.1-0.3,1.2c-0.4,0.1-0.8-0.3-0.8-0.4c0-0.1-0.1-0.4-0.1-0.5c-0.3-1-0.2-0.8-0.7,0.1c-0.1,0.1-0.1,0.3-0.2,0.5
		c-0.4,0.7-0.6,0.8-0.8,0.9l-0.1,0.1c0,0-0.1,0-0.1,0c-0.1,0-0.1-0.1-0.2-0.4c-0.1-0.4-0.2-0.9-0.2-1.4c0-0.7,0.7-1.5-0.8-0.2
		c0,0-0.2,0.1-0.3,0.2c-0.2,0.1-1.4,0.6-1.7,0.8c-0.1,0-0.5,0.1-0.5,0c0,0,0-0.1,0-0.1c0,0,0,0,0,0c0.2-0.6,0.5-0.5-0.6-0.4l-0.5,0
		l-0.2,0c-0.3,0-0.6,0.1-0.8-0.1c-0.1-0.1-0.2-0.2-0.2-0.5c0-1,0.7-1.5,1.2-1.6c0.6-0.1,3.2-0.4,4.3-0.5c0.9-0.1,2.6-0.4,3.4-1.9
		c0.3-0.5,0.7-2.7,0.4-4c-0.1-0.4-0.5-1-0.3,0.1c0.3,1.1-0.4,3.1-0.6,3.6c-0.7,1.3-2.2,1.6-3,1.6c-1.1,0.1-3.6,0.4-4.3,0.5
		c-0.6,0.1-1.2,0.6-1.5,1.2c-0.2,0.3-0.8,1.1-1.3,1.1c-0.6,0-1.1-0.8-1.1-1.4C112,22.7,112.9,22.7,115.2,22.5 M136,25.8
		c0-0.2,0.1-0.4,0.2-0.6c0.1-0.2,0.2-0.4,0.2-0.6c0-0.1,0-0.2-0.1-0.3c-0.2-0.3-0.6-0.3-0.9-0.3h-0.2c-0.1,0-0.3-0.1-0.5-0.2
		c-0.4-0.2-0.8-0.3-1.1-0.4c-0.2,0-0.5,0-0.9,0.1c-0.4,0.1-0.8,0.2-1.1,0.2c-0.3,0-0.7-0.2-1.1-0.4c-1-0.4-1.9-0.2-2.6,0.1
		c-0.9,0.4-1.6,1-2.1,1.8c-0.9,1.7-0.5,3.8,0.2,5.1c0.3,0.5,1.3,2.2,1.8,3c0,0,0,0,0.1,0.1c0,0,0,0,0,0c-0.8,0.3-0.9,1.2-0.9,1.7
		c0,0.2,0,0.3,0,0.4c0,0.3,0.1,0.5,0.3,0.5c0.1,0,0.2,0,0.3,0c0,0,0.5-0.3,1.1-0.3c0.5,0,1.5,0.4,1.5,1.5c0,1-0.8,2.1-1.9,2.1
		c-0.9,0-1.5-0.5-1.6-1c-0.1-1-0.4-1.9-0.6-2.1c-0.1-0.1-0.2-0.2-0.2-0.3c-0.3-0.3-0.8-0.7-0.9-2.7c-0.1-2.1-1-4.2-1.6-5.5
		c0.1,0,0.3,0,0.4,0c0.7-0.1,0.7-0.9,0.8-1.7l0-0.4c0-0.6,0.2-0.6,0.5-0.7l0.2,0c0.4-0.1,0.5-0.3,0.5-0.6c0-0.1,0-0.2,0-0.3l0-0.2
		v-0.1c0-0.3,0.2-0.4,0.5-0.5l0.1,0c0.2,0,0.3-0.1,0.5-0.2l0.1,0c0.2-0.1,0.3-0.3,0.3-0.5c0-0.2-0.1-0.4-0.1-0.5l0,0
		c0-0.1,0-0.1,0-0.2c0-0.1,0.1-0.2,0.3-0.4c0.3-0.3,0.4-0.5,0.4-0.7c0-0.2-0.1-0.4-0.1-0.4l0,0c-0.1-0.1-0.1-0.2-0.1-0.5
		c0-0.1,0.3-0.4,0.5-0.5l0.3-0.3c0.1-0.2,0.2-0.4,0.2-0.5c0-0.1,0-0.3-0.1-0.4c-0.1-0.1-0.3-0.2-0.4-0.1l0,0
		c-0.6,0.3-1.3-0.3-1.8-0.8c-0.2-0.2-0.4-0.7-0.6-1.2c-0.2-0.4-0.3-0.8-0.5-1c-0.1-0.2-0.3-0.4-0.5-0.5c-0.3-0.2-0.5-0.5-0.7-0.8
		c-0.1-0.2-0.2-0.6-0.3-0.9c-0.1-0.3-0.1-0.7-0.3-0.9c-0.1-0.2-0.3-0.3-0.4-0.3c-0.3,0-0.6,0.2-0.6,0.3c-0.4,0.4-1.7,0.8-2.1,0.8
		l-0.7,0c-0.5,0-1.1,0-1.4,0c-0.3,0-0.6,0.2-0.9,0.3c-0.2,0.1-0.4,0.2-0.5,0.2c-0.1,0-0.3,0-0.5,0c-0.3,0-0.7,0-1.1,0
		c-0.3,0.1-0.5,0.2-0.6,0.4c-0.2,0.3,0,0.7,0,0.8c0,0,0.1,0.2,0.1,0.2c0.1,0.2,0.2,0.4,0.1,0.5c-0.4,0.3-0.2,0.8-0.2,1
		c0.1,0.2,0.2,0.4,0.4,0.6c0.1,0.1,0.3,0.1,0.5,0l0,0c0.3-0.1,1.1-0.1,1.4,0.2c0.1,0.1,0.1,0.1,0.1,0.1c0,0.3,0,0.3-0.5,0.4
		l-0.4,0.1c-0.5,0.1-0.7,0.4-0.8,0.6c-0.1,0.2-0.1,0.4,0,0.5l0.1,0.1c0.1,0.1,0.3,0.4,0.5,0.7c0.2,0.3,0.5,0.4,0.6,0.4
		c0.2,0,0.4-0.1,0.5-0.2c0.5-0.4,1.1-0.5,1.5-0.5c0.3,0,1.1-0.2,1.6-0.4c0,0.1,0,0.1,0,0.2c0,0.2,0,0.4-0.1,0.5l0,0.1
		c-0.5,1.5-1.7,2.3-3.4,2.5l-1.1,0.1c-2.2,0.1-3.7,0.2-3.7,2.5v0c-0.4,0-0.7,0-1-0.1l0,0c-0.1-0.1-0.2-0.2-0.3-0.4
		c-0.8-1-1.6-1.9-2.6-2.5c-0.6-1.3-0.3-2.9,0.3-3.5c0.1,0.1,0.3,0.2,0.5,0.2c0.5,0,1-0.4,1-1c0-0.1,0-0.3-0.1-0.4c0.1,0,0.2,0,0.3,0
		c0.6,0,1.1-0.5,1.1-1.1c0-0.2-0.1-0.4-0.1-0.6c0.1,0,0.2,0,0.2,0c0.7,0,1.4-0.6,1.4-1.4c0-0.5-0.3-1-0.7-1.2c0.6-0.2,1-0.7,1-1.3
		c0-0.7-0.6-1.4-1.4-1.4c-0.2,0-0.4,0.1-0.6,0.1c0.1-0.2,0.1-0.3,0.1-0.5c0-0.8-0.7-1.5-1.5-1.5c-0.5,0-1,0.3-1.3,0.8
		c-0.1-0.5-0.6-0.8-1.1-0.8c-0.6,0-1.1,0.4-1.1,1c-0.2-0.2-0.4-0.3-0.7-0.3c-0.4,0-0.7,0.2-0.9,0.6h-0.3c-0.6,0-0.7-0.4-0.7-0.6
		c0-0.4-0.3-0.6-0.8-0.6h-1.2c-0.5,0-0.8,0.2-0.8,0.6c0,0.1-0.1,0.6-0.7,0.6h-0.2c-0.1-0.3-0.5-0.6-0.9-0.6c-0.3,0-0.6,0.1-0.7,0.3
		c-0.1-0.6-0.5-1-1.1-1c-0.5,0-1,0.4-1.1,0.8c-0.2-0.5-0.7-0.8-1.3-0.8c-0.8,0-1.5,0.7-1.5,1.5c0,0.2,0,0.3,0.1,0.5
		c-0.2-0.1-0.4-0.1-0.6-0.1c-0.7,0-1.4,0.6-1.4,1.4c0,0.6,0.4,1.1,1,1.3c-0.4,0.2-0.7,0.7-0.7,1.2c0,0.7,0.6,1.4,1.4,1.4
		c0.1,0,0.2,0,0.2,0c-0.1,0.2-0.1,0.4-0.1,0.6c0,0.6,0.5,1.1,1.1,1.1c0.1,0,0.2,0,0.3,0c0,0.1-0.1,0.2-0.1,0.4c0,0.5,0.4,1,1,1
		c0.2,0,0.4-0.1,0.6-0.2c0.7,0.5,0.8,2.2,0.2,3.5c-1,0.7-1.9,1.5-2.6,2.6c-1,1.3-1.7,2.8-2.3,4.3c0.1-1,0-1.8-0.3-2.6
		c-1-2.3-3.1-3.2-4.5-3.9l-0.7-0.4c-1.1-0.6-1.7-1.4-2-1.8l-0.3-0.3c0,0,0,0,0,0c0,0,0.1,0,0.1,0c0.4,0.1,1,0.3,1.3,0.5l0.4,0.4
		c0.4,0.3,0.6,0.5,0.8,0.6c0.4,0.2,1,0.2,1.3-0.1c0.1-0.1,0.2-0.2,0.2-0.4c0-0.2-0.1-0.4-0.1-0.4c0-0.1,0-0.1,0-0.2c0,0,0,0,0,0
		l0.2,0.1c0.4,0.1,0.8-0.2,1-0.5c0.2-0.4,0.2-1-0.5-1.6c-0.3-0.3-1.3-1.2-2-2c-0.6-0.6-1.1-1.1-1.2-1.2c-0.1-0.1-0.4-0.4-0.5-0.5
		c0.1-0.2,0.1-0.5,0-0.6c-0.1-0.2-0.4-0.2-0.5-0.1c0,0-0.1,0-0.1,0c0,0,0,0,0,0c0,0,0,0-0.1,0l0,0c0,0,0,0,0,0
		c0.2-0.3,0.3-0.8,0.5-1.5c0.2-0.8,0.1-1.4-0.3-1.8c-0.3-0.3-0.7-0.4-1.1-0.4c-0.7,0.1-1.2,0.6-1.6,1.1l-0.1-0.4l-0.3,0.1l-1.3,0.4
		l0.2,0.5c-0.6-0.2-1.3-0.3-2,0c-0.4,0.2-0.6,0.5-0.7,0.9c-0.1,0.6,0.2,1.2,0.8,1.7c0.2,0.2,0.4,0.3,0.6,0.5c0,0-0.1,0.1-0.1,0.1
		c-0.2,0.2-0.4,0.3-0.5,0.5l-0.2,0.2c-0.9,0.8-2.1,1.4-3.2,1.5c-0.1,0-0.3,0.1-0.3,0.3c0,0.3,0.2,0.6,0.7,0.8
		c0.5,0.2,0.6,0.8,0.3,2.1l0,0c0,0.1-0.1,0.3,0.1,0.4c0.2,0.2,0.4,0.1,0.8,0l0.1,0c0.1,0,0.1,0,0.2,0c0,0.1,0,0.2-0.1,0.2l0,0.1
		l0,0.1c-0.1,0.3-0.1,0.7-0.1,1c0,0.2,0,0.4,0.1,0.5c0.2,0.4,0.6,1,0.8,1.3c0.1,0.1,0.3,0.2,0.4,0.2c0.2,0,0.4-0.2,0.5-0.3
		c0,0,0,0,0,0c0,0.1,0.1,0.1,0.1,0.3l0,0c0.2,0.4,0.5,1.4,1.7,1.8c0.2,0.1,0.5,0.1,0.7,0c0.2-0.1,0.3-0.3,0.3-0.5
		c0-0.1,0-0.3,0.1-0.4c0,0,0-0.1,0-0.1c0,0,0,0,0.1,0.1c0.5,0.6,1.1,2,1.1,3.5c0,0.4,0,0.8-0.1,1.2c-0.2,0.6-0.4,1.1-0.6,1.5
		c-0.1,0.3-0.2,0.6-0.3,0.9c-0.4,0.4-1.3,0.9-1.9,1.2l-0.4,0.2c-0.6,0.3-2.3,2-2.4,4.3c0,0,0,0.1,0,0.1c-1,0.4-1.7,0.3-2.1-0.2
		c-0.8-1-0.2-1.9,0.7-3.1l0.3-0.4l0.3-0.4c0,0,0.2-0.3,0.3-0.3c0,0.1,0,0.1,0,0.2l0.1,0.5l0.1,0.4c0.1,0.3,0.3,0.4,0.4,0.4
		c0.1,0,0.3,0.2,0.8-0.8c0.1-0.2,0.3-0.6,0.6-0.9l0.4-0.6c0.4-0.7,0.3-1.2-0.3-1.6c-0.3-0.2-0.2-0.3,0-0.7l0.1-0.1
		c0.2-0.4,1.1-3.1-0.2-5c-0.9-1.3-2.1-2.6-3.7-2.2c-0.9,0.2-1.6,0.6-2.2,0.9c-0.6,0.3-1.2,0.7-2,0.8c-0.5,0.1-1.8,0.5-1.8,0.5
		c-0.2,0.1-0.4,0.1-0.4,0.4c0,0,0,0,0,0c0,0.3,0.3,0.4,0.6,0.6c0.4,0.2,0.6,0.3,0.7,0.5c-0.2,0.3-1,1.2-1.2,1.3
		c-0.2,0.1-0.2,0.2-0.2,0.4c0,0,0,0,0,0.1c0,0.3,0.3,0.4,0.8,0.5h0l0,0.1c-0.1,0.6-0.1,1.4,0.2,1.9l0.1,0.1c0.3,0.5,0.9,1.4,0.9,1.7
		c0,0.1,0,0.3-0.1,0.4c-0.1,0.2-0.1,0.5,0,0.7c0,0.1,0.1,0.2,0.3,0.2c0.6,0.1,0.8-0.3,1-0.7l0.1-0.2c0.2-0.5,0.6-1.1,0.9-1.8
		l0.3-0.4c0.5-0.7,1.1-1.8,0.9-2.8c0.1,0,0.2,0,0.2,0c0.1,0,0.2,0,0.3,0l0.1,0c0.2,0,0.5-0.1,0.5-0.3c0.1-0.3-0.2-0.5-0.4-0.6
		c-0.3-0.2-0.6-1.1-0.4-1.7c0.1-0.4,0.3-0.6,0.6-0.7c0.6-0.1,1.5,0.5,2,1.2c0.4,0.5,0.5,1.2,0.5,1.8c0,0.2,0,0.4-0.1,0.5
		c-0.1,0.6-0.3,0.7-0.3,0.7c0,0-0.1,0-0.2,0l-0.2,0c-0.4-0.1-0.9,0-1.3,0.3L74,29c-0.3,0.2-0.6,0.4-0.6,0.8c0,0.3,0.4,0.5,0.6,0.6
		c0.2,0.1,0.2,0.2,0.3,0.3c0.1,0.4-0.3,1.1-0.6,1.5l-0.2,0.2l-0.4,0.5c-1.5,1.9-2,3.8-1.3,5.1c0.4,0.8,1.4,1.7,3.8,1.7
		c-0.1,0.5-0.2,0.9-0.5,1.2c-0.6,1-1.6,1-2.1,1.1l-0.2,0l-0.1,0c-0.2,0-0.4,0-0.5,0.2C72,42.4,72,42.9,72,43.8
		c0.1,1.2-0.1,1.9-0.2,2.4c0,0.2-0.1,0.4-0.1,0.6c0,0.1,0,0.3-0.1,0.4c0,0.2-0.1,0.4-0.1,0.6c0,0.2,0,0.3,0.1,0.4
		c0.1,0.2,0.3,0.2,0.5,0.3l0.6,0c0.1,0,0.3,0,0.4,0c0,0,0,0,0,0c0,0,0,0.1,0,0.1h-6.2c0,0,1.8,3.2,2,3.4c-0.1,0.2-1.8,3.6-1.8,3.6
		h16.8l0.9,3.2c5.2-1.9,11.4-3,17-3h0c5.6,0,11.8,1.1,17,3l0.9-3.2h16.5c0,0-1.7-3.3-1.8-3.6c0.1-0.2,2-3.4,2-3.4h-7.1
		c0.1-0.5,0.1-1.1,0.1-1.3c0-0.2-0.1-0.5-0.2-0.9c-0.1-0.4-0.2-0.8-0.2-0.9c0-0.4,0-1.5,0-1.7c0.1-0.7-0.7-1.3-1.1-1.6l-0.1-0.1
		c-0.3-0.3-0.7-0.6-1-1c1,0.3,2.7,0.7,4.2-1.1c0.4-0.5,0.7-1.1,0.8-1.5l0-0.1c0.1-0.4,0.5-0.9,0.6-1c0.4-0.3,1.9-2.3,1.4-3.1
		c-0.3-0.5-1.2-0.2-1.5-0.1c-0.2,0.1-0.2-0.1-0.3-0.5c-0.1-0.3-0.3-1.2-0.3-1.4l0,0c0-0.2,0-0.5-0.3-0.6c-0.2-0.1-0.4-0.1-0.6,0.1
		c-0.1,0.1-0.2,0.1-0.3,0.1c-0.1,0-0.2-0.1-0.2-0.2c-0.1-0.2-0.2-0.6-0.3-0.9l-0.1-0.2l0-0.1c0-0.2-0.1-0.4-0.3-0.5
		c-0.2-0.1-0.4,0.1-0.6,0.3c-0.1,0.1-0.2,0.3-0.3,0.4c-1.5-1.4-1.4-2.7-1.3-3.4c0.2-0.9,0.5-1.6,1.2-1.9c0.9-0.4,2,0,2.1,0l0.1,0.1
		c0.1,0,0.2,0.1,0.2,0.1c0,0,0,0-0.1,0.1l0,0l0,0c-0.4,0.4-0.5,0.9-0.5,1.3c0,1.1,0.9,2.1,1.6,2.9v0c0,1,0.2,2.5,0.9,3.1
		c0.3,0.2,0.6,0.3,0.9,0.3c0.6-0.1,1.4-0.6,1.5-0.6c0.1-0.1,0.6-0.5-0.1-0.6c-0.7-0.2-0.5-0.8-0.5-1.1c0-0.4,0.2-0.9,0.5-1.5
		c0.1-0.2,0.1-0.4,0.1-0.6c0-0.4-0.1-0.9-0.2-1.2c0.1,0,0.2,0,0.3-0.1c0.3-0.1,0.6-0.3,0.6-0.6c0-0.1,0-0.1,0-0.2
		c0-0.2-0.1-0.3-0.2-0.5C136,26.1,136,26,136,25.8"/>
	<path class="st0" d="M119.5,14.3c-0.3-0.3-1-0.3-1.2-0.2c-0.1,0-0.2,0.1-0.2,0.2c0,0.1,0.3,0.4,0.5,0.5c0.2,0.1,0.5,0.1,0.6,0.1
		c0.2-0.1,0.3-0.1,0.5-0.2c0.2-0.1,0.2-0.2,0.1-0.2C119.8,14.5,119.6,14.4,119.5,14.3"/>
	<path class="st0" d="M82.6,16.1c0.1,0.1,0.3,0.2,0.7,0.4c0.4,0.2,0.4,0,0.5-0.4c0.1-0.4-0.1-0.4-0.3-0.4c-0.1,0-0.5,0-0.8,0
		C82.3,15.8,82.5,16,82.6,16.1"/>
</g>
</svg>
