<?xml version="1.0" encoding="utf-8"?>
<!-- Generator: Adobe Illustrator 25.3.1, SVG Export Plug-In . SVG Version: 6.00 Build 0)  -->
<svg version="1.1" id="Layer_1" xmlns="http://www.w3.org/2000/svg" xmlns:xlink="http://www.w3.org/1999/xlink" x="0px" y="0px"
	 viewBox="0 0 200 100" style="enable-background:new 0 0 200 100;" xml:space="preserve">
<style type="text/css">
	.st0{fill-rule:evenodd;clip-rule:evenodd;fill:#DADADA;}
	.st1{fill-rule:evenodd;clip-rule:evenodd;fill:#FFFFFF;}
	.st2{fill:#DADADA;}
</style>
<g id="Layer_3">
	<path class="st0" d="M169.6,70.1l0.1,0.2l1.1,3.7l-0.1,0.4l-0.2,0.2l0.4,0.2c1,0.1,2,0.1,2.4,0.1c0.5,0,0.6-0.1,0.6-0.2l-0.2-0.2
		l-0.6-0.1c-0.3,0-0.6-0.4-1.1-1.9c-0.8-2.6-2.8-9.8-3.1-10.8c-0.2-0.4-0.2-0.6-0.3-0.6c-0.2,0-0.3,0.2-0.4,0.7v2.9l0.1,0.2l1.2,4.3
		l-0.1,0.1h-1.2v0.9L169.6,70.1L169.6,70.1z M168.2,61.7l-3.2,11c-0.3,0.8-0.5,1.4-1.1,1.5h-0.4l-0.2,0.2l0.3,0.2
		c0.7,0,1.3-0.1,1.5-0.1c0.4,0,0.9,0.1,1.3,0.1l0.3-0.2l-0.3-0.2h-0.2c-0.4,0-0.5-0.2-0.5-0.5c0-0.2,0-0.7,0.2-1l0.7-2.5l0.1-0.2
		h1.4v-0.9H167V69l1.2-4.3l0.1-0.2v-2.8H168.2z"/>
	<path class="st0" d="M91.4,64.9L91.4,64.9c0.3,0.3,1.6,2.5,3.1,4.4c1.3,1.8,2.9,4.1,3.7,5.2l0.4,0.4c0.1,0,0.2-0.2,0.2-0.6
		l0.1-11.1c0.1-0.9,0.2-1.3,0.5-1.4h0.4l0.2-0.2l-0.2-0.2c-0.7,0-1.1,0.1-1.3,0.1c-0.2,0-0.8-0.1-1.5-0.1l-0.4,0.2l0.2,0.2l0.8,0.1
		c0.2,0.2,0.3,0.5,0.3,1.6l0.2,7.8H98c-0.2-0.3-1.9-2.8-2.7-4c-1.9-2.6-3.8-5.4-4-5.6c-0.2-0.4-0.3-0.6-0.5-0.6
		c-0.1,0-0.2,0.2-0.2,0.6l-0.1,10.4c0,1.5,0,2-0.4,2.2l-0.6,0.1l-0.3,0.2l0.3,0.2c0.7,0,1.3-0.1,1.4-0.1c0.2,0,0.7,0.1,1.6,0.1
		l0.3-0.2l-0.2-0.2L92,74.2c-0.3-0.1-0.5-0.6-0.5-1.9L91.4,64.9z"/>
	<path class="st0" d="M105.4,69.6c0,1.6,0,2.9-0.1,3.7c0,0.5-0.1,0.9-0.4,1l-0.4,0.1l-0.3,0.2l0.3,0.2c0.5,0,1.3-0.1,1.6-0.1
		c0.4,0,1.1,0.1,2,0.1l0.3-0.2l-0.3-0.2l-0.7-0.1c-0.3,0-0.4-0.5-0.4-1c-0.1-0.7-0.1-2.1-0.1-3.7v-7.2l1.6,0.1c1.1,0,1.5,0.5,1.5,1
		v0.1l0.2,0.4l0.1-0.3v-2l-0.1-0.4c-0.1,0-0.5,0.2-1.2,0.2h-5c-0.5,0-1-0.1-1.3-0.1c-0.4-0.1-0.5-0.3-0.6-0.3l-0.2,0.4l-0.3,2
		l0.1,0.3l0.2-0.2l0.2-0.6c0.1-0.4,0.5-0.5,1.2-0.5l1.9-0.1v7.2H105.4z"/>
	<path class="st0" d="M114.2,69.6c0,1.7,0,3,0,3.8c0,0.5-0.1,0.8-0.4,0.8l-0.5,0.1l-0.2,0.2l0.3,0.2c0.5,0,1.3-0.1,1.6-0.1
		c0.4,0,1.1,0.1,2.1,0.1l0.2-0.2l-0.2-0.2l-0.6-0.1c-0.4,0-0.5-0.4-0.6-0.8v-3.8v-3.1v-3.8c0-0.6,0.1-0.9,0.4-1h0.4l0.2-0.2
		l-0.3-0.2c-0.5,0-1.2,0.1-1.6,0.1c-0.3,0-1.1-0.1-1.6-0.1l-0.4,0.2l0.3,0.2h0.4c0.3,0.1,0.4,0.4,0.5,1v3.8
		C114.2,66.5,114.2,69.6,114.2,69.6z"/>
	<path class="st0" d="M121.5,64.9L121.5,64.9c0.2,0.3,1.6,2.5,3.1,4.4c1.3,1.8,2.9,4.1,3.8,5.2l0.4,0.4c0.1,0,0.2-0.2,0.2-0.6
		l0.2-11.1c0-0.9,0.1-1.3,0.5-1.4h0.4l0.3-0.2l-0.3-0.2c-0.7,0-1.1,0.1-1.3,0.1s-0.8-0.1-1.5-0.1l-0.4,0.2l0.2,0.2l0.7,0.1
		c0.3,0.2,0.4,0.5,0.4,1.6l0.2,7.8h-0.1c-0.1-0.3-1.9-2.8-2.8-4c-1.9-2.6-3.8-5.4-4-5.6c-0.2-0.4-0.3-0.6-0.5-0.6s-0.2,0.2-0.2,0.6
		l-0.1,10.4c0,1.5,0,2-0.4,2.2l-0.6,0.1l-0.3,0.2l0.3,0.2c0.7,0,1.3-0.1,1.4-0.1c0.2,0,0.7,0.1,1.6,0.1l0.3-0.2l-0.2-0.2l-0.7-0.1
		c-0.3-0.1-0.5-0.6-0.5-1.9L121.5,64.9z"/>
	<path class="st0" d="M133.9,69.6c0,1.6,0,2.9,0,3.7c-0.1,0.5-0.1,0.9-0.4,1l-0.5,0.1l-0.2,0.2l0.3,0.2c0.5,0,1.3-0.1,1.6-0.1
		c0.7,0,2.3,0.1,4.2,0.1c0.5,0,0.6,0,0.8-0.5c0-0.4,0.2-1.6,0.2-2l-0.1-0.3l-0.2,0.3c0,0.7-0.2,1.1-0.6,1.3
		c-0.3,0.2-1.5,0.2-1.9,0.2c-1.3,0-1.5-0.3-1.5-1.4c-0.1-0.5,0-2.2,0-2.7v-1.4v-0.2l2.5,0.1c0.5,0.1,0.7,0.4,0.7,0.7l0.1,0.6
		l0.1,0.2l0.1-0.3c0-0.1,0-0.8,0.1-1.2c0-0.9,0-1.2,0-1.3v-0.1l-0.3,0.2c-0.1,0.2-0.3,0.3-0.6,0.3h-2.7v-0.2v-4.4v-0.2l2.5,0.1
		c0.7,0.1,0.8,0.4,0.8,0.6l0.2,0.6l0.1,0.3l0.1-0.3l0.1-1.1c0-0.8,0.1-1,0.1-1.1v-0.2l-0.2,0.1l-0.6,0.2h-3.9
		c-0.4,0-1.2-0.1-1.9-0.1l-0.3,0.2l0.3,0.2h0.5c0.4,0.1,0.5,0.4,0.5,1s0,1,0,3.8L133.9,69.6L133.9,69.6z"/>
	<path class="st0" d="M144.5,64.9L144.5,64.9c0.3,0.3,1.7,2.5,3.1,4.4c1.3,1.8,3,4.1,3.8,5.2l0.5,0.4c0.1,0,0.2-0.2,0.2-0.6
		l0.1-11.1c0.1-0.9,0.1-1.3,0.5-1.4h0.4l0.2-0.2l-0.3-0.2c-0.6,0-1.1,0.1-1.2,0.1c-0.3,0-0.9-0.1-1.6-0.1l-0.3,0.2l0.2,0.2l0.7,0.1
		c0.3,0.2,0.5,0.5,0.5,1.6l0.1,7.8h-0.1c-0.3-0.3-1.9-2.8-2.8-4c-1.9-2.6-3.8-5.4-3.9-5.6c-0.2-0.4-0.4-0.6-0.5-0.6
		s-0.2,0.2-0.2,0.6l-0.1,10.4c0,1.5-0.1,2-0.4,2.2l-0.6,0.1l-0.2,0.2l0.3,0.2c0.7,0,1.3-0.1,1.4-0.1c0.2,0,0.7,0.1,1.5,0.1l0.3-0.2
		l-0.3-0.2l-0.6-0.1c-0.3-0.1-0.5-0.6-0.5-1.9L144.5,64.9z"/>
	<path class="st0" d="M158.4,69.6c0,1.6,0,2.9-0.1,3.7c0,0.5-0.1,0.9-0.3,1l-0.5,0.1l-0.2,0.2l0.2,0.2c0.5,0,1.3-0.1,1.6-0.1
		c0.4,0,1.1,0.1,2,0.1l0.2-0.2l-0.2-0.2l-0.7-0.1c-0.4,0-0.5-0.5-0.5-1c0-0.7,0-2.1,0-3.7v-7.2l1.7,0.1c1.1,0,1.4,0.5,1.5,1v0.1
		l0.1,0.4l0.1-0.3c0-0.5,0-1.7,0-2l-0.1-0.4c-0.1,0-0.4,0.2-1.2,0.2h-5c-0.4,0-0.9-0.1-1.3-0.1l-0.5-0.3l-0.2,0.4l-0.3,2l0.1,0.3
		l0.2-0.2l0.2-0.6c0.2-0.4,0.5-0.5,1.2-0.5l1.9-0.1v7.2H158.4z"/>
	<path class="st0" d="M178.1,66.5c0-2.7,0-3.2,0-3.8s0.1-0.9,0.5-1h0.5l0.3-0.2l-0.3-0.2c-0.5,0-1.4,0.1-1.8,0.1
		c-0.3,0-1.1-0.1-1.7-0.1l-0.3,0.2l0.3,0.2h0.4c0.4,0.1,0.5,0.4,0.5,1s0,1,0,3.8v3.1c0,1.6,0,2.9,0,3.7c-0.1,0.5-0.1,0.9-0.4,1
		l-0.5,0.1l-0.3,0.2l0.3,0.2c0.5,0,1.3-0.1,1.6-0.1c1.1,0,1.9,0.1,3.8,0.1c0.7,0,0.8-0.1,0.8-0.5c0.1-0.5,0.2-1.8,0.2-2v-0.4
		l-0.2,0.3l-0.4,1c-0.4,0.5-0.8,0.5-1.4,0.5c-1,0-1.3-0.1-1.6-0.3c-0.3-0.4-0.3-1.6-0.3-3.8L178.1,66.5L178.1,66.5z"/>
	<path class="st0" d="M82.1,74c0.9,0,3-0.6,3-5.7c0-3.8-1.5-6.1-3.5-6.3v-0.9l0,0c3.2,0,5.2,2.5,5.2,6.5s-2,7.2-5.3,7.2V74H82.1z
		 M81.7,62h-0.3c-1.5,0-3.2,1.1-3.2,5.4c0,3.4,1.3,6.2,3.5,6.5v0.9l0,0c-3.7,0-5.2-3.8-5.2-6.9c0-2.9,1.4-6.8,5.2-6.9V62z"/>
	<path class="st0" d="M14.4,68.8c0,2,0,3.6-0.1,4.4c0,0.6-0.2,0.9-0.5,1l-0.5,0.1L13,74.5l0.3,0.2c0.6,0,1.5-0.1,1.9-0.1
		s1.3,0.1,2.2,0.1l0.3-0.2l-0.3-0.2l-0.7-0.1c-0.5-0.1-0.6-0.5-0.6-1C16,72.4,16,70.8,16,68.8v-3.5c0-3,0-3.6,0.1-4.3
		c0-0.7,0.1-1,0.5-1.1l0.5-0.1l0.2-0.2L17,59.5c-0.6,0-1.4,0-1.8,0c-0.4,0-1.3,0-1.9,0l-0.4,0.1l0.3,0.2l0.5,0.1
		c0.3,0.1,0.5,0.5,0.5,1.1c0.1,0.7,0.1,1.2,0.1,4.3L14.4,68.8L14.4,68.8z"/>
	<path class="st0" d="M22.3,64.9L22.3,64.9c0.3,0.3,1.7,2.5,3.1,4.4c1.3,1.8,2.9,4.1,3.8,5.2l0.4,0.4c0.1,0,0.2-0.2,0.2-0.6
		l0.1-11.1c0-0.9,0.1-1.3,0.5-1.4h0.4l0.3-0.2l-0.4-0.2c-0.6,0-1.1,0.1-1.2,0.1c-0.3,0-0.9-0.1-1.5-0.1l-0.4,0.2l0.1,0.2l0.7,0.1
		c0.4,0.2,0.5,0.5,0.5,1.6l0.1,7.8h-0.1c-0.2-0.3-1.9-2.8-2.8-4c-1.9-2.6-3.8-5.4-3.9-5.6c-0.3-0.4-0.4-0.6-0.5-0.6
		s-0.2,0.2-0.2,0.6l-0.1,10.4c0,1.5-0.1,2-0.4,2.2l-0.6,0.1l-0.3,0.2l0.3,0.2c0.7,0,1.3-0.1,1.4-0.1c0.2,0,0.7,0.1,1.6,0.1l0.3-0.2
		l-0.2-0.2l-0.7-0.1c-0.3-0.1-0.4-0.6-0.4-1.9L22.3,64.9z"/>
	<path class="st0" d="M36.2,69.6c0,1.6,0,2.9-0.1,3.7c0,0.5-0.1,0.9-0.4,1l-0.5,0.1L35,74.6l0.2,0.2c0.6,0,1.4-0.1,1.7-0.1
		c0.4,0,1.2,0.1,2,0.1l0.3-0.2L39,74.3l-0.7-0.1c-0.4,0-0.4-0.5-0.5-1c-0.1-0.7-0.1-2.1-0.1-3.7v-7.2l1.7,0.1c1.1,0,1.4,0.5,1.5,1
		v0.1l0.2,0.4l0.1-0.3c0-0.5,0.1-1.7,0.1-2l-0.1-0.4c-0.1,0-0.4,0.2-1.2,0.2h-5.1c-0.4,0-0.9-0.1-1.3-0.1L33.1,61l-0.2,0.4l-0.3,2
		l0.1,0.3l0.2-0.2l0.2-0.6c0.2-0.4,0.5-0.5,1.3-0.5l1.9-0.1v7.3H36.2z"/>
	<path class="st0" d="M44.4,69.6c0,1.6,0,2.9,0,3.7c-0.1,0.5-0.1,0.9-0.4,1l-0.4,0.1l-0.3,0.2l0.3,0.2c0.5,0,1.3-0.1,1.6-0.1
		c0.7,0,2.3,0.1,4.2,0.1c0.5,0,0.6,0,0.7-0.5c0.1-0.4,0.2-1.6,0.2-2L50.2,72L50,72.3c0,0.7-0.2,1.1-0.6,1.3
		c-0.4,0.2-1.5,0.2-1.9,0.2c-1.3,0-1.5-0.3-1.5-1.4c-0.1-0.5,0-2.2,0-2.7v-1.4l0.1-0.2l2.5,0.1c0.4,0.1,0.7,0.4,0.7,0.7l0.1,0.6
		l0.1,0.2l0.1-0.3c0-0.1,0-0.8,0.1-1.2c0-0.9,0.2-1.2,0.2-1.3l-0.2-0.1L49.5,67c-0.1,0.2-0.3,0.3-0.6,0.3h-2.7l-0.1-0.2v-4.4
		l0.1-0.2l2.5,0.1c0.7,0.1,0.8,0.4,0.9,0.6l0.1,0.6l0.1,0.3l0.2-0.3l0.1-1.1c0-0.8,0.1-1,0.1-1.1L50,61.3l-0.3,0.1l-0.6,0.2h-3.9
		c-0.4,0-1.2-0.1-1.9-0.1L43,61.7l0.2,0.2h0.5c0.4,0.1,0.5,0.4,0.6,1v3.8v2.9H44.4z"/>
	<path class="st0" d="M57.1,69.3L57.1,69.3c0.3,0.4,0.8,1.5,1.3,2.5c0.7,1.3,1.2,2.2,1.8,2.6c0.4,0.2,0.7,0.4,1.4,0.4h1.2l0.3-0.2
		l-0.2-0.2l-0.3-0.1c-0.3,0-0.7-0.2-1.5-1.2c-0.7-1.1-1.6-2.6-2.7-4.6c1.3-1.4,1.7-2.6,1.7-3.9c0-1.2-0.5-2.1-0.9-2.4
		c-0.6-0.6-1.2-0.8-2-0.8v1c0.6,0.3,1.3,1.2,1.3,3c0,1.4-0.4,2.3-0.8,2.6l-0.6,0.3V69.3z M54.2,69.6c0,1.6,0,2.9-0.1,3.7
		c-0.1,0.5-0.1,0.9-0.4,1l-0.5,0.1L53,74.6l0.3,0.2c0.5,0,1.3-0.1,1.6-0.1c0.2,0,1.1,0.1,1.9,0.1l0.3-0.2l-0.2-0.2l-0.6-0.1
		c-0.4,0-0.5-0.5-0.5-1c0-0.7,0-2.1,0-3.8v-0.2l0.1-0.2H57l0.2,0.1v-0.9h-0.3l-1-0.2l-0.1-0.3v-5.4l0.1-0.2h0.7l0.6,0.2v-1h-0.4
		c-0.4,0-1.4,0.1-1.8,0.1c-0.3,0-1.1-0.1-1.7-0.1L53,61.6l0.3,0.2h0.5c0.4,0.1,0.5,0.4,0.6,1v3.8v3H54.2z"/>
	<path class="st0" d="M70.7,74.8c0.9,0,2-0.1,2.6-0.5c0.3-0.1,0.3-0.2,0.4-0.6c0.1-0.7,0.3-2.3,0.3-2.6L73.9,71l-0.2,0.4
		c-0.1,0.4-0.3,0.9-0.5,1.3c-0.6,0.9-1.3,1.1-2.6,1.1c-2,0-4.6-2.3-4.6-6.9c0-1.9,0.3-3.8,1.3-5.1c0.6-0.8,1.5-1.2,2.8-1.2
		s2.5,0.6,2.9,1.2c0.4,0.5,0.6,1.2,0.6,1.8l0.2,0.4l0.1-0.4c0.1-0.4,0.1-1.4,0.1-2.1c0.1-0.7,0.1-0.9,0.1-1.1l-0.2-0.3
		c-0.4-0.1-0.9-0.2-1.5-0.3c-0.7-0.1-1.2-0.2-2.1-0.2c-2.2,0-3.6,0.8-4.6,2.1c-1.4,1.8-1.8,4-1.8,5.3c0,1.9,0.4,4.1,1.8,5.8
		C67,74.3,68.7,74.8,70.7,74.8"/>
	<path class="st0" d="M185.3,73.6l0.2,0.5h0.5l-0.5-0.7l0.5-0.5c0-0.4-0.3-0.5-0.7-0.5v0.3l0.3,0.3l-0.3,0.2V73.6z M185.3,74.9v-0.4
		c0.6,0,1.1-0.5,1.1-1.2c0-0.8-0.6-1.2-1.1-1.3v-0.3c0.8,0,1.6,0.6,1.6,1.6C186.9,74.3,186.1,74.9,185.3,74.9 M184.9,73.4h0.2
		l0.2,0.3v-0.6H185v-0.5h0.3h0.1v-0.3h-0.1h-0.7v1.8h0.4L184.9,73.4L184.9,73.4z M185.3,71.6v0.3h-0.1c-0.7,0-1.2,0.5-1.2,1.3
		s0.5,1.2,1.2,1.2h0.1v0.4h-0.1c-0.9,0-1.7-0.6-1.7-1.7C183.5,72.2,184.3,71.6,185.3,71.6L185.3,71.6z"/>
	<path class="st0" d="M82.5,31.1c0-13.6,12-19.6,15.1-22.4c3.1,2.7,15,8.8,15,22.4c0,13.7-11.9,19.7-15,22.4
		C94.5,50.8,82.5,44.8,82.5,31.1"/>
	<path class="st1" d="M99.9,30.2V25c0-2.7,1.7-4.3,3.6-4.3v-0.4H91.9v0.4c1.9,0,3.6,1.6,3.6,4.3v5.2v7.1c-0.1,2.7-1.8,4.3-3.6,4.3
		V42h11.6v-0.4c-1.8,0-3.6-1.7-3.6-4.3V30.2z"/>
	<path class="st1" d="M97.7,9.8v1.1c2.8,2.4,13,7.9,13,20.1c0,12.3-10.2,17.7-13,20.2v1.1h-0.1v-2.4h0.1c2.6-2.2,12-7.3,12-18.9
		c0-11.5-9.3-16.5-12-18.8l-0.1,0.1L97.7,9.8L97.7,9.8z M97.6,52.2c-3.1-2.6-14-8.3-14-21.2c0-12.8,10.9-18.5,14-21.1v2.4
		c-2.7,2.3-12,7.3-12,18.7s9.3,16.5,12,18.8V52.2z"/>
	<polygon class="st2" points="43.9,80.6 44.5,80.6 44.5,83.6 48.6,83.6 48.6,80.6 49.2,80.6 49.2,87.5 48.6,87.5 48.6,84.1 
		44.5,84.1 44.5,87.5 43.9,87.5 	"/>
	<path class="st2" d="M54.9,80.5c2.2,0,3.2,1.7,3.2,3.6s-1.1,3.6-3.2,3.6c-2.2,0-3.2-1.7-3.2-3.6S52.8,80.5,54.9,80.5 M54.9,87.1
		c1.8,0,2.6-1.5,2.6-3s-0.8-3-2.6-3s-2.6,1.5-2.6,3C52.4,85.5,53.1,87.1,54.9,87.1"/>
	<polygon class="st2" points="59.9,80.6 65.4,80.6 65.4,81.2 63,81.2 63,87.5 62.3,87.5 62.3,81.2 59.9,81.2 	"/>
	<polygon class="st2" points="67.4,80.6 72.2,80.6 72.2,81.2 68.1,81.2 68.1,83.6 71.9,83.6 71.9,84.2 68.1,84.2 68.1,86.9 
		72.2,86.9 72.2,87.5 67.4,87.5 	"/>
	<polygon class="st2" points="74.6,80.6 75.2,80.6 75.2,86.9 79.1,86.9 79.1,87.5 74.6,87.5 	"/>
	<path class="st2" d="M81.5,85.2c0,1.4,1,1.8,2.2,1.8c0.7,0,1.8-0.4,1.8-1.4c0-0.8-0.8-1.1-1.4-1.2L82.6,84
		c-0.8-0.2-1.6-0.6-1.6-1.7c0-0.7,0.4-1.9,2.4-1.9c1.4,0,2.6,0.7,2.5,2.1h-0.7c0-1.1-0.9-1.6-1.9-1.6c-0.9,0-1.7,0.3-1.7,1.4
		c0,0.6,0.5,0.9,1,1.1l1.7,0.4c1,0.3,1.8,0.7,1.8,1.8c0,0.5-0.2,2-2.6,2c-1.6,0-2.8-0.7-2.7-2.4C80.8,85.2,81.5,85.2,81.5,85.2z"/>
	<path class="st2" d="M96.6,86.6c-0.5,0.6-1.2,1-2,1c-1.2,0-2.1-0.7-2.1-1.9c0-1,0.9-1.6,1.7-2c-0.4-0.5-0.8-1-0.8-1.7
		c0-0.8,0.7-1.4,1.5-1.4s1.5,0.6,1.5,1.4c0,0.9-0.7,1.3-1.4,1.8l1.5,1.8c0.2-0.3,0.2-0.6,0.2-1.2h0.6c0,0.4-0.1,1.1-0.4,1.6l1.2,1.4
		h-0.8L96.6,86.6z M94.5,84c-0.7,0.4-1.4,0.9-1.4,1.7c0,0.8,0.7,1.4,1.5,1.4c0.7,0,1.2-0.4,1.6-1L94.5,84z M94,82
		c0,0.5,0.5,1,0.8,1.4c0.5-0.3,1.1-0.7,1.1-1.4c0-0.6-0.4-0.9-0.9-0.9C94.4,81.1,94,81.4,94,82"/>
	<path class="st2" d="M104.3,80.6h3.1c1.1,0,2.1,0.5,2.1,1.8c0,0.9-0.5,1.6-1.3,1.8l0,0c0.9,0.1,1.1,0.7,1.2,1.5
		c0,0.5,0,1.4,0.3,1.8H109l-0.2-1.1c-0.1-1-0.1-2-1.4-2h-2.5v3.1h-0.6V80.6z M104.9,83.9h2.4c0.8,0,1.5-0.5,1.5-1.3
		s-0.5-1.4-1.5-1.4h-2.4V83.9z"/>
	<polygon class="st2" points="112.1,80.6 116.9,80.6 116.9,81.2 112.8,81.2 112.8,83.6 116.6,83.6 116.6,84.2 112.8,84.2 
		112.8,86.9 116.9,86.9 116.9,87.5 112.1,87.5 	"/>
	<path class="st2" d="M119.6,85.2c0,1.4,1,1.8,2.2,1.8c0.7,0,1.8-0.4,1.8-1.4c0-0.8-0.8-1.1-1.4-1.2l-1.5-0.4
		c-0.8-0.2-1.5-0.6-1.5-1.7c0-0.7,0.4-1.9,2.4-1.9c1.3,0,2.5,0.7,2.5,2.1h-0.7c0-1.1-0.9-1.6-1.9-1.6c-0.9,0-1.7,0.3-1.7,1.4
		c0,0.6,0.5,0.9,1,1.1l1.7,0.4c1,0.3,1.8,0.7,1.8,1.8c0,0.5-0.2,2-2.6,2c-1.6,0-2.8-0.7-2.7-2.4C119,85.2,119.6,85.2,119.6,85.2z"/>
	<path class="st2" d="M129.7,80.5c2.2,0,3.2,1.7,3.2,3.6s-1.1,3.6-3.2,3.6c-2.2,0-3.2-1.7-3.2-3.6C126.4,82.2,127.5,80.5,129.7,80.5
		 M129.7,87.1c1.8,0,2.6-1.5,2.6-3s-0.8-3-2.6-3s-2.6,1.5-2.6,3C127.1,85.5,127.8,87.1,129.7,87.1"/>
	<path class="st2" d="M135.4,80.6h3.1c1.1,0,2.1,0.5,2.1,1.8c0,0.9-0.4,1.6-1.3,1.8l0,0c0.9,0.1,1.1,0.7,1.2,1.5
		c0,0.5,0,1.4,0.3,1.8h-0.7l-0.2-1.1c-0.1-1-0.1-2-1.4-2H136v3.1h-0.7L135.4,80.6L135.4,80.6z M136,83.9h2.4c0.8,0,1.5-0.5,1.5-1.3
		s-0.5-1.4-1.5-1.4H136V83.9z"/>
	<polygon class="st2" points="142.5,80.6 148,80.6 148,81.2 145.6,81.2 145.6,87.5 144.9,87.5 144.9,81.2 142.5,81.2 	"/>
	<path class="st2" d="M150.4,85.2c0,1.4,1,1.8,2.2,1.8c0.7,0,1.8-0.4,1.8-1.4c0-0.8-0.8-1.1-1.4-1.2l-1.5-0.4
		c-0.8-0.2-1.6-0.6-1.6-1.7c0-0.7,0.4-1.9,2.4-1.9c1.4,0,2.6,0.7,2.5,2.1h-0.6c0-1.1-0.9-1.6-1.9-1.6c-0.9,0-1.7,0.3-1.7,1.4
		c0,0.6,0.5,0.9,1,1.1l1.7,0.4c1,0.3,1.8,0.7,1.8,1.8c0,0.5-0.2,2-2.6,2c-1.6,0-2.8-0.7-2.7-2.4C149.8,85.2,150.4,85.2,150.4,85.2z"
		/>
</g>
</svg>
