<?xml version="1.0" encoding="utf-8"?>
<!-- Generator: Adobe Illustrator 25.3.1, SVG Export Plug-In . SVG Version: 6.00 Build 0)  -->
<svg version="1.1" id="Layer_2" xmlns="http://www.w3.org/2000/svg" xmlns:xlink="http://www.w3.org/1999/xlink" x="0px" y="0px"
	 viewBox="0 0 200 100" style="enable-background:new 0 0 200 100;" xml:space="preserve">
<style type="text/css">
	.st0{fill:#DADADA;}
	.st1{fill-rule:evenodd;clip-rule:evenodd;fill:#DADADA;}
</style>
<g>
	<path class="st0" d="M194.3,15.3h-0.1c-31.5,3.7-62.7,7.2-94.2,10.9C68.5,22.5,37.3,19,5.8,15.3H5.7c-2.8,0-4.3,1.1-4,4.2
		c5.5,19,10.9,37.9,16.5,56.8c2.1,6.2,6,8.3,10,8.3l143.6,0c4,0,7.8-2.2,10-8.3c5.6-19,11-37.9,16.5-56.8
		C198.6,16.4,197.1,15.3,194.3,15.3z M196.1,19.1c-6.7,23-7.7,26.8-16.4,56.6c-1.9,5.4-4.9,6.8-7.9,6.8c-29.2,0-114.5,0-143.6,0
		c-3,0-6-1.4-7.9-6.8c-8.7-29.8-9.7-33.6-16.4-56.6c-0.2-1.7,0.8-1.6,1.8-1.6c31.1,3.7,51.1,5.8,94.3,11
		c43.2-5.1,63.1-7.3,94.3-10.9C195.3,17.5,196.3,17.4,196.1,19.1z"/>
	<g>
		<path class="st0" d="M77.2,49c-0.3,0.6-2.4,5.9-2.4,5.9c-0.6,1.5,0.3,2.2,0.9,2.4c1.4,0.3,2.7-0.7,4.2-4.5
			C82.1,46.8,77.9,47.6,77.2,49z"/>
		<path class="st0" d="M62.1,54c2.1,0.9,1.2,3.8-0.2,4.1c-0.7,0.5,2.1,1.9,3.3-0.9c1.2-2.8-0.3-5.6-0.5-6.3
			C64.2,51.3,63.3,52.4,62.1,54z"/>
		<path class="st0" d="M86.1,64.5c1.3-0.9,2.3-1.8,3.1-3.3c-1,0.2-2.7,1.1-3.6,2C84.4,64.2,85,65.2,86.1,64.5z"/>
		<path class="st0" d="M139.9,50.6c0.5-1,0.5-2.8-0.9-2.9c-1.2-0.1-3.5,1-4.3,5C136.9,52.9,139.4,51.6,139.9,50.6z"/>
		<path class="st0" d="M190.1,21.1c-27.9,3.2-51.1,6.2-90.1,10.6c-39-4.4-62.2-7.3-90.2-10.6c-1-0.1-1.9-0.7-1.4,1
			c3.9,13.6,5.1,17.8,12,41.9c1.4,4.4,3.4,3.8,6.5,3.8c26.3,0,44.6,0,73.1,0c28.5,0,46.9,0,73.1,0c3.1,0,5.1,0.5,6.5-3.8
			c7-24.1,8.2-28.3,12-41.9C192.1,20.5,191.1,21,190.1,21.1z M64.4,35c14.9,0,33,0,33.8,0c2.4,0,3.4-1,3.9-1.4
			c0.4-0.4,0.9-0.4,0.9,0.1c0,0.2-2.6,6.1-6.1,6.1c-2.2,0-18.4,0-32.5,0c0.5-0.6,0.9-1.5,0.9-2.4C65.2,36.5,64.9,35.6,64.4,35z
			 M61.5,35.1c1.2,0,2.2,1,2.2,2.2c0,1.2-1,2.2-2.2,2.2c-1.2,0-2.2-1-2.2-2.2C59.3,36.1,60.3,35.1,61.5,35.1z M97.3,60.2
			c-0.7,2.1-1.1-1.1-4.1-0.1c-1.6,3.9-5.3,7.4-8.1,7c-3.7-0.5-1.5-5.6,4.7-7.4l0.5-1.5c-3.2,2.7-6.3,1-5.5-2.1
			c-2.7,3.3-5.8,3.7-7.8,3.6c-1.5,0.2-2.8-0.4-3.5-1.4c-1,2.7-2.4,6.1-2.4,6.1H67l2.1-5.4c-1.8,1-3.5,1.2-4.9,1.2
			c-2.7,0.7-4.4-1.1-4.9-2.4c-3,4-6.4,2.6-6.9,0.1c-1.3,1.3-2.7,2.4-4,2.3c-3.1-0.1-2.4-4.8-1.8-6.4c1.4-4.1,3-5.7,0.1-5.8
			c-0.5,0-3.9,13.4-10.2,14c-5.8,0.5-3.6-4.1-2.6-6.7c1.5-4.2,3.2-6.4,2.4-7.9c-0.6-1.2-4.2,1.3-5.2,4C29.7,54.7,26.8,62,26.8,62
			l-5.4,0.1c0,0,4.5-11.3,8.9-22.8c1.4-3.7-0.7-3.8-2.4-3.7c-1.4,0.1-0.8-1.2,0.2-1.2c5.2-0.4,7.1-0.3,7.8,0.1
			c1.1,0.7,1,2.1,0.8,2.5c-1,2.5-2.7,6.9-3,7.6c-0.8,2.2,0.8,0.1,1.3-0.5c0.5-0.6,3.8-4.3,4.4-5.2C40,38,43,35,45,35
			c0.6,0,6.2,0,13.6,0c-0.5,0.6-0.8,1.5-0.8,2.4c0,0.9,0.3,1.7,0.9,2.4c-8.5,0-15.1,0-15.6,0c-1.1,0-3.4,1.3-5.2,3.5
			c-1.5,1.9,0.5,1.2,0.5,1.2c3-0.3,5.8-1,1,9.5c-4.6,10,2.3,5.3,6.2-6.8c0.1-0.4-1-1-1.1-1.8c0-1.1-0.4-2.3,1.5-2.3
			c1.9,0,1.2,1.9,2.8,2.4c3.2,1,4.9,0,3.2,4c-1.6,3.9-3.4,8.7-1.3,8.1c1-0.3,1.6-1,2-1.7c2.2-6,4.1-10.7,4.1-10.7H61
			c0,0-1.5,3.9-4.5,11.3c-1,2.6,1,1.1,2.6-0.5c0.2-1.4,1.2-1.9,1.5-1.9c1.6-2.3,6.8-9.7,6.8-9.7s0.4,0.3,0.1,0.8
			c-0.4,0.7,0.4,4.2,0.8,5.3c0.6,1.8,1.5,6.1-0.9,8.1c-0.5,0.4-1,0.7-1.4,1c1.5-0.3,2.7-0.9,3.7-1.6l5-12.7h4.1c0,0-0.2,0.4-0.4,1
			c1.2-0.9,2.6-1.4,3.7-1.1c1.1,0.3,4.9,0.6,0.7,9.3c-1,2.1-2.1,3.4-3.2,4.3c3.5-1.1,6.4-5.6,7-7.1c1.3-3.6,2.5-6.3,2.5-6.3l4.1,0
			c0,0-3,7.1-4.2,10.7c-1.2,3.4,2.2,0.5,3.6-3.3c1.2-3.3,2.8-7.3,2.8-7.3l4.3,0c0,0-5,12.5-5.5,13.5C95.5,58.4,97.5,59.6,97.3,60.2z
			 M174.8,39.7c-3.8,0-52.4,0-53.7,0c-1.1,0-3.4,1.3-5.2,3.5c-1.5,1.9,0.5,1.2,0.5,1.2c3-0.3,5.8-1,1,9.5c-4.6,10,2.3,5.3,6.3-6.8
			c0.1-0.4-1-1-1.1-1.8c-0.1-1.1-0.4-2.3,1.5-2.3c1.9,0,1.2,1.9,2.8,2.4c3.2,1,4.9,0,3.2,4c-1.6,3.9-3.4,8.7-1.3,8.1
			c1.7-0.5,2.2-2.2,2.5-2.8c0-0.2,0-0.3,0-0.5c0.3-4,2.6-7.5,4.6-8.3c4.8-2.1,6.6,0.6,6.5,3.1c-0.2,3.1-3.7,5.2-7.6,5.3
			c-0.1-0.1-0.1,0,0,0.6c0.6,4.5,5.7,2,8.4-1l3.5-8.8l4.4,0l-1.1,2.6c3.2-3.9,6.7-2.8,6.4,0.5c0-0.1,0.1-0.1,0.1-0.2
			c3.7-4.9,8-3,6.5,1.4c-0.2,0.6-2.3,6.7-2.3,6.7s-0.7,2,0.6,2c1.1,0,2.6-2,3.3-3.8c0-0.1,0-0.1,0-0.1c-0.2-4,2.3-7.4,4.3-8.3
			c4.8-2.1,6.8,0.6,6.8,3.1c0,3.1-3.5,5.2-7.5,5.3c-0.1-0.1-0.1,0,0,0.6c1.1,5.3,6.4,1.8,7.2,0.9c2-2.4,1.9-0.7,1,0.6
			c-4.1,5.5-10,4.8-11.5-0.3c-1,2-2.4,4-5.1,4.2c-3.2,0.3-3.5-2.8-3.1-4.6c0.3-1.7,0.9-2.4,2.2-6c0.9-2.5-1.7-1.2-3.3,1.2
			c-1.1,2.9-3.5,9.4-3.5,9.4s-1.3-0.1-4.1-0.1c0.3-1.7,2.7-6.9,4-10.5c0.9-2.6-1.8-1.2-3.3,1.3c0,0.1-0.1,0.2-0.1,0.2l-3.7,9h-4.3
			l1.3-3.4c-0.4,0.5-0.9,0.9-1.5,1.3c-5.5,3.9-8.1,1.1-8.9-1.7c-1.6,1.9-3.5,3.7-5.1,3.6c-3.1-0.1-2.4-4.8-1.8-6.4
			c1.4-4.1,3-5.7,0.1-5.8c-0.5,0-3.9,13.4-10.2,14c-5.8,0.5-3.6-4.1-2.6-6.7c1.5-4.2,3.2-6.4,2.4-7.9c-0.6-1.2-4.2,1.3-5.2,4
			c-1.4,3.5-4.2,10.8-4.2,10.8l-5.4,0.1c0,0,4.5-11.3,8.8-22.8c1.4-3.7-0.7-3.8-2.4-3.7c-1.4,0.1-0.9-1.2,0.2-1.2
			c5.2-0.4,7.1-0.3,7.7,0.1c1.1,0.7,1,2.1,0.8,2.5c-1,2.5-2.7,6.9-3,7.6c-0.8,2.2,0.8,0.1,1.3-0.5c0.5-0.6,3.8-4.3,4.4-5.2
			c0.7-0.9,3.7-3.9,5.7-3.9c1.8,0,51.8,0,53.1,0c2.4,0,3.4-1,3.9-1.4c0.4-0.4,0.9-0.4,0.9,0.1C180.8,33.9,178.3,39.8,174.8,39.7z"/>
		<path class="st0" d="M173.3,50.7c0.5-0.9,0.3-2.8-1.1-2.9c-1.2-0.1-3.5,1-4,5C170.3,52.9,172.8,51.6,173.3,50.7z"/>
	</g>
	<path class="st1" d="M69,71.1v3.9c0,1-0.1,2-1.3,2c-1.2,0-1.3-1.1-1.3-2v-3.9h-1.9v4.2c0,1,0,1.9,0.8,2.6c0.6,0.6,1.6,0.8,2.5,0.8
		s1.8-0.2,2.5-0.8c0.7-0.7,0.8-1.7,0.8-2.6v-4.2H69"/>
	<path class="st0" d="M85.2,74.4v1.5h1.4c-0.1,0.9-0.7,1.3-1.6,1.3c-1.3,0-2-1.2-2-2.3c0-1.1,0.7-2.4,1.9-2.4c0.8,0,1.3,0.5,1.6,1.2
		l1.8-0.8c-0.6-1.4-1.8-2.1-3.4-2.1c-2.4,0-4.1,1.6-4.1,4c0,2.3,1.6,3.9,4,3.9c1.2,0,2.3-0.4,3.1-1.5c0.7-0.9,0.7-1.9,0.8-3H85.2"/>
	<path class="st1" d="M31.6,72.8h0.5c1.2,0,2.1,0.8,2.1,2.1c0,1.5-1,2.1-2.2,2.1h-0.4V72.8 M29.7,78.6h2.8c2.1,0,3.8-1.6,3.8-3.7
		s-1.7-3.7-3.8-3.7h-2.8L29.7,78.6z"/>
	<path class="st1" d="M50.1,72.8c1.2,0,2.1,0.9,2.1,2c0,1.3-0.9,2.2-2.1,2.2C48.9,77,48,76,48,74.7C48,73.7,48.9,72.8,50.1,72.8
		 M50.1,70.9c-2.2,0-4.1,1.6-4.1,3.8c0,2.4,1.7,4.1,4.1,4.1c2.4,0,4.1-1.7,4.1-4.1C54.2,72.5,52.2,70.9,50.1,70.9z"/>
	<polyline class="st1" points="101,74 101,71.1 99.1,71.1 99.1,78.6 101,78.6 101,75.5 103.8,75.5 103.8,78.6 105.8,78.6 
		105.8,71.1 103.8,71.1 103.8,74 101,74 	"/>
	<polyline class="st1" points="116.3,78.6 118.3,78.6 118.3,74 118.3,74 121.8,78.6 123.8,78.6 123.8,71.1 121.8,71.1 121.8,75.7 
		121.8,75.7 118.3,71.1 116.3,71.1 116.3,78.6 	"/>
	<path class="st1" d="M138.9,71.1v3.9c0,1-0.1,2-1.3,2c-1.2,0-1.3-1.1-1.3-2l0-3.9h-1.9v4.2c0,1,0,1.9,0.8,2.6
		c0.6,0.6,1.6,0.8,2.5,0.8c0.9,0,1.9-0.2,2.5-0.8c0.7-0.7,0.8-1.7,0.8-2.6l0-4.2H138.9"/>
	<polyline class="st0" points="154.3,72.8 156.5,72.8 156.5,71.1 150.1,71.1 150.1,72.8 152.3,72.8 152.3,78.6 154.3,78.6 
		154.3,72.8 	"/>
	<path class="st1" d="M170.7,71.5c-0.7-0.4-1.6-0.6-2.3-0.6c-1.5,0-2.6,1-2.6,2.5c0,1.4,0.8,1.8,2,2.1c0.4,0.1,1.2,0.3,1.2,0.9
		c0,0.5-0.5,0.8-0.9,0.8c-0.7,0-1.2-0.3-1.7-0.8l-0.8,1.6c0.8,0.5,1.7,0.9,2.6,0.9c0.8,0,1.5-0.2,2.1-0.7c0.6-0.5,0.8-1.3,0.8-2
		c0-1.2-0.8-1.7-1.8-2l-0.5-0.2c-0.3-0.1-0.9-0.3-0.9-0.7c0-0.4,0.5-0.6,0.8-0.6c0.5,0,0.9,0.2,1.3,0.5L170.7,71.5"/>
	<path class="st0" d="M174.9,73.6v1.2h-0.4v-2.7h1c0.6,0,0.9,0.2,0.9,0.8c0,0.5-0.3,0.7-0.7,0.7l0.8,1.2H176l-0.7-1.2H174.9
		 M174.9,73.3h0.5c0.3,0,0.6,0,0.6-0.4c0-0.3-0.3-0.4-0.6-0.4h-0.6V73.3z"/>
	<path class="st0" d="M175.4,75.8c-1.3,0-2.4-1-2.4-2.3c0-1.3,1.1-2.3,2.4-2.3c1.3,0,2.3,1,2.3,2.3
		C177.7,74.8,176.6,75.8,175.4,75.8 M173.5,73.4c0,1.1,0.8,1.9,1.9,1.9c1.1,0,1.9-0.8,1.9-1.9c0-1.1-0.8-1.9-1.9-1.9
		C174.3,71.5,173.5,72.3,173.5,73.4z"/>
</g>
</svg>
