<?xml version="1.0" encoding="UTF-8"?>
<svg xmlns="http://www.w3.org/2000/svg" version="1.1" viewBox="0 0 200 100">
  <defs>
    <style>
      .cls-1 {
        fill: #c31230;
      }

      .cls-2 {
        fill: #fff;
      }

      .cls-3 {
        fill: #261c02;
      }

      .cls-4 {
        fill: #dadada;
      }
    </style>
  </defs>
  <!-- Generator: Adobe Illustrator 28.6.0, SVG Export Plug-In . SVG Version: 1.2.0 Build 709)  -->
  <g>
    <g id="Layer_2">
      <path class="cls-2" d="M100.7.3c-27.8,0-50.2,22.5-50.2,50.2s22.5,50.2,50.2,50.2,50.2-22.5,50.2-50.2S128.5.3,100.7.3"/>
      <path class="cls-4" d="M72.5,70.6c.5-.2.5-.3.6-.4.2-.2.3-.4.6-.6.5-.7.8-.8,1.2-1.1.5-.3,1.7-1,2.3-1.2.6-.3.7-.9.8-1.3.6-2.5,1.3-4.8,1.5-5.3.2-.4.1-.5,0-.6,0,0-.3-.4-.7-.9-1.4-1.8-2.4-4.2-2.7-4.9-.2-.7-.4-.8-.7-1.1-.3-.3-.4-.1-1.3-.7-1.8-1.1-1.7-2.9-1.7-3.5,0-.6,0-1.6-.7-2.2-.7-.6-1.8-2.2-2.4-3.1-.6-.9-1.3-2.4-1.9-3.9-.4-1-.5-2.8,0-3.5.2-.5,0-.7-.3-1-.6-.5-1.6-1.3-2.1-2.1-.5-.8-.1-1.5,0-1.9.2-.4.3-.8.6-2.7.3-2,0-3.7-.4-4.6-.5-1-1.4-1.9-1.9-3-.2-.4-.2-.7-.2-1v.2c-6.9,8.4-11,19-11,30.7s2.8,18.6,7.6,26.1l.4-.2c6.2-3.8,12-5.8,12.3-6"/>
      <path class="cls-4" d="M121.1,62c-.3-.6-1.3-1-2-1-.2,0-.6,0-.4.7.2.7.5,1.7,1.5,5,1,3.4,2.5,9.9,2.9,12.5.1.9.3,1,.9,1h.6c.4,0,1.2,0,1.5.2.5.1.2.5-.4.5-.3,0-1.3.1-2,.2,0,0,1.7,7,2.7,11,1.8-1.1,3.6-2.4,5.3-3.8-1.2-2.9-2.5-6.2-3.6-8.9-1.8-4.3-6.2-15.9-6.9-17.3"/>
      <path class="cls-4" d="M110.9,92.4c-.2-1.2-1.1-9.1-1.2-9.6h0c-8.7,1.3-17.8,3.2-22.6,4.7-3,.9-8.6,2.9-10.2,3.6-1.4.6-1.4-.7-1.5-1.7-.1-2.2-.1-5.8.3-9.8.6-5.8.9-7.6,1-8.1,0-.4-.2-.3-.2-.3l-.4.2c-.5.2-.7.9-1.1,2.3-.5,1.9-2.3,10.4-2.7,12.7-.1.9-.3,2.1-.4,3.2,8.1,6,18.1,9.5,28.9,9.5s7.4-.4,11-1.3c0-.4-.1-.8-.2-1.1l-.6-4.5"/>
      <polyline class="cls-1" points="147.7 45.8 147.7 45.8 147.7 45.8"/>
      <path class="cls-4" d="M115.5,82.8c0-.2-.1-.5-.1-.7-.7,0-1.4.2-2.2.3-.3,0-.7,0-1,.1,0,0,1.4,8.4,1.7,9.8l.3,1.5c.1.6.2,1.2.3,1.9,0,.5.2,1,.2,1.5,1.2-.3,2.3-.7,3.4-1.2-.2-1-.4-1.9-.4-2.1l-.6-3.4c-.8-3.5-1.2-6.1-1.6-7.9"/>
      <path class="cls-4" d="M123.3,91.7c-.6-2.7-2.3-10.3-2.3-10.3-.9.1-1.9.2-3.1.4,0,0,1.8,8.1,2.3,10.5l.5,2.7c1-.4,2-.9,2.9-1.4l-.3-1.4c0-.1,0-.3-.1-.5"/>
      <path class="cls-4" d="M79,34.7c.3-.3.7-.5.9-.7.3-.3.2-.7-.3-.6-.2,0-.6.1-.9.2-.3,0-.7.2-.8.2-.7.2-1.1,1.1-1.1,1.4-.1.7.6.8,1,.5.4-.3.8-.7,1.3-1.1"/>
      <path class="cls-4" d="M83.5,33.3c-.5,0-1.7.8-2.3,1.3-.3.3-.5.4-.8.6-.4.3-.7.4-.8.5-.4.4.2.5.4.5.2,0,.7-.1,1.2-.4.5-.3,1.1-.8,2.1-1.1.9-.3,1.4-.3,1.9-.3.5,0,.3-.4,0-.8-.4-.3-1.1-.4-1.5-.4"/>
      <path class="cls-4" d="M88.6,42.3c-.3.4-.4,1.4.3,2.2.7.7,1.3.4,1.3.2,0-.2,0-.5-.2-.7-.1-.2-.4-.9-.1-1.8,0-.2-.8-.6-1.2,0"/>
      <path class="cls-4" d="M102.9,31.9c-.5-.3-1.1-.6-1.6-.6-.2,0-.5,0-.7,0-.8.3-1.4,1-1.5,1.1-.1.1,0,.5.3.3.4-.1.7-.3,1.1-.4.6-.2,1.4,0,1.8.2.7.4,1,.5,1.4.7.2,0,.8.2,1,0,.5-.3,0-.4-.3-.5-.5-.2-1.3-.8-1.7-1.1"/>
      <path class="cls-4" d="M106.2,31.7c.1-.4-.1-.9-.5-1.1-.5-.3-1.2-.3-2.3-.2-.3,0-.4.3-.2.4.3.1.8.4,1.1.7.3.2,1.1.6,1.3.6.2,0,.4.1.6-.4"/>
      <path class="cls-4" d="M87.9,56.5c0,.2-.2.7-.3,1.1-.1.4-.4.5-.8,0-1.6-1.7-2.9-6.9-2.9-7.5,0-.8-.8-.7-.9-.6-.1,0-.3.1-.7.3-.7.3-1.4,2-.7,3.7,2.6,6.5,6.7,7.7,8.2,7.4.6,0,.7-.5.3-1.1-.4-.6-1-2.2-1.4-3.4-.2-.6-.6-.1-.7,0"/>
      <path class="cls-4" d="M117.5,62.9v-.2s0,0,0,0v-.2c-.4-1.7-1.1-1.9-1.3-1.9h-.2c0,0,0,0,0,0h0s0,0,0,0h0s0,0,0,0h0s0,0,0,0h0c0,0,0,0,0,0h0c0,0,0,.1,0,.1v.2s0,.4,0,.4h0c0,0,0,.5,0,.5.5,1.8.9,3.6,1.2,5.2v.4c.2.7.4,3,1,8.1.1,1.7.2,3.5.3,5h.1c.3,0,.6,0,.8,0h.5c0,0,.2-.1.2-.1h0s.1,0,.1,0h0s.1,0,.1,0h0s0-.1,0-.1h0s0-.2,0-.2h0s0-.1,0-.1h0c0-.1,0-.5,0-.5h0c0,0,0-.5,0-.5-.4-3-.8-5.5-1.2-7.5-.8-4.7-1.4-7-1.7-8.3h0"/>
      <path class="cls-4" d="M79,31.2h0s.2,0,.2,0h.3s0,0,0,0c.1-1,0-2.4,0-3.5.3-3.2.8-6.9,1.9-9.3.9-1.9.8-1.3,1.2-2.2v-.2c0,0,0-.4,0-.4h0s-.2,0-.2,0h-.1s-.3.2-.3.2h0s-.2.2-.2.2h-.1c0,0-.2.2-.2.2h-.1c0,0-.3.3-.3.3h0s-.3.3-.3.3h0c0,.1-.2.4-.2.4h0c0,.1-.3.5-.3.5-2.7,4-2.6,8.1-2.6,9.4,0,.5,0,1.2-.3,1.5-.2.2-.5.4-.8.7-.2.2-.2.5-.2.7,0,.3,0,.9.1,1.2,0,.3.3.5.6.4h.4c.8-.2,1.5-.4,2.1-.5"/>
      <path class="cls-4" d="M107.7,46.3c.1-.8,0-1.2-.3-1.6-.3-.5-.7-.9-1.4-1.3-.6-.4-2-1.6-2.1-1.7l-.9-.8c-.2-.1-.5-.4-1.1-.7-1.6-.8-2.9-.2-2.9-.2,0,0-.3.2-.5.4-.2.2,0,.6,0,.8h0s0,0,0,0h0s0,0,0,0h0s0,0,0,0h0s0,0,0,0h0s0,0,0,0h0s0,0,0,0h.1s0,0,0,0h.2c1.1.1,2.1.8,2.8,1.4.7.6,1.4,1.7,2.3,2.3,1,.7,1.4.6,1.8.8.4.3.7.4.9,1.8v.4c0,0,0,0,0,0,0,0,.6-.5.7-1.2"/>
      <path class="cls-4" d="M88.3,38.2v.2c0,.7-.4,1.4-.8,1.8-.4.5-1.2.9-1.6,1.1-.4.2-1.1.3-1.2.4h-.3s-.2,0-.2,0h-.3s0,0,0,0h0c0,0,0,.2,0,.2l.2.3c0,0,.3.3.8.2.6-.1,1-.2,1.3-.4.4-.1.9-.3,1-.4l.3-.3h.1c0-.1,0-.2,0-.2h.1c0,0,.3-.3.3-.3,1.5-1.7,1.4-3,1.4-3.2,0-.3,0-.4-.2-.3-.2.2-.3.3-.5.5h-.2c0,.1,0,.1,0,.1h0s0,0,0,0h0"/>
      <path class="cls-4" d="M79.7,45.1l.4.5h0s0,0,0,0c.3.3.6.5.8.8l.3.2h0s.2,0,.2,0h.2c0,0,.2.1.2.1h.2s.1,0,.1,0h.2s.2,0,.2,0h.1s0,0,0,0h.1s.2-.1.2-.1h.1c0,0,.2-.2.2-.2h0c0,0,.3-.3.3-.3l.5-.5.4-.4h0c-.2,0-.5.2-.7,0,0,0-.3-.3-.6-.7-.2-.2-.4-.5-.6-.8-.1-.2-.2-.3-.3-.5-.1-.2-.2-.4-.2-.5h0c0-.2-.1-.4-.1-.4-.4,0-.9-.1-1.3-.3h0s0,.1,0,.1h0s0,.1,0,.1h0s0,.1,0,.1h0s0,.1,0,.1h0s0,.1,0,.1h0c0,0,0,.1,0,.1h0c0,.4-.3.6-.6.5-.6-.1-1.1-.4-1.3-.5-.2,0-.5,0-.3.4,0,.2.2.4.3.7h0c.1.3.2.5.4.7h0s0,0,0,0c.1.2.3.4.4.6h0"/>
      <path class="cls-4" d="M104.2,38.7c-.3,0-.4.2-.5.3h0c0,0,0,0,0,0h0s0,0,0,0h0s0,0,0,0h0c0,0,0,0,0,0h0c0,0,0,0,0,0h0c0,0,0,0,0,0h.1c0,0,0,0,0,0h.1c0,0,.2.1.2.1h.2c.3,0,.7-.2,1-.4h0s0,0,0,0h0s0,0,0,0h0s0,0,0,0h0s0-.1,0-.1l-.2-.5h0c0,0,0-.2,0-.2h0s0-.1,0-.1c-.2.2-.5.3-.8.4"/>
      <path class="cls-4" d="M92.5,43.7c0-.1-.3-.5-.4-.8,0-.3-.1-.4-.1-.7,0-.2-.1-.6,0-1,0-.3,0-.7.3-1.8.1-.7,0-1.5,0-2.2,0-.6,0-2,0-3.4h0s-.3,0-.3,0h0s-.2.1-.2.1h0s-.2.2-.2.2c-.2.2-.6,1.2-.5,2,0,.7.2,1.8.2,2.4,0,1.3-.6,3-.4,3.8v.2c0,0,.1,0,.1,0v.2c.1,0,.1,0,.1,0l.2.3h0c0,0,.2.3.2.3h0c0,0,.3.3.3.3h0c0,0,.3.3.3.3h0c0,0,.4.3.4.3h0s.4.2.4.2h0s0,0,0,0c-.1-.1-.1-.2-.2-.3,0-.2-.2-.4-.2-.5"/>
      <path class="cls-4" d="M96.4,74.6h-.1c0,0,0,0,0,0h0s0,0,0,0h-.2c0,0,0,.1,0,.1h-.2c0,.1,0,.1,0,.1-.2.1-.3.3-.5.5h0c0,0-.3.3-.3.3h0c0,0-.4.5-.4.5h0s0,0,0,0c.3,0,.7-.2.8-.2,0,0-.3.4-.4.7-.2.4-1.4,3.8-2.5,5.7-.4.8-.2.4-.4,1h.2s.2,0,.2,0c.2,0,.5,0,.8-.1h0s0,0,0,0h0s0,0,0,0h0s0,0,0,0h0s0,0,0,0h0c0,0,0,0,0,0h0c0,0,0,0,0,0h0s0,0,0,0h0s0,0,0,0h0s0-.1,0-.1h0s0-.1,0-.1h0s0-.1,0-.1h0s0-.1,0-.1h0s0,0,0,0h0c0-.1,0-.1,0-.1h0c0-.1,0-.2,0-.2h0s0,0,0,0l.2-.3h0s.1-.2.1-.2h0c0-.4.2-.6.3-.8,1.4-3.2,1.8-4.8,1.9-5.3.1-.6,0-.9-.4-.7"/>
      <path class="cls-4" d="M104.2,77.5c1.1.7,1.5.9,2.7,1.4.4.2,1.4,0,1.8-.7h0s0,0,0,0h0s0,0,0,0h0s0,0,0,0h0s0,0,0,0h-.1c-.2-.2-.4-.4-1.1-.9-3-2.2-5.2-3.1-5.9-3.4-.3,0-.6.1-.4.4.2.2.3.5.5.8h0c1,.9,2.3,2,2.9,2.4"/>
      <path class="cls-4" d="M87,71.1c-1.4.8-.6,2.4-.4,3.5.3,1,.6,2.6,1.8,2.8.9.1,3.1-.5,4.2-.7.2-.3.3-.5.4-.7v-.2c.3-.5,0-.4-.2-.4-.2,0-.6.1-2,.4-1.4.3-2,0-2.4-.3-.4-.3-.3-1.1-.4-1.9,0-.8-.2-1.2-.2-1.9v-.3s0-.2,0-.2h0c0,0,0-.2,0-.2h0c0,0,0-.2,0-.2h0c-.3,0-.5.1-.8.2"/>
      <path class="cls-4" d="M84.7,68.1l1.4,1.1c0,0,1.4.8,2.2,1.2h0s.2-.1.2-.1c1.1-.4,2.2-.5,2.5-.6.4,0,.2-.3,0-.5-.1-.1-.6-.3-1.5-.7-4-1.8-6.4-4-6.7-4.3-.3-.3-.5-.4-.8.5v.2c0,0,0,0,0,0v.2s0,.1,0,.1v.3s0,.2,0,.2h0c0,.1,0,.2,0,.2h0c.7.7,1.8,1.4,2,1.5l.6.5"/>
      <path class="cls-4" d="M80.4,76c.4.7,1.5,2.2,1.5,2.3,0,0,.3.3.6.7.3.3.5.6.6.7l.7.8.4.5c.4.3,1.8,1.6,2,1.7l1,.6c1.2.2,1.8-.5,2-.7.1-.2.1-.3,0-.6h0c0,0,0,0,0,0h0c0,.1,0,.1,0,.1h-.1c0,0,0,0,0,0h-.2s0,0,0,0h-.2c-1.3-.9-2.3-2.1-3.8-3.8-1.7-1.9-4.2-7.1-4.4-7.4-.1-.3-.4-.2-.5-.1-.1,0-.4.2-.7.4-.2.1-.3.5-.4,1.7h0c.3.7,1.3,2.5,1.6,3.1"/>
      <path class="cls-4" d="M69.8,79.9c.1-.4.2-.8.3-1.1.2-.6.3-1.1.3-1.2.2-.7,0-1.4-.4-1.5h-.2s0,0,0,0c-.1,0-.3,0-.5-.1h0s-.1,0-.1,0c-.2,0-.4,0-.6-.1-.8,1.3-1.7,5.9-2.1,8,0,.2-.2.6-.3,1.1.6.6,1.2,1.2,1.9,1.8.5-1.8,1-3.8,1.4-5.4.1-.5.3-.9.4-1.3"/>
      <path class="cls-3" d="M141.7,62.8c-1.5-.3-5-1-9.6-1.5-4.7-.4-8.5-.8-9.1-.9-.5,0-.7-.5-1.1-.7-1.6-.8-4.6-1.5-6.5-2.2-.5-.2-.8-.6-1.4-1.4-.4-.5-.7-.7-1-1-.2-.2-.6-.6-.8-.6-.1,0-.2-.3,0-.9.1-.5.4-2.5.4-4.9,0-.6.3-1,.6-1.2.2,0,1.2-.5,1.1-1.6,0-1-.4-2.5.4-4.5.8-1.9,1.8-5.4,1.9-7.7.1-2.4-.5-4-1.4-4.9-.4-.3-.8-.8-.5-1.9.4-1.1,1.1-4.3.4-6.3-.2-.5-.3-.5-.4-.5-.1,0-.6-.4-.8-1.3-.2-1.1-1.1-5.1-4.1-9.1-1.6-2.1-3.4-3.4-4-3.9-.5-.3-1.3-.9-2.3-1.4-1.4-.8-2.6-1.3-4.8-2.1-.2,0-.7-.2-1.3-.4h0s-1.9-.5-4-.8c-.4,0-.8,0-1.4-.1-2.1-.1-2.9,0-4.1.1h-.4c-.2,0-.5.1-.7.1-3.3.6-6.7,2.1-8.4,2.9-.9.4-1.8.9-2.5,1.3h0c-.2.2-.5.3-.8.5-.5.3-.9.5-1.3.7-1.3.6-2.5,1-3.4,1.3h-.4c-.6.4-1,.6-1.1,1-.1.7.7,1.4.4,2.6-.8,2.9-4,5.7-4.5,6-1.5.9-1.4,1.6-1.5,1.9,0,.3,0,.6.2,1,.5,1.1,1.4,2,1.9,3,.5,1,.7,2.7.4,4.6-.3,1.9-.4,2.3-.6,2.7-.2.4-.5,1,0,1.9.5.8,1.5,1.7,2.1,2.1.3.3.5.5.3,1-.4.8-.3,2.5,0,3.5.6,1.5,1.3,3,1.9,3.9.6.9,1.8,2.5,2.4,3.1.7.6.8,1.6.7,2.2,0,.6,0,2.4,1.7,3.5.9.5,1,.4,1.3.7.3.3.5.4.7,1.1.2.7,1.2,3.2,2.7,4.9.4.5.6.9.7.9,0,0,.1.2,0,.6-.2.4-.9,2.8-1.5,5.3-.1.5-.3,1-.8,1.3-.6.3-1.8,1-2.3,1.2-.5.3-.7.4-1.2,1.1-.2.3-.4.5-.6.6,0,.1-.1.2-.6.4-.4.2-6.2,2.2-12.3,6l-.4.2c.4.6.7,1.1,1.1,1.7,1.4-.7,4.7-2.4,5.2-2.6.4-.2.9-.3,1.3-.3.2,0,.5,0,.6,0,.3,0,.7.2,1.2.3h.1s0,0,0,0c.2,0,.4,0,.5.1h0s.2,0,.2,0c.4.1.6.9.4,1.5,0,.1-.2.6-.3,1.2,0,.3-.2.7-.3,1.1-.1.4-.2.8-.4,1.3-.5,1.6-1,3.6-1.4,5.4,1.2,1.1,2.5,2.2,3.9,3.2.2-1.2.3-2.4.4-3.2.3-2.3,2.1-10.8,2.7-12.7.4-1.4.6-2,1.1-2.3l.4-.2c0,0,.3,0,.2.3,0,.4-.5,2.2-1,8.1-.4,4.1-.4,7.7-.3,9.8,0,.9,0,2.2,1.5,1.7,1.6-.7,7.3-2.7,10.2-3.6,4.8-1.5,13.9-3.5,22.6-4.8l2.4-.3s1.4,8.4,1.7,9.8l.3,1.5-.3-1.5c-.2-1.5-1.7-9.8-1.7-9.8.3,0,.7,0,1-.1.8,0,1.5-.2,2.2-.3l2.5-.3c1.2-.2,2.2-.3,3.1-.4h0s1.6,7.6,2.3,10.3c0,.2,0,.3.1.5l.3,1.4h0s-.3-1.4-.3-1.4c-.5-2.2-2.4-10.8-2.4-10.8l2.6-.3c.8,0,1.8-.2,2-.2.6,0,.9-.4.4-.5-.3-.1-1.1-.2-1.5-.2h-.6c-.6,0-.8-.1-.9-1-.4-2.6-1.8-9.1-2.9-12.5-1-3.3-1.3-4.2-1.5-5-.2-.6.2-.7.4-.7.7,0,1.8.4,2,1,.6,1.4,5.1,13,6.9,17.3,1.1,2.7,2.4,6,3.6,8.9.8-.6,1.6-1.3,2.3-2-2.3-5-7.4-16.5-10.1-22.2,0-.2-.2-.5-.3-.7v-.2c0-.4.5-.4.7-.4.9,0,9.6.7,11.9.9,1.6.1,3.1.4,4.1.6.2,0,.5,0,.6.1.2,0,.4,0,.5.1.8.2,2.1.7,3.4,1.4.5.3,1.1.7,1.7,1.2.2-.5.4-1.1.6-1.6-.5-.3-1-.6-1.5-.9-1.4-.8-2.6-1.2-4-1.5M71.4,34.2c-.2.1-.4.1-.6-.2-.4-.8-.7-2.2-.8-3.1-.1-.9-.3-3.6-.2-5.1,0-1.5-.2-2.3-.8-3-.5-.7-.9-1.2-1-1.4-.2-.3,0-.5.3-.7.2-.1.5,0,.7,0,.5,0,2-.7,3.2-1.6,1.2-.9,3-2.7,4.3-3.4,1.3-.7,1.8-1,3.3-1.2.3,0,.7.1.2.4-.4.3-1.9.8-3.5,3.3-1,1.5-1.2,2.4-1.5,3.1-.3.7-.6.9-1.1,1.4-.2.3-.8.8-.9,1.6-.2.8-.9,3.7-.5,8,0,.5.3,1.2-.2,1.4-.3.1-.5.3-.8.4ZM73.4,40c-.3-.2-1.3-1.6-1.8-3.1,0-.2-.1-.6.2-.7.2,0,.5-.3.7-.3.2,0,.5-.2.6.4,0,.6.1,1.2.7,2.9.1.3.1.4.2.5,0,.3-.3.6-.6.4ZM75.5,34.8c0,0-.8,0-1.2.2-.2,0-.5.1-.5,0,0-.3-.1-.6-.1-.7v-.2c.4,0,1.5-.2,1.6-.3.1,0,.2,0,.2.3,0,.2,0,.4.1.5,0,0,0,.3-.2.3ZM75.9,31.2c0-.3-.2-.9-.1-1.2,0-.1,0-.5.2-.7.2-.3.6-.5.8-.7.4-.3.3-1.1.3-1.5,0-1.3,0-5.4,2.6-9.4l.3-.4h0c0-.1.2-.4.2-.4h0c0-.1.3-.4.3-.4h0s.3-.3.3-.3h.1c0,0,.2-.2.2-.2h.1c0,0,.2-.2.2-.2h0s.3-.2.3-.2h.1s.2-.1.2-.1h0c.5-.2,1.1-.2,1.7-.3,1.6-.3,3.5,0,4.4.3.8.2,1.1.4,1.4.2.3-.2.9-1,1.2-1.3h0c0-.1,0-.2,0-.2h0c0,0,0-.1,0-.1h0c0,0,0-.1,0-.1h0c0-.1-.3-.4-.3-.4-.3-.2-3.4-2.5-7.6-2.6-4.1-.1-7.4,1.3-8.3,1.7-.2,0-.3,0-.4,0-.1,0-.5-.1-.3-.4.1-.3.5-.7.9-1,.4-.4,2.3-2.2,4.3-3,.4-.2.4-.2.7-.3.3-.1.5-.8-.2-.8-.7,0-.9,0-1.3.1-.3,0-.5-.1-.3-.4.2-.3.6-.6,1.4-1,1.7-.9,4.8-1.9,6.2-2.2,1.9-.4,2.1-.4,3.4-.5,1.2,0,2.1,0,2.6,0,3.8.1,8.1,1.4,11.5,3.6,3.2,2.3,7.8,6.3,8.7,15.9.1,1.2,0,1.8,0,2.1,0,.3-.4.8-.7.2-1-2-2.4-4.6-4.1-7.1l-.3-.2h0s0,0,0,0h0s0,0,0,0h0c0,0,0,.1,0,.1v.2c0,.2.6,2.8.6,3.2,0,.4-.2,1.3,1.2,2.9.6.7,1,1.3,1.3,2.2.2,1,.3,1.4.3,1.5,0,.1.1.4-.4.4-.5,0-2.3-.1-3.1-.1-.8,0-6.2.5-8.2,1-2,.4-3.1.9-4.1,2-.2.3-.6.5-.7.5,0,0-.3,0-.8,0-.5,0-1.4,0-1.9.3-.5.2-.8.4-1.4.2-.8-.3-2.2-1.8-5.8-1.6-2.2.1-3.3.2-4.7.4h-.3s-.2,0-.2,0h0c-.6.1-1.3.2-2.1.4h-.4c-.3.1-.6,0-.6-.4ZM108.8,30.3l-.3.3h-1.3c0,.1-.3,0-.3,0v-.6c0,0,0-.2.1-.2.1,0,1.1-.1,1.5-.1l.2.2v.5ZM104.3,31.4c-.3-.2-.8-.5-1.1-.7-.2,0-.1-.3.2-.4,1.1-.2,1.8-.2,2.3.2.4.2.7.7.5,1.1-.1.5-.3.4-.6.4-.2,0-1-.4-1.3-.6ZM104.9,33.5c-.2.1-.8,0-1,0-.5-.2-.8-.3-1.4-.7-.4-.3-1.2-.4-1.8-.2-.4.1-.8.2-1.1.4-.4.1-.4-.2-.3-.3,0-.1.7-.8,1.5-1.1.2,0,.5,0,.7,0,.5,0,1.1.2,1.6.6.5.3,1.2.9,1.7,1.1.2,0,.7.2.3.5ZM89.3,50.3c-1.9.7-2.4,0-2.6-.2-.2-.2,0-.4.2-.5.4-.2,1-.7,1.4-1,.3-.3.9-1.3,1.3-1.7.2-.2,1.3-.5,2.1-.2,1,.5,2.5.5,3.4.4.9-.1,1.3-.8,1.5-1.2.2-.4.7-.6,1-.7.7-.3,1.7-1.3,1.8-1.4,0-.1.4-.3.9,0,.9.5,1.3,1.2,2.1,2.1.8.9,1.8,1.1,2,1.1.3,0,.4.3.5.4,0,0-.2.4-.4.5-.2.1-.3.4-1.8.4-7.7.2-11.1,1-13.4,1.8ZM99.8,51.3c-.5.2-1.8.7-2.5.9-.7.1-2.8.6-3.2.6-.5,0-1.1-.1-1.6-.5-.1,0-.3-.4.1-.4.7-.1,1.9-.7,6.3-.9.5,0,.7,0,.8,0,.1,0,.5.1,0,.4ZM89.7,60.9c-1.5.2-5.6-.9-8.2-7.4-.7-1.7,0-3.3.7-3.7.4-.2.6-.3.7-.3.1,0,.8-.1.9.6,0,.6,1.3,5.8,2.9,7.5.4.4.7.4.8,0,0-.4.3-.9.3-1.1,0-.1.4-.6.7,0,.5,1.2,1.1,2.7,1.4,3.4.4.6.3,1-.3,1.1ZM90,43.9c.1.2.2.6.2.7,0,.2-.6.5-1.3-.2-.7-.7-.5-1.7-.3-2.2.4-.7,1.3-.3,1.2,0-.3.9,0,1.6.1,1.8ZM85.1,34.4c-.5,0-1,0-1.9.3-1,.4-1.6.8-2.1,1.1-.5.3-1,.4-1.2.4-.2,0-.8,0-.4-.5.1-.1.4-.2.8-.5.3-.2.5-.4.8-.6.6-.5,1.8-1.2,2.3-1.3.4,0,1.1,0,1.5.4.4.3.6.8,0,.8ZM76.7,35.3c0-.3.4-1.2,1.1-1.4.1,0,.5-.2.8-.2.4,0,.7-.2.9-.2.5,0,.6.3.3.6-.2.2-.6.4-.9.7-.5.4-.9.8-1.3,1.1-.4.4-1.1.2-1-.5ZM79.2,44.5h0s0,0,0,0c-.1-.2-.3-.4-.4-.6h0c-.1-.3-.2-.6-.3-.8-.2-.4.1-.5.3-.4.2,0,.7.4,1.3.5.4,0,.6,0,.6-.3h0c0-.1,0-.2,0-.2h0c0,0,0-.1,0-.1h0s0-.1,0-.1h0s0-.1,0-.1h0s0-.1,0-.1h0s0-.1,0-.1h-.2c-.5-.3-1.9-.8-3-2.7-.2-.3,0-.5,0-.6.1,0,.5-.3.7-.4.2-.1.4,0,.7,0,.2.2.8.6,1.2.5.4,0,.4-.2.5-.3.3-.4,1-1.9,3-1.9.8,0,1.6,0,1.9,0,.3,0,1.2-.1,1.8-.5.6-.4.8-.1.5.3v.2c-.1,0-.2,0-.2,0v.2c-.2.2-.3.4,0,.6.4.4.5.5.6.5h.2c0,0,0,0,0,0h0s.2-.1.2-.1c.2-.2.3-.3.5-.5.1-.2.3,0,.2.3,0,.2,0,1.6-1.4,3.2l-.3.3h-.1c0,0,0,.1,0,.1h-.1c0,.1-.1.2-.1.2h-.1c0,.1,0,.2,0,.2v.2c-.1,0-.2,0-.2,0l-.2.2-.2.3c-.4.9-.4,1.2-.4,1.5,0,.3-.3.4-.6.6-.2,0-.6.3-1.1.7h0l-.4.4-.5.5-.3.2h0c0,0-.2.2-.2.2h-.1c0,0-.2.1-.2.1h-.1s0,0,0,0h-.1s-.2,0-.2,0h-.2s-.1,0-.1,0h-.2s-.2,0-.2,0h-.2c0,0-.2-.2-.2-.2h0s-.3-.2-.3-.2c-.3-.2-.5-.5-.8-.8h0s0,0,0,0l-.4-.5h0c-.1-.2-.3-.4-.4-.6ZM96.8,75.3c0,.5-.5,2-1.9,5.3,0,.2-.2.4-.3.6h0c0,.1-.1.4-.1.4h0s-.2.3-.2.3h0s0,0,0,0h0c0,.1,0,.2,0,.2h0s0,0,0,0h0c0,.1,0,.1,0,.1h0s0,0,0,0h0s0,0,0,0h0c0,.1,0,.1,0,.1h0c0,.1,0,.1,0,.1h0c0,0,0,.1,0,.1h0c0,0,0,0,0,0h0s0,0,0,0h0s0,0,0,0h0s0,0,0,0h0s0,0,0,0h0s0,0,0,0h0s0,0,0,0h0c-.3,0-.6.1-.8.2h-.2s-.2,0-.2,0c-2.1.4-7.8,1.3-10.5,1.9-1.8.4-1.6-.5-2-2.1-.2-.7-.8-6.6-.5-10.4.1-1.2.2-1.6.4-1.7.2-.1.6-.4.7-.4.1,0,.4-.1.5.1.1.2,2.7,5.5,4.4,7.4,1.5,1.7,2.5,2.9,3.8,3.7h.2c0,.1,0,.1,0,.1h0s0,0,0,0h0s.1,0,.1,0h0s0-.1,0-.1h0c0-.2,0-.5-.2-.7-.3-.3-1.4-1.5-2.9-3.6-2-2.8-3.3-6.9-3.6-8.2-.2-.9-.4-2.2-.3-3.3h0s0-.1,0-.1h0c0-.1,0-.3,0-.3v-.3s0-.1,0-.1v-.2s0,0,0,0v-.2c.4-.9.6-.8.9-.5.3.3,2.7,2.5,6.7,4.3.9.4,1.4.6,1.5.7.1.1.3.4,0,.5-.4,0-1.4.1-2.5.6h-.2c-.4.3-.6.4-.7.6h0c0,.1,0,.2,0,.2h0c0,.1,0,.2,0,.2v.2s0,.3,0,.3c0,.6.2,1,.2,1.9,0,.8,0,1.5.4,1.9.4.3.9.5,2.4.3,1.4-.3,1.8-.4,2-.4.2,0,.5,0,.3.4v.2c-.4.6-1.2,1.8-1.4,2.7-.3.9-.3,1.2-.4,1.3,0,.2,0,.5.4.1.3-.3.8-1.6,2.3-3.3.2-.2.4-.4.5-.6h0s.4-.4.4-.4h0c0,0,.3-.4.3-.4h0c.2-.3.4-.4.5-.5h0s.2-.1.2-.1h0s.2-.1.2-.1h0s0,0,0,0h.1c.4-.3.5,0,.4.6ZM99.1,82.5c-.2,0-1.2.2-1.4.2l-.2-.2c0-.1.7-1,1.1-2.5,0-.3.2-.4.3,0,0,.3.4,1.6.4,2,0,0,0,.5-.3.6ZM99.5,70.1c-.6.2-1.4-.5-1.9-.9-1.3-.9-2.5-1.7-3.5-2.9-1.5-1.8-1.4-3.1-.9-5.5.3-1.7-.2-3.3-.4-3.5-.1-.2,0-.5.4-.3.4.2.7.7,1.1,1.1.4.4.4.1.5-.2,0-.7,0-1.2-.2-1.6h0c0-.2-.2-.7-.6-.8-.5-.1-1-.1-1.3-.3v-.4c.1-.3.5-.6.9-.7.5-.2.9-.4,1.6-.4,4.1,0,5.2-.9,6.8-1.6.3-.1.5-.2.8-.1.3,0,1,.4,1.2.7.2.3.2,1.7.6,2.6.3,1,.9,0,1.1-.5.1-.4.2-1.4.2-1.7,0-.3,0-1.3.4-1.7.7-.7.8-1.5.9-1.9,0-.3.1-1.1,0-2.3v-.4c-.3-1.4-.6-1.5-.9-1.8-.4-.3-.8-.1-1.8-.8-.9-.6-1.7-1.6-2.3-2.3-.7-.6-1.7-1.3-2.8-1.4h-.2s0,0,0,0h-.1s0,0,0,0h0s0,0,0,0h0s0,0,0,0h0s0,0,0,0h0s0,0,0,0h0s0,.1,0,.1c0,.3.2.6.3.7,0,.2.2.7,0,1.1-.3.3-2.1,2-3.8,1.9-.8,0-1.4-.2-2-.4h0s0,0,0,0l-.4-.2h0s-.4-.3-.4-.3h0c0,0-.3-.3-.3-.3h0c0,0-.3-.3-.3-.3h0c0,0-.2-.3-.2-.3h0c0,0-.2-.3-.2-.3h0s-.1-.2-.1-.2h0s0-.2,0-.2c-.2-.8.4-2.5.4-3.8,0-.6-.1-1.6-.2-2.4,0-.7.3-1.7.5-2l.2-.2h0s.2-.2.2-.2h0s.3-.1.3-.1h0c.2,0,.3-.1.5-.1.6-.1,1.3.2,1.5.7.6,1.8,1.3,2.1,1.6,2.2.2.1.6-.2.8-.4.1-.1.5-.6.3-.8-.2-.3-.4-.5-.4-.7-.1-.3.3-.3.4-.3,1.3.6,1.9.7,3.2.6,1.3,0,3.2-.9,3.5-.9.2,0,.6.1.7.3h0c.1.3.3.6.4.6h0c.2,0,.6,0,.9,0,.3,0,.9,0,.9.5,0,1.6-1.3,2.5-1.4,2.6h0c0,.1,0,.2,0,.2h0c0,0,0,.2,0,.2l.2.5h0c0,0,0,.1,0,.1h0c0,0,0,0,0,0h0s0,0,0,0h.1c1-.7,1.5-1.4,1.9-2.3.5-.9.7-4,.7-4.5,0-.5.2-.8.4-1,.2-.2,1.5-1,1.6-1,.2,0,.4,0,.6.4.2.5.6,3.3.7,3.7,0,.5.3.4.5.3.3-.2.4-.4.7-.8.2-.4,0-1-.2-1.2-.2-.3-.6-.7-.4-1.1.4-.9,1.1-.9,1.3-.9.2,0,.9.4,1.1,2.4.2,3-1,6.1-1.3,6.9-.6,1.8-.8,2.9-.9,3.5,0,.6-.5.5-.6.4l-.3-.6c0,0-.2,0-.3.5-.1.5-.5,1.1-.7,1.5-.1.2-.1.6,0,.8,0,.5.3,2.5.2,4.7-.1,4-1.5,6.4-2.5,7.7-2.3,3.1-4.5,4.3-4.8,4.5-.3.2-.9.2-1.1.1-.2,0-.4-.3-.7-.5h0c-.3-.2-.3.2-.3.3,0,.1.2.5.3.9.2.7-.2,1.7-.7,2.4-.6,1-1.3,2.1-1.2,3.3v.2ZM119.2,71.2c.3,2,.7,4.5,1.2,7.5v.4c0,0,0,0,0,0v.3s0,0,0,0h0c0,.1,0,.2,0,.2h0s0,.2,0,.2h0s0,.1,0,.1h0s-.1,0-.1,0h0s-.1,0-.1,0h0s-.2,0-.2,0h-.5c-.2,0-.5.1-.8.2-3.1.3-9.1.9-13.9,1.5h-.3c-.4,0-.6,0-.6-.3,0-.3-.6-3.7-2.3-6.5-.2-.3-.3-.5-.5-.8-.2-.3,0-.5.4-.4.8.3,2.9,1.2,5.9,3.4.8.6,1,.7,1.1.9h.1c0,0,0,0,0,0h0s0,0,0,0h0s0,0,0,0h0s0-.3,0-.3c-.2-.5-1.2-1.6-3.8-4-.4-.3-.4-.5,0-.5.4,0,1.4,0,2,0,.6,0,1.8,0,1.6-1.7-.2-1.3-.3-2.6-.4-2.9,0-.4,0-1.1-1-1.2-.9-.1-2.4.1-3.8.6-.4.1-.5,0-.2-.3.3-.2,2.7-1.8,4.7-4.1,2.2-2.6,3.2-4.5,3.8-6.2.1-.3.2-.2.4-.1.1,0,1,.8,1.3,2.4.3,1.7.9,4-.2,10.1-.6,3.3-1.2,5.3-1.4,5.8-.2.5.1.7.4.3.7-1,1.7-3.7,2.5-6.8.8-3.1,1.1-5.7,1.2-7.4v-.4s0,0,0,0v-.4s0-.2,0-.2h0s0-.1,0-.1h0s0,0,0,0h0s0,0,0,0h0s0,0,0,0h0s0,0,0,0h0s.2,0,.2,0c.2,0,.9.3,1.2,1.9v.2c0,0,0,0,0,0v.2s0,0,0,0c.3,1.3.9,3.6,1.7,8.3Z"/>
      <polyline class="cls-2" points="88.6 70.3 88.4 70.4 88.6 70.3"/>
      <path class="cls-2" d="M94.7,76.8c.2-.4.5-.7.4-.7-.1,0-.5.1-.8.2h0c-.2.1-.3.3-.5.5-1.4,1.6-2,2.9-2.3,3.3-.3.3-.4,0-.4-.1,0-.2,0-.4.4-1.3.3-.8,1-2.1,1.3-2.7-.1.2-.2.4-.4.7-1.1.2-3.3.8-4.2.7-1.2-.2-1.6-1.8-1.8-2.8-.1-1.1-1-2.7.4-3.5.3,0,.5-.2.8-.2h0c0-.1.3-.3.7-.5h0c-.8-.4-2.1-1.1-2.2-1.2l-1.4-1.1-.6-.5h0s0,0,0,0c-.2-.1-1.3-.9-2-1.5,0,1.1.1,2.4.3,3.3.4,1.3,1.7,5.4,3.6,8.2,1.5,2.1,2.7,3.3,2.9,3.6.2.2.3.5.2.7h0c0,.2,0,.3,0,.5-.1.2-.7.9-2,.7l-1-.6c-.1-.1-1.6-1.4-2-1.7l-.4-.5-.7-.8c0,0-.3-.3-.6-.7-.3-.3-.5-.6-.6-.7,0,0-1.2-1.6-1.5-2.3-.3-.6-1.3-2.5-1.6-3.1h0c-.3,3.7.3,9.7.5,10.3.4,1.6.3,2.5,2,2.1,2.7-.5,8.4-1.5,10.5-1.9.2-.6,0-.2.4-1,1.1-1.9,2.3-5.3,2.5-5.7"/>
      <line class="cls-2" x1="88.4" y1="70.4" x2="88.4" y2="70.4"/>
      <path class="cls-2" d="M99,79.9c0-.4-.3-.2-.3,0-.4,1.5-1,2.4-1.1,2.5l.2.2c.1,0,1.1-.1,1.4-.2.4,0,.3-.5.3-.6,0-.5-.4-1.8-.4-2"/>
      <path class="cls-2" d="M72.4,32.4c-.4-4.3.3-7.1.5-8,.2-.8.7-1.4.9-1.6.5-.6.8-.7,1.1-1.4.3-.7.5-1.6,1.5-3.1,1.7-2.5,3.1-3,3.5-3.3.4-.3,0-.5-.2-.4-1.5.2-2,.5-3.3,1.2-1.3.7-3.1,2.5-4.3,3.4-1.2.9-2.7,1.5-3.2,1.6-.2,0-.5,0-.7,0-.3.2-.4.4-.3.7.1.2.5.7,1,1.4.5.7.8,1.5.8,3,0,1.5.1,4.2.2,5.1.1.9.4,2.3.8,3.1.2.3.4.3.6.2.2,0,.5-.2.8-.4.5-.2.3-.9.2-1.4"/>
      <path class="cls-2" d="M73.8,39.1c-.6-1.6-.7-2.3-.7-2.9,0-.6-.4-.5-.6-.4-.2,0-.5.2-.7.3-.3.1-.2.5-.2.7.5,1.5,1.5,2.9,1.8,3.1.2.2.6,0,.6-.4,0-.1,0-.2-.2-.5"/>
      <path class="cls-2" d="M86.8,37.4c-.3.2-.6.2-.7.3-.2,0-.4.3-.3.6,0,.3.2.4.2.7,0,.3,0,.7-.4,1.2-.3.5-.8.9-1,1-.3.2-.4.2-.6.3,0,0,0,0,0,.3h0s.3,0,.3,0h.2c0,0,.3,0,.3,0,0,0,.7-.1,1.2-.4.4-.2,1.2-.6,1.6-1.1.3-.4.7-1.1.7-1.8v-.2s0,0,0,0h0s-.2,0-.2,0c-.1,0-.2-.2-.6-.5-.2-.2-.2-.4,0-.6h0c-.1.1-.3.3-.6.5"/>
      <path class="cls-2" d="M100.8,66.5c.4-.7.8-1.6.7-2.4,0-.4-.3-.8-.3-.9,0-.1,0-.5.3-.4h0s0-.2-.3-1.1c-.3-.9-.9-1.9-1-2.1-.1-.2-.4-.7-.5-.8,0,0-.1-.4-.2-.9-.2-1.1,0-1.8,0-1.9v-.3s0-.1,0-.1h-.3c-.3.4-.3.5-.3.5v.3c0,.3,0,.6-.2.9-.2.3-.3.3-.5.3-.2,0-.4-.2-.4-.6,0-.4-.1-.6-.2-.7l-.4-.2c0,0-.1,0-.6.2-.5.1-1.2.2-1.3.2h-.5c0,.4.2.9.2,1.6,0,.3-.1.6-.5.2-.4-.4-.7-1-1.1-1.1-.4-.2-.5,0-.4.3.1.2.7,1.8.4,3.5-.4,2.4-.6,3.6.9,5.5,1,1.2,2.2,2,3.5,2.9.6.4,1.3,1.1,1.9.9v-.2c0-1.2.6-2.3,1.2-3.3"/>
      <path class="cls-2" d="M104.7,35.1h-.3s-.2.2-.2.2c0,0,0,.3,0,.4.1.2.3.5.3.8,0,.1,0,.5-.1.8-.1.3-.3.7-.4.8,0,0-.4.4-.4.7v.2s0,0,0,0h0s0,0,0,0c0,0,.2-.2.5-.3.4-.1.6-.3.8-.4h0c0,0,0,0,0,0,.1,0,1.3-1.1,1.4-2.6,0-.6-.5-.5-.9-.5-.2,0-.7,0-.9,0h0s0,0,0,0h0"/>
      <path class="cls-2" d="M104.5,48.1c.2-.1.4-.4.4-.5,0,0-.2-.4-.5-.4-.3,0-1.2-.2-2-1.1-.8-.9-1.2-1.6-2.1-2.1-.5-.3-.8-.1-.9,0,0,0-1.1,1.1-1.8,1.4-.3.1-.8.3-1,.7-.2.4-.6,1.1-1.5,1.2-.9.1-2.5,0-3.4-.4-.8-.4-1.9,0-2.1.2-.4.4-1,1.4-1.3,1.7-.3.3-.9.8-1.4,1-.2,0-.4.3-.2.5.2.2.7.9,2.6.2,2.3-.8,5.7-1.6,13.4-1.8,1.5,0,1.6-.3,1.8-.4"/>
      <path class="cls-2" d="M98.9,50.9c-4.4.2-5.6.8-6.3.9-.4,0-.3.4-.1.4.5.4,1.2.5,1.6.5.4,0,2.5-.5,3.2-.6.7-.1,2-.6,2.5-.9.5-.2,0-.4,0-.4-.1,0-.3,0-.8,0"/>
      <path class="cls-2" d="M91.4,13.9c.7-.6,2.5-2.3,4-2.3,1.5,0,5.9.6,8.4,2.3,2.5,1.7,3.2,3.4,3.5,3.9h0l.3.2c1.7,2.5,3.1,5.1,4.1,7.1.3.6.6,0,.7-.2,0-.3.1-.9,0-2.1-.9-9.7-5.5-13.6-8.7-15.9-3.4-2.2-7.7-3.5-11.5-3.6-.4,0-1.4,0-2.6,0-1.3,0-1.5.1-3.4.5-1.5.3-4.5,1.3-6.2,2.2-.8.4-1.2.8-1.4,1-.2.3,0,.5.3.4.3,0,.6-.1,1.3-.1.6,0,.5.7.2.8-.2,0-.3.1-.7.3-1.9.8-3.9,2.7-4.3,3-.4.3-.7.8-.9,1-.1.3.2.4.3.4.1,0,.2,0,.4,0,.9-.3,4.2-1.8,8.3-1.7,4.2.1,7.3,2.4,7.6,2.6l.3.3h0s0,0,0,0"/>
      <path class="cls-2" d="M75.6,33.9c0-.2-.1-.3-.2-.3-.1,0-1.2.2-1.5.3v.2c-.1,0,0,.4,0,.7,0,.2.3.1.5,0,.4,0,1.1-.2,1.2-.2.2,0,.2-.2.2-.3,0,0,0-.3-.1-.5"/>
      <path class="cls-2" d="M108.6,29.6c-.4,0-1.4.1-1.5.1-.2,0-.2.1-.2.2v.6c0,0,.4.2.4.2h1.3c0-.1.3-.4.3-.4v-.5l-.2-.2"/>
      <path class="cls-2" d="M68.6,75.8c.2,0,.4,0,.6.1-.4-.1-.9-.2-1.2-.3-.1,0-.3,0-.6,0-.4,0-.9,0-1.3.3-.5.3-3.8,1.9-5.2,2.6,1.6,2.3,3.3,4.4,5.3,6.4.1-.5.2-.9.3-1.1.4-2.1,1.3-6.6,2.1-8"/>
      <path class="cls-2" d="M141,64.2c-.2,0-.4,0-.6-.1-1-.2-2.6-.4-4.1-.6-2.4-.2-11-.8-11.9-.9-.2,0-.7,0-.7.4v.2c0,.2.2.5.3.7,2.7,5.8,7.8,17.2,10.1,22.2,5.6-5.3,10-11.9,12.7-19.3-.6-.5-1.2-.9-1.7-1.2-1.3-.7-2.6-1.2-3.4-1.4-.1,0-.3,0-.5-.1"/>
      <path class="cls-2" d="M114.1,93.9l-.3-1.5c-.2-1.5-1.7-9.8-1.7-9.8l-2.4.3h0c0,.5,1,8.4,1.2,9.6l.6,4.5c0,.4.1.8.2,1.1,1-.2,2-.5,2.9-.8,0-.5-.2-1-.2-1.5-.1-.6-.2-1.3-.3-1.9"/>
      <path class="cls-2" d="M115.4,82.1c0,.2,0,.4.1.7.4,1.7.8,4.3,1.6,7.9l.6,3.4c0,.1.2,1.1.4,2.1.9-.4,1.8-.7,2.7-1.1l-.5-2.7c-.5-2.4-2.3-10.5-2.3-10.5l-2.5.3"/>
      <path class="cls-2" d="M123.6,81l-2.6.3s1.9,8.6,2.4,10.8l.3,1.4c.9-.5,1.8-1,2.7-1.5-1.1-4-2.7-11-2.7-11"/>
      <path class="cls-4" d="M82.7,16v.2c-.5.9-.4.3-1.2,2.2-1.1,2.5-1.6,6.1-1.9,9.3,0,1.1.1,2.5,0,3.5h0c1.5-.2,2.6-.3,4.7-.4,3.6-.2,5,1.3,5.8,1.6.6.2.9,0,1.4-.2.5-.2,1.3-.3,1.9-.3.5,0,.8,0,.8,0,0,0,.4-.3.7-.5,1-1.1,2.1-1.6,4.1-2,2-.4,7.4-.9,8.2-1,.8,0,2.6.1,3.1.1.5,0,.4-.3.4-.4,0-.1,0-.5-.3-1.5-.3-1-.7-1.6-1.3-2.2-1.4-1.7-1.2-2.5-1.2-2.9,0-.4-.5-3-.6-3.2v-.2s0,0,0,0h0c0,0,0-.1,0-.1h0s0,0,0,0h0s0,0,0,0c-.2-.5-1-2.2-3.5-3.9-2.5-1.7-6.9-2.3-8.4-2.3-1.5,0-3.3,1.6-4,2.3h0s0,0,0,0h0c0,.1,0,.2,0,.2h0c0,0,0,.1,0,.1h0c0,0,0,.1,0,.1h0c-.3.4-.9,1.1-1.2,1.4-.3.2-.6,0-1.4-.2-1-.3-2.8-.6-4.4-.3-.6,0-1.1.2-1.7.3v.4"/>
      <path class="cls-4" d="M79,31.2c-.6,0-1.3.2-2.1.4.8-.2,1.5-.3,2.1-.4"/>
      <polyline class="cls-4" points="79.3 31.2 79.1 31.2 79.3 31.2"/>
      <polyline class="cls-4" points="79.5 31.1 79.3 31.2 79.5 31.1"/>
      <polyline class="cls-4" points="79.1 31.2 79 31.2 79.1 31.2"/>
      <polyline class="cls-4" points="76.5 31.7 76.9 31.6 76.5 31.7"/>
      <path class="cls-4" d="M81.9,42.3s0,.3.1.4h0c0,.1,0,.3.2.5,0,.1.2.3.3.5.2.3.4.6.6.8.3.4.6.7.6.7.3.2.6.1.7,0,.5-.4.9-.6,1.1-.7.3-.1.5-.3.6-.6,0-.3,0-.6.4-1.5l.2-.3.2-.2h0c0,0,.1-.2.1-.2h0c0,0,.1-.2.1-.2h.1c0-.1,0-.1,0-.1h0l-.3.3c0,0-.6.3-1,.4-.4.1-.8.2-1.3.4-.4,0-.7-.2-.8-.2l-.2-.3h0c0-.1,0-.2,0-.2,0-.2,0-.2,0-.3.1,0,.3-.1.6-.3.3-.2.7-.5,1-1,.3-.5.4-1,.4-1.2,0-.3-.1-.4-.2-.7,0-.3.2-.5.3-.6.2,0,.4-.1.7-.3.3-.2.5-.4.6-.5h0s.1-.2.1-.2h0c0,0,.1-.2.1-.2.3-.4,0-.7-.5-.3-.6.4-1.5.5-1.8.5-.3,0-1,0-1.9,0-2,0-2.7,1.5-3,1.9,0,.1-.1.3-.5.3-.4,0-1-.4-1.2-.5-.3-.2-.5-.2-.7,0-.2.1-.6.3-.7.4-.1,0-.3.3,0,.6,1.1,2,2.5,2.4,3,2.6h.2c0,.1,0,0,0,0,.4.2.8.2,1.3.3"/>
      <polyline class="cls-4" points="80.7 42 80.7 42.1 80.7 42"/>
      <path class="cls-4" d="M96.4,56.2c.5-.1.5-.2.6-.2l.4.2c0,.1.2.3.2.7,0,.5.2.6.4.6.2,0,.3,0,.5-.3.2-.3.2-.5.2-.9v-.3s0-.1.3-.4h.3c0-.1,0,0,0,0v.3c0,0-.1.8,0,1.9,0,.6.2.9.2.9,0,0,.3.5.5.8.1.2.7,1.2,1,2.1.3.9.3,1.1.3,1.1h0s0,0,0,0c.4.3.5.5.7.5.2,0,.8.1,1.1-.1.3-.2,2.4-1.5,4.8-4.5,1-1.3,2.3-3.8,2.5-7.7,0-2.2-.2-4.2-.2-4.7,0-.3,0-.6,0-.8.2-.4.6-1,.7-1.5.1-.5.3-.5.3-.5l.3.6c.1,0,.5.2.6-.4,0-.6.2-1.8.9-3.5.3-.8,1.5-3.9,1.3-6.9-.1-2-.9-2.4-1.1-2.4-.2,0-.9,0-1.3.9-.2.4.2.8.4,1.1.2.3.4.8.2,1.2-.2.4-.4.6-.7.8-.1,0-.4.1-.5-.3,0-.4-.5-3.2-.7-3.7-.2-.5-.4-.4-.6-.4-.2,0-1.4.8-1.6,1-.3.2-.4.5-.4,1,0,.5-.3,3.6-.7,4.5-.5.9-.9,1.7-1.9,2.3h0s0,0,0,0c-.3.2-.7.3-1,.4h-.2s-.2,0-.2,0h-.1c0,0,0,0,0,0h-.1c0,0,0,0,0,0h0c0,0,0,0,0,0h0c0,0,0,0,0,0h0c0,0,0,0,0,0h0s0,0,0,0h0s0,0,0,0h0s0,0,0,0v-.2c0-.2.3-.6.4-.7.1-.2.3-.5.4-.8.1-.3.1-.7.1-.8,0-.3-.2-.6-.3-.8-.1-.2-.1-.3,0-.4l.2-.2h.3s0,0,0,0h0c-.2,0-.3-.3-.4-.5h0c-.2-.3-.5-.5-.7-.5-.2,0-2.2.8-3.5.9-1.3,0-1.9,0-3.2-.6-.1,0-.5,0-.4.3,0,.2.2.4.4.7.2.2-.2.7-.3.8-.2.1-.5.5-.8.4-.2-.1-.9-.5-1.6-2.2-.2-.5-.9-.8-1.5-.7-.2,0-.4,0-.5.1,0,1.4,0,2.8,0,3.4,0,.7.2,1.5,0,2.2-.2,1.1-.3,1.4-.3,1.8,0,.4,0,.8,0,1,0,.3,0,.4.1.7,0,.3.3.7.4.8,0,.1.2.3.2.5,0,.2,0,.2.2.3.5.2,1.2.4,2,.4,1.7,0,3.5-1.6,3.8-1.9.3-.3.1-.9,0-1.1,0-.1-.2-.5-.3-.7h0c0-.2-.3-.6,0-.8.2-.2.5-.4.5-.4,0,0,1.3-.6,2.9.2.6.3,1,.6,1.1.7l.9.8c.1.1,1.5,1.3,2.1,1.7.6.4,1.1.8,1.4,1.3.3.5.4.8.3,1.6-.1.6-.7,1.2-.7,1.2h0c.1,1.2,0,2,0,2.3,0,.3-.2,1.2-.9,1.9-.3.4-.4,1.4-.4,1.7,0,.2,0,1.2-.2,1.7-.1.4-.7,1.4-1.1.5-.4-1-.4-2.3-.6-2.6-.2-.3-.9-.6-1.2-.7-.3,0-.5,0-.8.1-1.6.7-2.7,1.6-6.8,1.6-.6,0-1.1.2-1.6.4-.4.1-.7.5-1,.7v.4c.4.2.9.2,1.4.3.4,0,.6.5.6.7h0s0,0,0,0h.5c.1,0,.9,0,1.3-.2"/>
      <path class="cls-2" d="M117.8,75.4c-.5-5.1-.8-7.4-.9-8.1v-.4c-.3-1.6-.7-3.4-1.2-5.2-.1,1.7-.4,4.3-1.2,7.4-.8,3.1-1.7,5.8-2.5,6.8-.3.4-.6.2-.4-.3.2-.5.8-2.4,1.4-5.8,1-6.1.4-8.4.2-10.1-.3-1.7-1.1-2.3-1.3-2.4-.1,0-.2-.2-.4.1-.6,1.7-1.5,3.6-3.8,6.2-2,2.3-4.4,3.9-4.7,4.1-.3.3-.1.4.2.3,1.4-.5,2.9-.7,3.8-.6.9,0,1,.8,1,1.2,0,.4.2,1.7.4,2.9.2,1.6-1,1.7-1.6,1.7-.5,0-1.6,0-2,0-.4,0-.4.2,0,.5,2.6,2.4,3.6,3.5,3.8,4v.3c0,0,0,0,0,0h0c-.4.6-1.4.8-1.8.6-1.2-.5-1.6-.7-2.7-1.4-.6-.5-1.9-1.6-2.9-2.4h0c1.7,2.8,2.3,6.1,2.3,6.4,0,.4.2.4.6.4h.3c4.8-.6,10.8-1.2,13.9-1.5h-.1c0-1.5-.2-3.3-.3-5M107.1,74.1h-.3v.9h-.2v-.9h-.3v-.2h.9v.2ZM108.4,75h-.2v-.8l-.3.8h-.2l-.3-.8v.8h-.2v-1.1h.3l.3.7.3-.7h.3v1.1Z"/>
      <polyline class="cls-3" points="106.2 74.1 106.6 74.1 106.6 75 106.8 75 106.8 74.1 107.1 74.1 107.1 73.9 106.2 73.9 106.2 74.1"/>
      <polyline class="cls-3" points="107.9 74.7 107.6 73.9 107.3 73.9 107.3 75 107.5 75 107.5 74.1 107.8 75 107.9 75 108.2 74.1 108.2 75 108.4 75 108.4 73.9 108.1 73.9 107.9 74.7"/>
      <polyline class="cls-4" points="147.5 45.2 147.4 45.2 147.4 45.5 147.5 45.5 147.6 45.5 147.7 45.3 147.7 45.3 147.5 45.2"/>
      <path class="cls-4" d="M147.9,45.1h-.4c0-.1-.4,0-.4,0v.4c-.1,0,0,.4,0,.4l.4.2.4-.2.2-.4-.2-.4M147.8,45.6h0v.2h0s-.1,0-.1,0h0s0,0,0,0h0s0-.2,0-.2h-.1s0,0,0,0v.3h-.1v-.7h.4s0,.2,0,.2h0c0,.1,0,.2,0,.2h.1Z"/>
      <path class="cls-4" d="M100.7,2.1c-1.2,0-3.5.1-3.5.1.6.2,1.1.3,1.3.4,2.3.7,3.4,1.3,4.8,2.1,1,.5,1.8,1.1,2.3,1.4.7.5,2.4,1.8,4,3.9,3.1,4,3.9,8,4.1,9.1.2.8.7,1.2.8,1.3.1,0,.3,0,.4.5.7,2.1,0,5.2-.4,6.3-.4,1.1,0,1.6.5,1.9,1,.9,1.6,2.4,1.4,4.9-.1,2.3-1.1,5.8-1.9,7.7-.8,2-.5,3.4-.4,4.5,0,1-1,1.5-1.1,1.6-.3.1-.6.5-.6,1.2,0,2.3-.3,4.4-.4,4.9,0,.5,0,.8,0,.9.1,0,.6.5.8.6.3.3.6.5,1,1,.6.8,1,1.2,1.4,1.4,1.9.7,4.9,1.4,6.5,2.2.4.2.6.7,1.1.7.5,0,4.4.4,9.1.9,4.7.4,8.2,1.1,9.6,1.5,1.3.3,2.5.8,4,1.5.5.3,1,.6,1.5.9,1.4-4.6,2.2-9.5,2.2-14.6,0-26.9-21.8-48.6-48.6-48.6M126.2,53.8c-2.3,0-3.3,0-4.2-1.2-1-1.4-1.2-1.5-2-2.8,0,0-.1.5-.3,1.1-.2.6-.4,1.3-.4,1.6-.1.5.6.7.6.7l-.2.6h-4.7v-.4c0,0,.2-.2.2-.2h.2c.3,0,.8-.2,1.1-1.5,0-.3,0,.2,1.4-5.2.2-.8-.4-.9-.6-1h0c0-.1.1-.6.1-.6h4.5s-.1.6-.1.6c0,0-.6,0-.8.6l-.8,2.8h0c0,0,3.8-2.8,3.8-2.8.4-.3,0-.6-.4-.6h0c0-.1.1-.6.1-.6h4.7s-.2.6-.2.6c0,0-.2,0-.6.2-.1,0-.3.2-.5.3h-.1c0,0-3.7,3-3.7,3,0,0,2.1,3.2,2.3,3.5.2.3.6.7,1.2.7l-.2.6h-.6ZM135,50.6s-.1-.2-.5-.4c-.2,0-.4-.1-.7-.1h-1.8s0,.2-.1.5c-.2.6-.5,1.7-.5,1.7-.2.7.6.9.6.9v.6h-4.2s2-7.3,2-7.3c.3-.9-.6-1-.6-1h0c0-.1.1-.6.1-.6h8.1l-.6,2.4h-.3l-.2-.3c-.2-.1-.4-.2-.6-.2h-2.7s-.1.5-.1.5l-.3,1.2h3.1l-.5,2.2ZM146.1,47.4h-.3l-.2-.2c-.4-.4-.9-.6-1.9-.6s-2.2.3-2.8.9c-.6.5-1,1.3-.9,2.1,0,1.5,1.3,2.7,3.3,2.7.7,0,1.6-.2,2.4-.4l-.4,1.9c-.2,0-.4,0-.6.1-.7.1-1.6.2-2.5.2-3.7,0-5.3-1.9-5.4-3.9,0-1.3.7-2.7,2-3.7,1.3-1,3.1-1.6,5.4-1.6,1,0,1.9.2,2.5.4l-.6,2.2ZM147.5,46.1l-.4-.2c-.1-.1-.2-.2-.2-.4l.2-.4.4-.2c.2,0,.3,0,.4.2l.2.4c0,.2,0,.3-.2.4-.1.1-.3.2-.4.2Z"/>
      <path class="cls-2" d="M138.7,46.4c-1.3,1-2,2.3-2,3.7,0,2,1.6,3.9,5.4,3.9.9,0,1.7,0,2.5-.2.2,0,.4,0,.6-.1l.4-1.9c-.7.2-1.6.4-2.4.4-2,0-3.3-1.2-3.3-2.7,0-.8.3-1.5.9-2.1.7-.6,1.6-.9,2.8-.9s1.5.3,1.9.6l.2.2h.3l.6-2.2c-.6-.2-1.6-.4-2.5-.4-2.3,0-4.1.6-5.4,1.6"/>
      <path class="cls-2" d="M135.6,46.7c.3,0,.5,0,.6.2l.2.3h.3l.6-2.4h-8.1v.5c-.1,0-.1.1-.1.1,0,0,.9,0,.6,1l-2,7.3h3.4s.6,0,.6,0v-.6c.1,0-.6-.2-.4-.9,0,0,.3-1.1.5-1.7,0-.3.1-.5.1-.5h1.8c.3,0,.5,0,.7.1.4.1.5.4.5.4l.5-2.2h-3.1l.3-1.2v-.5c.1,0,2.8,0,2.8,0"/>
      <path class="cls-2" d="M125.8,52.5c-.2-.3-2.3-3.5-2.3-3.5l3.7-2.9h.1c.2-.2.3-.3.5-.4.4-.2.6-.2.6-.2l.2-.6h-4.7s-.1.5-.1.5h0c.3.1.8.4.4.8l-3.8,2.9h0c0,0,.8-2.9.8-2.9.2-.6.8-.6.8-.6v-.6c.1,0-4.3,0-4.3,0v.5c-.1,0-.1.1-.1.1.2,0,.8.2.6,1-1.5,5.4-1.3,4.9-1.4,5.2-.3,1.3-.8,1.5-1.1,1.5h-.2s0,.3,0,.3v.4c0,0,4.6,0,4.6,0l.2-.6s-.7-.2-.6-.7c0-.3.3-1,.4-1.6.2-.6.3-1.1.3-1.1.8,1.3,1,1.5,2,2.8.9,1.2,1.9,1.2,4.2,1.2h.6l.2-.6c-.6,0-1-.4-1.2-.7"/>
      <path class="cls-2" d="M148,45.1c-.1-.1-.3-.2-.4-.2l-.4.2-.2.4c0,.2,0,.3.2.4l.4.2c.2,0,.3,0,.4-.2.1-.1.2-.2.2-.4l-.2-.4M147.9,45.8l-.4.2-.4-.2v-.4c-.1,0,0-.4,0-.4h.4c0-.1.4,0,.4,0l.2.4-.2.4Z"/>
      <path class="cls-2" d="M147.8,45.3v-.2c0,0-.3,0-.3,0h-.2v.7h.1v-.3h.2s0,.2,0,.2h0s0,0,0,0h0s.1,0,.1,0h0s0,0,0,0h0c0,0,0-.2,0-.2h-.1c0,0,0,0,0,0h0M147.6,45.5h-.1s-.1,0-.1,0v-.2h.2s0,.1,0,.1h0Z"/>
    </g>
  </g>
</svg>