<?xml version="1.0" encoding="UTF-8"?>
<svg xmlns="http://www.w3.org/2000/svg" version="1.1" viewBox="0 0 200 100">
  <defs>
    <style>
      .cls-1 {
        fill: #bcbec0;
      }
    </style>
  </defs>
  <!-- Generator: Adobe Illustrator 28.6.0, SVG Export Plug-In . SVG Version: 1.2.0 Build 709)  -->
  <g>
    <g id="Layer_2">
      <g>
        <g>
          <path class="cls-1" d="M77.7,74.6l-.3,1.1c0,.1,0,.3.2.4.4.2,1.3.9.8,2.5-.6,2.9-2,9.1-2,9.1,0,0-.2,1.1-1.7,1.7s-.3.2-.4.4c-.1.4-.2.8-.3,1.1s.1.4.4.4h7.9c.2,0,.4-.1.5-.4l.3-1c0-.2,0-.5-.2-.6-.4-.2-.9-.7-.8-1.4.3-1.4,1-4.2,1-4.2l2.7,4.5s1.3,2.9,4.7,3.1h4.4c.2,0,.3-.1.3-.3l.2-1.2c0-.2,0-.4-.3-.4-.5,0-1.2-.2-1.6-.8-.8-1.1-5.1-6.9-5.1-6.9l6.1-5.1s.9-.5,2-.6.4-.2.4-.4c0-.5.1-1,.2-1.3s-.1-.3-.3-.3h-7c-.2,0-.4.1-.4.3l-.2,1c0,.2,0,.5.2.6.3.2.6.6,0,1l-6,5,1-5s.3-.8,1.1-1,.3-.2.3-.3c0-.4.2-.8.2-1s-.1-.5-.4-.5h-7.6c-.2,0-.3.1-.4.3Z"/>
          <path class="cls-1" d="M98.4,74.7l-.2,1c0,.1,0,.3.2.3.4.2,1.2.7,1,1.7-.3,1.5-2.2,10.4-2.8,12.9s.2.7.5.7h6.2c.1,0,.3,0,.3-.2l.4-1.2c0-.2,0-.4-.2-.5-.4-.2-1-.8-.9-1.7.2-1.1.6-2.9.6-2.9h5.6c.2,0,.4-.2.5-.4.1-.5.3-1.6.5-2.2s-.2-.6-.5-.6h-5.2s.9-4.6.9-4.6h4.2c.7,0,1.3.6,1.2,1.3v.4c0,.2,0,.4.3.4h1.4c.2,0,.4-.1.4-.3l.9-4.2c0-.2-.1-.4-.4-.4h-14.4c-.3,0-.5.2-.5.4Z"/>
          <path class="cls-1" d="M129.9,74.7c-1.3-.5-5.8-1.8-11.8.7-4.4,2.3-5.2,5.9-5.4,8.9-.2,3,3.5,9.8,15.2,6.6.2,0,.4-.2.4-.5l.4-1.9c0-.3-.2-.6-.5-.5-1.4.4-4.8,1.2-6.9-.1s-2.6-3.4-2.6-4.9,1.4-6.2,5.8-6.3c2.8,0,2.9,1.7,2.8,2.5s.1.4.4.4h1.2c.2,0,.4-.2.4-.3l.9-4c0-.2,0-.5-.3-.6Z"/>
        </g>
        <g>
          <path class="cls-1" d="M133.2,75c-.2-.2-.4-.3-.7-.3-.3,0-.5,0-.7.3-.2.2-.3.4-.3.7s0,.5.3.7c.2.2.4.3.7.3s.5,0,.7-.3c.2-.2.3-.4.3-.7s0-.5-.3-.7ZM133.1,76.3c-.2.2-.4.3-.6.3s-.5,0-.6-.3c-.2-.2-.3-.4-.3-.6s0-.5.3-.6c.2-.2.4-.3.6-.3s.5,0,.6.3c.2.2.3.4.3.6s0,.5-.3.6Z"/>
          <path class="cls-1" d="M132.9,75.5c0-.1,0-.2-.2-.3,0,0-.2,0-.3,0h-.4v1.1h.2v-.4h.2c.1,0,.2,0,.2,0,0,0,.1.1.1.3h0c0,0,0,.1,0,.1,0,0,0,0,0,0,0,0,0,0,0,0h.2,0s0,0,0,0c0,0,0,0,0,0h0c0-.1,0-.2,0-.3,0,0-.1,0-.2-.1,0,0,.1,0,.2,0,0,0,.1-.1.1-.2ZM132.6,75.7s-.1,0-.2,0h-.2v-.4h.2c.1,0,.2,0,.2,0,0,0,0,0,0,.2s0,.1-.1.2Z"/>
        </g>
      </g>
      <path class="cls-1" d="M119.2,27.8s2.4-9-4.6-16.1c0,0-.2-.2-.4-.3-.3-.3-.7-.6-1.1-.9-.9-.7-1.6-1.2-3.1-1.9-.4-.2-2-1-3.6-1.3-.5-.1-1.6-.4-2.6-.5,0,0-.1,0-.2,0,0,0,0,0,0,0,0,0-.1,0-.2,0,0,0,0,0-.1,0,0,0-.1,0-.2,0,0,0,0,0-.1,0,0,0-.1,0-.2,0,0,0-.1,0-.2,0,0,0-.2,0-.3,0,0,0-.2,0-.3,0,0,0-.1,0-.2,0,0,0-.1,0-.2,0,0,0-.2,0-.2,0-.2,0-.6,0-.9,0-.6,0-1.1.2-1.5.3-.4,0-1,.2-1.6.4-.3,0-.6.2-.9.3,0,0-.2,0-.2,0-.3,0-.6.2-.9.3-.2,0-1.2.5-1.4.6,0,0-.2.1-.4.2-1,.3-.8.9-.8.9-1.1,2.8-4.7,2.6-4.7,2.6,0,1.2,2.5,2.3,2.5,2.3-.5,1-2,1.7-3.7,1.8-1.7.1-1.9,1.6-1.9,1.6.8,1.3,1.9,1.7.9,8.4-1,6.7,4.6,11.6,4.6,11.6-.4,3,1.5,6.3,1.5,6.3-.6,2.4,1.6,6,1.6,6,.2.2,1.6,2,4.2,3.6.4.3.7.4.8.5,0,0,0,0,0,0,0,0,0,0,0,0,0,0,0,0,0,0,0,0,0,0,0,0,0,0,.2.3,0,.3-.3,0-1,0-1.8.2-.8.2-.7.5-.7,1,0,.4,0,.7,0,1.3,0,.6-.1,1.1.1,1.4.2.3.6.5,1.6.4,1,0,1.3,0,1.4,0,.1,0,2.3-.1,2.6-.2.3-.1.4.1.2.5-.4.9-2.2,4.3-5.8,7.6-.6.5,2.5,1.3,2.7,1.2.2,0,2-1.9,3-3.6,0,0,.5-.8.9-1.8,0-.2.2-.3.2,0,0,.2.4,5.1.2,6.9-.1.9.6.8,2.7,1.3.5.1.2-8.3-1-11.7,0,0,0,0,0,0,0,0,0,0,0,0,0-.1,0-.2.2-.2,0,0,0,0,0,0,.7-.1,2.3,0,2.5,0,.3,0,1,.1,1.4.2.4,0,1.2.1,1.2-1,0-.3,0-.6,0-.9,0,0,0,0,0-.1,0,0,0-.1,0-.2,0,0,0,0,0-.1,0,0,0,0,0-.1,0,0,0,0,0-.1,0,0,0-.1,0-.2,0,0,0,0,0,0,0,0,0,0,0-.1,0,0,0,0,0,0,0,0,0,0,0,0,0,0,0,0,0,0,0,0,0,0,0-.1,0-.3,0-.7-.6-.8-.6-.2-1.7-.1-2.7,0-.1,0-.2,0-.2,0,0,0,0-.1.1-.2.2-.2,2-1,3.6-2.5,1.8-1.6,2.6-2.8,3.2-4,0,0,1.8-3.8,1.4-7.9l.3-.4s1.2.5,1.9-1.4c.7-1.9,5.3-9.9,1.7-11M89.3,32.5c-.2-.1-.7-1.2-.9-2.3,0-.1,0-.4.2-.5.2,0,.4-.1.5-.2.1,0,.4,0,.4.3,0,.4,0,.9.2,2.1,0,.2,0,.3,0,.4,0,.2-.3.4-.4.2M91.2,29.1c0,0-.5,0-.8,0-.2,0-.3,0-.3-.1,0-.2,0-.4,0-.5,0,0,0-.1.1-.1.2,0,1,0,1,0,0,0,.1,0,.2.2,0,.2,0,.3,0,.4,0,0,0,.2-.1.2M91.1,20.5c-.2.2-.6.5-.8,1.1-.2.6-1,2.5-1.1,5.6,0,.4,0,.8-.3,1-.2,0-.4.1-.6.2-.2,0-.3,0-.4-.2-.2-.6-.3-1.6-.3-2.2,0-.6.1-2.6.3-3.6.2-1,0-1.6-.2-2.2-.3-.5-.5-.9-.6-1.1,0-.2,0-.4.2-.5.1,0,.3,0,.5,0,.3,0,1.5-.3,2.4-.8.9-.5,2.3-1.6,3.3-2,.9-.4,1.3-.5,2.4-.5.2,0,.4.1.1.3-.3.2-1.4.4-2.7,2-.8,1-1,1.6-1.3,2-.3.5-.5.6-.9.9M91.8,26.6c0-.2,0-.6,0-.9,0,0,0-.3.2-.5.2-.2.4-.3.6-.4.3-.2.3-.7.4-1.1.2-.9.5-3.8,2.7-6.4,1.1-1.3,2.2-1.2,3.4-1.3,1.1,0,2.4.3,3,.6.5.2.7.4.9.3.2-.1.7-.6.9-.8.2-.2.1-.4,0-.6-.2-.2-2.1-2.1-5-2.5-2.8-.5-5.2.2-5.9.4-.1,0-.2,0-.3,0,0,0-.3-.1-.2-.3.1-.2.4-.4.7-.7.3-.2,1.8-1.3,3.2-1.7.3,0,.3-.1.5-.2.2,0,.4-.5,0-.6-.5,0-.6,0-.9,0-.2,0-.4-.1-.2-.3.2-.2.5-.4,1.1-.6,1.2-.5,3.4-.9,4.5-1,1.3-.1,1.5-.1,2.4,0,.8,0,1.5.2,1.8.3,2.6.5,5.4,1.7,7.5,3.6,2,2,4.8,5.1,4.5,12,0,.8-.1,1.3-.2,1.5,0,.2-.3.5-.5,0-.5-1.5-1.2-3.5-2.2-5.4-.2-.3-.4-.2-.3,0,0,.1.1,2,.1,2.3,0,.3-.2.9.6,2.2.3.5.6,1,.7,1.7,0,.7.1,1,0,1.1,0,0,0,.3-.3.3-.3,0-1.6-.3-2.1-.4-.5,0-4.3-.2-5.7,0-1.4.1-2.2.4-3,1-.2.2-.5.3-.5.3,0,0-.2,0-.6,0-.3,0-1,0-1.3,0-.3.1-.6.2-1,0-.5-.3-1.3-1.5-3.8-1.7-2.3-.2-2.9-.2-5.4,0-.2,0-.4-.1-.4-.4M114.6,28.7c0,0,0,.3,0,.4,0,0-.1.2-.2.2,0,0-.8,0-.9,0-.1,0-.2,0-.2-.2,0,0,0-.3,0-.4,0,0,0-.1.1-.1,0,0,.8,0,1,0,0,0,.1,0,.1.2M111.3,29.4c-.2-.2-.5-.5-.7-.6-.1,0,0-.3.2-.3.8,0,1.2,0,1.6.3.2.2.4.6.3.8-.1.3-.3.2-.4.2-.2,0-.7-.4-.8-.6M111.6,31c-.1,0-.6,0-.7-.2-.3-.2-.5-.3-.9-.6-.3-.2-.8-.4-1.2-.3-.3,0-.5,0-.8.2-.3,0-.3-.2-.2-.3,0,0,.6-.5,1.1-.7.1,0,.4,0,.5,0,.3,0,.8.3,1,.6.3.3.8.8,1.1,1,.2,0,.5.2.2.4M100.3,36.9c0,.2.1.4,0,.5,0,.1-.5.3-.9-.3-.4-.6-.2-1.3,0-1.6.4-.4.9-.1.8,0-.3.6-.2,1.1,0,1.3M97.8,29.7c-.3,0-.7-.1-1.3,0-.7.2-1.2.4-1.6.6-.4.2-.7.2-.8.2-.1,0-.5-.1-.2-.4,0,0,.3-.1.6-.3.2-.1.4-.2.6-.4.5-.3,1.4-.7,1.7-.7.3,0,.7.1,1,.4.3.3.3.6,0,.6M92,29.5c0-.2.4-.8.9-.9,0,0,.3,0,.6,0,.3,0,.5,0,.7,0,.4,0,.4.3.2.4-.2.1-.4.2-.7.4-.4.2-.7.5-1,.7-.3.2-.8,0-.7-.4M92.7,34.9c.1,0,.5.4.8.5.2,0,.4,0,.5-.2,0-.2.3-.5,0-.7-.3-.2-1.3-.6-1.8-2.1,0-.2,0-.4.1-.4,0,0,.4-.2.5-.2.1,0,.3,0,.5.1.2.1.5.5.8.5.3,0,.3,0,.4-.2.2-.3.9-1.2,2.2-1.1.6,0,1.1.2,1.3.2.2,0,.9,0,1.3-.2.4-.2.6,0,.3.3-.3.3-.4.4-.2.7.2.2.2.3.3.4h0c0,.1,0,.2,0,.3,0,.4-.4.8-.6,1.1-.3.3-.9.5-1.2.6-.3,0-.7.1-.8.1,0,0-.1,0-.2,0h0s0,0-.1,0h0s0,0,0,0c0,0,0,0-.1,0-.2,0-.3.2-.2.3,0,0,0,.2,0,.3,0,.1.2.4.6.4s0,0,0,0c.4,0,.7,0,1-.1.1,0,.3,0,.5-.1,0,0-.2.2-.2.3-.4.6-.4.8-.4,1,0,.2-.2.3-.4.3-.2,0-.9.4-1.5.9-.6.5-1.3.5-1.8-.1-.5-.6-1.2-1.5-1.4-2.5,0-.3.1-.3.2-.3M98.5,48.8c-1.1,0-3.7-1.2-5-6-.3-1.2.4-2.3.8-2.5.3-.1.4-.1.5-.2,0,0,.6,0,.6.5,0,.4.3,4.2,1.3,5.5.2.3.5.3.6,0,.1-.3.3-.6.3-.8,0,0,.3-.4.5,0,.2.9.5,2,.7,2.5.2.5,0,.8-.3.8M99.3,41.3c-1.4.3-1.7-.2-1.8-.4,0-.2,0-.3.2-.3.3-.1.8-.4,1-.6.2-.2.7-.8,1.1-1.1.2-.1.9-.3,1.5,0,.6.4,1.7.6,2.3.6.7,0,1-.5,1.1-.7.2-.3.5-.3.7-.4.5-.1,1.3-.7,1.3-.8,0,0,.3-.1.6.1.5.4.8.9,1.3,1.7.5.7,1.1.9,1.3.9.2,0,.3.3.3.3,0,0-.2.3-.3.3-.1,0-.2.2-1.3.1-5.3-.6-7.7-.3-9.4,0M106.4,42.9c-.3.1-1.3.4-1.8.4-.5,0-2,.1-2.2.1-.3,0-.7-.2-1.1-.5,0,0-.1-.3.1-.3.5,0,1.4-.3,4.4,0,.3,0,.5,0,.6,0,0,0,.3.1,0,.3M118.2,31.7c-.1,2.1-1.3,4.2-1.5,4.7-.6,1.2-.8,2-.9,2.4-.1.4-.4.3-.5.2,0,0-.1-.4-.2-.4,0,0-.2,0-.3.3-.1.3-.4.8-.6,1-.1.2-.1.4-.1.6,0,.4,0,1.8-.3,3.3-.5,2.8-1.6,4.4-2.4,5.2-1.9,1.9-3.5,2.6-3.7,2.7-.3.1-.6,0-.8,0-.1,0-.2-.2-.4-.4-.2-.2-.3.1-.3.2,0,0,0,.4.1.7,0,.5-.3,1.1-.7,1.6-.2.3-.5.6-.7.9-.2.4-.4.8-.4,1.3,0,0,0,.1,0,.1-.5.1-.9-.5-1.2-.8-.2-.2-.5-.5-.7-.7,0,0,0,0,0,0-.3-.3-.5-.5-.7-.8,0,0,0,0,0,0,0-.1-.2-.2-.3-.3,0,0,0,0,0-.1,0-.1-.2-.3-.3-.4-.9-1.4-.7-2.3-.1-3.9.4-1.2.1-2.3,0-2.5,0-.2,0-.3.3-.2.2.2.4.5.6.9.2.3.3.1.3,0,.1-.5,0-.9,0-1.2,0-.1-.1-.5-.4-.5-.3-.1-.7-.2-.8-.4,0,0-.2-.2,0-.3.2-.2.5-.3.7-.4.3,0,.7-.2,1.1-.1,2.8.4,3.7-.2,4.8-.5.2,0,.4,0,.5,0,.2,0,.6.3.7.6,0,.2,0,1.2.1,1.9.2.7.7,0,.8-.2.1-.3.3-1,.3-1.2,0-.2.2-.9.4-1.1.5-.4.7-1,.8-1.2,0-.2.2-.9.2-1.9,0-1-.2-1.1-.4-1.3-.2-.2-.5-.2-1.1-.7-.5-.5-1-1.3-1.4-1.8-.4-.5-1-1.1-1.8-1.2-.7-.2-.4.6-.4.8,0,.1,0,.5-.1.7-.2.2-1.6,1.2-2.8,1-1.9-.3-2.5-1.7-2.6-2.2-.1-.5.5-1.7.6-2.6,0-.4,0-1.2,0-1.7,0-.5.4-1.2.5-1.3.1-.2.5-.2.9-.3.4,0,.9.2,1,.6.3,1.3.7,1.6.9,1.7.2.1.4-.1.6-.2.1,0,.4-.4.3-.5-.1-.2-.2-.4-.2-.5,0-.2.2-.2.3-.2.8.5,1.3.6,2.1.7.9,0,2.3-.3,2.5-.3.1,0,.4.1.5.3,0,.1.2.4.3.5.1,0,.4,0,.6,0,.2,0,.6,0,.5.4-.2,1.1-1.1,1.7-1.2,1.7,0,0,0,0,0,0,0,0,0,0,0,0-.2,0-.3.2-.6.2-.2,0-.3,0-.4.1-.1.1.1.3.3.5.1.1.6,0,1-.1h0s0,0,0,0c.8-.3,1.1-.8,1.5-1.4.4-.6.8-2.7.9-3.1,0-.3.2-.6.4-.7.2-.1,1.1-.6,1.2-.6.1,0,.3,0,.4.3,0,.3.1,2.4.2,2.7,0,.3.2.3.3.3.2-.1.3-.3.5-.5.2-.3.1-.7,0-.9-.1-.2-.3-.5-.2-.8.3-.6.8-.5,1-.5.1,0,.6.4.5,1.8"/>
      <g>
        <path class="cls-1" d="M78.9,6.2h-18.8c-1,0-1.8.9-1.7,1.9l4.8,61.1h15.7V6.2Z"/>
        <path class="cls-1" d="M125.4,6.2h18.8c1,0,1.8.9,1.7,1.9l-4.8,61.1h-15.7V6.2Z"/>
      </g>
      <path class="cls-1" d="M138.4,98.5h-72.4c-2.9,0-5.4-2.3-5.6-5.2L53.5,7.3c-.1-1.5.4-2.9,1.4-4,1-1.1,2.4-1.7,3.9-1.7h86.7c1.5,0,2.9.6,3.9,1.7,1,1.1,1.5,2.5,1.4,4l-6.8,86c-.2,2.9-2.7,5.2-5.6,5.2ZM58.8,3.8c-.9,0-1.7.4-2.3,1-.6.6-.9,1.5-.8,2.4l6.8,86c.1,1.8,1.7,3.2,3.5,3.2h72.4c1.8,0,3.3-1.4,3.5-3.2l6.8-86c0-.9-.2-1.7-.8-2.4-.6-.6-1.4-1-2.3-1H58.8Z"/>
    </g>
  </g>
</svg>