<?xml version="1.0" encoding="utf-8"?>
<!-- Generator: Adobe Illustrator 25.3.1, SVG Export Plug-In . SVG Version: 6.00 Build 0)  -->
<svg version="1.1" id="Layer_1" xmlns="http://www.w3.org/2000/svg" xmlns:xlink="http://www.w3.org/1999/xlink" x="0px" y="0px"
	 viewBox="0 0 200 100" style="enable-background:new 0 0 200 100;" xml:space="preserve">
<style type="text/css">
	.st0{fill-rule:evenodd;clip-rule:evenodd;fill:#DADADA;}
</style>
<g id="Layer_5">
	<g>
		<path class="st0" d="M138.5,60.8H134L147.2,35h0.6h3.8h0.7l13.1,25.8h-4.5l-3.4-6.8H142L138.5,60.8L138.5,60.8z M155.8,50.8
			l-6.1-12l-6.1,12H155.8L155.8,50.8z M118.1,34.3l3.1-3.5h6.8L118.1,34.3L118.1,34.3z M109.4,60.8h23v-2.9h-19.1V49h14.2v-3h-14.2
			v-8.1h18.9V35h-22.9v25.8H109.4z M78.1,35h3.6H95l0,0l0,0c4.5,0,8.2,3.4,8.2,7.5l0,0c0,3.6-2.8,6.6-6.5,7.3l8,11H100L92.2,50H81.7
			v10.8h-3.6V50V35L78.1,35z M95.2,38.1h0.2h0.2l0.2,0.1l0.2,0.1l0.2,0.1l0.2,0.1l0.2,0.1l0.2,0.1l0.2,0.1l0.2,0.1l0.2,0.1l0.2,0.1
			l0.2,0.2l0.2,0.2l0.1,0.2l0.1,0.2l0.1,0.2l0.1,0.2l0.1,0.2l0.1,0.2l0.1,0.2l0.1,0.2l0.1,0.2l0.1,0.2l0.1,0.2v0.2v0.2v0.2v0.2v0.2
			v0.2v0.2v0.2v0.2v0.2H99v0.2l-0.1,0.2l-0.1,0.2l-0.1,0.2l-0.1,0.2l-0.1,0.2L98.4,45l-0.1,0.2l-0.1,0.2L98,45.5l-0.2,0.2l-0.2,0.2
			L97.4,46l-0.2,0.1L97,46.2l0,0.1l-0.2,0.1l-0.2,0.1l-0.2,0.1l-0.2,0.1L96,46.8l-0.2,0.1h-0.2h-0.2h-0.2h-0.3H81.8V38h12.9H95
			L95.2,38.1L95.2,38.1z M56,33.5c-7.3,0-13.2,5.9-13.2,13.2S48.7,59.9,56,59.9S69.2,54,69.2,46.7S63.3,33.5,56,33.5L56,33.5z
			 M56,30.5c-9.7,0-17.5,7.2-17.5,16.1S46.4,62.7,56,62.7c9.7,0,17.5-7.2,17.5-16.1C73.6,37.8,65.7,30.5,56,30.5L56,30.5z
			 M12.9,60.8V35h3.3v23h19.5v2.8H12.9L12.9,60.8z M167.3,60.8h23.1v-2.9H171V35h-3.6L167.3,60.8L167.3,60.8z M84.4,77.6h-2l5.8-10
			h0.3h1.7h0.3l5.8,10h-2L92.8,75H86L84.4,77.6L84.4,77.6z M92,73.7L89.3,69l-2.7,4.7H92L92,73.7z M99.9,67.6h1.5h5.6l0,0l0,0
			c1.9,0,3.5,1.3,3.5,2.9l0,0c0,1.4-1.2,2.6-2.7,2.8l3.3,4.3h-2l-3.3-4.2h-4v4.2h-1.9v-4.2V67.6L99.9,67.6z M107.1,68.7L107.1,68.7
			h0.2h0.1h0.1h0.1h0.1h0.1h0.1h0.1h0.1l0.1,0.1l0.1,0.1l0.1,0.1l0.1,0.1l0.1,0.1l0.1,0.1l0.1,0.1v0.1v0.1v0.1v0.1v0.1V70v0.1v0.1
			v0.1v0.1v0.1v0.1v0.1v0.1v0.1V71v0.1v0.1v0.1v0.1v0.1v0.1v0.1v0.1v0.1V72l-0.1,0.1l-0.1,0.1l-0.1,0.1l-0.1,0.1l-0.1,0.1l-0.1,0.1
			l-0.1,0.1H108h-0.1h-0.1h-0.1h-0.1h-0.1h-0.1h-0.1h-0.1h-0.1H107h-0.1h-5v-3.5h5h0.1L107.1,68.7L107.1,68.7z M71.1,67.6h1.5h5.6
			l0,0l0,0c1.9,0,3.5,1.3,3.5,2.9l0,0c0,1-0.6,1.9-1.5,2.4c-0.6,0.4-1.3,0.5-2,0.5c-0.4,0-0.7,0-1.1,0h-4v4.2h-1.9v-4.2L71.1,67.6
			L71.1,67.6z M78.3,68.7L78.3,68.7h0.2h0.1h0.1h0.1h0.1H79h0.1h0.1h0.1l0.1,0.1l0.1,0.1l0.1,0.1l0.1,0.1l0.1,0.1l0.1,0.1l0.1,0.1
			v0.1v0.1v0.1v0.1v0.1V70v0.1v0.1v0.1v0.1v0.1v0.1v0.1v0.1v0.1V71v0.1v0.1v0.1v0.1v0.1v0.1v0.1v0.1v0.1V72l-0.1,0.1l-0.1,0.1
			l-0.1,0.1l-0.1,0.1l-0.1,0.1l-0.1,0.1l-0.1,0.1h-0.1L79,72h-0.1h-0.1h-0.1h-0.1h-0.1h-0.1h-0.1h-0.1h-0.1H78h-5v-3.5h5h0.1
			L78.3,68.7L78.3,68.7z M121.9,74.4l1.7-0.1c0.1,0.5,0.3,0.9,0.6,1.2c0.3,0.3,0.8,0.6,1.4,0.8c0.6,0.2,1.3,0.3,2.1,0.3
			c0.7,0,1.3-0.1,1.9-0.2c0.5-0.2,0.9-0.4,1.2-0.6c0.3-0.3,0.4-0.5,0.4-0.9c0-0.3-0.1-0.6-0.4-0.8c-0.3-0.2-0.7-0.4-1.2-0.6
			c-0.4-0.1-1.2-0.3-2.5-0.5s-2.2-0.4-2.7-0.6c-0.7-0.2-1.2-0.6-1.5-0.9c-0.3-0.4-0.5-0.8-0.5-1.2c0-0.5,0.2-1,0.6-1.4s1-0.8,1.7-1
			c0.8-0.2,1.6-0.3,2.5-0.3c1,0,1.9,0.1,2.7,0.4c0.8,0.2,1.4,0.6,1.8,1.1c0.4,0.5,0.6,1,0.7,1.6l-1.8,0.1c-0.1-0.6-0.4-1.1-1-1.4
			c-0.5-0.3-1.4-0.5-2.4-0.5c-1.1,0-1.9,0.1-2.4,0.4s-0.8,0.6-0.8,1.1c0,0.4,0.2,0.7,0.5,0.9c0.4,0.2,1.3,0.5,2.8,0.7
			s2.5,0.5,3.1,0.6c0.8,0.3,1.4,0.6,1.8,1c0.4,0.4,0.6,0.9,0.6,1.4s-0.2,1-0.6,1.5c-0.4,0.5-1,0.8-1.8,1.1c-0.8,0.3-1.7,0.4-2.7,0.4
			c-1.3,0-2.3-0.1-3.2-0.4c-0.8-0.3-1.5-0.7-2-1.2C122.2,75.6,121.9,75,121.9,74.4L121.9,74.4z M115.7,77.6v-7.1h1.8v7.1H115.7
			L115.7,77.6z M115.7,69.4v-1.9h1.8v1.9H115.7L115.7,69.4z M28.9,44.1h3l4.6-8.8h-3.9L28.9,44.1L28.9,44.1z"/>
	</g>
</g>
</svg>
