<?xml version="1.0" encoding="utf-8"?>
<!-- Generator: Adobe Illustrator 25.3.1, SVG Export Plug-In . SVG Version: 6.00 Build 0)  -->
<svg version="1.1" id="Layer_3" xmlns="http://www.w3.org/2000/svg" xmlns:xlink="http://www.w3.org/1999/xlink" x="0px" y="0px"
	 viewBox="0 0 200 100" style="enable-background:new 0 0 200 100;" xml:space="preserve">
<style type="text/css">
	.st0{fill:#DADADA;}
	.st1{display:none;}
	.st2{display:inline;fill:#DADADA;}
</style>
<g>
	<g>
		<polygon class="st0" points="15,82.8 20.9,82.8 20.9,65 40.4,82.8 47.5,82.8 47.5,58.6 41.1,58.6 41.1,76.2 21.2,58.6 15,58.6 		
			"/>
		<g>
			<path class="st0" d="M71,74.7V58.6h-5.7c0,0,0,6.9,0,16.3c0.6,9.3,14.7,8.8,14.7,8.8v-4.4C71.5,79.1,71,74.7,71,74.7z"/>
			<path class="st0" d="M94.8,58.6h-5.7v16.2c0,0-0.5,4.4-9,4.5v4.4c0,0,14.1,0.5,14.7-8.8C94.8,65.5,94.8,58.6,94.8,58.6z"/>
		</g>
		<polygon class="st0" points="130.5,70.4 143.1,58.6 135.2,58.6 126.3,67.1 117.4,58.6 109.5,58.6 122.2,70.4 108.9,82.9 
			116.8,82.9 126.3,74 135.8,82.9 143.8,82.9 		"/>
		<polygon class="st0" points="157.5,58.6 157.5,82.9 185,82.9 185,78.7 163.2,78.7 163.2,72.6 179.9,72.6 179.9,68.5 163.2,68.5 
			163.2,62.7 184.1,62.7 184.1,58.6 		"/>
		<g class="st1">
			<path class="st2" d="M77,94.6v-4.7h2.6c0.8,0,1.4,0.1,1.8,0.4c0.5,0.2,0.7,0.6,0.7,1c0,0.3-0.1,0.5-0.4,0.7
				c-0.2,0.2-0.6,0.4-1,0.5c-0.4,0.1-1,0.1-1.7,0.1h-0.9v2.1H77z M79.4,90.5h-1.2v1.5h1.3c0.5,0,0.8-0.1,1.1-0.2
				c0.3-0.1,0.4-0.3,0.4-0.6C80.9,90.7,80.4,90.5,79.4,90.5z"/>
			<path class="st2" d="M89.4,89.8h0.8l3.6,4.8h-1.2l-1.1-1.4h-3.4l-1,1.4H86L89.4,89.8z M91.1,92.6l-1.3-1.7l-1.2,1.7H91.1z"/>
			<path class="st2" d="M99.5,94.6v-4.7h1.7c0.7,0,1.3,0.1,1.7,0.4c0.4,0.2,0.6,0.6,0.6,1c0,0.3-0.1,0.5-0.3,0.7
				c-0.2,0.2-0.5,0.4-0.9,0.5c0.2,0.1,0.4,0.2,0.6,0.4c0.2,0.2,0.5,0.5,0.9,0.9c0.2,0.3,0.4,0.5,0.6,0.6l0.4,0.3h-1.2l-0.3-0.3
				c0,0,0,0-0.1-0.1l-0.2-0.2l-0.3-0.3l-0.3-0.4c-0.2-0.2-0.4-0.4-0.6-0.5c-0.2-0.1-0.3-0.2-0.5-0.3c-0.1-0.1-0.4-0.1-0.7-0.1h-0.3
				v2.1H99.5z M101,90.4h-0.3v1.5h0.4c0.6,0,1,0,1.2-0.1c0.2-0.1,0.4-0.1,0.5-0.3c0.1-0.1,0.2-0.3,0.2-0.4c0-0.1-0.1-0.3-0.2-0.4
				c-0.1-0.1-0.3-0.2-0.6-0.3C101.9,90.5,101.5,90.4,101,90.4z"/>
			<path class="st2" d="M111.3,89.9h1.2v4.7h-1.2V89.9z"/>
			<path class="st2" d="M120.9,92.6l-0.9-0.3c-0.5-0.2-0.9-0.4-1.2-0.6c-0.2-0.2-0.3-0.4-0.3-0.7c0-0.4,0.2-0.7,0.7-0.9
				c0.4-0.2,1-0.3,1.7-0.3c0.7,0,1.3,0.1,1.9,0.3v0.8c-0.6-0.3-1.2-0.5-1.9-0.5c-0.4,0-0.7,0.1-0.9,0.2c-0.2,0.1-0.4,0.2-0.4,0.4
				c0,0.1,0.1,0.3,0.3,0.4c0.2,0.1,0.5,0.3,0.9,0.4l0.9,0.3c1,0.3,1.5,0.8,1.5,1.3c0,0.4-0.2,0.7-0.6,0.9c-0.4,0.2-1,0.4-1.7,0.4
				c-0.8,0-1.5-0.1-2.2-0.4v-0.9c0.6,0.5,1.3,0.7,2.2,0.7c0.4,0,0.7-0.1,0.9-0.2c0.2-0.1,0.4-0.3,0.4-0.4
				C122,93.1,121.6,92.9,120.9,92.6z"/>
		</g>
		<rect x="15" y="47.5" class="st0" width="170" height="4.3"/>
		<path class="st0" d="M96.5,30c-0.3-0.1,0,2,0,2s-0.3,0.3-0.2,0.5c0.2,0.2-0.9,0.4-0.4,1c0.6,0.6,2.8,0.2,3.1,0.9
			c0.3,0.7,0.7,2.5,0.2,3.1c-0.6,1.4-4,2.5-4.5,5.9c0,0-0.3,1.7-1,2.6c-0.4,0.6-1.8,0.3-2.1,0.8c-0.3,0.5-0.6,0.1-0.7,0
			c-0.1-0.1-1.2-0.3-1.9,0.5c2.2,0,14.6,0,14.6,0s0-0.1-0.1-0.2c-0.2-0.3-0.5-0.7-1.3-0.8c-1.2-0.1-4.3-0.1-4.3-0.1
			s-0.6,0.1-0.7-0.2c-0.1-0.3-0.4-0.8-0.7-0.8c0,0,0.2-0.5,0.3-1.4c0.1-0.8,1-2,2.5-3.5c2-1.9,1.8-2.6,2.4-4c0.6-1.3,0.5-0.2,0.5,0
			c0.1,0.4,0.4,1-0.1,1.7c-0.9,1.4-2.4,2.9-3,4c-0.2,0.4-1.1,3.7,2.8,3.2c1.5-0.2,1.5,0.2,1.6,0.4c0,0,0.3,0.3,0.5,1
			c0.2,0.7-0.1,0.7-0.1,0.7h5.7c0,0-0.1-1-3.3-0.9c-0.7,0-0.8-0.1-1.1-0.5c-0.3-0.4-0.9-1-0.9-1s-0.5-0.8-1.5-0.6
			c-1,0.1-1.8,0.1-1.8,0.1S100,44.5,100,43c0-1.4,2.6-4.3,3-5.4c0.4-0.9,0.2-3.3,0.2-3.3s0.1-0.6,0.5-0.8c0.4-0.1,0.9-0.6,1.2-0.9
			c1.1-1.6,1.9-1.6,1.9-1.6l-1.5-1.7c0,0-0.6,0.2-0.4,1.4c-0.4-0.2-0.3,0.4-0.4,0.7c0,0.3-0.2,0.6-0.4,0.6c-0.2-0.1-0.4-0.1-0.5-1.5
			c-0.1-1.4-0.4-0.1-0.4-0.1s-0.1,0.8-0.6,0.9c-0.5,0.1-0.2,1.4-0.2,1.4s-1.5,0.4-1.8,0.9C100.3,33.9,98,32.9,96.5,30z"/>
		<path class="st0" d="M94,27.9c0,0-1.4,2.7-0.8,5.9c0.1,0.3,0.6,0,0.6,0s3.2-1.8,1.4-6.1C94.7,26.5,94,27.9,94,27.9z"/>
		<path class="st0" d="M93.1,27.9c0.4-0.6-2.9,1.6-3.5,4.8c-0.1,0.5,2-0.1,2.4-0.7C92.4,31.2,92.4,28.9,93.1,27.9z"/>
		<path class="st0" d="M104.8,25.8c-0.4,0-0.4,2.8,3.4,5.8c0.6,0.3,0.2-2.1,0.2-2.1s-0.8,0.3-1.1-0.3c-0.3-0.7-0.4-2.5-0.4-2.5
			S105.4,25.8,104.8,25.8z"/>
		<path class="st0" d="M103.1,24.5c-0.4,0.4-1.8,1-1.9,4.2c0,1.2,0.1,1.5,0.2,2.1c0.1,0.2,0.2,0.1,0.6-0.2c1-0.9,1.4-1.6,1.7-2.5
			c0.4-1.4,0.1-3.4,0-3.5C103.6,24.4,103.1,24.5,103.1,24.5z"/>
		<path class="st0" d="M97.3,26c-0.2,0.5-1.1,3.4,1.7,6c0.8,0.7,1,0.2,1,0c0,0,0.2-1-0.1-2.7c-0.2-0.9-0.5-2.4-2.1-3.5
			C97.5,25.5,97.3,26,97.3,26z"/>
		<path class="st0" d="M110.2,23.4c-0.8,0.3-2.1,1.7-2.3,3c-0.1,0.9-0.1,1.5,0.1,2.1c0,0.2,0.5,0.2,0.8-0.1c0.6-0.4,1.4-1.3,2.1-4.1
			C110.4,23.4,110.2,23.4,110.2,23.4z"/>
		<path class="st0" d="M102.7,19.4c0,0.5,0.3,3.9,4,5.8c0.2-0.7,0.1-1.8,0-2.3C105.6,19.8,102.7,19.4,102.7,19.4z"/>
		<path class="st0" d="M111.5,27c-0.5,0.6-0.7,1-0.7,6c0,0.5,1.2-0.6,1.3-0.8c0.2-0.2,1-1.7,0.7-2.1C112.3,29.4,111.5,27,111.5,27z"
			/>
		<path class="st0" d="M115.8,26.4c0,0-0.4,1.7-1.4,2.4c-0.6,2.4,0.2,4.8,0.2,4.8s2.3-2,2.3-3C115.8,29,115.8,26.4,115.8,26.4z"/>
		<path class="st0" d="M107.5,18c0,0.2-0.3,1.3-0.6,1.6c-0.3,0.3,1.3,3.8,1.3,3.8s0.8-1.1,1-1.9c0.3-1,0.2-2.9,0-2.9
			C108.1,18.5,107.5,18,107.5,18z"/>
		<path class="st0" d="M110.3,18.6c-0.1,0.6-0.3,2.4,0.2,3.7c0.6,1.4,2.9,2.3,3.1,2.3c0.2,0,0.2-1.5,0.1-1.8
			C113.3,21,110.3,18.6,110.3,18.6z"/>
		<path class="st0" d="M112.5,25.4c0.4,0.3,2.1,1.6,2-1.4c0.3,0.5,1.3,3-1.2,5C112.5,28.2,112.5,25.4,112.5,25.4z"/>
		<path class="st0" d="M116.6,27c0.2,0.6,0,2.9,3.8,5.2c0.4-1.2-0.5-3.1-0.7-3.3C119.5,28.7,118.7,27.4,116.6,27z"/>
		<path class="st0" d="M115.1,23.4c0.4,0.4,0.8,1.8,0.7,2c-0.1,0.2,1.9,1.3,3.7,1.3C118.9,23.7,115.1,23.4,115.1,23.4z"/>
		<path class="st0" d="M121.7,24.2c-0.5,0.6-1.7,3.7,0.4,6.8C125.6,27,121.7,24.2,121.7,24.2z"/>
		<path class="st0" d="M112.8,19.5c0,1,1.5,2.8,5.6,3.3c-1-2.3-2.6-2.9-2.8-3C113.8,19.2,112.8,19.5,112.8,19.5z"/>
		<path class="st0" d="M116,17.7c-0.7,0,1.2,3.4,6,3c-0.1-0.2-0.1-0.3-0.1-0.3S120.8,17.8,116,17.7z"/>
		<path class="st0" d="M118.7,21.1c0.7,0.4,1.3,0.5,2.1,0.5c1,0.7,0,3,0,3s-0.3,0.4-0.4,1.1c-0.1,0.2-1.7-2-1.7-2s0.8,0.4,1.2-0.1
			C120.2,23.2,118.7,21.1,118.7,21.1z"/>
		<path class="st0" d="M122.4,23.3V24c0,0,1.4,1,2.1,2.3c0.5,0.9,2.2,1.6,2.2,1.6s0.2,0.1,0.3-0.1C127,27.5,127.6,23.6,122.4,23.3z"
			/>
		<path class="st0" d="M124,20.7c-0.3,0.1,0,0.8-1.2,0.7c0,0.4,0.4,0.7,0.4,0.7s1.5,2.1,5.9,2C129.2,22.8,127.4,20.7,124,20.7z"/>
		<path class="st0" d="M122.3,18.8c-0.3-0.2,3-2.7,5.8-1.2c-1.4,2.6-4.8,2.4-4.8,2.4S123,19.5,122.3,18.8z"/>
		<path class="st0" d="M121.4,18.2c0,0,2.2-1.4,2.2-4.2c-0.6-0.1-3.8,1.1-3.5,3.6C120.8,17.8,121.2,18,121.4,18.2"/>
		<path class="st0" d="M119.8,14.4c0.3-0.2,1.3-1.3,1.4-1.6c0.1-0.3-2.6-0.4-3.3,0.2C117.9,13.1,119.8,14.4,119.8,14.4z"/>
		<path class="st0" d="M115.1,12.8c0,0.9,0.5,3.1,3.6,4.4c0,0,0.5-0.1,0.9-1C119.9,15.2,117.2,12.7,115.1,12.8z"/>
		<path class="st0" d="M112.3,12.4c-0.7,0.4,0.6,4.8,1.9,6.2c0,0,0.7,0,0.8-1.9C115,14,112.8,12.1,112.3,12.4z"/>
		<path class="st0" d="M112.1,11.7c0.8,0.1,1.9,0.6,2.1,1.1c0.2,0.5,0.4-0.4,0.6-0.5c0.2-0.1,0.6-0.1,0.9,0c0.3,0.1,2-0.9,2.5-1.1
			C120,10.6,115.1,9.1,112.1,11.7z"/>
		<path class="st0" d="M106.8,8.9c0.1-1,1.5-3.1,2.1-3c0.7,0.1,0.7,3.1,0.7,3.1s-0.9,0.6-1,1.5C107.8,9.4,106.8,8.9,106.8,8.9z"/>
		<path class="st0" d="M108.5,12.4c0.2-0.9,1.4-4.1,4.7-4.8c-0.4,5.4-4.1,5-4.4,5.1C108.5,12.6,108.5,12.4,108.5,12.4z"/>
		<path class="st0" d="M105.2,8.6c0.9,0.3,2.2,1.8,2.4,2.3c0.3,0.7,0.7,2,0.1,3.1c-0.9-0.4-3.2-3.2-2.9-5.4
			C104.9,8.5,105.2,8.6,105.2,8.6z"/>
		<path class="st0" d="M109.8,13.8c-0.2,0-0.2,1.1-0.1,1.4c0.1,0.3,1.5,0.5,2.4,1.8c-0.9-2.1-0.7-2.6-0.7-2.6S110.2,13.8,109.8,13.8
			z"/>
		<path class="st0" d="M107.5,15.4c0.3,0.6,0.5,1.7,0.4,2.1c1.1,0.6,3.2,0.4,3.2,0.4S110.1,15.3,107.5,15.4z"/>
		<path class="st0" d="M104.3,19.2c-0.1-1.1,0.5-4,1.5-4.4c0.9,0.8,0.8,4.7,0,5.2C105.1,19.2,104.3,19.2,104.3,19.2z"/>
		<path class="st0" d="M101.7,14.6c0.2,0.5,0.3,3,0.1,3.6c-0.1,0.6,0.7-0.2,1-0.5c0.7-0.7,2-2.9,1.7-5.1
			C104.1,11.9,101.7,14.6,101.7,14.6z"/>
		<path class="st0" d="M99.4,11.7c0.3-0.6,1.6-2.3,2.3-2.4c0.7-0.1,0.4,3.4-0.4,4.5C100.3,11.9,99.4,11.7,99.4,11.7z"/>
		<path class="st0" d="M99.2,13.2c0.8,0,1.9,1.9,2,2.6c0.1,0.7,0.2,1.7-0.7,3.7c-0.7,0.5-1.5-2.7-1.5-2.8
			C98.9,16.6,98.4,14.5,99.2,13.2z"/>
		<path class="st0" d="M97.2,7.6c-0.4,0.1-0.9,2.6,0.9,6c0.7-3.4,1.6-3.5,1.6-3.5S98.6,7.8,97.2,7.6z"/>
		<path class="st0" d="M92.9,12.4c-0.2-1.2,0.3-4.5,2.5-5.1c1.4,1.9-0.1,5.1-0.5,5.6C93.5,11.9,93,12.9,92.9,12.4z"/>
		<path class="st0" d="M91.6,6.7c0.5,0.8,1.2,2.6,0.4,5.5c-0.3,1.2-0.6-1.6-1.3-2.1c-0.7-0.6-0.8-0.3-0.8-0.7
			C89.9,8.6,91.2,6.2,91.6,6.7z"/>
		<path class="st0" d="M86,8.7c0,0.2,0.3,4.1,4.8,3.6C89.8,8.8,86.4,8.5,86,8.7z"/>
		<path class="st0" d="M83,11.3c0.9-0.1,4.8-0.1,5.4,3.5C83.9,15.7,83,11.3,83,11.3z"/>
		<path class="st0" d="M89.5,13.6c0.6-0.7,5.4-1.2,7.2,0.8c0.1,0.2,0,0.3,0,0.3S91.9,16.7,89.5,13.6z"/>
		<path class="st0" d="M97.6,15.4c-0.4,0.5-1.1,1.1-1.4,2.5c-0.3,1.4,0,3.3,0,3.7c0,0.3,0.6-0.1,0.7-0.3c0.1-0.1,1.5-1.7,1.5-2.6
			c0-0.9-0.2-3.1-0.3-3.2C98.2,14.8,97.6,15.4,97.6,15.4z"/>
		<path class="st0" d="M86.3,16.8c-0.4-0.5,3.5-2.1,5.4-0.9c0.3,0.2-0.9,0.4-2.1,1.7C89,18.1,86.7,17.4,86.3,16.8z"/>
		<path class="st0" d="M92.8,16.8c-0.7,0.2-3.6,0.9-5.1,3.5c-0.4,0.6,0.3,0.5,0.5,0.5c0.7,0,2.3,0,3-0.9
			C92.8,18,93.4,16.6,92.8,16.8z"/>
		<path class="st0" d="M96.6,15.5c-0.8,0.4-2.8,1.9-3.5,4.4c-0.1,0.6,1.4-0.2,2.1-0.2C95.6,16.2,96.6,15.5,96.6,15.5z"/>
		<path class="st0" d="M92.8,20.8c-1,0-3.4,0.8-4.6,3.5c1.4,0.6,2.1,0,2.5-0.1C91.5,21.9,92.8,20.8,92.8,20.8z"/>
		<path class="st0" d="M94.1,21.2c-0.6,0.5-2.9,1.1-2.9,6.4C95.3,26.4,94.1,21.2,94.1,21.2z"/>
		<path class="st0" d="M98.3,21.4c-0.1-0.6-3.1,1.7-4.3,4.8C95.3,26.7,98.8,24.8,98.3,21.4z"/>
		<path class="st0" d="M102.1,18.8c-0.4,0.3-1.9,1-1.6,6.3c1.3-0.7,1.9-2,2-2.3c0.1-0.2,0.4-1.4-0.1-1.5
			C101.9,21.2,102.1,18.8,102.1,18.8z"/>
		<path class="st0" d="M99.5,21.3c0,0.4-0.6,2.5-1,2.6c0,0.9,0.3,1.5,0.4,1.8c0.1,0.4,0.8,1.6,1.4,2.2c0.4,0.3,1-1.9,1.2-2.2
			c0.4-0.9-1,0.4-1.3,0.3c-0.3-0.2-0.4-4-0.3-4.5C99.9,21.3,99.5,21.3,99.5,21.3"/>
		<path class="st0" d="M86.8,23.2c0.5,0.9,1.4,2.8,1,3.8c-0.4,1.1-1.3,1.2-1.3,2c0,0.5-0.2,0.1-0.3,0.1C86.1,29.1,84,26.3,86.8,23.2
			z"/>
		<path class="st0" d="M86.6,32.8c0.9-0.4,2.5-0.8,3-2.8c0.5-1.9,0.2-2.9,0.1-3.1c-0.1-0.4-0.4-0.6-1.1,0.3c-1,1.2-1.5,2-1.7,2.9
			C86.7,31.1,86.6,32.8,86.6,32.8z"/>
		<path class="st0" d="M83.3,25.8c-0.5,0.9-2.3,3.7,1.5,6.5C85.9,28.9,83.3,25.8,83.3,25.8z"/>
		<path class="st0" d="M81.8,26.7c0.3-0.3-3.6,1.9-3.3,4.9c0,1,2.5-0.8,3.1-1.1C81.7,30.4,81,27.6,81.8,26.7z"/>
		<path class="st0" d="M78.7,25.1c-1.2,0.4-4.6,3.1-4.1,5.9c2.5,0.1,4-2.4,4.2-3.6C79,26.1,78.7,25.1,78.7,25.1z"/>
		<path class="st0" d="M77.5,24.4C75.9,24.3,73,24,71,27.7C75.5,28,77.5,24.4,77.5,24.4z"/>
		<path class="st0" d="M70.7,21.3c0.8-0.4,3.5-0.5,5.6,2.3c-2.7-0.2-3.1,0.4-3.2,0.4C73.1,24.1,70.9,22.8,70.7,21.3z"/>
		<path class="st0" d="M80.4,19.8c-1.7-1.1-5.2-1-7.2,0.3C74.1,21.8,78.6,22.2,80.4,19.8z"/>
		<path class="st0" d="M82.1,20.4c-1.3,0.2-3.6,1.2-5.1,3c0.4,0.5,2.3,0.6,2.3,0.6S81.2,20.9,82.1,20.4z"/>
		<path class="st0" d="M74.1,17.6c0.8-0.8,4.4-1.9,7.1,1.5c-0.6,1-2.9-1.9-6.1-0.4C73.6,17.9,74.1,17.6,74.1,17.6z"/>
		<path class="st0" d="M77.8,15.7c1-1.2,4.4-2.9,7.4-0.2C80.9,17.9,77.8,15.7,77.8,15.7z"/>
		<path class="st0" d="M80.7,17.4c1.6-0.6,5.3-0.2,6.8,1.2c-2.2-0.1-3.7,1.1-3.7,1.1S82.5,19.4,80.7,17.4z"/>
		<path class="st0" d="M83.2,20.6c-0.1-0.5-3.2,2.1-3,6.1c0,0.3,0.2,0.1,0.4,0C80.8,26.6,84.2,24.6,83.2,20.6z"/>
		<path class="st0" d="M83.9,20.9c-0.3-0.3,2.4-1.8,3-1.6c0.1,1.5-2,5.5-3.4,5.9C83.5,25.2,84.5,22.6,83.9,20.9z"/>
	</g>
	<g>
		<path class="st0" d="M82.2,90.9c0,0.3-0.1,0.5-0.3,0.7c-0.2,0.2-0.4,0.4-0.8,0.5c-0.3,0.1-0.7,0.2-1.1,0.3
			c-0.4,0.1-0.8,0.1-1.3,0.1h-1.4v2.3h-1.7v-5.6h3.1c0.4,0,0.8,0,1.2,0.1c0.4,0.1,0.8,0.2,1.1,0.3c0.3,0.1,0.6,0.3,0.8,0.5
			C82.1,90.3,82.2,90.6,82.2,90.9z M80.5,90.9c0-0.3-0.2-0.5-0.5-0.7c-0.3-0.1-0.8-0.2-1.2-0.2h-1.4v1.8h1.4c0.5,0,0.9-0.1,1.2-0.2
			C80.3,91.4,80.5,91.2,80.5,90.9z"/>
		<path class="st0" d="M91.4,94.8l-0.7-1.5h-2.6l-0.7,1.5h-1.8l2.9-5.6h1.7l2.9,5.6H91.4z M90,91.7c0-0.1-0.1-0.2-0.1-0.3
			c-0.1-0.1-0.1-0.2-0.1-0.4c0-0.1-0.1-0.2-0.1-0.3c0-0.1-0.1-0.2-0.1-0.2c0,0.1-0.1,0.1-0.1,0.2c0,0.1-0.1,0.2-0.1,0.3
			c0,0.1-0.1,0.2-0.1,0.4c-0.1,0.1-0.1,0.2-0.1,0.3l-0.4,0.9h1.9L90,91.7z"/>
		<path class="st0" d="M103.1,94.8l-1.8-2.4H100v2.4h-1.7v-5.6h3.3c0.4,0,0.9,0,1.3,0.1c0.4,0.1,0.8,0.1,1.1,0.3
			c0.3,0.1,0.6,0.3,0.7,0.5c0.2,0.2,0.3,0.4,0.3,0.7c0,0.4-0.2,0.7-0.5,1c-0.3,0.2-0.8,0.4-1.4,0.5l1.9,2.6H103.1z M103.3,90.8
			c0-0.3-0.2-0.5-0.5-0.6c-0.3-0.1-0.7-0.2-1.3-0.2H100v1.7h1.6c0.5,0,1-0.1,1.3-0.2C103.1,91.3,103.3,91.1,103.3,90.8z"/>
		<path class="st0" d="M110.5,94.8v-5.6h1.7v5.6H110.5z"/>
		<path class="st0" d="M123.8,93.4c0,0.2-0.1,0.4-0.2,0.6c-0.1,0.2-0.4,0.4-0.6,0.5c-0.3,0.1-0.6,0.2-1,0.3
			c-0.4,0.1-0.9,0.1-1.4,0.1c-0.8,0-1.4-0.1-1.9-0.3c-0.5-0.2-0.9-0.4-1.3-0.7l1.3-0.5c0.3,0.2,0.6,0.4,0.9,0.5
			c0.3,0.1,0.6,0.1,1,0.1c0.5,0,0.8-0.1,1.1-0.2c0.3-0.1,0.4-0.3,0.4-0.5c0-0.1,0-0.2-0.1-0.3c-0.1-0.1-0.2-0.2-0.3-0.3
			c-0.1-0.1-0.4-0.2-0.6-0.3c-0.3-0.1-0.6-0.2-1-0.3c-0.3-0.1-0.7-0.2-0.9-0.3c-0.3-0.1-0.5-0.2-0.8-0.4c-0.2-0.1-0.4-0.3-0.5-0.4
			c-0.1-0.2-0.2-0.4-0.2-0.6c0-0.2,0.1-0.4,0.2-0.6c0.1-0.2,0.3-0.3,0.6-0.4c0.3-0.1,0.6-0.2,0.9-0.3c0.4-0.1,0.8-0.1,1.3-0.1
			c0.7,0,1.3,0.1,1.7,0.2c0.4,0.1,0.8,0.3,1.2,0.6l-1.2,0.5c-0.1-0.1-0.3-0.2-0.4-0.2c-0.1-0.1-0.3-0.1-0.4-0.1
			c-0.1,0-0.3-0.1-0.4-0.1c-0.2,0-0.3,0-0.5,0c-0.4,0-0.7,0.1-0.9,0.2c-0.2,0.1-0.3,0.3-0.3,0.4c0,0.1,0,0.2,0.1,0.3
			c0.1,0.1,0.2,0.2,0.3,0.2c0.1,0.1,0.3,0.2,0.5,0.2c0.2,0.1,0.5,0.2,0.8,0.3c0.4,0.1,0.7,0.2,1,0.3c0.3,0.1,0.6,0.2,0.8,0.4
			c0.2,0.1,0.4,0.3,0.6,0.5C123.7,93,123.8,93.2,123.8,93.4z"/>
	</g>
</g>
</svg>
