<?xml version="1.0" encoding="UTF-8"?>
<svg xmlns="http://www.w3.org/2000/svg" version="1.1" viewBox="0 0 200 100">
  <defs>
    <style>
      .cls-1 {
        fill: #fff;
      }

      .cls-2 {
        fill: #dadada;
      }
    </style>
  </defs>
  <!-- Generator: Adobe Illustrator 28.6.0, SVG Export Plug-In . SVG Version: 1.2.0 Build 709)  -->
  <g>
    <g id="Layer_2">
      <g>
        <path class="cls-1" d="M108.1,2.8s0,0,0,0h0s0,0,0,0c0,0,0-.1-.1,0"/>
        <path class="cls-2" d="M139.1,89.4h.7l.6,1.8h0l.6-1.8h.7v2.4h-.5v-2h0l-.7,2h-.4l-.7-2h0v2h-.5v-2.4ZM136.9,89.4h1.9v.4h-.7v2h-.5v-2h-.7v-.4Z"/>
        <path class="cls-2" d="M139.1,89.4h.7l.6,1.8h0l.6-1.8h.7v2.4h-.5v-2h0l-.7,2h-.4l-.7-2h0v2h-.5v-2.4ZM136.9,89.4h1.9v.4h-.7v2h-.5v-2h-.7v-.4Z"/>
        <path class="cls-2" d="M51.9,70.2c1.5.3,1.9-1,1.8-1.6-.2-1.2-.3-2.4-.4-4,0-1.5-.2-3.3-1.2-4.5-.5-.6-1.2-1-2-1-3.6,0-2.4,5.7-1.9,7.7.2.8.6,1.7,1.3,2.3.7.6,1.5.9,2.4,1M123.7,3.7c24.8,7.8,28.3,36.7,28.3,36.7.7,3.7.6,15.7-.8,21.6-1,4.1-1.9,14.9-19.5,28.7-3.4,2.7-7.4,5.7-11.5,6.1-.5,0-1,0-1.3-.3-.3-.4.5-1.4.7-1.5,10.7-6.4,25.6-17.1,26.2-42.6,0,0,1.5-23.9-13.3-35.3-4.8-3.6-11.6-7.8-17-9.2-.8-.2-8.2-1.9-8.4-.6-.3,1.8,2.8,1.9,4.3,2,3.6,0,7.9,2.3,8.9,2.8,12.8,6.3,16.2,13.7,17.3,15.5,5,7.9,4.8,23,4.8,25.2.2,13.7-7,23-10.2,27.5-5.5,7.6-17.9,17.2-38,18.9-4.7.4-15.1.3-25.3-5.3-3.3-1.8-9.9-7.1-13.1-13.2-1-1.8-2.8-6.4-.6-6.9,1.3-.3,3.2,3.7,6.8,7.6,3.2,3.5,6.5,6.7,11.4,9.1,6.4,3.1,14.1,4.9,17.3,4.4.7-.1.8-1,0-1.1-2-.5-5.9-.8-9.1-2-5-1.8-14.3-7.6-19.7-14.5-2-2.6-5-8.5-5.6-12.9-1-7.6-.7-18.4-.3-20.5,2.1-12.2,8.6-19.3,13.7-23.7,4.9-4.3,14-7.4,16.4-8.5.4-.2.2-.7,0-.7-.4,0-1,0-1.4.1-.3,0-.7.2-1.1.2-1,.2-30.3,6.8-30.6,42.3,0,3.2-2.8,1.4-3.1-.6-.9-5.4-.8-10.4.4-15.5,2.3-9.5,8.2-17.1,14-22.1,8.6-7.3,20.5-11.6,30.5-13.3,8.5-1.5,15.4-2.8,29.2,1.6"/>
        <g>
          <path class="cls-1" d="M124.4,31.4c-.5-.2-.9-.4-1.3-.6-1.3-.6-4.4-1.6-7-2.4-1.4-.4-2.9-.9-3.1-1-.3-.4-.9-3.1-1.2-4.4-.2-.7-.3-1.2-.3-1.4-.2-.8-.5-1.3-1.3-1.2,0,0,0,0,0,0-.3,0-4,.8-10.2,2-4.1.8-8.4,1.7-8.7,1.7-.3,0-.5.2-3.2,4.3-.8,1.2-1.8,2.7-2,2.9,0,0-.7.3-1.3.5-1.7.7-4.9,2-7.6,3.4-3,1.6-8.8,4.9-9.2,5.7-.2.3-.2.6,0,.9.2.3.7.5,1.2.5.1,0,.2,0,.4,0,.6-.1,18.9-2.8,29.4-4,2.6-.3,5.9-.5,9.9-.8,9.6-.5,19.3-.6,19.9-.5.6,0,1.1-.1,1.5-.5.3-.3.5-.8.5-1.3,0-.9-2.1-2-6.3-3.9"/>
          <path class="cls-1" d="M91,50.1c0-.9-.2-1.4-.5-1.6-.1,0-.3-.1-.5,0,0,0,0,0,0,0-.4.1-.6.5-.7.8,0,0,0,.2-.3.5-3.4,4.5-3.8,6.1-4,7.5-.1,1.1.2,2.4.9,3,.3.3.7.4,1.1.3.3,0,.5-.2.7-.4.1-.2.1-.4,0-.6.1-.7.7-1.8,1.3-3,1-2,2.3-4.5,2.1-6.5"/>
          <path class="cls-1" d="M90.6,47.1s0,0,0,0c.9-.2,1.6-1.2,2-1.7.8-1.1,1.8-2.6,2.2-3.3,0-.2.3-.6.4-.7,0-.3,0-.5,0-.6-.1-.2-.4-.2-.8-.1-1,.2-3.2,1.3-4.4,3-.6.8-.9,1.7-.7,2.4.1.7.7,1.1,1.4,1"/>
          <path class="cls-1" d="M109.7,56.3c-.2,0-.4.1-.4.1-.8.4-2.2.6-2.9.6-1.1.1-2.2,0-3.5-.2-1.6-.2-3.4-.5-5.7-.2-.4,0-.8,0-1.2.2.7-.7,2.7-2.7,3.8-3.9.8-.8,2.1-2.3,2.5-3.3.1-.4.3-1.1,0-1.5-.2-.3-.6-.4-1.2-.4,0,0-6.8.7-6.8.7-.2,0-.5,0-.6,0,0,0,0,0,0,0-.7,0-1.2.3-1.3.8-.1.5.1,1,.6,1.3.5.3,1.2.4,2.3.4.4,0,.8,0,1.2,0,.9,0,1.6-.3,2.1-.4-1,.9-3.6,3.5-5.3,5-.1.1-.2.2-.4.3-.9.8-1.9,1.8-2.4,2.7-.4.8-.4,1.6.1,2,.3.2.6.3,1,.3.3,0,.6-.1,1.1-.3.9-.3,2.2-.6,4.4-.9,1.8-.2,3.8-.2,6.1-.2.8,0,1.6,0,2.4,0,1.9-.2,3.5-.7,4.4-1.5h0c.3-.3.8-.7.6-1.2-.1-.2-.3-.3-.6-.3"/>
          <path class="cls-1" d="M85.2,52.1s1.7-3.6-1.4-6.1c-1.5-1.3-3.7-1.7-6.1-1.3-1.3.2-2.5.7-3.4,1.3-.9.6-1.2,1.2-1.2,1.7,0,.5.2.9.3,1,.1.1.4.3,1,.2.3,0,.7-.2,1.1-.3-.8,1.1-3.4,4.7-5.3,10.9-1.4,4.5-1.8,7.2-1.2,8.2.1.2.3.3.6.4,0,0,.2,0,.2,0,1.3-.2,2.5-3.5,4.3-8,.3-.7.5-1.3.8-2,2.9-7.4,3.1-9.2,2.9-9.7.9,0,4,.1,4.4,2.5.3,2-1.8,3.8-3.9,4.9-.6.3-1.1.5-1.5.6-.4.1-.7.3-1,.4-.3.2-.2.4-.2.4.1.4.9.6,2.2.4h0c.9-.2,5.5-1.2,7.4-5.3"/>
          <path class="cls-1" d="M109,64.7c0-.6,0-1-.3-1.2-.1-.1-.3-.2-.5-.2,0,0-.1,0-.2,0-.5,0-.9.7-1.4,1.5-.5.8-1.1,1.8-2.3,2.9-1.3,1.2-2.6,2.2-3.1,2.4.4-1.1.5-2.5.4-3.2,0-.7-.3-1.3-.7-1.6-.5-.4-1.1-.4-1.5-.3-.6.1-1.1.4-1.2.5-.1.1-.2.2-.1.4,0,.2.2.3.5.4.5.2.4.5.3.9,0,0,0,.1,0,.2,0,.3-.2.7-.3,1-.5,1.3-.9,2.7-.5,3.8.4.9,1.2,1.4,2.4,1.2.2,0,.5-.1.7-.2,1.3-.5,2.8-1.7,4.3-3.7,0,1.8,1.2,2.7,1.7,3,.4.3.8.4,1.1.4.2,0,.4-.1.4-.3,0-.2.1-.4,0-.9-.3-.7,0-3.5.3-5.3.1-.7.2-1.3.2-1.6"/>
          <path class="cls-1" d="M124.4,59.9c-.3-.3-.9-.1-3,.3-.6.1-1.3.3-2.2.5-.2,0-.7.2-1.2.3-.3,0-.6.1-1,.2v-.2c.5-.8.8-1.6,1-2.1.1-.6,0-1-.2-1.3-.2-.2-.5-.3-.8-.3-.3,0-.5.2-.8.5-.3.4-1.5,1.8-2.7,4.1-.4,0-1.7.3-2.6.2-.2,0-.5,0-.7,0h0c-.4,0-.7.3-.9.7-.1.2-.1.5,0,.8.1.3.4.6.8.7.5.2,1.3.4,2.2.3-1.3,3.3-1.8,6.3-1.5,9.1,0,.5.2.9.4,1,0,0,.2,0,.3,0,.3,0,.6-.4.8-1,.1-.5,2.1-6.3,3.5-9.9,2.9-1,5.3-1.9,7.1-2.8h.1c.5-.3,1-.5,1.2-.7.1-.1.2-.2.2-.3,0,0,0-.2-.1-.2"/>
          <path class="cls-1" d="M97.8,67.5c0,0,0-.2-.3-.2-.1,0-.3,0-.6,0,0,0-.2,0-.3.1-.2,0-.6.2-1,.4.3-1.4.6-2.5.8-3.4.5-1.9.7-2.8.4-3.2-.1-.1-.3-.2-.5-.2,0,0-.1,0-.2,0-1.2.2-3.1,4.2-4.4,8,0,0-.2,0-.3,0-1.3.3-2.8.7-4.4,1,.3-1.1.7-2.1,1.1-3.4h0c.4-1.2,1.2-3.4,1.1-4.4,0-.7-.4-.8-.6-.8,0,0,0,0,0,0-1.4.2-4,5-5.7,9.3h-.2s-.4.1-.4.1c-1,.2-1.9.3-2.4.6-.9.3-1.4.8-1.4,1.3,0,.5.3.9,1,1.2.6.3,1.3.4,2.1.4-.7,2.1-1.6,5.7-.8,7.1.2.3.5.5.8.6.2,0,.5,0,.7,0,1.5-.3,2.2-2.4,2.5-4,.3-1.4.7-2.9,1.1-4.3,1.5-.4,3.2-1,5-1.8-.5,2.1-1,5.3.5,5.6.3,0,.5.1.8,0,.6-.1,1.1-.6,1.5-1.3.5-1,.8-2.4,1-3.7.2-1,.3-2,.5-2.9,1.1-.6,1.9-1.2,2.3-1.6.3-.3.4-.5.3-.7"/>
          <path class="cls-1" d="M121.8,47c-.6,1.3-.7,1.6-.8,2-.6.4-2.6,1.4-3.4,1.5-.2,0-.2,0-.3,0,0,0,0-.1,0-.1.9-2.4,3.6-3.2,4.4-3.3M125.3,49.8c-.3,0-.6-.1-.7-.3-.4-.4-.2-1,.2-2,.1-.4.3-.9.5-1.4.2-.7,0-1.1-.1-1.3-.2-.3-.4-.4-.6-.4-.3,0-.7.2-.8.3-.5-.1-1.1-.1-1.7,0-2.9.2-6.3,2.4-7.8,4.8-.7,1.2-.9,2.3-.5,3.3,0,0,0,.1.1.2,0,0,0,0-.1,0-.4.2-1,.4-1.6.4-1,0-2.1,0-3.1-.2-.5,0-1-.1-1.4-.2.8-.8,3.4-3.3,4.4-4.4.4-.5,1.2-1.3,1.3-1.5.5-.7.5-1.4.1-1.9-.3-.4-1-.8-2.6-.7-.2,0-.5,0-.8.1-2.5.4-4.2.7-4.9.8-.3,0-.5,0-.7,0-.1,0-.3,0-.4,0h0c-.3,0-.6.2-.8.5-.2.3-.2.8,0,1.3.3.7,1.1,1,1.8,1,.3,0,.8,0,1.4,0,1.1,0,2.3-.3,2.9-.4-.6.6-1.4,1.2-2.2,1.8-1.3,1.1-2.7,2.2-3.7,3.2-1.1,1.2-1.6,2.4-1.3,3,.2.3.5.4.9.3.5-.1,1.1-.2,1.8-.3.9,0,1.8,0,2.7,0,.9,0,1.8,0,2.7,0,1.1,0,2-.3,2.8-.6,1-.4,1.6-.9,1.8-1.4.2,0,.3.1.5.2.4,0,.8.1,1.2,0,1.9-.2,3.6-1.4,4.6-2.1.2-.2.4-.3.5-.4.3.6,1.4,1,2.7.8h0c.7,0,2.2-.4,2.6-1,.1-.1.2-.3.2-.4,0-.3-.4-.8-1.8-.9"/>
        </g>
      </g>
    </g>
  </g>
</svg>