<?xml version="1.0" encoding="utf-8"?>
<!-- Generator: Adobe Illustrator 25.3.1, SVG Export Plug-In . SVG Version: 6.00 Build 0)  -->
<svg version="1.1" id="Layer_3" xmlns="http://www.w3.org/2000/svg" xmlns:xlink="http://www.w3.org/1999/xlink" x="0px" y="0px"
	 viewBox="0 0 200 100" style="enable-background:new 0 0 200 100;" xml:space="preserve">
<style type="text/css">
	.st0{fill:#DADADA;}
</style>
<path class="st0" d="M117,25.1c6.9,0,13.9,0,20.8,0c-3.6,6.9-7,13.8-10.7,20.7C123.8,38.8,120.4,31.9,117,25.1L117,25.1z"/>
<path class="st0" d="M151.4,25.1c6.4-0.2,12.8,0,19.2-0.1c8.2,16.5,16.2,33.2,24.4,49.8c-6.8,0-13.7,0-20.5,0
	c-4.4-11.4-8.8-22.8-13.3-34.1c-4.1,11.4-8.2,22.8-12.2,34.1c-5.6-0.1-11.2,0-16.8,0c-1.3,0-2.6,0-4,0.1c1.5-0.9,2.5-1.9,3.2-3.5
	c-0.2-0.6-0.4-1.1-0.6-1.7c0.5,0.1,1,0.2,1.4,0.2C139.5,55.5,145.3,40.2,151.4,25.1L151.4,25.1z"/>
<path class="st0" d="M120.7,61.1c-5.1-12.1-10.7-24-16-36c-7.2,0-14.3,0-21.5,0C76.5,39.5,70,54.1,63.3,68.6c0-4.7-0.8-9.7-3.7-13.5
	c-1.5-1.9-3.2-2.7-5.5-3.1c2.7-1.1,5-2.4,6.6-4.9c3-4.6,2.3-10.8-0.9-15.1c-3.3-4.5-8.7-6.8-14.1-6.9c-12,0-24,0-36,0
	c-1.5,0-3.1-0.1-4.7,0.1c0,16.5,0,33.2,0,49.7c6.2,0,12.4,0,18.6,0c0.2-5.3,0-10.6,0.1-15.8c3.5-0.1,7-0.2,10.5-0.3
	c2.1,0,5,0.2,6.6,1.8c2.1,2.3,2,6.1,2.1,9.1c0.1,1.6-0.3,3.9,1.4,4.9c1.6,0.6,3.6,0.3,5.4,0.4c10.3,0,20.6-0.1,30.9,0
	c4-11.1,7.9-22.2,11.9-33.4c4.3,11,8.3,22.2,12.5,33.3c1.8,0,3.6,0,5.5,0c-1.2-3.5-2.3-7-3.6-10.5c3.3,0,6.5,0,9.8,0
	c1.5-0.1,3.1,0.2,4.5-0.2C121.9,63.4,120.9,61.9,120.7,61.1z M41.7,44.1c-0.9,2.4-3.6,3.6-6.1,3.6c-4.1,0-8.2,0-12.4,0
	c0.1-3.3,0-6.6,0-9.9c3.2-0.2,6.6,0.1,9.8-0.1c2.4-0.1,4.6-0.1,6.6,1.3C41.5,40.1,42.4,42.1,41.7,44.1z"/>
</svg>
