<?xml version="1.0" encoding="utf-8"?>
<!-- Generator: Adobe Illustrator 25.3.1, SVG Export Plug-In . SVG Version: 6.00 Build 0)  -->
<svg version="1.1" id="Layer_2" xmlns="http://www.w3.org/2000/svg" xmlns:xlink="http://www.w3.org/1999/xlink" x="0px" y="0px"
	 viewBox="0 0 200 100" style="enable-background:new 0 0 200 100;" xml:space="preserve">
<style type="text/css">
	.st0{fill:#DADADA;}
</style>
<polygon id="XMLID_3_" class="st0" points="3.5,87.1 33.2,87.1 3.5,57.4 "/>
<polygon id="XMLID_4_" class="st0" points="196.5,12.9 166.8,12.9 196.5,42.6 "/>
<polygon id="XMLID_5_" class="st0" points="45.1,69.3 62.9,87.1 92.5,87.1 74.7,69.3 "/>
<polygon id="XMLID_6_" class="st0" points="3.5,12.9 3.5,27.7 21.3,45.5 21.3,30.7 36.1,30.7 18.3,12.9 "/>
<polygon id="XMLID_7_" class="st0" points="196.5,72.3 178.7,54.5 178.7,69.3 163.9,69.3 181.7,87.1 196.5,87.1 "/>
<polygon id="XMLID_8_" class="st0" points="154.9,30.7 137.1,12.9 107.4,12.9 125.2,30.7 "/>
<polygon id="XMLID_9_" class="st0" points="95.5,30.7 77.7,12.9 48,12.9 65.8,30.7 95.5,30.7 "/>
<polygon id="XMLID_10_" class="st0" points="104.4,69.3 122.2,87.1 152,87.1 134.1,69.3 "/>
<polygon id="XMLID_26_" class="st0" points="45.1,62.4 51.4,62.4 51.4,53.2 60.8,53.2 60.8,47.7 51.4,47.7 51.4,43.3 61.9,43.3 
	61.9,37.6 45.1,37.6 "/>
<path id="XMLID_29_" class="st0" d="M76.7,46.4c0,1-0.3,1.8-0.9,2.4c-0.6,0.6-1.5,0.9-2.5,0.9h-3.1v-6.5h3.1c1.1,0,1.9,0.3,2.5,0.8
	C76.4,44.5,76.7,45.3,76.7,46.4L76.7,46.4L76.7,46.4z M81.9,50.6c0.8-1.2,1.2-2.7,1.2-4.5V46c0-1.3-0.2-2.4-0.6-3.3
	c-0.4-1-0.9-1.8-1.6-2.4c-1.6-1.7-4.1-2.5-7.4-2.5h-9.7v24.8h6.3v-7.7h2.3l4.2,7.7h7.2l-5.1-9C80,52.7,81.1,51.8,81.9,50.6"/>
<rect id="XMLID_30_" x="85.3" y="37.6" class="st0" width="6.4" height="24.8"/>
<path id="XMLID_33_" class="st0" d="M108.9,50.2c0,2.2-0.5,3.9-1.6,4.9c-1.1,1.1-2.5,1.6-4.3,1.6h-1.8V43.3h1.8
	c1.7,0,3.2,0.5,4.3,1.6c1.1,1.1,1.6,2.7,1.6,5V50.2z M115.4,50.1v-0.4c0-1.8-0.3-3.5-0.8-5c-0.6-1.5-1.3-2.8-2.4-3.8
	c-1.1-1.1-2.4-1.9-3.9-2.4c-1.5-0.6-3.3-0.9-5.3-0.9h-8.1v24.8h8c2,0,3.8-0.3,5.4-0.9c1.6-0.6,2.9-1.4,3.9-2.5
	c1.1-1.1,1.9-2.4,2.4-3.9C115.1,53.6,115.4,52,115.4,50.1"/>
<path id="XMLID_36_" class="st0" d="M123.7,52.8l2.3-7.2l2.3,7.2H123.7z M122.8,37.5l-8.7,24.9h6.5l1.4-4.5h7.8l1.5,4.5h6.7
	l-8.7-24.9H122.8z"/>
<polygon id="XMLID_37_" class="st0" points="148.4,37.6 144.2,46.6 140.1,37.6 133,37.6 141,53.1 141,62.4 147.4,62.4 147.4,53 
	155.3,37.6 "/>
<path id="XMLID_38_" class="st0" d="M169.9,60.7c0.8-0.7,1.4-1.5,1.9-2.4c0.4-0.9,0.7-2,0.7-3.3v-0.1c0-1.1-0.2-2-0.5-2.8
	c-0.4-0.8-0.9-1.5-1.5-2.1c-0.7-0.6-1.5-1.1-2.4-1.6c-0.9-0.4-2-0.9-3.2-1.2c-0.8-0.3-1.4-0.5-1.9-0.8c-0.5-0.2-0.9-0.4-1.2-0.7
	c-0.3-0.2-0.5-0.4-0.6-0.7c-0.1-0.2-0.2-0.4-0.2-0.7v0c0-0.5,0.2-0.9,0.6-1.2c0.4-0.3,0.9-0.4,1.7-0.4c1,0,2,0.2,3,0.7
	c1,0.4,1.9,1,2.8,1.6l3.2-4.7c-1.3-1.1-2.7-1.8-4.1-2.3c-1.5-0.5-3-0.7-4.7-0.7c-1.3,0-2.6,0.2-3.7,0.6c-1.1,0.4-2,0.9-2.8,1.6
	c-0.8,0.7-1.3,1.5-1.7,2.4c-0.4,0.9-0.6,2-0.6,3.1V45c0,1.1,0.2,2.1,0.6,2.9c0.4,0.8,0.9,1.5,1.6,2.1c0.7,0.6,1.5,1.1,2.5,1.5
	c1,0.4,2,0.9,3.2,1.3c0.7,0.2,1.3,0.5,1.8,0.7c0.5,0.2,0.9,0.4,1.1,0.6c0.3,0.2,0.4,0.4,0.6,0.6s0.2,0.4,0.2,0.7v0
	c0,0.5-0.2,1-0.7,1.3c-0.4,0.3-1.1,0.5-1.9,0.5c-1.2,0-2.4-0.2-3.5-0.8c-1.1-0.5-2.2-1.2-3.2-2l-3.4,4.6c1.5,1.3,3,2.2,4.8,2.8
	c1.7,0.6,3.5,0.9,5.3,0.9c1.3,0,2.5-0.2,3.7-0.5C168.2,61.8,169.1,61.3,169.9,60.7"/>
<polygon id="XMLID_39_" class="st0" points="31.1,53.4 28.2,53.4 28.2,62.7 31.1,62.7 31.1,59.7 40.6,59.7 40.6,56.5 31.1,56.5 "/>
<path id="XMLID_40_" class="st0" d="M33.4,42.8v5h2.5v-2h1.8c0.2,0.4,0.4,0.8,0.4,1.4c0,1.6-1.3,2.8-3.5,2.8h-0.2
	c-2.1,0-3.4-1.2-3.4-2.8c0-1.1,0.4-1.8,1-2.4l-2.4-1.8c-1,1.2-1.5,2.5-1.5,4.3c0,3.4,2.6,6,6.3,6h0.2c3.9,0,6.3-2.6,6.3-5.9
	c0-1.9-0.7-3.4-1.5-4.6H33.4L33.4,42.8z"/>
<rect id="XMLID_41_" x="28.2" y="37.6" class="st0" width="12.4" height="3.2"/>
</svg>
