<?xml version="1.0" encoding="utf-8"?>
<!-- Generator: Adobe Illustrator 25.3.1, SVG Export Plug-In . SVG Version: 6.00 Build 0)  -->
<svg version="1.1" id="Layer_1" xmlns="http://www.w3.org/2000/svg" xmlns:xlink="http://www.w3.org/1999/xlink" x="0px" y="0px"
	 viewBox="0 0 200 100" style="enable-background:new 0 0 200 100;" xml:space="preserve">
<style type="text/css">
	.st0{fill:#231F20;}
</style>
<g>
	<rect x="153.2" y="40.9" class="st0" width="6.7" height="26.8"/>
	<path class="st0" d="M28.5,56.7c0,2.3-0.5,3.9-1.5,4.6c-1,0.7-3.2,1-6.5,1c-4.1,0-6.5-0.6-7.3-1.9c-0.8-1.2-1.1-5.3-1.1-12
		c0-5,0.4-8.1,1.3-9.1c0.8-1,3.3-1.5,7.5-1.5c3.1,0,5.1,0.3,6,1c0.9,0.7,1.3,2.1,1.3,4.4v0.9h6.7l0-0.8c0-4.5-0.8-7.5-2.5-9
		c-1.7-1.5-5.1-2.3-10.1-2.3c-6.9,0-11.5,0.9-13.7,2.8c-2.2,1.8-3.3,5.7-3.3,11.5c0,9.9,0.8,16,2.4,18.3c1.6,2.3,5.9,3.4,12.9,3.4
		c6.1,0,10.1-0.7,11.9-2.2c1.8-1.4,2.7-4.6,2.7-9.5v-1.2h-6.7L28.5,56.7z"/>
	<rect x="153.2" y="32.3" class="st0" width="6.7" height="5.1"/>
	<path class="st0" d="M188,55.1l0.1,1.6c0,2.3-0.5,3.9-1.5,4.6c-1,0.7-3.2,1-6.5,1c-4.1,0-6.5-0.6-7.3-1.9c-0.8-1.2-1.1-5.3-1.1-12
		c0-5,0.4-8.1,1.2-9.1c0.8-1,3.3-1.5,7.5-1.5c3.1,0,5.1,0.3,6,1c0.9,0.7,1.3,2.1,1.3,4.4v0.9h6.7l0-0.8c0-4.5-0.9-7.5-2.5-9
		c-1.7-1.5-5.1-2.3-10.1-2.3c-6.9,0-11.5,0.9-13.7,2.8c-2.2,1.8-3.3,5.7-3.3,11.5c0,9.9,0.8,16,2.4,18.3c1.6,2.3,5.9,3.4,12.9,3.4
		c6.1,0,10.1-0.7,11.9-2.2c1.8-1.4,2.7-4.6,2.7-9.5v-1.2H188z"/>
	<path class="st0" d="M129.6,48.7c-0.5,1.2-1,2.8-1.7,4.9l-0.8,2.4l-0.7,2.4h-0.2l-0.8-2.4l-0.8-2.5c-0.7-2.1-1.3-3.8-1.7-4.9
		l-6.3-16.4h-10.9v35.4h6.7V48.4c0-1.4-0.1-3.2-0.2-5.2l-0.1-2.6l-0.1-2.6h0.2l0.8,2.4l0.8,2.5c0.7,2.2,1.3,3.8,1.7,4.9l7.9,19.8
		h6.1l7.8-20c0.4-1.1,1-2.7,1.7-4.9l0.8-2.5l0.8-2.5h0.2l-0.1,2.6l-0.1,2.6c-0.1,2-0.1,3.7-0.1,5.2v19.3h6.7V32.3h-11.2L129.6,48.7z
		"/>
	<path class="st0" d="M54.1,32c-7.2,0-11.8,1.1-13.6,3.2c-1.9,2.2-2.8,7.4-2.8,15.9c0,7.1,0.9,11.7,2.8,13.7C42.4,67,46.6,68,53,68
		c7.1,0,11.6-1.1,13.5-3.2c1.9-2.1,2.8-7.2,2.8-15.3c0-7.4-0.9-12.2-2.8-14.3C64.7,33.1,60.5,32,54.1,32z M61.2,60.5
		c-0.8,1.2-3.3,1.7-7.5,1.7c-4.4,0-7-0.5-7.9-1.6c-0.9-1-1.3-4.1-1.3-9.2c0-6.9,0.4-10.9,1.1-12c0.8-1.2,3.4-1.7,7.9-1.7
		c4.3,0,6.9,0.5,7.7,1.6c0.8,1.1,1.2,4.6,1.2,10.5C62.5,55.8,62,59.3,61.2,60.5z"/>
	<path class="st0" d="M98.6,49.3c-1.6-1.2-5-2-10.2-2.3c-4.5-0.2-7.1-0.6-7.9-1c-0.8-0.4-1.2-1.8-1.2-4c0-1.9,0.5-3.1,1.5-3.7
		c1-0.6,3.1-0.9,6.2-0.9c2.7,0,4.4,0.3,5.1,0.8c0.7,0.5,1.2,1.8,1.3,3.7c0,0.2,0,0.4,0.1,0.7h6.6v-1.3c0-3.7-0.9-6.1-2.8-7.4
		c-1.8-1.3-5.4-1.9-10.8-1.9c-5.6,0-9.4,0.7-11.2,2.1c-1.9,1.4-2.8,4.1-2.8,8.3c0,4,0.8,6.7,2.3,7.9c1.6,1.2,5.1,2,10.7,2.3l3.7,0.2
		c2.1,0.1,3.4,0.5,4.1,1c0.6,0.6,1,1.7,1,3.4c0,2.3-0.4,3.8-1.2,4.4c-0.8,0.6-2.7,1-5.8,1c-3.8,0-6.2-0.3-7.1-0.8
		c-0.9-0.6-1.3-2.1-1.3-4.5l0-0.8h-6.5l0,1.3c0,4.1,0.9,6.8,2.7,8.2c1.8,1.3,5.5,2,11.1,2c6.2,0,10.2-0.7,12-2.1
		c1.8-1.4,2.7-4.4,2.7-9.1C100.9,53,100.1,50.5,98.6,49.3z"/>
</g>
</svg>
