<?xml version="1.0" encoding="UTF-8"?>
<svg xmlns="http://www.w3.org/2000/svg" version="1.1" viewBox="0 0 400 300">
  <defs>
    <style>
      .cls-1 {
        isolation: isolate;
      }

      .cls-2 {
        fill: none;
        stroke: #000;
        stroke-miterlimit: 10;
      }
    </style>
  </defs>
  <!-- Generator: Adobe Illustrator 28.6.0, SVG Export Plug-In . SVG Version: 1.2.0 Build 709)  -->
  <g>
    <g id="Layer_1">
      <g id="Layer_1-2" data-name="Layer_1">
        <g class="cls-1">
          <g class="cls-1">
            <path class="cls-2" d="M89.6,149.8c10.7,5.1,16,15,16,29.8v42.6c0,16.4,7.1,24.6,21.4,24.6h1.8v14.1h-11c-19.8,0-29.6-12.8-29.6-38.4v-42.2c0-12.7-4.9-20.5-14.6-23.4v-14.1c9.8-2.8,14.6-10.7,14.6-23.5v-42.1c0-25.4,9.9-38.1,29.6-38.1h11v13.9c-15.4,0-23.1,8.2-23.1,24.6v42.6c0,14.8-5.3,24.6-16,29.6Z"/>
            <path class="cls-2" d="M184.6,186.7v23h-19.2v-23h19.2Z"/>
            <path class="cls-2" d="M234.6,186.7v23h-19.2v-23h19.2Z"/>
            <path class="cls-2" d="M310.9,150.1c-10.7-5-16-14.9-16-29.6v-42.6c0-16.4-7.3-24.6-21.9-24.6h-1.8v-14.1h11.2c19.9,0,29.9,12.8,29.9,38.4v42.2c0,12.7,4.7,20.5,14.1,23.4v14.1c-9.4,3-14.1,10.8-14.1,23.4v42.2c0,25.4-10,38.1-29.9,38.1h-11.2v-13.9c15.8,0,23.6-8.2,23.6-24.6v-42.6c0-14.8,5.3-24.7,16-29.8Z"/>
          </g>
        </g>
      </g>
    </g>
  </g>
</svg>