<?xml version="1.0" encoding="UTF-8"?>
<svg xmlns="http://www.w3.org/2000/svg" version="1.1" viewBox="0 0 400 300">
  <defs>
    <style>
      .cls-1, .cls-2, .cls-3 {
        fill: #fff;
      }

      .cls-1, .cls-3, .cls-4, .cls-5 {
        stroke: #000;
        stroke-miterlimit: 10;
      }

      .cls-3 {
        stroke-width: .8px;
      }

      .cls-4, .cls-5 {
        fill: none;
      }

      .cls-5 {
        stroke-width: 3px;
      }
    </style>
  </defs>
  <!-- Generator: Adobe Illustrator 28.6.0, SVG Export Plug-In . SVG Version: 1.2.0 Build 709)  -->
  <g>
    <g id="Layer_1">
      <path class="cls-5" d="M50,166.8c0-1.9-.5-3.7-1.8-5.1-3.2-3.7-10.6-9.7-22.8-7.5-17.1,3-26.7,16.4-30.4,29.4-12.2,41.6-58.1,25.2-76.9,50.2-15.4,20.5-5.2,71.5,30.4,68,35.7-3.4,82.8-66.4,82.8-66.4l17.1-41.6,1.5-27h0Z"/>
      <g>
        <g>
          <path class="cls-2" d="M-50.1,283.4l-4.1-6.8s31.4-36.9,59.3-42.9l34.4,7.9s15.7,4.3,23,14.1,17.1,31.8,17.1,31.8l-7.6,3.4,8.7,76s-18.9,14.3-36.3,16.2c-17.4,1.9-51.4,3.8-67.7,14.7,0,0-19.3-15.4-20.4-22.6,0,0,17.8-63.1-6.4-91.9h0Z"/>
          <path d="M-23.3,398.5c0,0-.3,0-.3-.1-.8-.6-19.5-15.6-20.6-22.9v-.3c.2-.6,17.4-63.1-6.3-91.3h0l-4.1-6.8c0-.2,0-.5,0-.7.3-.3,31.8-37.1,59.6-43.1h.3l34.4,7.9c.7.2,16,4.5,23.3,14.3,7.2,9.7,17,31.7,17.1,31.9,0,.3,0,.7-.3.7l-7.2,3.2,8.7,75.6c0,.2,0,.4-.2.5s-19.2,14.4-36.6,16.3c-2.2.3-4.8.5-7.5.7-18.3,1.8-45.8,4.4-59.8,13.8h-.5v.3ZM-43.1,375.3c1.2,6.4,17.3,19.8,19.8,21.8,14.3-9.4,41.8-12,60-13.8,2.7-.3,5.3-.5,7.5-.7,15.9-1.7,33.4-14.1,35.7-15.8l-8.7-75.7c0-.3,0-.5.3-.6l7-3.2c-1.6-3.5-10.1-22.4-16.7-31.2-7.1-9.5-22.5-13.9-22.7-13.9l-34.2-7.9c-26,5.7-55.4,38.7-58.5,42.4l3.8,6.4c12.6,15,13.7,39.4,12.4,57.2-1.4,18.3-5.4,33.6-5.8,35.1h.1Z"/>
        </g>
        <path d="M-35.4,381.9s-11.8,7.1-19.2,30.8H46.5l-2.1-29.5-79.8-1.4h0Z"/>
        <path d="M-23.3,398.5c0,0-.3,0-.3-.1,0,0-5.8-4.7-11.2-9.9-.2-.2-.2-.6,0-.8s.6-.2.8,0c4.5,4.5,9.4,8.5,10.7,9.6,14.3-9.4,41.8-12,60-13.8,2.7-.3,5.3-.5,7.5-.7,5.7-.6,12.2-2.6,19.2-6,.3-.1.7,0,.8.3s0,.7-.3.8c-7.2,3.5-13.8,5.5-19.6,6.2-2.2.3-4.8.5-7.5.7-18.3,1.8-45.8,4.4-59.8,13.8h-.3,0Z"/>
        <path d="M49.6,316.3h0c-.3,0-.5-.3-.5-.6l2-24.1c0-.3.3-.5.6-.5s.5.3.5.6l-2,24.1c0,.3-.3.5-.6.5Z"/>
      </g>
      <g>
        <path class="cls-2" d="M49,344.7c-4.3,1.1-21.5-2.9-22.5-4,0,0,9.7-2.1,12-3.7s3-3.2,2.6-4.7-17.1.8-21,2.1c-3.9,1.4-8.5,4.7-12,5.8-.8.3-3.2.6-6.6.9,0-.6-42.4.9-53.9-2.5,0,0,19.4-19.8,30.9-30.7,2.2-2.1,2.8-5.3,1.4-8.1-8.6-16.5-22.2-19.1-28.7-19.4-11.8,16.2-23.5,35.3-29.2,43.7-10.9,16.3-17.1,36.1-7.8,39.2,22.5,7.4,90.9-4.7,94.2-4.5,8.5.8,18.8,4.5,24.2,3.4s26.1-7.2,28.6-13.2c2-4.7-7.9-5.5-12.2-4.4h0Z"/>
        <path d="M-63.8,366.3c-8.9,0-16.8-.7-22.1-2.4-2.1-.7-3.5-2.2-4.3-4.4-2.8-8.2,4.1-24.2,11.8-35.7,1.6-2.4,3.7-5.5,6-9.3,6.2-9.6,14.6-22.7,23.1-34.4.1-.1.3-.3.5-.3,7.2.3,20.6,3.3,29.2,19.8,1.5,2.9.9,6.5-1.5,8.7-10.2,9.6-26.7,26.3-30.2,30,8.8,2.2,31.2,2.1,43.4,2.1s8.8,0,9.4.1c3.8-.4,5.8-.7,6.3-.9,1.8-.5,3.7-1.6,5.8-2.8,2-1.2,4.2-2.3,6.2-3,3.7-1.2,19.1-3.5,21.3-2.3.3.2.5.4.5.5.3,1.3,0,3.2-2.8,5.3-1.8,1.2-7.6,2.7-10.5,3.4,4.4,1.4,16.8,4.1,20.5,3.2,3.6-.9,10.4-.5,12.5,2,.5.6,1.1,1.7.4,3.2-2.6,6.4-23.6,12.5-29,13.5-3.4.7-8.5-.4-13.8-1.6-3.5-.7-7.2-1.5-10.6-1.8-.6,0-4.7.5-9.7,1.2-14,1.9-41.3,5.6-62.5,5.6h0v.3ZM-48.5,281c-8.5,11.6-16.8,24.6-22.9,34.1-2.4,3.7-4.5,7-6.1,9.3-9.2,13.7-14,27.9-11.7,34.6.7,1.9,1.8,3.1,3.6,3.7,17.6,5.8,64.1-.5,84-3.2,6.4-.9,9.3-1.3,10-1.2,3.5.3,7.2,1.1,10.8,1.8,5.3,1.1,10.2,2.2,13.3,1.6,6-1.2,25.8-7.3,28.1-12.9.3-.8.3-1.5-.2-2-1.8-2.1-8.1-2.4-11.4-1.6h0c-4.5,1.2-21.9-2.9-23.1-4.1,0-.1-.2-.4,0-.6,0-.2.2-.3.5-.4,2.7-.5,10-2.4,11.8-3.6,1.9-1.3,2.6-2.6,2.4-3.9-1.8-.8-16.5,1.1-20.3,2.4s-4,1.8-6,2.9c-2.2,1.2-4.2,2.3-6.1,2.8-.8.3-3.3.6-6.7.9h-.3c-.7-.1-4.5,0-9,0-13.7,0-36.6,0-44.8-2.4-.2,0-.3-.2-.4-.4,0-.2,0-.4,0-.5.2-.2,19.5-19.9,31-30.7,2-1.9,2.5-4.9,1.2-7.3-8.2-15.7-20.8-18.7-27.9-19.1h0l.2-.2ZM49,344.7h0ZM.8,341.1h0ZM.8,341.1h0ZM.8,341.1h0ZM.8,341.1h0ZM.8,341.1h0ZM.8,341h0ZM.8,341h0Z"/>
      </g>
      <g>
        <path class="cls-2" d="M74.5,285.7s7.4,14.1,15.5,26.2c3.1,4.6,9.3,6,14,3.1,5.7-3.4,12.5-7.7,16.3-11.1,7.2-6.4,21.2-21.3,25-26.7,6.8-9.8,2-9.9,5-20.1,1.5-4.9,2.6-18.2,4.8-18.8,3.6-.9,8.1,4.3,7.2,14.7-.7,8.5,3.5,11,4.6,15.2,1.9,7,1.8,10.6,1.8,10.6,0,0-44.3,54.4-65,70.9-6.4,5.1-15.1,6.1-22.5,2.8l-5.5-2.5-7.3-65,6.2.7h-.1Z"/>
        <path d="M90.2,354.8c-3.1,0-6.3-.7-9.3-2l-5.5-2.5c-.2,0-.3-.3-.3-.5l-7.3-65c0-.2,0-.3.2-.5s.3-.2.5-.1l6.2.7c.2,0,.3.1.5.3,0,.1,7.5,14.3,15.5,26.1,2.9,4.3,8.7,5.6,13.3,2.9,5.3-3.2,12.4-7.6,16.2-11,7.3-6.5,21.2-21.5,24.8-26.6,3.9-5.7,3.9-7.9,3.8-11,0-2.2-.1-4.7,1.2-8.9.5-1.7.9-4.4,1.5-7.2,1.4-7.8,2.2-11.5,3.8-11.9,1.4-.3,2.8,0,4.1,1.1,3,2.5,4.4,7.8,3.9,14.2-.5,5.5,1.2,8.5,2.7,11,.7,1.3,1.5,2.5,1.9,4,1.9,7,1.8,10.6,1.8,10.8s0,.3-.1.3c-.5.5-44.5,54.6-65.1,71-4,3.2-8.9,4.8-13.8,4.8h-.5ZM76.2,349.5l5.3,2.4c7.3,3.2,15.7,2.2,21.9-2.7,20-15.8,62.1-67.3,64.8-70.6,0-.8-.2-4.3-1.8-10.3-.3-1.3-1-2.4-1.8-3.7-1.6-2.7-3.4-5.8-2.8-11.7.6-7.1-1.4-11.5-3.4-13.2-.9-.8-2-1.2-3-.9-1.1.3-2.2,7-2.9,11-.5,2.9-1,5.6-1.5,7.4-1.2,4.1-1.2,6.5-1.1,8.6,0,3.2.1,5.8-4,11.7-3.7,5.3-17.5,20.1-25,26.8-3.9,3.5-11,8-16.4,11.2-5,3-11.6,1.6-14.8-3.3-7.4-11-14.3-23.9-15.4-26l-5.1-.6,7.2,63.9h-.2Z"/>
      </g>
      <path d="M180,285.8c-4.3,1.5-9.3-1.4-11-6.5l-26.7-78.4,15.6-5.3,26.8,78.5c1.7,5-.4,10.3-4.7,11.8h0Z"/>
      <path d="M177.7,286.8c-1.3,0-2.6-.3-3.8-.9-2.5-1.2-4.5-3.6-5.4-6.4l-26.7-78.4c-.1-.3,0-.7.3-.7l15.6-5.3h.5c.1,0,.3.2.3.3l26.8,78.5c1.8,5.3-.5,11-5.1,12.5h0c-.8.3-1.7.4-2.5.4h0ZM180,285.8h0ZM143.1,201.3l26.6,77.8c.9,2.6,2.6,4.7,4.9,5.8,1.8.9,3.7,1,5.4.4,4-1.4,5.9-6.3,4.3-11l-26.6-78-14.5,4.9h0Z"/>
      <path class="cls-2" d="M155.2,127.9l-50.6,36.1-19.7,20.4-7.7,13.7h0c-1.6,2.5-.7,8,2.2,13.5,2.8,5.5,6.8,9.3,9.6,9.5h0l14.9,1.6,27.8-4.5,59.1-21.1,73.4,12.6h.5c-18.5-3.4-43.4-28-61.4-62.9-18.1-34.8-23.8-69.3-15.9-86.2h0l-31.6,66.4-.4.9h-.2Z"/>
      <g>
        <ellipse class="cls-2" cx="235.9" cy="130.2" rx="37" ry="88.2" transform="translate(-33.4 123.2) rotate(-27.4)"/>
        <path d="M268.7,210.7c-7.9,0-17.4-4.4-27.7-13-13.9-11.6-27.6-29.6-38.5-50.7-16.5-31.8-23.3-64.4-17.3-83.2,2-6.2,5.3-10.6,9.9-12.9,9-4.6,21.7-.7,35.8,11.1,13.9,11.6,27.6,29.6,38.5,50.7,16.5,31.8,23.3,64.4,17.3,83.2-2,6.2-5.3,10.6-9.9,12.9-2.4,1.3-5.2,1.9-8.2,1.9h.1ZM203.3,50.4c-2.8,0-5.3.5-7.6,1.8-4.3,2.2-7.4,6.3-9.3,12.2-5.9,18.4.9,50.7,17.3,82.2,22.3,42.9,54.9,70.4,72.7,61.2,4.3-2.2,7.4-6.3,9.3-12.2,5.9-18.4-.9-50.7-17.3-82.2-19.4-37.4-46.6-63-65.1-63h0Z"/>
      </g>
      <path d="M268.7,210.7c-7.9,0-17.4-4.4-27.7-13-13.9-11.6-27.6-29.6-38.5-50.7-16.5-31.8-23.3-64.4-17.3-83.2,2-6.2,5.3-10.6,9.9-12.9,6.1-3.1,13.9-2.4,22.8,2.2,8.5,4.4,17.7,12.2,26.7,22.5.2.3.2.6,0,.8-.3.2-.6.2-.8,0-18.2-20.9-36.7-30.3-48.1-24.4-4.3,2.2-7.4,6.3-9.3,12.2-5.9,18.4.9,50.7,17.3,82.2,19.4,37.4,46.6,63,65.1,63s5.3-.5,7.6-1.8c4.3-2.2,7.4-6.3,9.3-12.2,5.9-18.4-.9-50.7-17.3-82.2-4.9-9.4-10.4-18.3-16.2-26.3-.2-.3-.1-.6.1-.8.3-.2.6,0,.8,0,6,8.1,11.4,17,16.3,26.5,16.5,31.8,23.3,64.4,17.3,83.2-2,6.2-5.3,10.6-9.9,12.9-2.4,1.3-5.2,1.9-8.2,1.9h.1Z"/>
      <g>
        <ellipse class="cls-2" cx="226.1" cy="135.3" rx="8.6" ry="20.4" transform="translate(-36.9 119.2) rotate(-27.4)"/>
        <path d="M233.7,154.2c-4.6,0-11-6-15.7-15-3.9-7.4-5.5-15.2-4.1-19.6.5-1.6,1.4-2.6,2.5-3.2,4.6-2.4,12.4,4,17.8,14.5,3.9,7.4,5.5,15.2,4.1,19.6-.5,1.6-1.4,2.6-2.5,3.2-.6.3-1.4.5-2.1.5h0ZM218.5,117.2c-.5,0-1.1,0-1.6.3-.9.5-1.6,1.3-1.9,2.6-1.4,4.1.2,11.5,4,18.7,4.9,9.5,12.4,16,16.2,14,.9-.5,1.6-1.3,1.9-2.6,1.4-4.1-.2-11.5-4-18.7-4.3-8.4-10.6-14.3-14.7-14.3h0Z"/>
      </g>
      <path d="M264.6,200.7c-6.9,0-15.3-3.9-24.2-11.4-12.2-10.2-24.2-26-33.7-44.3-14.4-27.9-20.4-56.4-15.2-72.8,1.8-5.5,4.7-9.3,8.7-11.4,9.2-4.7,22.7.7,37.1,14.9.2.2.2.6,0,.8s-.6.2-.8,0c-14-13.8-27.1-19.1-35.7-14.7-3.7,1.9-6.4,5.5-8.1,10.7-5.1,16.1.7,44.3,15.1,71.9,16.9,32.6,40.7,55.1,56.8,55.1s4.7-.5,6.7-1.6c3.7-1.9,6.4-5.5,8.1-10.7,5.1-16.1-.7-44.3-15.1-71.9-4.3-8.3-9.1-16.2-14.3-23.2-.2-.3-.1-.6.1-.8.3-.2.6,0,.8,0,5.3,7.1,10.1,15,14.5,23.4,14.4,27.9,20.4,56.4,15.2,72.8-1.8,5.5-4.7,9.3-8.7,11.4-2.2,1.1-4.6,1.7-7.2,1.7h-.1Z"/>
      <path d="M103.7,223.3h0l-14.9-1.6h-.3c-3-.5-7-4.3-9.7-9.8-3-5.8-3.9-11.3-2.2-13.9h0l7.8-13.8h0c0-.1,19.7-20.5,19.7-20.5h0l50.5-36.1,31.9-67.1c0,0,.2-.3.3-.3h.5c.3,0,.4.5.3.8-8.1,17.3-1.7,51.8,15.9,85.7,17.6,34,42.2,59.1,61,62.6.3,0,.5.3.5.6s-.3.5-.6.5h-.6l-73.2-12.5-58.9,21h-.1l-27.8,4.5h0ZM89.2,220.6l14.5,1.6,27.7-4.4,59-21.1h.3l66,11.3c-17.8-7.8-38.6-30.9-54.1-60.8-15.4-29.6-22.2-59.7-18.5-78.7l-28.4,59.7s-.1,0-.2.2l-50.5,36.1-19.6,20.4-7.7,13.7h0c-1.4,2.2-.5,7.6,2.2,12.8,2.6,5.1,6.5,9,9.1,9.2h.3-.1Z"/>
      <g>
        <path class="cls-2" d="M155.3,127.7l31.9-67.1h0c-7.9,17-2.2,51.4,15.9,86.3,18.1,34.8,43,59.5,61.4,62.9h-.5l-73.3-12.6-1.7-.3c-8.5-1.5-19.9-12.6-28-28.4-8.3-16.2-9.8-32.3-6.2-40.1l.4-.8h.1Z"/>
        <path d="M264.5,210.3h-.6l-73.3-12.6-1.7-.3c-9-1.6-20.4-13.1-28.5-28.7-9.1-17.7-9.5-33.4-6.2-40.6l.4-.8,31.9-67.1c0,0,.2-.3.3-.3h.5c.3,0,.4.5.3.8-8.1,17.3-1.7,51.8,15.9,85.7,17.6,34,42.2,59.1,61,62.6.3,0,.5.3.5.6s-.3.5-.6.5h0v.2ZM184.1,68.4l-28.3,59.5h0l-.4.8c-3.4,7.1-2.4,22.9,6.2,39.5,7.8,15.3,18.9,26.5,27.6,28.1l1.7.3,65.8,11.3c-17.8-7.8-38.6-30.9-54.1-60.8-15.4-29.6-22.2-59.7-18.5-78.7h0ZM155.3,127.7h0Z"/>
      </g>
      <path d="M103,223.3h0l-14.1-1.5h-.3c-3-.5-7-4.3-9.7-9.8-3-5.8-3.9-11.3-2.2-13.9h0l7.8-13.8c0-.3.5-.4.8-.2.3.1.4.5.2.8l-7.8,13.7h0c-1.4,2.2-.5,7.6,2.2,12.8,2.6,5.1,6.5,9,9.1,9.2h.3l13.7,1.5c.3,0,.5.3.5.7s-.3.5-.6.5h0Z"/>
      <g>
        <path class="cls-2" d="M103.8,222.7c-4.6-.3-11-6.8-15.6-15.8-4.9-9.5-6.1-19.3-3-22.8l-8.1,14h0c-1.6,2.5-.7,8,2.2,13.5,2.8,5.5,6.8,9.3,9.6,9.5h0l15,1.6h0Z"/>
        <path d="M103.8,223.3h-.3l-14.7-1.5h-.3c-3-.5-7-4.3-9.7-9.8-3-5.8-3.9-11.3-2.2-13.9h0l7.1-12.4c.3-.7.6-1.3,1.1-1.8s.5-.3.8,0c.3.2.3.5.2.7l-1,1.7c-1.6,4.3,0,12.7,4.1,20.5,4.5,8.6,10.5,14.8,14.8,15.4h.3c.3,0,.5.3.5.7s-.3.5-.6.5h-.1ZM89.2,220.6l10.3,1c-4-2.5-8.3-7.7-11.8-14.5-3.4-6.5-5-13.2-4.7-18l-5.3,9.3h0c-1.4,2.2-.5,7.6,2.2,12.8,2.6,5.1,6.5,9,9.1,9.2h.3v.2Z"/>
      </g>
      <path d="M104.3,223.2c-4.9,0-11.7-6.6-16.6-16-5-9.7-6.3-19.8-2.9-23.5l18.3-19c.3-.4.7-.8,1.1-1.2.3-.2.6-.1.8,0,.2.2.2.6,0,.8l-1.1,1.1c-3.7,5-1.9,17.8,4.7,30.4,7,13.6,16.8,22.9,22.9,21.8h0c.3,0,.6.1.7.5,0,.3-.1.6-.5.7h0l-1.1.2h0l-26.2,4.2h-.2.1ZM101.5,168l-15.9,16.5c-3,3.3-1.6,13.1,3.1,22.2,4.6,8.9,11.2,15.4,15.6,15.4l23.1-3.7c-6.2-2.2-13.9-10.5-19.8-21.9-5.6-10.9-7.8-21.9-6-28.4h0Z"/>
      <g>
        <path class="cls-2" d="M175.3,232.7c-2.1.4-8.1,4.1-7.8,13.9.2,6.1,4.7,8.8,8,9.9,2.3.8,4.1,2.6,4.9,4.9l1.8,5.5s11.8-37.9-6.9-34.2h0Z"/>
        <path d="M182.3,267.4c-.3,0-.5-.1-.5-.4l-1.8-5.5c-.7-2.2-2.4-3.8-4.5-4.5-5.3-1.8-8.3-5.5-8.4-10.5-.3-9.6,5.4-13.9,8.3-14.5,3.6-.7,6.4,0,8.3,2.2,7,7.8-.3,31.8-.7,32.8,0,.3-.3.4-.5.4h-.2ZM177.7,233c-.7,0-1.5,0-2.3.3-1.6.3-7.6,3.5-7.3,13.3.2,5.7,4.3,8.3,7.6,9.4,2.5.9,4.5,2.8,5.3,5.3l1.2,3.7c1.6-5.8,5.9-23.8.4-29.8-1.2-1.4-2.8-2-4.9-2h0v-.2ZM175.3,232.7h0Z"/>
      </g>
      <g>
        <g>
          <path class="cls-2" d="M6.1,234.5s8.2,4,13.1,11.6,19.8,18.9,23.4,17.8.5-8.9-.9-14c-1.6-5.1-5.7-8.7-5.7-8.7,0,0,3.6-9.9,5.9-15.9,1.2-3,2-6.1,2.7-8.4.5-2,2.4-3.2,4.5-2.8,3.6.5,8.9,1.1,11.2,0,2.6-1.4,2-9.4,1.6-13.8-.2-1.8.3-3.5,1.3-4.9s1.2-2.2,1.3-2.7c0,0-.2-.7-3.6-3.4-3.5-2.7-3.9-7.4-4.2-8.9-2.2-8.5-6.6-14.3-9.3-15.9,0,0-3.1,20.6-10.4,24.6,0,0-3,2.1-8.3-1.2,0,0-4.7-1.7-6.4,2s3.7,10.5,1.4,19.5c-1.2,4.5-8.1,22.7-17.4,25.3h-.1v-.2Z"/>
          <path d="M42.1,264.5c-4.9,0-18.8-11.2-23.4-18.1-4.8-7.4-12.8-11.3-12.9-11.4-.2-.1-.3-.3-.3-.6s.2-.5.4-.5c8.6-2.4,15.6-19.4,17-24.9,1.3-4.9,0-9.3-.9-12.7-.7-2.8-1.4-5.1-.5-6.8,1.6-3.3,5.3-3,7.2-2.3h0c4.9,3,7.5,1.2,7.6,1.2h0c7-3.8,10.1-24,10.1-24.2s0-.3.3-.5h.5c2.6,1.6,7.2,7.2,9.5,16.2,0,.2,0,.5.2.9.4,2,1.1,5.5,3.9,7.7,2.3,1.8,3.7,3.1,3.8,3.7v.3c-.2.6-.8,2.1-1.4,2.9-.9,1.3-1.4,2.9-1.2,4.5.7,5.8.9,12.9-1.8,14.3-2.4,1.2-7.6.7-11.5.1-1.7-.3-3.3.7-3.8,2.4-.6,2.2-1.5,5.4-2.7,8.5-2,5.3-5.1,13.7-5.8,15.5,1,.9,4.3,4.3,5.5,8.7.2.7.4,1.4.7,2.1.7,2.4,1.6,5.2,2,7.5.3,2.8-.3,4.6-2,5.1h-.7v.4ZM7.5,234.6c2.5,1.4,8.3,5.1,12.2,11.1,5.1,7.8,19.7,18.5,22.7,17.6.4-.1,1.6-.5,1.2-3.9-.3-2.2-1.2-4.9-1.9-7.3-.2-.7-.5-1.5-.7-2.1-1.5-4.9-5.5-8.5-5.5-8.5-.2-.1-.3-.4,0-.7,0,0,3.7-9.9,5.9-15.9,1.2-3,2.1-6.2,2.6-8.4.6-2.2,2.8-3.7,5.1-3.3,5.3.8,9.1.8,10.8,0,1.6-.9,2.1-5.8,1.2-13.2-.2-1.9.3-3.8,1.4-5.3.4-.6.9-1.7,1.2-2.3-.3-.3-1-1.2-3.3-3-3.1-2.4-3.9-6.5-4.3-8.4,0-.3,0-.6,0-.8-2-7.8-5.8-13.1-8.3-15-.7,4.1-3.9,20.4-10.6,24-.4.3-3.6,2.2-8.9-1.1-.5-.2-4.3-1.3-5.6,1.7-.7,1.4,0,3.5.6,6,.9,3.6,2.2,8.1.9,13.3-.9,3.5-7.2,21.2-16.5,25.3h0v.2Z"/>
        </g>
        <path d="M35.9,249c-.3,0-.5-.1-.5-.4s-1.4-4,.4-8.5c0-.3.5-.5.7-.3.3.1.5.5.3.7-1.6,4.1-.4,7.6-.3,7.6,0,.3,0,.7-.3.7h-.3v.2Z"/>
        <path d="M30.9,203.5c-3.9,0-7.2-4-8.6-6.6,0-.3,0-.7.3-.8s.7,0,.8.3c0,0,4.5,8.2,9.9,5.3.3-.1.7,0,.8.3s0,.7-.3.8c-1,.5-2,.7-2.9.7h0Z"/>
      </g>
      <path d="M12.5,458.5h0c-1.3,0-2.5-.5-3.4-1.5s-1.4-2.2-1.4-3.5c0-2.6,2.2-4.7,4.9-4.7s2.5.5,3.4,1.5,1.4,2.2,1.4,3.5c0,2.6-2.2,4.7-4.8,4.7ZM12.5,450c-2,0-3.6,1.6-3.7,3.5,0,.9.3,1.9,1,2.6s1.6,1.1,2.6,1.2h0c2,0,3.6-1.6,3.7-3.5,0-.9-.3-1.9-1-2.6s-1.6-1.1-2.6-1.2h0Z"/>
      <g>
        <path d="M30.1,475h-.3c-.3-.1-.4-.5-.2-.8l2-3.6c0-.3.5-.4.8-.2.3.1.4.5.2.8l-2,3.6c0,.2-.3.3-.5.3h0Z"/>
        <path d="M37,462.5h-.3c-.3-.1-.4-.5-.2-.8l2-3.6c0-.3.5-.4.8-.2.3.1.4.5.2.8l-2,3.6c0,.2-.3.3-.5.3h0Z"/>
        <path d="M42.7,471.3h-.3l-3.6-2c-.3-.1-.4-.5-.2-.8,0-.3.5-.4.8-.2l3.6,2c.3.1.4.5.2.8,0,.2-.3.3-.5.3h0Z"/>
        <path d="M30.1,464.5h-.3l-3.6-2c-.3-.1-.4-.5-.2-.8,0-.3.5-.4.8-.2l3.6,2c.3.1.4.5.2.8,0,.2-.3.3-.5.3h0Z"/>
      </g>
      <path d="M287.7,114c-.2,0-.4,0-.5-.3-.1-.3,0-.7.3-.8l35-18.6c.3,0,.7,0,.8.3s0,.7-.3.8l-35,18.6h-.3Z"/>
      <ellipse cx="155.3" cy="416.9" rx="4.6" ry="4.5"/>
      <path class="cls-4" d="M266.6,74c-9.7-9.9-9.5-25.7.5-35.4s25.8-9.5,35.5.3c9.7,9.9,9.5,25.7-.5,35.4s-25.8,9.5-35.5-.3Z"/>
      <path class="cls-3" d="M273.1,50.9c1.2-1.6,2.9-2.6,4.9-2.8,1.5-.1,2.9.1,4.2.9.7.4,1.3.9,1.8,1.6.4-.7.9-1.4,1.4-1.9,1.1-1.1,2.4-1.7,3.9-1.8,2-.2,3.9.4,5.4,1.7s2.4,3.2,2.6,5.3c.3,2.2-.3,4.3-1.9,6.6-1.4,2-3.4,4.2-5.8,6.8-.8.9-1.7,1.8-2.6,2.8-.3.3-.6.5-.9.5s-.7,0-1-.3c-1.2-.8-2.2-1.6-3.2-2.2-2.8-2-5.3-3.6-7.1-5.3-2-1.9-3-3.9-3.2-6s.3-4.2,1.4-5.8h.1Z"/>
      <circle class="cls-4" cx="349.6" cy="63.7" r="23"/>
      <path class="cls-4" d="M355.8,66c-1.3,0-2.4.6-3.2,1.6l-7.8-3v-.9l8-3.7c.7.8,1.8,1.4,3,1.4,2.2,0,4-1.8,4-4.1s-1.8-4.1-4-4.1-4,1.8-4,4.1v.5l-8,3.7c-.7-.8-1.8-1.4-3-1.4-2.2,0-4,1.8-4,4.1s1.8,4.1,4,4.1,2.4-.6,3.2-1.6l7.8,3v.3c0,2.2,1.8,4.1,4,4.1s4-1.8,4-4.1-1.8-4.1-4-4.1h0Z"/>
      <path class="cls-4" d="M322.1,131.4c2.2-12.6,14.2-21.1,26.9-19,12.7,2.1,21.1,14.1,18.9,26.7s-14.2,21.1-26.9,19c-12.7-2.1-21.1-14.1-18.9-26.7h0Z"/>
      <path class="cls-1" d="M339.8,146.7l-3.4-18.3c-.2-.9.7-1.8,1.6-1.5l20,5.7c1,.3,1.3,1.6.4,2.2l-16.6,12.7c-.7.6-1.9,0-2-.8h0Z"/>
      <g>
        <path class="cls-4" d="M344.8,200.3c-.3,6.5-11.3,21.8-13.9,25.4-.3.3-.8.3-1.1,0-1.7-2.7-7.2-11.7-10-19-1.2-2.9-1.9-5.5-1.8-7.4.3-7.4,6.6-13.2,14-12.9s13.2,6.6,12.9,14h-.1Z"/>
        <circle class="cls-4" cx="331.4" cy="199.6" r="6.2"/>
      </g>
    </g>
  </g>
</svg>