<?xml version="1.0" encoding="UTF-8"?>
<svg xmlns="http://www.w3.org/2000/svg" version="1.1" viewBox="0 0 400 300">
  <defs>
    <style>
      .cls-1 {
        fill: none;
        stroke: #000;
        stroke-miterlimit: 10;
        stroke-width: .8px;
      }
    </style>
  </defs>
  <!-- Generator: Adobe Illustrator 28.6.0, SVG Export Plug-In . SVG Version: 1.2.0 Build 709)  -->
  <g>
    <g id="Layer_1">
      <path class="cls-1" d="M202,218c19.3,0,35-15.7,35-35s-15.7-35-35-35-35,15.7-35,35,15.7,35,35,35ZM202,152.3c17,0,30.8,13.8,30.8,30.8s-13.8,30.8-30.8,30.8-30.8-13.8-30.8-30.8,13.8-30.8,30.8-30.8Z"/>
      <path class="cls-1" d="M202,204.8c9.6,0,17.5-7,17.5-15.7s-.8-1.6-1.8-1.6-1.8.7-1.8,1.6c0,6.9-6.2,12.5-13.9,12.5s-13.9-5.6-13.9-12.5-.8-1.6-1.8-1.6-1.8.7-1.8,1.6c0,8.7,7.9,15.7,17.5,15.7h0Z"/>
      <path class="cls-1" d="M185.6,178.9c1.2,0,2.1-.9,2.1-2.1s1.2-2.7,2.7-2.7,2.7,1.2,2.7,2.7.9,2.1,2.1,2.1,2.1-.9,2.1-2.1c0-3.8-3.1-6.9-6.9-6.9s-6.9,3.1-6.9,6.9.9,2.1,2.1,2.1h0Z"/>
      <path class="cls-1" d="M208.8,178.9c1.2,0,2.1-.9,2.1-2.1s1.2-2.7,2.7-2.7,2.7,1.2,2.7,2.7.9,2.1,2.1,2.1,2.1-.9,2.1-2.1c0-3.8-3.1-6.9-6.9-6.9s-6.9,3.1-6.9,6.9.9,2.1,2.1,2.1h0Z"/>
      <path class="cls-1" d="M273.8,95.4c0-1.2-.9-2.1-2.1-2.1h-143.3c-1.2,0-2.1.9-2.1,2.1s.9,2.1,2.1,2.1h143.3c1.2,0,2.1-.9,2.1-2.1Z"/>
      <path class="cls-1" d="M133.6,83.5c5,0,9-4.1,9-9s-4.1-9-9-9-9,4.1-9,9,4.1,9,9,9ZM133.6,69.6c2.7,0,4.8,2.2,4.8,4.8s-2.2,4.8-4.8,4.8-4.8-2.2-4.8-4.8,2.2-4.8,4.8-4.8Z"/>
      <path class="cls-1" d="M153.4,83.5c5,0,9-4.1,9-9s-4.1-9-9-9-9,4.1-9,9,4.1,9,9,9ZM153.4,69.6c2.7,0,4.8,2.2,4.8,4.8s-2.2,4.8-4.8,4.8-4.8-2.2-4.8-4.8,2.2-4.8,4.8-4.8Z"/>
      <path class="cls-1" d="M173.2,83.5c5,0,9-4.1,9-9s-4.1-9-9-9-9,4.1-9,9,4.1,9,9,9ZM173.2,69.6c2.7,0,4.8,2.2,4.8,4.8s-2.2,4.8-4.8,4.8-4.8-2.2-4.8-4.8,2.2-4.8,4.8-4.8Z"/>
      <path class="cls-1" d="M262.6,225.9h-12.2v-85.7h27.4c10.2,0,18.6-8.3,18.6-18.6v-52.4c0-10.2-8.3-18.6-18.6-18.6H122.4c-10.2,0-18.6,8.3-18.6,18.6v52.4c0,10.2,8.3,18.6,18.6,18.6h32.9v87.8c0,5.7,2.2,11.1,6.3,15.1,4.1,4.1,9.4,6.3,15.1,6.3h66.7c11.8,0,21.4-9.6,21.4-21.4s-.9-2.1-2.1-2.1h-.1ZM122.4,136c-7.9,0-14.4-6.4-14.4-14.4v-52.4c0-7.9,6.4-14.4,14.4-14.4h155.3c7.9,0,14.4,6.4,14.4,14.4v52.4c0,7.9-6.4,14.4-14.4,14.4h-6.2v-7.7c0-4.1-3.3-7.4-7.4-7.4h-128c-4.1,0-7.4,3.3-7.4,7.4v7.7h-6.3ZM132.8,128.3c0-1.8,1.4-3.2,3.2-3.2h128c1.8,0,3.2,1.4,3.2,3.2v7.7h-134.4v-7.7h0ZM159.4,228v-87.8h86.6v85.7h-50.2c-1.2,0-2.1.9-2.1,2.1s0,0,0,0c0,9.5-7.7,17.2-17.2,17.2s-8.9-1.8-12.1-5.1c-3.3-3.3-5-7.6-5-12.1h0ZM243.4,245.2h-54c4.7-3.5,8-8.9,8.6-15.1h62.5c-1,8.5-8.3,15.1-17.1,15.1Z"/>
    </g>
  </g>
</svg>